<?xml version="1.0" encoding="utf-8"?>
<!-- Generator: Adobe Illustrator 27.1.0, SVG Export Plug-In . SVG Version: 6.00 Build 0)  -->
<svg version="1.1" id="Layer_1" xmlns="http://www.w3.org/2000/svg" xmlns:xlink="http://www.w3.org/1999/xlink" x="0px" y="0px"
	 viewBox="0 0 381.1 80.8" style="enable-background:new 0 0 381.1 80.8;" xml:space="preserve">
<style type="text/css">
	.st0{fill:#F37A20;}
	.st1{fill:#0D77B3;}
</style>
<g id="XMLID_4_">
	<path id="XMLID_5_" class="st0" d="M1.9,25.2c0-3.9,2.4-6.5,5.9-6.5c3.3,0,5.1,1.8,5.9,4.9c2.2-3.6,6.8-5.4,11.2-5.4
		c12.6,0,18.9,11.8,18.9,23.2c0,11.1-7.5,22.1-19.3,22.1c-3.7,0-7.7-1.4-10.7-4.1v14.3c0,3.9-2.4,6.5-5.9,6.5
		c-3.4,0-5.9-2.6-5.9-6.5V25.2z M22.8,52.7c6.1,0,9.1-6.4,9.1-11.8c0-5.5-3-12-9.1-12c-6.3,0-9.2,5.9-9.2,11.6S16.4,52.7,22.8,52.7z
		"/>
	<path id="XMLID_8_" class="st0" d="M46.3,24.5c0-3.9,3.1-5.9,6-5.9c3.1,0,5.7,1.1,5.7,4.9h0.2c2.2-3.3,4.6-4.9,8.2-4.9
		c2.9,0,5.7,2,5.7,6.3c0,3.8-3.5,4.1-7,5.7S58,33.8,58,38.5v18c0,3.9-2.4,6.5-5.9,6.5c-3.4,0-5.9-2.6-5.9-6.5V24.5z"/>
	<path id="XMLID_10_" class="st0" d="M110.2,40.9c0,12.2-8.4,22.6-21,22.6c-12.6,0-21-10.3-21-22.6c0-11.9,8.6-22.7,21-22.7
		C101.6,18.2,110.2,29,110.2,40.9z M79.9,40.9c0,5.6,2.9,11.8,9.3,11.8c6.4,0,9.3-6.2,9.3-11.8c0-5.6-2.9-12-9.3-12
		C82.8,28.9,79.9,35.3,79.9,40.9z"/>
	<path id="XMLID_17_" class="st0" d="M113,25.2c0-3.9,2.4-6.5,5.9-6.5c3.3,0,5.1,1.8,5.9,4.9c2.2-3.6,6.8-5.4,11.2-5.4
		c12.6,0,18.9,11.8,18.9,23.2c0,11.1-7.5,22.1-19.3,22.1c-3.7,0-7.7-1.4-10.7-4.1v14.3c0,3.9-2.4,6.5-5.9,6.5
		c-3.4,0-5.9-2.6-5.9-6.5V25.2z M133.9,52.7c6.1,0,9.1-6.4,9.1-11.8c0-5.5-3-12-9.1-12c-6.3,0-9.2,5.9-9.2,11.6
		S127.5,52.7,133.9,52.7z"/>
	<path id="XMLID_20_" class="st1" d="M157.5,6.3c0-3.9,2.4-6.5,5.9-6.5c3.4,0,5.9,2.6,5.9,6.5v16c3.1-2.7,7.1-4.1,11.2-4.1
		c12.6,0,18.9,11.8,18.9,23.2c0,11.1-7.5,22.1-19.3,22.1c-4,0-8.6-1.8-10.7-5.4c-0.7,3.1-2.6,4.9-5.9,4.9c-3.4,0-5.9-2.6-5.9-6.5
		V6.3z M178.4,52.7c6.1,0,9.1-6.4,9.1-11.8c0-5.5-3-12-9.1-12c-6.3,0-9.2,5.9-9.2,11.6S172,52.7,178.4,52.7z"/>
	<path id="XMLID_23_" class="st1" d="M202,25.2c0-3.9,2.4-6.5,5.9-6.5c3.4,0,5.9,2.6,5.9,6.5v20.9c0,4.9,3.7,7.6,7.6,7.6
		c3.9,0,7.6-2.7,7.6-7.6V25.2c0-3.9,2.4-6.5,5.9-6.5c3.4,0,5.9,2.6,5.9,6.5v21.2c0,10.4-6.9,17.1-19.3,17.1
		c-12.4,0-19.3-6.7-19.3-17.1V25.2z"/>
	<path id="XMLID_25_" class="st1" d="M242.2,26.7c-0.3-0.9-0.6-1.8-0.6-3c0-2.9,3.1-5,5.5-5c2.8,0,4.9,1.5,5.9,4.2l8.1,22.1
		l8.6-22.1c1-2.6,3-4.2,5.9-4.2c2.4,0,5.5,2.1,5.5,5c0,1.2-0.2,2.1-0.6,3l-19.6,48.9c-1,2.4-2.8,4.6-5.5,4.6c-4,0-6.1-2.5-6.1-5
		c0-1.1,0.3-2.4,0.7-3.4l5.1-12.7L242.2,26.7z"/>
	<path id="XMLID_27_" class="st1" d="M294.4,7.5c0,3.7-2.9,6.8-6.6,6.8c-3.5,0-6.6-3.2-6.6-6.8c0-3.3,3.1-6.4,6.6-6.4
		C291.3,1.1,294.4,4.1,294.4,7.5z M281.9,25.2c0-3.9,2.4-6.5,5.9-6.5c3.4,0,5.9,2.6,5.9,6.5v31.3c0,3.9-2.4,6.5-5.9,6.5
		c-3.4,0-5.9-2.6-5.9-6.5V25.2z"/>
	<path id="XMLID_30_" class="st1" d="M298,25.2c0-3.9,2.4-6.5,5.9-6.5c3,0,5,1.6,5.4,4.3c2.3-3.2,5.8-4.8,11.3-4.8
		c9.2,0,16,5.9,16,15.8v22.5c0,3.9-2.4,6.5-5.9,6.5c-3.4,0-5.9-2.6-5.9-6.5V36c0-5.5-3.4-8.1-7.7-8.1c-4.8,0-7.5,3.5-7.5,8.1v20.4
		c0,3.9-2.4,6.5-5.9,6.5c-3.4,0-5.9-2.6-5.9-6.5V25.2z"/>
	<path id="XMLID_32_" class="st1" d="M381.1,59.1c0,14.1-9.2,21.2-22.6,21.2c-4.8,0-18.5-2.4-18.5-8.8c0-2.2,2.4-5.1,4.7-5.1
		c3.7,0,7.9,3.7,14.7,3.7c5.7,0,9.9-3.3,9.9-9.3v-2.8h-0.2c-2.4,3.6-6.4,5.5-11.8,5.5c-12.3,0-18.1-10.8-18.1-22.5
		c0-11.8,7.5-22.8,19.3-22.8c4,0,8.6,1.8,10.7,5.4c0.7-3.1,2.6-4.9,5.9-4.9c3.4,0,5.9,2.6,5.9,6.5V59.1z M360.2,28.9
		c-6.1,0-9.1,6.4-9.1,11.8c0,6.3,3,12,9.1,12c6.3,0,9.2-5.9,9.2-11.6S366.6,28.9,360.2,28.9z"/>
</g>
</svg>
