<svg width="382" height="81" viewBox="0 0 382 81" fill="none" xmlns="http://www.w3.org/2000/svg">
<g clip-path="url(#clip0_409_2)">
<path d="M0 25.5302C0 21.6002 2.46 18.9802 5.89 18.9802C9.32 18.9802 11.05 20.7802 11.78 23.8902C13.99 20.2902 18.57 18.4902 22.99 18.4902C35.67 18.4902 41.98 30.3602 41.98 41.8102C41.98 53.2602 34.45 63.9902 22.59 63.9902C18.91 63.9902 14.9 62.6002 11.79 59.9002V74.3002C11.79 78.2302 9.33 80.8502 5.9 80.8502C2.47 80.8502 0.01 78.2302 0.01 74.3002V25.5302H0ZM21.03 53.1902C27.17 53.1902 30.2 46.8102 30.2 41.3202C30.2 35.8302 27.17 29.2902 21.03 29.2902C14.89 29.2902 11.78 35.1802 11.78 40.9102C11.78 46.6402 14.56 53.1802 21.03 53.1802V53.1902Z" fill="black"/>
<path d="M44.6001 24.8802C44.6001 20.9502 47.7101 18.9902 50.6601 18.9902C53.7701 18.9902 56.3901 20.1402 56.3901 23.9002H56.5501C58.7601 20.6302 61.1301 18.9902 64.8201 18.9902C67.6801 18.9902 70.5501 21.0402 70.5501 25.2902C70.5501 29.1402 67.0301 29.3802 63.5101 31.0202C59.9901 32.6602 56.3901 34.2102 56.3901 38.8802V56.9602C56.3901 60.8902 53.9301 63.5102 50.5001 63.5102C47.0701 63.5102 44.6101 60.8902 44.6101 56.9602V24.8802H44.6001Z" fill="black"/>
<path d="M108.84 41.33C108.84 53.6 100.41 64 87.7301 64C75.0501 64 66.6201 53.61 66.6201 41.33C66.6201 29.05 75.2901 18.5 87.7301 18.5C100.17 18.5 108.84 29.38 108.84 41.33ZM78.4001 41.33C78.4001 46.98 81.3501 53.2 87.7301 53.2C94.1101 53.2 97.0601 46.98 97.0601 41.33C97.0601 35.68 94.2001 29.3 87.7301 29.3C81.2601 29.3 78.4001 35.68 78.4001 41.33Z" fill="black"/>
<path d="M111.62 25.5302C111.62 21.6002 114.08 18.9802 117.51 18.9802C120.94 18.9802 122.67 20.7802 123.4 23.8902C125.61 20.2902 130.19 18.4902 134.61 18.4902C147.29 18.4902 153.6 30.3602 153.6 41.8102C153.6 53.2602 146.07 63.9902 134.21 63.9902C130.53 63.9902 126.52 62.6002 123.41 59.9002V74.3002C123.41 78.2302 120.95 80.8502 117.52 80.8502C114.09 80.8502 111.63 78.2302 111.63 74.3002V25.5302H111.62ZM132.65 53.1902C138.79 53.1902 141.82 46.8102 141.82 41.3202C141.82 35.8302 138.79 29.2902 132.65 29.2902C126.51 29.2902 123.4 35.1802 123.4 40.9102C123.4 46.6402 126.18 53.1802 132.65 53.1802V53.1902Z" fill="black"/>
<path d="M156.38 6.55C156.38 2.62 158.84 0 162.27 0C165.7 0 168.16 2.62 168.16 6.55V22.59C171.27 19.89 175.28 18.5 179.37 18.5C192.05 18.5 198.36 30.37 198.36 41.82C198.36 53.27 190.83 64 178.97 64C174.96 64 170.38 62.2 168.17 58.6C167.43 61.71 165.55 63.51 162.28 63.51C158.84 63.51 156.39 60.89 156.39 56.96V6.55H156.38ZM177.41 53.2C183.55 53.2 186.58 46.82 186.58 41.33C186.58 35.84 183.55 29.3 177.41 29.3C171.27 29.3 168.16 35.19 168.16 40.92C168.16 46.65 170.94 53.19 177.41 53.19V53.2Z" fill="black"/>
<path d="M201.15 25.53C201.15 21.6 203.61 18.98 207.04 18.98C210.47 18.98 212.93 21.6 212.93 25.53V46.56C212.93 51.47 216.61 54.17 220.54 54.17C224.47 54.17 228.15 51.47 228.15 46.56V25.53C228.15 21.6 230.61 18.98 234.04 18.98C237.47 18.98 239.93 21.6 239.93 25.53V46.81C239.93 57.28 232.97 64 220.54 64C208.11 64 201.15 57.29 201.15 46.81V25.53Z" fill="black"/>
<path d="M241.49 27.0902C241.16 26.1902 240.92 25.2902 240.92 24.0602C240.92 21.1102 244.03 18.9902 246.49 18.9902C249.35 18.9902 251.4 20.5402 252.38 23.1602L260.48 45.3402L269.15 23.1602C270.13 20.5402 272.18 18.9902 275.04 18.9902C277.5 18.9902 280.6 21.1202 280.6 24.0602C280.6 25.2902 280.44 26.1902 280.03 27.0902L260.31 76.1902C259.33 78.6502 257.53 80.8602 254.75 80.8602C250.74 80.8602 248.61 78.3202 248.61 75.7902C248.61 74.6402 248.94 73.4202 249.35 72.3502L254.51 59.5802L241.5 27.0902H241.49Z" fill="black"/>
<path d="M293.95 7.77006C293.95 11.4501 291 14.5601 287.32 14.5601C283.64 14.5601 280.69 11.3701 280.69 7.77006C280.69 4.42006 283.8 1.31006 287.32 1.31006C290.84 1.31006 293.95 4.34006 293.95 7.77006ZM281.43 25.5301C281.43 21.6001 283.89 18.9801 287.32 18.9801C290.75 18.9801 293.21 21.6001 293.21 25.5301V56.9501C293.21 60.8801 290.75 63.5001 287.32 63.5001C283.89 63.5001 281.43 60.8801 281.43 56.9501V25.5301Z" fill="black"/>
<path d="M297.55 25.5302C297.55 21.6002 300.01 18.9802 303.44 18.9802C306.47 18.9802 308.43 20.6202 308.84 23.3202C311.13 20.1302 314.65 18.4902 320.21 18.4902C329.46 18.4902 336.33 24.3802 336.33 34.3702V56.9602C336.33 60.8902 333.87 63.5102 330.44 63.5102C327.01 63.5102 324.55 60.8902 324.55 56.9602V36.4202C324.55 30.9402 321.11 28.3202 316.86 28.3202C312.03 28.3202 309.33 31.8402 309.33 36.4202V56.9602C309.33 60.8902 306.88 63.5102 303.44 63.5102C300 63.5102 297.55 60.8902 297.55 56.9602V25.5302Z" fill="black"/>
<path d="M381.1 59.58C381.1 73.74 371.85 80.86 358.43 80.86C353.6 80.86 339.85 78.49 339.85 72.02C339.85 69.81 342.31 66.86 344.6 66.86C348.36 66.86 352.54 70.54 359.33 70.54C365.06 70.54 369.31 67.19 369.31 61.21V58.43H369.15C366.69 62.03 362.69 64 357.28 64C344.92 64 339.11 53.12 339.11 41.41C339.11 29.7 346.64 18.5 358.5 18.5C362.51 18.5 367.09 20.3 369.3 23.9C370.04 20.79 371.92 18.99 375.19 18.99C378.63 18.99 381.08 21.61 381.08 25.54V59.58H381.1ZM360.07 29.3C353.93 29.3 350.9 35.68 350.9 41.17C350.9 47.47 353.93 53.2 360.07 53.2C366.21 53.2 369.32 47.31 369.32 41.58C369.32 35.85 366.54 29.3 360.07 29.3Z" fill="black"/>
</g>
<defs>
<clipPath id="clip0_409_2">
<rect width="381.1" height="80.85" fill="white"/>
</clipPath>
</defs>
</svg>
