<svg enable-background="new 0 0 512 512" height="512" viewBox="0 0 512 512" width="512" xmlns="http://www.w3.org/2000/svg" xmlns:xlink="http://www.w3.org/1999/xlink"><linearGradient id="SVGID_1_" gradientUnits="userSpaceOnUse" x1="255.987" x2="255.987" y1="504.244" y2="80.823"><stop offset="0" stop-color="#e2dec3"/><stop offset=".9944" stop-color="#fff"/></linearGradient><linearGradient id="lg1"><stop offset="0" stop-color="#fe652b"/><stop offset="1" stop-color="#ffff49"/></linearGradient><linearGradient id="SVGID_2_" gradientUnits="userSpaceOnUse" x1="255.977" x2="255.977" xlink:href="#lg1" y1="504.265" y2="299.534"/><linearGradient id="SVGID_3_" gradientUnits="userSpaceOnUse" x1="255.987" x2="255.987" y1="248.343" y2="7.795"><stop offset="0" stop-color="#f80314"/><stop offset="1" stop-color="#fed59c"/></linearGradient><linearGradient id="SVGID_4_" gradientUnits="userSpaceOnUse" x1="135.102" x2="135.102" xlink:href="#lg1" y1="135.274" y2="27.918"/><linearGradient id="SVGID_5_" gradientUnits="userSpaceOnUse" x1="255.987" x2="255.987" y1="253.698" y2="170.733"><stop offset="0" stop-color="#1004cd"/><stop offset="1" stop-color="#0cdff8"/></linearGradient><g id="_x30_1_house"><g><path d="m431.876 229.953v274.29h-351.779v-274.238l175.89-149.182z" fill="url(#SVGID_1_)"/><path d="m178.056 299.534h155.842v204.731h-155.842z" fill="url(#SVGID_2_)"/><path d="m465.128 248.34c-7.223 0-14.481-2.462-20.423-7.498l-188.718-160.007-188.717 160.008c-13.319 11.292-33.258 9.645-44.549-3.668-11.287-13.316-9.646-33.26 3.668-44.549l209.16-177.336c11.801-9.998 29.096-9.988 40.876 0l209.156 177.336c13.319 11.289 14.96 31.233 3.668 44.549-6.25 7.371-15.155 11.165-24.121 11.165z" fill="url(#SVGID_3_)"/><path d="m176.167 38.976v26.633l-82.13 69.665v-96.298c0-6.107 4.951-11.058 11.058-11.058h60.014c6.107 0 11.058 4.951 11.058 11.058z" fill="url(#SVGID_4_)"/><path d="m297.439 212.184c0 22.926-18.526 41.514-41.452 41.514s-41.452-18.588-41.452-41.514c0-22.864 18.526-41.452 41.452-41.452s41.452 18.589 41.452 41.452z" fill="url(#SVGID_5_)"/><g fill="#521d39"><path d="m71.634 245.989 1.718-1.457v252.967h-35.886c-3.726 0-6.745 3.02-6.745 6.745s3.02 6.745 6.745 6.745h437.022c3.726 0 6.745-3.02 6.745-6.745s-3.02-6.745-6.745-6.745h-35.866v-252.971l1.723 1.461c16.122 13.667 40.329 11.732 54.046-4.45 13.711-16.163 11.727-40.344-4.448-54.059l-209.157-177.337c-14.365-12.178-35.225-12.173-49.601 0l-48.273 40.929v-12.096c0-9.817-7.986-17.804-17.804-17.804h-60.014c-9.815 0-17.801 7.986-17.801 17.804v93.167l-65.268 55.338c-16.125 13.676-18.122 37.924-4.447 54.057 13.677 16.126 37.926 18.125 54.056 4.451zm255.518 251.509h-142.351v-191.219h142.351zm97.979 0h-84.489v-197.964c0-3.726-3.02-6.745-6.745-6.745h-155.841c-3.726 0-6.745 3.02-6.745 6.745v197.964h-84.468v-264.368c16.451-13.952-61.22 51.921 169.144-143.452l169.144 143.412zm-324.347-458.522c0-2.379 1.934-4.313 4.311-4.313h60.014c2.379 0 4.313 1.934 4.313 4.313v23.511c-7.019 5.954 25.424-21.564-68.638 58.218zm-70.032 158.795c46.034-39.03 95.879-81.289 209.157-177.336 9.317-7.894 22.847-7.894 32.153 0l209.158 177.336c10.484 8.887 11.776 24.553 2.883 35.044-8.896 10.491-24.583 11.743-35.033 2.883-202.666-171.846-186.181-157.868-188.72-160.021-2.519-2.134-6.208-2.132-8.727.003-250.252 212.198-173.729 147.311-188.713 160.017-10.458 8.869-26.18 7.573-35.044-2.883-8.863-10.457-7.569-26.18 2.886-35.043z"/><path d="m209.16 423.839c3.726 0 6.745-3.02 6.745-6.745v-30.388c0-3.726-3.02-6.745-6.745-6.745-3.726 0-6.745 3.02-6.745 6.745v30.388c0 3.725 3.02 6.745 6.745 6.745z"/><path d="m207.79 212.183c0 26.609 21.622 48.26 48.197 48.26s48.197-21.651 48.197-48.26c0-26.575-21.622-48.197-48.197-48.197s-48.197 21.622-48.197 48.197zm82.903 0c0 19.171-15.569 34.77-34.706 34.77s-34.706-15.598-34.706-34.77c0-19.137 15.569-34.706 34.706-34.706s34.706 15.569 34.706 34.706z"/></g></g></g></svg>