<svg enable-background="new 0 0 512 512" height="512" viewBox="0 0 512 512" width="512" xmlns="http://www.w3.org/2000/svg" xmlns:xlink="http://www.w3.org/1999/xlink"><linearGradient id="SVGID_1_" gradientUnits="userSpaceOnUse" x1="139.42" x2="139.42" y1="496.014" y2="15.987"><stop offset="0" stop-color="#fe652b"/><stop offset="1" stop-color="#ffff49"/></linearGradient><linearGradient id="lg1"><stop offset="0" stop-color="#e2dec3"/><stop offset=".9944" stop-color="#fff"/></linearGradient><linearGradient id="SVGID_2_" gradientUnits="userSpaceOnUse" x1="331.121" x2="331.121" xlink:href="#lg1" y1="257.184" y2="131.606"/><linearGradient id="SVGID_3_" gradientUnits="userSpaceOnUse" x1="140.161" x2="140.161" xlink:href="#lg1" y1="251.284" y2="119.776"/><linearGradient id="SVGID_4_" gradientUnits="userSpaceOnUse" x1="140.16" x2="140.16" y1="211.285" y2="159.778"><stop offset="0" stop-color="#1004cd"/><stop offset="1" stop-color="#0cdff8"/></linearGradient><linearGradient id="SVGID_5_" gradientUnits="userSpaceOnUse" x1="139.42" x2="139.42" xlink:href="#lg1" y1="382.212" y2="298.453"/><g id="_x32_8_Room_Lock"><g><path d="m233.791 35.988v440.025c0 11.046-8.955 20.001-20.001 20.001h-148.741c-11.046 0-20.001-8.955-20.001-20.001v-440.025c0-11.046 8.955-20.001 20.001-20.001h148.741c11.047 0 20.001 8.955 20.001 20.001z" fill="url(#SVGID_1_)"/><path d="m465.129 179.88c-7.101 24.702-25.601 39.703-46.303 51.803-31.202 18.201-65.604 24.501-100.106 25.501-50.903-3-78.104-16.501-123.607-35.402 6.8-10.4 10.8-22.901 10.8-36.202 0-6.7-1-13.201-2.9-19.301 62.704 33.102 101.806 27.702 179.31-13.801 11.701-6.3 23.501-12.401 35.802-17.501 13.201-5.5 26.501-4.7 37.302 5.6 11.402 10.801 14.102 24.302 9.702 39.303z" fill="url(#SVGID_2_)"/><path d="m205.914 185.58c0 36.302-29.402 65.704-65.704 65.704s-65.803-29.402-65.803-65.704 29.501-65.804 65.803-65.804 65.704 29.502 65.704 65.804z" fill="url(#SVGID_3_)"/><path d="m140.211 211.285c-14.229 0-25.802-11.534-25.802-25.705 0-14.229 11.573-25.802 25.802-25.802 14.171 0 25.7 11.573 25.7 25.802 0 14.171-11.529 25.705-25.7 25.705z" fill="url(#SVGID_4_)"/><path d="m154.166 343.794 10.361 38.417h-50.214l10.412-38.417c-6.309-4.462-10.412-11.848-10.412-20.209 0-13.9 11.284-25.133 25.133-25.133s25.082 11.233 25.082 25.133c-.001 8.361-4.104 15.747-10.362 20.209z" fill="url(#SVGID_5_)"/><g fill="#07028f"><path d="m213.791 8.244h-148.739c-15.303 0-27.749 12.445-27.749 27.745v440.022c0 15.299 12.445 27.745 27.749 27.745h148.738c15.296 0 27.741-12.445 27.741-27.745v-227.014c22.918 8.334 45.73 14.079 77.416 15.925 61.077-1.763 137.673-27.484 153.615-82.875 10.775-36.744-20.938-69.439-57.402-54.223-12.899 5.346-25.17 11.735-36.489 17.832-61.483 32.919-96.519 41.587-137.14 28.792v-138.459c.001-15.299-12.445-27.745-27.74-27.745zm12.256 467.767c0 6.759-5.497 12.26-12.256 12.26h-148.739c-6.759 0-12.264-5.501-12.264-12.26v-440.022c0-6.759 5.504-12.26 12.264-12.26h148.738c6.759 0 12.256 5.501 12.256 12.26v132.735c-5.412-2.307-11.002-4.979-16.791-7.97-10.203-28.357-37.261-48.721-69.048-48.721-40.549 0-73.545 32.992-73.545 73.549 0 40.496 32.996 73.443 73.545 73.443 23.244 0 43.962-10.886 57.43-27.791 11.857 4.977 21.07 8.856 28.409 11.814v232.963zm-85.839-232.471c-32.013 0-58.06-25.998-58.06-57.958 0-32.017 26.047-58.064 58.06-58.064 32.174 0 57.962 26.31 57.962 58.064 0 31.506-25.761 57.958-57.962 57.958zm245.782-84.244c10.986-5.913 22.834-12.082 35.113-17.175 24.525-10.224 43.689 11.417 36.595 35.582 0 .011-.008.026-.008.038-13.752 47.856-84.687 70.116-138.516 71.715-45.883-2.705-71.035-13.8-113.02-31.446 4.426-9.039 7.5-20.992 7.5-32.429 0-1.841-.068-3.675-.204-5.497 55.376 25.477 96.856 19.742 172.54-20.788z"/><path d="m140.208 152.034c-18.494 0-33.54 15.05-33.54 33.548 0 18.441 15.046 33.446 33.54 33.446 18.441 0 33.442-15.005 33.442-33.446 0-18.498-15.001-33.548-33.442-33.548zm0 51.508c-9.958 0-18.055-8.056-18.055-17.961 0-9.961 8.098-18.063 18.055-18.063 9.905 0 17.957 8.102 17.957 18.063 0 9.905-8.052 17.961-17.957 17.961z"/><path d="m139.444 290.712c-18.123 0-32.875 14.748-32.875 32.875 0 8.65 3.44 16.876 9.406 22.898l-9.134 33.699c-.635 2.329-.144 4.816 1.323 6.729 1.459 1.917 3.735 3.039 6.147 3.039h50.212c2.412 0 4.68-1.123 6.147-3.036 1.467-1.909 1.958-4.397 1.331-6.722l-9.096-33.722c5.935-6.026 9.36-14.249 9.36-22.887.001-18.125-14.72-32.873-32.821-32.873zm7.244 55.096 7.727 28.66h-29.987l7.765-28.648c.854-3.138-.348-6.472-3.002-8.347-4.468-3.164-7.138-8.355-7.138-13.886 0-9.587 7.803-17.39 17.39-17.39 9.557 0 17.337 7.803 17.337 17.39 0 5.531-2.654 10.729-7.107 13.901-2.638 1.879-3.825 5.198-2.985 8.32z"/></g></g></g></svg>