<svg enable-background="new 0 0 512 512" height="512" viewBox="0 0 512 512" width="512" xmlns="http://www.w3.org/2000/svg" xmlns:xlink="http://www.w3.org/1999/xlink"><linearGradient id="lg1"><stop offset="0" stop-color="#fe652b"/><stop offset="1" stop-color="#ffff49"/></linearGradient><linearGradient id="SVGID_1_" gradientUnits="userSpaceOnUse" x1="255.976" x2="255.976" xlink:href="#lg1" y1="504.224" y2="328.267"/><linearGradient id="SVGID_2_" gradientUnits="userSpaceOnUse" x1="182.896" x2="182.896" xlink:href="#lg1" y1="504.22" y2="292.307"/><linearGradient id="lg2"><stop offset="0" stop-color="#00c900"/><stop offset="1" stop-color="#07fafa"/></linearGradient><linearGradient id="SVGID_3_" gradientUnits="userSpaceOnUse" x1="152.734" x2="152.734" xlink:href="#lg2" y1="262.879" y2="7.775"/><linearGradient id="SVGID_4_" gradientUnits="userSpaceOnUse" x1="366.305" x2="366.305" xlink:href="#lg2" y1="265.321" y2="69.309"/><g id="_x30_4_trees"><g><path d="m468.062 464.357v-93.865c0-20.469-15.475-37.784-35.856-39.684-17.848-1.664-36.172-2.54-54.87-2.54-178.077 0-323.63 77.905-333.447 175.957h384.306c22.018-.001 39.867-17.85 39.867-39.868z" fill="url(#SVGID_1_)"/><path d="m321.855 330.93c-152.038 14.1-269.132 85.624-277.919 173.29v-169.172c0-20.385 15.381-37.379 35.638-39.666 17.903-2.021 36.284-3.076 54.993-3.076 69.377.001 133.85 14.203 187.288 38.624z" fill="url(#SVGID_2_)"/><ellipse cx="152.734" cy="135.327" fill="url(#SVGID_3_)" rx="90.549" ry="127.552"/><ellipse cx="366.305" cy="167.315" fill="url(#SVGID_4_)" rx="69.574" ry="98.006"/><path d="m38.888 508.751c.965 1.063 3.507 2.194 4.967 2.211.647.008 383.592.009 384.341.007 25.703 0 46.613-20.91 46.613-46.613v-93.864c0-24.22-18.046-44.168-41.978-46.402-19.54-1.82-38.485-2.661-59.78-2.51v-48.577c38.928-4.709 69.573-49.646 69.573-104.282 0-57.761-34.237-104.751-76.319-104.751-42.084 0-76.321 46.99-76.321 104.751 0 54.636 30.645 99.573 69.576 104.282v48.79c-12.405.363-24.622 1.135-36.655 2.234-48.883-22.044-104.894-34.989-163.425-37.85v-16.91c50.51-4.803 90.549-63.02 90.549-133.939 0-74.05-43.646-134.296-97.295-134.296s-97.294 60.244-97.294 134.294c0 70.92 40.039 129.137 90.549 133.939v16.44c-22.283-.496-44.491.415-67.173 2.975-23.729 2.68-41.625 22.615-41.625 46.368v168.412c.164 1.681.111 3.538 1.697 5.291zm264.587-340.031c0-50.32 28.185-91.261 62.831-91.261 34.643 0 62.828 40.94 62.828 91.261 0 47.008-24.602 85.809-56.083 90.715v-92.12c0-3.726-3.02-6.745-6.745-6.745-3.726 0-6.745 3.02-6.745 6.745v92.12c-31.484-4.906-56.086-43.706-56.086-90.715zm-234.544-33.394c0-66.612 37.594-120.805 83.804-120.805s83.804 54.194 83.804 120.805c0 63.338-33.994 115.41-77.059 120.382v-122.21c0-3.726-3.02-6.745-6.745-6.745s-6.745 3.02-6.745 6.745v122.211c-43.065-4.973-77.059-57.045-77.059-120.383zm362.648 202.196c16.955 1.584 29.74 15.756 29.74 32.97v93.864c0 18.265-14.858 33.123-33.123 33.123h-376.507c22.629-127.508 242.36-172.762 379.89-159.957zm-136.286-10.348c-46.512 6.538-93.256 18.565-135.813 38.484v-65.916c47.96 2.408 94.142 11.695 135.813 27.432zm-244.611 7.874c0-16.884 12.745-31.054 29.647-32.962 25.03-2.827 45.033-3.263 65.661-2.79v73.033c-44.537 23.215-77.773 53.093-95.308 86.926z" fill="#521d39"/></g></g></svg>