<svg enable-background="new 0 0 512 512" height="512" viewBox="0 0 512 512" width="512" xmlns="http://www.w3.org/2000/svg" xmlns:xlink="http://www.w3.org/1999/xlink"><linearGradient id="SVGID_1_" gradientUnits="userSpaceOnUse" x1="218.419" x2="218.419" y1="415.162" y2="8.274"><stop offset="0" stop-color="#f80314"/><stop offset="1" stop-color="#fed59c"/></linearGradient><linearGradient id="lg1"><stop offset="0" stop-color="#fe652b"/><stop offset="1" stop-color="#ffff49"/></linearGradient><linearGradient id="SVGID_2_" gradientUnits="userSpaceOnUse" x1="63.041" x2="63.041" xlink:href="#lg1" y1="415.162" y2="315.683"/><linearGradient id="SVGID_3_" gradientUnits="userSpaceOnUse" x1="364.3" x2="364.3" y1="127.103" y2="8.274"><stop offset="0" stop-color="#e2dec3"/><stop offset=".9944" stop-color="#fff"/></linearGradient><linearGradient id="SVGID_4_" gradientUnits="userSpaceOnUse" x1="296.993" x2="296.993" xlink:href="#lg1" y1="503.666" y2="100.127"/><g id="_x30_4_geomentry"><g><path d="m416.201 87.849-303.344 300.24-88.618 26.698c-6.565 1.978-12.666-4.198-10.608-10.739l27.808-88.365 303.345-300.239c9.787-9.653 25.634-9.545 35.287.242l36.372 36.875c9.654 9.787 9.545 25.635-.242 35.288z" fill="url(#SVGID_1_)"/><path d="m112.857 388.089-88.618 26.698c-6.565 1.978-12.666-4.198-10.608-10.739l27.808-88.365z" fill="url(#SVGID_2_)"/><path d="m376.404 127.103 39.797-39.254c9.787-9.653 9.896-25.501.242-35.288l-36.372-36.875c-9.653-9.787-25.5-9.896-35.287-.242l-39.797 39.254z" fill="url(#SVGID_3_)"/><path d="m468.675 105.343-368.275 368.221c-11.093 11.147-3.231 30.102 12.493 30.102h368.275c9.747 0 17.609-7.862 17.609-17.609v-368.274c-.001-15.67-19.009-23.586-30.102-12.44zm-47.172 308.987c0 6.677-5.385 12.062-12.062 12.062h-123.423c-10.77 0-16.155-12.978-8.616-20.57l123.53-123.422c7.593-7.647 20.57-2.262 20.57 8.508v123.422z" fill="url(#SVGID_4_)"/><g fill="#521d39"><path d="m26.181 421.233 88.617-26.698c.907-.271 1.969-.84 2.795-1.662l303.335-300.23c12.44-12.272 12.584-32.358.308-44.809l-36.372-36.874c-12.603-12.777-32.831-12.124-44.809-.308-42.284 41.85-260.92 258.251-303.351 300.248-.8.792-1.398 1.85-1.685 2.763l-27.809 88.362c-3.679 11.687 7.257 22.739 18.971 19.208zm-6.129-15.166 24.45-77.692 55.721 56.492-77.923 23.477c-1.404.422-2.687-.883-2.248-2.277zm284.945-341.772 61.964 62.821-254.044 251.446-61.966-62.823zm70.281-43.881 36.372 36.874c7.05 7.143 6.973 18.721-.176 25.768l-35.005 34.529-61.904-62.76 34.945-34.587c7.837-7.741 19.342-6.344 25.768.176z"/><path d="m112.894 510.418h368.257c13.433 0 24.364-10.93 24.364-24.364v-368.257c0-21.699-26.233-32.597-41.591-17.228l-368.257 368.258c-15.344 15.338-4.506 41.591 17.227 41.591zm-7.709-32.073 368.257-368.257c6.894-6.894 18.611-2.034 18.611 7.709v51.443h-19.323c-3.718 0-6.731 3.013-6.731 6.731s3.013 6.731 6.731 6.731h19.323v41.759h-19.323c-3.718 0-6.731 3.013-6.731 6.731s3.013 6.731 6.731 6.731h19.323v41.757h-19.323c-3.718 0-6.731 3.013-6.731 6.731s3.013 6.731 6.731 6.731h19.323v41.759h-19.323c-3.718 0-6.731 3.013-6.731 6.731s3.013 6.731 6.731 6.731h19.323v41.757h-19.323c-3.718 0-6.731 3.013-6.731 6.731s3.013 6.731 6.731 6.731h19.323v41.759h-19.323c-3.718 0-6.731 3.013-6.731 6.731s3.013 6.731 6.731 6.731h19.323v27.248c0 6.011-4.891 10.901-10.901 10.901h-368.258c-9.749.003-14.599-11.717-7.709-18.607z"/><path d="m285.995 433.141h123.43c10.373 0 18.813-8.44 18.813-18.813v-123.432c0-7.651-4.57-14.477-11.643-17.388-7.16-2.945-14.995-1.359-20.43 4.128l-123.503 123.432c-5.464 5.466-7.018 13.302-4.054 20.451 2.968 7.171 9.631 11.622 17.387 11.622zm-3.812-22.552 123.524-123.453c1.233-1.246 2.55-1.604 3.652-1.604.907 0 1.67.245 2.114.426.773.318 3.302 1.617 3.302 4.938v123.432c0 2.95-2.401 5.351-5.351 5.351h-123.43c-3.321 0-4.63-2.535-4.951-3.31-.317-.771-1.179-3.464 1.14-5.78z"/></g></g></g></svg>