<svg enable-background="new 0 0 512 512" height="512" viewBox="0 0 512 512" width="512" xmlns="http://www.w3.org/2000/svg" xmlns:xlink="http://www.w3.org/1999/xlink"><linearGradient id="lg1"><stop offset="0" stop-color="#f80314"/><stop offset="1" stop-color="#fed59c"/></linearGradient><linearGradient id="SVGID_1_" gradientUnits="userSpaceOnUse" x1="256.038" x2="256.038" xlink:href="#lg1" y1="358.456" y2="8.959"/><linearGradient id="SVGID_2_" gradientUnits="userSpaceOnUse" x1="256.038" x2="256.038" y1="310.651" y2="56.767"><stop offset="0" stop-color="#e2dec3"/><stop offset=".9944" stop-color="#fff"/></linearGradient><linearGradient id="SVGID_3_" gradientUnits="userSpaceOnUse" x1="256.038" x2="256.038" y1="147.044" y2="100.146"><stop offset="0" stop-color="#00c900"/><stop offset="1" stop-color="#07fafa"/></linearGradient><linearGradient id="SVGID_4_" gradientUnits="userSpaceOnUse" x1="256.039" x2="256.039" xlink:href="#lg1" y1="502.971" y2="383.789"/><linearGradient id="SVGID_5_" gradientUnits="userSpaceOnUse" x1="256.038" x2="256.038" y1="420.512" y2="259.162"><stop offset="0" stop-color="#fe652b"/><stop offset="1" stop-color="#ffff49"/></linearGradient><g id="_x30_6_Certificate"><g><path d="m503.044 40.831v285.753c0 17.602-14.269 31.872-31.872 31.872h-430.268c-17.602 0-31.872-14.269-31.872-31.872v-285.753c0-17.602 14.269-31.872 31.872-31.872h430.268c17.603 0 31.872 14.27 31.872 31.872z" fill="url(#SVGID_1_)"/><path d="m56.84 262.844v-158.27c26.403 0 47.808-21.404 47.808-47.808h302.781c0 26.403 21.404 47.808 47.808 47.808v158.269c-26.403 0-47.808 21.404-47.808 47.808h-302.781c0-26.403-21.405-47.807-47.808-47.807z" fill="url(#SVGID_2_)"/><path d="m361.295 123.595c0 12.95-10.498 23.449-23.449 23.449h-163.615c-12.95 0-23.449-10.498-23.449-23.449 0-12.95 10.498-23.449 23.449-23.449h163.615c12.95 0 23.449 10.499 23.449 23.449z" fill="url(#SVGID_3_)"/><path d="m290.547 383.789v119.182l-34.509-22.356-34.508 22.356v-119.182z" fill="url(#SVGID_4_)"/><path d="m336.714 339.877c0 44.54-36.174 80.635-80.715 80.635s-80.636-36.095-80.636-80.635c0-44.541 36.095-80.715 80.636-80.715 44.54-.001 80.715 36.174 80.715 80.715z" fill="url(#SVGID_5_)"/><g fill="#1e2e49"><path d="m40.866 366.436h130.607c6.919 21.972 22.18 40.271 42.057 51.174v85.394c0 6.386 7.082 10.082 12.302 6.684l30.175-19.577 30.253 19.585c2.436 1.58 5.564 1.696 8.131.311 2.568-1.401 4.163-4.085 4.163-7.003v-85.424c19.869-10.907 35.127-29.191 42.046-51.143h130.533c21.966 0 39.84-17.873 39.84-39.84v-285.734c0-21.966-17.873-39.84-39.84-39.84h-430.267c-21.966 0-39.84 17.873-39.84 39.84v285.733c0 21.966 17.874 39.84 39.84 39.84zm215.134-115.24c-35.579 0-66.244 21.145-80.329 51.496h-63.662c-3.502-24.394-22.846-43.738-47.24-47.24v-143.445c24.394-3.502 43.738-22.846 47.24-47.24h287.982c3.502 24.394 22.846 43.738 47.24 47.24v143.446c-24.394 3.502-43.738 22.846-47.24 47.24h-63.592c-14.099-30.352-44.791-51.497-80.399-51.497zm26.619 237.155-22.293-14.426c-2.63-1.696-6.03-1.704-8.66.008l-22.2 14.403v-63.921c8.382 2.636 17.293 4.069 26.534 4.069 9.273 0 18.211-1.443 26.619-4.092zm-26.619-75.804c-40.073 0-72.668-32.595-72.668-72.668 0-40.112 32.595-72.746 72.668-72.746 40.112 0 72.746 32.634 72.746 72.746 0 40.073-32.634 72.668-72.746 72.668zm-239.038-371.684c0-13.181 10.722-23.904 23.904-23.904h430.268c13.181 0 23.904 10.722 23.904 23.904v285.733c0 13.181-10.722 23.904-23.904 23.904h-127.152c.42-3.489.7-7.021.7-10.621 0-7.336-.994-14.428-2.682-21.25h65.39c4.404 0 7.968-3.564 7.968-7.968 0-21.966 17.873-39.84 39.84-39.84 4.404 0 7.968-3.564 7.968-7.968v-158.246c0-4.404-3.564-7.968-7.968-7.968-21.966 0-39.84-17.873-39.84-39.84 0-4.404-3.564-7.968-7.968-7.968h-302.781c-4.404 0-7.968 3.564-7.968 7.968 0 21.966-17.873 39.84-39.84 39.84-4.404 0-7.968 3.564-7.968 7.968v158.246c0 4.404 3.564 7.968 7.968 7.968 21.966 0 39.84 17.873 39.84 39.84 0 4.404 3.564 7.968 7.968 7.968h65.466c-1.686 6.822-2.679 13.914-2.679 21.25 0 3.601.28 7.132.699 10.621h-127.229c-13.181 0-23.904-10.722-23.904-23.904z"/><path d="m174.228 155.013h163.615c17.329 0 31.42-14.092 31.42-31.42 0-17.321-14.092-31.413-31.42-31.413h-163.615c-17.321 0-31.413 14.092-31.413 31.413 0 17.328 14.092 31.42 31.413 31.42zm0-46.897h163.615c8.536 0 15.485 6.941 15.485 15.477s-6.949 15.485-15.485 15.485h-163.615c-8.536 0-15.477-6.949-15.477-15.485s6.941-15.477 15.477-15.477z"/><path d="m402.442 189.079c0-4.404-3.564-7.968-7.968-7.968h-276.878c-4.404 0-7.968 3.564-7.968 7.968s3.564 7.968 7.968 7.968h276.878c4.404 0 7.968-3.564 7.968-7.968z"/><path d="m321.175 220.492h-130.272c-4.404 0-7.968 3.564-7.968 7.968s3.564 7.968 7.968 7.968h130.273c4.404 0 7.968-3.564 7.968-7.968s-3.565-7.968-7.969-7.968z"/></g></g></g></svg>