<?xml version="1.0" encoding="utf-8"?>
<!-- Generator: Adobe Illustrator 27.1.0, SVG Export Plug-In . SVG Version: 6.00 Build 0)  -->
<svg version="1.1" id="Layer_1" xmlns="http://www.w3.org/2000/svg" xmlns:xlink="http://www.w3.org/1999/xlink" x="0px" y="0px"
	 viewBox="0 0 512 512" style="enable-background:new 0 0 512 512;" xml:space="preserve">
<style type="text/css">
	.st0{fill:url(#SVGID_1_);}
	.st1{fill:url(#SVGID_00000009586315919926697230000001604408660545285001_);}
	.st2{fill:url(#SVGID_00000129927078144062168470000013261336332257328310_);}
	.st3{fill:url(#SVGID_00000130647786116268808860000012720565658697069739_);}
	.st4{fill:#1E2E49;}
</style>
<g>
	
		<linearGradient id="SVGID_1_" gradientUnits="userSpaceOnUse" x1="256.062" y1="408.657" x2="256.062" y2="505.01" gradientTransform="matrix(1 0 0 -1 0 514)">
		<stop  offset="0" style="stop-color:#FE652B"/>
		<stop  offset="1" style="stop-color:#FFFF49"/>
	</linearGradient>
	<path class="st0" d="M289.7,9c22.2,0,38.2,22.1,30.5,43c-11.8,31.6-36.2,53.4-64.2,53.4c-28,0-52.3-21.8-64.1-53.4
		C184.2,31.1,200.2,9,222.4,9L289.7,9z"/>
	
		<linearGradient id="SVGID_00000123440567020513760370000005477051644446424209_" gradientUnits="userSpaceOnUse" x1="256.025" y1="11.06" x2="256.025" y2="369.362" gradientTransform="matrix(1 0 0 -1 0 514)">
		<stop  offset="0" style="stop-color:#FE652B"/>
		<stop  offset="1" style="stop-color:#FFFF49"/>
	</linearGradient>
	<path style="fill:url(#SVGID_00000123440567020513760370000005477051644446424209_);" d="M416,342.9c0,88.5-71.6,160.1-160.1,160.1
		c-88.3,0-159.8-71.6-159.8-160.1c0-88.3,71.6-198.2,159.8-198.2C344.4,144.6,416,254.6,416,342.9z"/>
	
		<linearGradient id="SVGID_00000011030527368179131610000010815617749461879998_" gradientUnits="userSpaceOnUse" x1="256.0245" y1="357.511" x2="256.0245" y2="415.101" gradientTransform="matrix(1 0 0 -1 0 514)">
		<stop  offset="0" style="stop-color:#F80314"/>
		<stop  offset="1" style="stop-color:#FED59C"/>
	</linearGradient>
	<path style="fill:url(#SVGID_00000011030527368179131610000010815617749461879998_);" d="M348.8,127.7c0,15.9-12.9,28.8-28.8,28.8
		H192.1c-15.9,0-28.8-12.9-28.8-28.8s12.9-28.8,28.8-28.8H320C335.9,98.9,348.8,111.8,348.8,127.7z"/>
	
		<linearGradient id="SVGID_00000132774977719972098430000000868026196836215185_" gradientUnits="userSpaceOnUse" x1="256.025" y1="85.257" x2="256.025" y2="270.205" gradientTransform="matrix(1 0 0 -1 0 514)">
		<stop  offset="0" style="stop-color:#E2DEC3"/>
		<stop  offset="0.9944" style="stop-color:#FFFFFF"/>
	</linearGradient>
	<path style="fill:url(#SVGID_00000132774977719972098430000000868026196836215185_);" d="M348.5,336.2c0,51.1-41.4,92.5-92.4,92.5
		c-51,0-92.4-41.4-92.4-92.5c0-51,41.4-92.4,92.4-92.4C307.1,243.8,348.5,285.2,348.5,336.2z"/>
	<path class="st4" d="M334.2,164.5h48.1c14.2,0,25.7,11.6,25.7,25.7c0,4.4,3.6,8,8,8c4.5,0,8-3.6,8-8c0-22.9-18.6-41.7-41.6-41.7
		h-32.1c4.1-5.9,6.5-13.1,6.5-20.8c0-20.3-16.5-36.8-36.7-36.8h-14.6c9.2-9.5,16.8-21.8,22.2-36.2c9.8-26.5-10.6-53.7-38-53.7h-67.2
		c-27.5,0-47.7,27.4-37.9,53.6c5.3,14.5,13,26.8,22.1,36.2h-14.6c-20.2,0-36.7,16.5-36.7,36.8c0,16.2,10.6,29.8,25.3,34.7
		c-53.3,37.8-92.5,111.9-92.5,180.5c0,92.7,75.3,168,167.8,168c92.7,0,168-75.4,168-168C423.9,275.6,386.1,202.8,334.2,164.5z
		 M199.4,49.2c-5.9-15.7,6.4-32.2,23-32.2h67.2c16.8,0,28.9,16.6,23,32.2c-7.2,19.4-19.1,33.9-33.1,41.7h-47.2
		C218.5,83.1,206.6,68.6,199.4,49.2L199.4,49.2z M171.3,127.7c0-11.6,9.3-20.9,20.8-20.9H320c11.5,0,20.8,9.3,20.8,20.9
		c0,11.5-9.3,20.8-20.8,20.8H192.1C180.6,148.5,171.3,139.2,171.3,127.7z M255.9,495C172.1,495,104,426.8,104,342.9
		c0-70.3,46.5-149.9,104-178.5h95.9c57.5,28.6,104,108.2,104,178.5C408,426.8,339.8,495,255.9,495L255.9,495z"/>
	<path class="st4" d="M256,436.7c55.4,0,100.4-45.1,100.4-100.5c0-55.4-45-100.4-100.4-100.4s-100.4,45-100.4,100.4
		C155.6,391.6,200.7,436.7,256,436.7z M256,251.8c46.6,0,84.5,37.9,84.5,84.5c0,46.6-37.9,84.5-84.5,84.5s-84.5-37.9-84.5-84.5
		C171.6,289.7,209.4,251.8,256,251.8z"/>
	<g>
		<path class="st4" d="M277.2,312.1v1.6h13.5v9.5h-14.2c-0.9,5.2-2.5,9.3-4.8,12.4c-2.4,3.1-5.7,5.3-10,6.6c-4.3,1.4-9.9,2-16.8,2
			v7.3c0,4.3,0.9,7.6,2.7,10.1c1.8,2.5,4.9,3.7,9.2,3.7c7.9,0,11.8-4.5,11.8-13.4h12.2c-0.1,7.8-2.2,13.7-6.3,17.7
			c-4.1,4-10.1,6-17.9,6c-7.8,0-13.8-2.2-17.9-6.5c-4.1-4.3-6.2-10.4-6.2-18.2v-15.9c8.6,0,14.9-0.2,18.9-0.8c4-0.5,7-1.6,9-3.2
			c2-1.6,3.3-4.3,3.9-7.9h-36.7v-9.5h37.3v-1.6v-8.7h-37.3v-9.6h63.2v9.6h-13.5V312.1z"/>
	</g>
</g>
</svg>
