<svg id="Capa_1" enable-background="new 0 0 512 512" height="512" viewBox="0 0 512 512" width="512" xmlns="http://www.w3.org/2000/svg"><g><path d="m509.984 263.76-19.879 35.686c-1.022 1.835-1.441 3.945-1.196 6.031l4.756 40.547c.645 5.501-1.61 10.943-5.958 14.375l-32.043 25.294c-1.651 1.303-2.849 3.094-3.423 5.117l-11.161 39.288c-1.51 5.317-5.666 9.472-10.982 10.982l-39.288 11.16c-2.023.575-3.814 1.773-5.117 3.423l-25.294 32.043c-3.432 4.348-8.874 6.603-14.375 5.958l-40.546-4.756c-2.086-.245-4.196.174-6.031 1.196l-35.686 19.879c-4.825 2.688-10.696 2.688-15.521 0l-35.686-19.879c-1.835-1.022-3.945-1.441-6.031-1.196l-40.547 4.756c-5.501.645-10.943-1.61-14.375-5.958l-25.294-32.044c-1.303-1.651-3.094-2.849-5.117-3.423l-39.288-11.159c-5.317-1.51-9.472-5.666-10.982-10.982l-11.16-39.288c-.575-2.023-1.773-3.814-3.423-5.117l-32.043-25.294c-4.348-3.432-6.603-8.874-5.958-14.375l4.756-40.546c.245-2.086-.174-4.196-1.196-6.031l-19.88-35.687c-2.687-4.825-2.687-10.696 0-15.521l19.879-35.686c1.022-1.835 1.441-3.945 1.196-6.031l-4.756-40.547c-.645-5.501 1.61-10.943 5.958-14.375l32.043-25.294c1.651-1.303 2.849-3.094 3.423-5.117l11.161-39.287c1.51-5.317 5.666-9.472 10.982-10.982l39.288-11.16c2.023-.575 3.814-1.773 5.117-3.423l25.294-32.043c3.432-4.348 8.874-6.603 14.375-5.958l40.546 4.756c2.086.245 4.196-.174 6.031-1.196l35.687-19.88c4.825-2.687 10.696-2.687 15.521 0l35.686 19.879c1.835 1.022 3.945 1.441 6.031 1.196l40.547-4.756c5.501-.645 10.943 1.61 14.375 5.958l25.294 32.043c1.303 1.651 3.094 2.849 5.117 3.423l39.288 11.161c5.317 1.51 9.472 5.666 10.982 10.982l11.16 39.288c.575 2.023 1.773 3.814 3.423 5.117l32.043 25.294c4.348 3.432 6.603 8.874 5.958 14.375l-4.756 40.546c-.245 2.086.174 4.196 1.196 6.031l19.879 35.686c2.688 4.825 2.688 10.697 0 15.521z" fill="#0055a3"/><g fill="#004281"><path d="m509.984 248.24-19.879-35.686c-1.022-1.835-1.441-3.945-1.196-6.031l4.756-40.546c.645-5.501-1.61-10.943-5.958-14.375l-32.043-25.294c-1.651-1.303-2.849-3.094-3.423-5.117l-11.16-39.288c-1.51-5.317-5.666-9.472-10.982-10.982l-32.59-9.258c2.658 3.686 4.699 7.852 5.977 12.353l6.336 22.306c1.363 4.797 4.203 9.042 8.117 12.131l18.16 14.335c10.811 8.534 16.42 22.067 14.816 35.747l-2.696 22.986c-.58 4.946.412 9.949 2.835 14.3l11.296 20.279c6.683 11.998 6.683 26.599 0 38.596l-11.296 20.279c-2.423 4.35-3.415 9.354-2.835 14.3l2.696 22.986c1.604 13.68-4.004 27.213-14.816 35.747l-18.161 14.335c-3.914 3.09-6.754 7.335-8.117 12.131l-6.336 22.306c-3.756 13.221-14.09 23.555-27.311 27.311l-22.306 6.336c-4.797 1.363-9.042 4.203-12.131 8.117l-14.335 18.16c-8.534 10.811-22.067 16.42-35.747 14.816l-22.986-2.696c-4.946-.58-9.949.412-14.3 2.835l-20.279 11.296c-11.998 6.683-26.599 6.683-38.596 0l-20.279-11.296c-4.35-2.423-9.354-3.415-14.3-2.835l-22.17 2.6 12.855 16.285c3.432 4.348 8.874 6.603 14.375 5.958l40.547-4.756c2.086-.245 4.196.174 6.031 1.196l35.686 19.879c4.825 2.687 10.696 2.687 15.521 0l35.686-19.879c1.835-1.022 3.945-1.441 6.031-1.196l40.546 4.756c5.501.645 10.943-1.61 14.375-5.958l25.294-32.043c1.303-1.651 3.094-2.849 5.117-3.423l39.288-11.16c5.317-1.51 9.472-5.666 10.982-10.982l11.161-39.288c.575-2.023 1.773-3.814 3.423-5.117l32.043-25.294c4.348-3.432 6.603-8.874 5.958-14.375l-4.756-40.547c-.245-2.086.174-4.196 1.196-6.031l19.879-35.686c2.689-4.827 2.689-10.699.001-15.523z"/><path d="m256 87.5c-4.142 0-7.5-3.357-7.5-7.5v-32c0-4.142 3.358-7.5 7.5-7.5s7.5 3.358 7.5 7.5v32c0 4.143-3.358 7.5-7.5 7.5z"/><path d="m188.651 100.899c-2.943 0-5.736-1.743-6.932-4.632l-12.246-29.564c-1.585-3.827.232-8.214 4.059-9.799 3.826-1.583 8.214.233 9.799 4.059l12.246 29.564c1.585 3.827-.232 8.214-4.059 9.799-.938.389-1.911.573-2.867.573z"/><path d="m176.399 455.669c-.957 0-1.929-.184-2.867-.573-3.827-1.585-5.644-5.972-4.059-9.799l12.246-29.564c1.585-3.826 5.973-5.646 9.799-4.059 3.827 1.585 5.644 5.972 4.059 9.799l-12.246 29.564c-1.196 2.888-3.989 4.632-6.932 4.632z"/><path d="m256 471.5c-4.142 0-7.5-3.357-7.5-7.5v-32c0-4.143 3.358-7.5 7.5-7.5s7.5 3.357 7.5 7.5v32c0 4.143-3.358 7.5-7.5 7.5z"/></g><path d="m261.528 469.069c-2.326.437-4.585 1.222-6.699 2.34.382.06.773.091 1.172.091 2.187 0 4.156-.937 5.527-2.431z" fill="#00366d"/><path d="m335.601 455.669c-2.943 0-5.736-1.743-6.932-4.632l-12.246-29.564c-1.585-3.827.232-8.214 4.059-9.799 3.827-1.584 8.214.23 9.799 4.059l12.246 29.564c1.585 3.827-.232 8.214-4.059 9.799-.938.388-1.91.573-2.867.573z" fill="#004281"/><path d="m330.106 453.277c1.419 1.524 3.419 2.391 5.495 2.391.957 0 1.929-.185 2.867-.573 3.827-1.585 5.644-5.972 4.059-9.799l-2.107-5.086z" fill="#00366d"/><path d="m323.349 100.899c-.957 0-1.929-.184-2.867-.573-3.827-1.585-5.644-5.972-4.059-9.799l12.246-29.564c1.584-3.827 5.973-5.645 9.799-4.059s5.644 5.973 4.059 9.799l-12.246 29.564c-1.196 2.888-3.989 4.632-6.932 4.632z" fill="#004281"/><path d="m303.983 380.529c-2.59 0-5.214-.629-7.648-1.957-7.758-4.231-10.616-13.95-6.384-21.708l96-176c4.232-7.758 13.95-10.617 21.708-6.385 7.758 4.231 10.616 13.95 6.384 21.708l-96 176c-2.904 5.325-8.394 8.342-14.06 8.342z" fill="#004281"/><circle cx="312" cy="196.526" fill="#004281" r="24"/><circle cx="392" cy="356.526" fill="#004281" r="24"/><path d="m176 148.604c-44.183 0-80 35.817-80 80v96c0 44.183 35.817 80 80 80 44.183 0 80-35.817 80-80v-96c0-44.183-35.817-80-80-80zm32 176c0 17.673-14.327 32-32 32-17.673 0-32-14.327-32-32v-96c0-17.673 14.327-32 32-32 17.673 0 32 14.327 32 32z" fill="#004281"/><path d="m303.983 359.925c-2.59 0-5.214-.629-7.648-1.957-7.758-4.231-10.616-13.95-6.384-21.708l96-176c4.232-7.758 13.95-10.617 21.708-6.385 7.758 4.231 10.616 13.95 6.384 21.708l-96 176c-2.904 5.325-8.394 8.342-14.06 8.342z" fill="#fff"/><circle cx="312" cy="175.922" fill="#fff" r="24"/><circle cx="392" cy="335.922" fill="#fff" r="24"/><path d="m176 128c-44.183 0-80 35.817-80 80v96c0 44.183 35.817 80 80 80 44.183 0 80-35.817 80-80v-96c0-44.183-35.817-80-80-80zm32 176c0 17.673-14.327 32-32 32-17.673 0-32-14.327-32-32v-96c0-17.673 14.327-32 32-32 17.673 0 32 14.327 32 32z" fill="#fff"/></g></svg>