<svg class="svg-icon" style="width: 1em;height: 1em;vertical-align: middle;fill: currentColor;overflow: hidden;" viewBox="0 0 1024 1024" version="1.1" xmlns="http://www.w3.org/2000/svg"><path d="M490.9056 289.792H313.4464c-16.9472 0-30.72 13.7728-30.72 30.72s13.7728 30.72 30.72 30.72h177.4592c16.9472 0 30.72-13.7728 30.72-30.72s-13.7728-30.72-30.72-30.72zM490.9056 443.6992H313.4464c-16.9472 0-30.72 13.7728-30.72 30.72s13.7728 30.72 30.72 30.72h177.4592c16.9472 0 30.72-13.7728 30.72-30.72s-13.7728-30.72-30.72-30.72zM490.9056 597.6064H313.4464c-16.9472 0-30.72 13.7728-30.72 30.72s13.7728 30.72 30.72 30.72h177.4592c16.9472 0 30.72-13.7728 30.72-30.72s-13.7728-30.72-30.72-30.72z" fill="#FF6C39" /><path d="M922.9312 862.3616h-28.1088v-452.608c0-42.3424-34.4576-76.8-76.8-76.8h-154.7264V205.7728c0-62.8736-51.1488-114.0736-114.0736-114.0736H255.1296c-62.8736 0-114.0736 51.1488-114.0736 114.0736v656.5376h-26.0096c-16.9472 0-30.72 13.7728-30.72 30.72s13.7728 30.72 30.72 30.72H922.9312c16.9472 0 30.72-13.7728 30.72-30.72s-13.7728-30.6688-30.72-30.6688zM202.496 205.7728c0-29.0304 23.6032-52.6336 52.6336-52.6336h294.144c29.0304 0 52.6336 23.6032 52.6336 52.6336V353.28c-1.1776 3.2256-1.8432 6.7072-1.8432 10.3936v498.688H202.496V205.7728z m460.8 656.5888v-467.968h154.7264c8.448 0 15.36 6.912 15.36 15.36v452.608h-170.0864z" fill="#FF6C39" /></svg>