<svg height="512" viewBox="0 0 64 64" width="512" xmlns="http://www.w3.org/2000/svg"><g id="Entertainment_Complex-Movie-Map-Pin" data-name="Entertainment Complex-Movie-Map-Pin"><path d="m41 18v10a3 3 0 0 1 -3 3h-12a3 3 0 0 1 -3-3v-10a3 3 0 0 1 3-3h12a3 3 0 0 1 3 3zm-6.25 5.83a.99.99 0 0 0 0-1.66l-3.2-2.13a.994.994 0 0 0 -1.55.83v4.26a.994.994 0 0 0 1.55.83z" fill="#bddbff"/><path d="m52 23a19.951 19.951 0 0 1 -7.59 15.67 30.845 30.845 0 0 0 -9.52 12.54c-.12.29-.23.57-.34.86l-.67 1.84a2.007 2.007 0 0 1 -3.76 0l-.67-1.84c-.11-.29-.22-.57-.33-.86a30 30 0 0 0 -9.39-12.43 19.927 19.927 0 0 1 -7.72-16.28 20 20 0 0 1 39.99.5zm-4 0a16 16 0 1 0 -16 16 16 16 0 0 0 16-16z" fill="#bddbff"/><g fill="#3d9ae2"><path d="m35.307 21.336-3.2-2.132a2 2 0 0 0 -3.107 1.664v4.264a2 2 0 0 0 3.109 1.668l3.2-2.132a2 2 0 0 0 0-3.328zm-4.307 3.802v-4.27l3.2 2.132z"/><path d="m38 14h-12a4 4 0 0 0 -4 4v10a4 4 0 0 0 4 4h12a4 4 0 0 0 4-4v-10a4 4 0 0 0 -4-4zm2 14a2 2 0 0 1 -2 2h-12a2 2 0 0 1 -2-2v-10a2 2 0 0 1 2-2h12a2 2 0 0 1 2 2z"/><path d="m46.448 7.761a20.826 20.826 0 0 0 -15.591-5.731 21.077 21.077 0 0 0 -19.851 20.448 20.813 20.813 0 0 0 8.111 17.093 28.9 28.9 0 0 1 8.583 10.891c-4.053.911-6.7 3.05-6.7 5.538 0 3.364 4.832 6 11 6s11-2.636 11-6c0-2.488-2.645-4.627-6.7-5.538a30.093 30.093 0 0 1 8.733-11.011 20.984 20.984 0 0 0 1.413-31.69zm-5.448 48.239c0 1.892-3.7 4-9 4s-9-2.108-9-4c0-1.533 2.261-3.015 5.478-3.66.009.025.021.05.031.075l.676 1.837a3 3 0 0 0 5.63 0l.676-1.835c.01-.026.022-.051.032-.077 3.171.643 5.477 2.153 5.477 3.66zm2.793-18.117a31.784 31.784 0 0 0 -10.179 13.843l-.676 1.835a1 1 0 0 1 -1.876 0l-.676-1.837a30.905 30.905 0 0 0 -10.042-13.732 18.828 18.828 0 0 1 -7.338-15.466 19.065 19.065 0 0 1 17.957-18.5c.35-.018.7-.028 1.047-.028a18.99 18.99 0 0 1 11.783 33.885z"/><path d="m32 6a17 17 0 1 0 17 17 17.019 17.019 0 0 0 -17-17zm0 32a15 15 0 1 1 15-15 15.017 15.017 0 0 1 -15 15z"/><path d="m29 42h2v2h-2z"/><path d="m33 42h2v2h-2z"/></g></g></svg>