<svg height="512" viewBox="0 0 64 64" width="512" xmlns="http://www.w3.org/2000/svg"><g id="Hospital-Medical-Map-Pin-Location"><path d="m41 20v6h-6v6h-6v-6h-6v-6h6v-6h6v6z" fill="#bddbff"/><path d="m52 23a19.951 19.951 0 0 1 -7.59 15.67 30.845 30.845 0 0 0 -9.52 12.54c-.12.29-.23.57-.34.86l-.67 1.84a2.007 2.007 0 0 1 -3.76 0l-.67-1.84c-.11-.29-.22-.57-.33-.86a30 30 0 0 0 -9.39-12.43 19.927 19.927 0 0 1 -7.72-16.28 20 20 0 0 1 39.99.5zm-4 0a16 16 0 1 0 -16 16 16 16 0 0 0 16-16z" fill="#bddbff"/><g fill="#3d9ae2"><path d="m41 19h-5v-5a1 1 0 0 0 -1-1h-6a1 1 0 0 0 -1 1v5h-5a1 1 0 0 0 -1 1v6a1 1 0 0 0 1 1h5v5a1 1 0 0 0 1 1h6a1 1 0 0 0 1-1v-5h5a1 1 0 0 0 1-1v-6a1 1 0 0 0 -1-1zm-1 6h-5a1 1 0 0 0 -1 1v5h-4v-5a1 1 0 0 0 -1-1h-5v-4h5a1 1 0 0 0 1-1v-5h4v5a1 1 0 0 0 1 1h5z"/><path d="m46.448 7.76a20.839 20.839 0 0 0 -15.59-5.73 21.077 21.077 0 0 0 -19.852 20.448 20.81 20.81 0 0 0 8.111 17.093 28.9 28.9 0 0 1 8.583 10.892c-4.056.91-6.7 3.05-6.7 5.537 0 3.364 4.832 6 11 6s11-2.636 11-6c0-2.487-2.645-4.627-6.7-5.538a30.1 30.1 0 0 1 8.733-11.01 20.986 20.986 0 0 0 1.415-31.692zm-5.448 48.24c0 1.892-3.7 4-9 4s-9-2.108-9-4c0-1.533 2.26-3.014 5.477-3.66.01.025.022.05.031.076l.677 1.836a2.974 2.974 0 0 0 2.815 1.963 2.974 2.974 0 0 0 2.815-1.963l.676-1.835c.01-.026.022-.051.032-.078 3.171.644 5.477 2.154 5.477 3.661zm2.793-18.116a31.776 31.776 0 0 0 -10.179 13.842l-.675 1.834a.977.977 0 0 1 -.939.655.976.976 0 0 1 -.938-.654l-.677-1.837a30.907 30.907 0 0 0 -10.041-13.732 18.831 18.831 0 0 1 -7.339-15.466 19.071 19.071 0 0 1 17.958-18.5c.351-.018.7-.027 1.047-.027a18.991 18.991 0 0 1 11.783 33.885z"/><path d="m32 6a17 17 0 1 0 17 17 17.019 17.019 0 0 0 -17-17zm0 32a15 15 0 1 1 15-15 15.017 15.017 0 0 1 -15 15z"/><path d="m29 42h2v2h-2z"/><path d="m33 42h2v2h-2z"/></g></g></svg>