<svg height="512" viewBox="0 0 64 64" width="512" xmlns="http://www.w3.org/2000/svg"><g id="Shopping-Shopping_Mall-Map-Pin-Location" data-name="Shopping-Shopping Mall-Map-Pin-Location"><g fill="#bddbff"><path d="m40 29v2a2.006 2.006 0 0 1 -2 2h-12a2.006 2.006 0 0 1 -2-2v-2z"/><path d="m36 17h4v12h-16v-12h4z"/><path d="m52 23a19.951 19.951 0 0 1 -7.59 15.67 30.845 30.845 0 0 0 -9.52 12.54c-.12.29-.23.57-.34.86l-.67 1.84a2.007 2.007 0 0 1 -3.76 0l-.67-1.84c-.11-.29-.22-.57-.33-.86a30 30 0 0 0 -9.39-12.43 19.927 19.927 0 0 1 -7.72-16.28 20 20 0 0 1 39.99.5zm-4 0a16 16 0 1 0 -16 16 16 16 0 0 0 16-16z"/></g><g fill="#3d9ae2"><path d="m46.45 7.76a20.836 20.836 0 0 0 -15.59-5.73 21.074 21.074 0 0 0 -19.85 20.45 20.775 20.775 0 0 0 8.11 17.09 28.947 28.947 0 0 1 8.58 10.89c-4.05.91-6.7 3.05-6.7 5.54 0 3.36 4.83 6 11 6s11-2.64 11-6c0-2.49-2.65-4.63-6.7-5.54a30.058 30.058 0 0 1 8.74-11.01 20.99 20.99 0 0 0 1.41-31.69zm-5.45 48.24c0 1.89-3.7 4-9 4s-9-2.11-9-4c0-1.53 2.26-3.01 5.48-3.66.01.03.02.05.03.08l.68 1.83a2.994 2.994 0 0 0 5.62 0l.68-1.83c.01-.03.02-.05.03-.08 3.17.64 5.48 2.15 5.48 3.66zm2.79-18.12a31.84 31.84 0 0 0 -10.18 13.85l-.67 1.83a1 1 0 0 1 -1.88 0l-.67-1.84a30.98 30.98 0 0 0 -10.05-13.73 18.821 18.821 0 0 1 -7.33-15.46 19.055 19.055 0 0 1 17.95-18.5q.525-.03 1.05-.03a18.987 18.987 0 0 1 11.78 33.88z"/><path d="m32 6a17 17 0 1 0 17 17 17.024 17.024 0 0 0 -17-17zm0 32a15 15 0 1 1 15-15 15.018 15.018 0 0 1 -15 15z"/><path d="m40 16h-3v-1a5 5 0 0 0 -10 0v1h-3a1 1 0 0 0 -1 1v14a3.009 3.009 0 0 0 3 3h12a3.009 3.009 0 0 0 3-3v-14a1 1 0 0 0 -1-1zm-11-1a3 3 0 0 1 6 0v1h-6zm10 16a1 1 0 0 1 -1 1h-12a1 1 0 0 1 -1-1v-1h14zm0-3h-14v-10h2v4h2v-4h6v4h2v-4h2z"/><path d="m29 42h2v2h-2z"/><path d="m33 42h2v2h-2z"/></g></g></svg>