<svg id="Capa_1" enable-background="new 0 0 512 512" height="512" viewBox="0 0 512 512" width="512" xmlns="http://www.w3.org/2000/svg"><g><g><g><path d="m7.49 133.607h166.297v370.66h-166.297z" fill="#f9f3f1"/></g><g><path d="m153.813 133.607h19.974v370.66h-19.974z" fill="#f3eae6"/></g><g><path d="m173.787 101.02h330.723v403.246h-330.723z" fill="#eaf6ff"/></g><g><path d="m484.536 101.02h19.974v403.246h-19.974z" fill="#d8ecfe"/></g><g><path d="m504.51 101.942h-497.02v-35.851c0-18.374 14.895-33.268 33.268-33.268h430.483c18.374 0 33.268 14.895 33.268 33.268v35.851z" fill="#f4d7c8"/></g><g><path d="m504.514 66.049v35.893h-19.974v-35.893c0-18.346-14.881-33.226-33.226-33.226h19.974c18.346 0 33.226 14.88 33.226 33.226z" fill="#f7c8b5"/></g><g><path d="m141.497 348.881h-101.717c-.82 0-1.485-.665-1.485-1.485v-146.414c0-.82.665-1.485 1.485-1.485h101.717c.82 0 1.485.665 1.485 1.485v146.414c0 .82-.665 1.485-1.485 1.485z" fill="#c4e2ff"/></g><g><path d="m142.978 200.982v146.418c0 .819-.659 1.478-1.478 1.478h-19.974c.819 0 1.478-.659 1.478-1.478v-146.418c0-.819-.659-1.488-1.478-1.488h19.974c.819 0 1.478.669 1.478 1.488z" fill="#b3dafe"/></g><g><g><path d="m274.619 396.611h-28.203c-17.092 0-30.947-13.856-30.947-30.947v-35.033c0-8.476 6.513-15.768 14.98-16.167 9.039-.426 16.502 6.777 16.502 15.723v28.107c0 3.776 3.061 6.837 6.837 6.837h20.388c8.476 0 15.769 6.514 16.167 14.98.424 9.038-6.779 16.5-15.724 16.5z" fill="#f4d7c8"/></g></g><g><g><path d="m403.678 396.611h28.203c17.092 0 30.947-13.856 30.947-30.947v-35.033c0-8.476-6.513-15.768-14.98-16.167-9.039-.426-16.502 6.777-16.502 15.723v28.107c0 3.776-3.061 6.837-6.837 6.837h-20.388c-8.476 0-15.769 6.514-16.167 14.98-.424 9.038 6.779 16.5 15.724 16.5z" fill="#f4d7c8"/></g></g><g><g><path d="m462.829 330.632v35.034c0 17.087-13.852 30.949-30.949 30.949h-14.811c17.098 0 30.949-13.862 30.949-30.949v-35.034c0-6.092-3.356-11.565-8.389-14.321 2.427-1.298 5.243-1.988 8.219-1.848 8.469.4 14.981 7.69 14.981 16.169z" fill="#f7c8b5"/></g></g><g><path d="m289.186 504.266h-72.544v-12.46c0-7.439 6.03-13.469 13.469-13.469h45.606c7.439 0 13.469 6.03 13.469 13.469z" fill="#f4d7c8"/></g><g><path d="m389.111 504.266h72.544v-12.46c0-7.439-6.03-13.469-13.469-13.469h-45.606c-7.439 0-13.469 6.03-13.469 13.469z" fill="#f4d7c8"/></g><g><path d="m461.65 491.791v12.474h-19.354v-12.474c0-7.43-6.022-13.452-13.442-13.452h19.355c7.419-.001 13.441 6.021 13.441 13.452z" fill="#f7c8b5"/></g><g><path d="m289.186 491.791v12.474h-19.354v-12.474c0-7.43-6.022-13.452-13.442-13.452h19.354c7.42-.001 13.442 6.021 13.442 13.452z" fill="#f7c8b5"/></g><g><path d="m386.001 336.992h-93.704c-2.763 0-5.002-2.24-5.002-5.002v-8.546c0-8.728 7.075-15.803 15.803-15.803h72.102c8.728 0 15.803 7.075 15.803 15.803v8.546c0 2.762-2.24 5.002-5.002 5.002z" fill="#e19974"/></g><g><path d="m391.003 323.422v8.578c0 2.756-2.237 4.993-4.993 4.993h-19.974c2.756 0 4.993-2.237 4.993-4.993v-8.579c0-8.719-7.071-15.779-15.779-15.779h19.974c8.708 0 15.779 7.061 15.779 15.78z" fill="#dc8758"/></g><g><path d="m7.49 101.02v39.452c0 15.25 12.362 27.612 27.612 27.612 15.25 0 27.612-12.362 27.612-27.612 0 15.25 12.362 27.612 27.612 27.612 15.25 0 27.612-12.362 27.612-27.612 0 15.25 12.362 27.612 27.612 27.612 15.25 0 27.612-12.362 27.612-27.612 0 15.25 12.362 27.612 27.612 27.612 15.25 0 27.612-12.362 27.612-27.612 0 15.25 12.362 27.612 27.612 27.612s27.612-12.362 27.612-27.612c0 15.25 12.362 27.612 27.612 27.612 15.25 0 27.612-12.362 27.612-27.612 0 15.25 12.362 27.612 27.612 27.612 15.25 0 27.612-12.362 27.612-27.612 0 15.25 12.362 27.612 27.612 27.612 15.25 0 27.612-12.362 27.612-27.612 0 15.25 12.362 27.612 27.612 27.612 15.25 0 27.612-12.362 27.612-27.612v-39.452z" fill="#e19974"/></g><g><path d="m504.514 101.023v39.448c0 7.63-3.096 14.531-8.089 19.524-4.993 5.003-11.904 8.089-19.524 8.089-3.525 0-6.891-.659-9.987-1.868 3.605-1.388 6.851-3.525 9.538-6.222 4.993-4.993 8.09-11.894 8.09-19.524v-39.448h19.972z" fill="#dc8758"/></g><g><path d="m399.615 67.382h-287.23c-3.11 0-5.631-2.521-5.631-5.631v-48.387c0-3.11 2.521-5.631 5.631-5.631h287.229c3.11 0 5.631 2.521 5.631 5.631v48.387c0 3.111-2.521 5.631-5.63 5.631z" fill="#e19974"/></g><g><path d="m405.244 13.358v48.396c0 3.106-2.517 5.633-5.623 5.633h-19.974c3.106 0 5.622-2.527 5.622-5.633v-48.396c0-3.106-2.517-5.623-5.622-5.623h19.974c3.107 0 5.623 2.517 5.623 5.623z" fill="#dc8758"/></g></g><g><path d="m39.778 192.007c-4.948 0-8.973 4.025-8.973 8.973v146.417c0 4.948 4.026 8.973 8.973 8.973h101.721c4.948 0 8.973-4.026 8.973-8.973v-41.143c0-4.137-3.354-7.49-7.49-7.49s-7.49 3.354-7.49 7.49v35.136h-89.707v-134.402h89.707v63.931c0 4.137 3.354 7.49 7.49 7.49s7.49-3.354 7.49-7.49v-69.939c0-4.948-4.025-8.973-8.973-8.973z"/><path d="m142.982 369.761c-4.137 0-7.49 3.354-7.49 7.49v8.766c0 4.137 3.354 7.49 7.49 7.49s7.49-3.354 7.49-7.49v-8.766c0-4.137-3.353-7.49-7.49-7.49z"/><path d="m471.285 25.333h-58.55v-11.976c0-7.231-5.883-13.114-13.114-13.114h-287.243c-7.231 0-13.114 5.883-13.114 13.114v11.976h-58.55c-22.449 0-40.714 18.264-40.714 40.715v438.218c0 4.137 3.354 7.49 7.49 7.49h497.02c4.137 0 7.49-3.354 7.49-7.49v-438.218c0-22.451-18.265-40.715-40.715-40.715zm-304.988 471.443h-151.317v-327.568c5.703 4.005 12.64 6.366 20.122 6.366 11.193 0 21.18-5.267 27.612-13.452 6.432 8.185 16.419 13.452 27.612 13.452s21.18-5.267 27.612-13.452c6.432 8.185 16.419 13.452 27.612 13.452 7.756 0 14.929-2.532 20.745-6.807v328.009zm115.399 0h-57.563v-4.988c0-3.287 2.674-5.961 5.96-5.961h45.642c3.287 0 5.961 2.674 5.961 5.961zm-27.909-124.156h20.387c4.586 0 8.482 3.518 8.685 7.842.108 2.288-.698 4.455-2.27 6.102-1.573 1.649-3.693 2.557-5.971 2.557h-28.203c-12.934 0-23.457-10.523-23.457-23.457v-35.033c0-4.585 3.518-8.482 7.842-8.685.136-.006.271-.01.405-.01 2.137 0 4.147.801 5.697 2.279 1.649 1.573 2.557 3.694 2.557 5.971v28.107c.001 7.9 6.428 14.327 14.328 14.327zm200.378 124.156h-57.563v-4.988c0-3.287 2.674-5.961 5.961-5.961h45.641c3.287 0 5.961 2.674 5.961 5.961zm42.855 0h-27.875v-4.988c0-11.547-9.394-20.941-20.941-20.941h-15.331v-66.771c20.736-.53 37.446-17.55 37.446-38.412v-35.033c0-12.677-9.715-23.065-22.117-23.649-6.419-.31-12.508 1.968-17.148 6.394-4.574 4.363-7.197 10.49-7.197 16.81v27.453h-19.734c-12.677 0-23.065 9.715-23.649 22.118-.302 6.419 1.969 12.508 6.395 17.147 4.363 4.573 10.49 7.196 16.809 7.196h14.215v66.746h-15.331c-11.547 0-20.941 9.394-20.941 20.941v4.988h-34.982v-152.293h39.368c6.885 0 12.486-5.601 12.486-12.486v-8.573c0-12.833-10.44-23.273-23.273-23.273h-72.144c-12.833 0-23.273 10.44-23.273 23.273v8.573c0 6.885 5.601 12.486 12.486 12.486h39.368v152.294h-34.982v-4.988c0-11.547-9.394-20.941-20.941-20.941h-15.33v-66.746h14.215c6.319 0 12.446-2.623 16.81-7.196 4.426-4.639 6.697-10.729 6.395-17.147-.584-12.403-10.971-22.118-23.649-22.118h-19.735v-27.453c0-6.32-2.623-12.447-7.197-16.81-4.639-4.426-10.734-6.702-17.147-6.394-12.403.584-22.118 10.971-22.118 23.649v35.033c0 20.862 16.709 37.883 37.445 38.412v66.771h-15.331c-11.547 0-20.941 9.394-20.941 20.941v4.988h-27.875v-327.143c5.582 3.745 12.287 5.941 19.499 5.941 11.193 0 21.18-5.267 27.612-13.452 6.432 8.185 16.419 13.452 27.612 13.452s21.18-5.267 27.612-13.452c6.432 8.185 16.419 13.452 27.612 13.452s21.18-5.267 27.612-13.452c6.432 8.185 16.419 13.452 27.612 13.452s21.18-5.267 27.612-13.452c6.432 8.185 16.419 13.452 27.612 13.452s21.18-5.267 27.612-13.452c6.432 8.185 16.419 13.452 27.612 13.452 7.482 0 14.419-2.361 20.122-6.366v327.567zm-65.139-107.655h-28.203c-2.277 0-4.398-.908-5.971-2.557-1.572-1.647-2.378-3.814-2.27-6.102.203-4.324 4.1-7.842 8.685-7.842h20.388c7.9 0 14.327-6.427 14.327-14.327v-28.107c0-2.277.908-4.398 2.557-5.971 1.647-1.571 3.81-2.376 6.103-2.269 4.324.203 7.842 4.1 7.842 8.685v35.033c0 12.934-10.523 23.457-23.458 23.457zm-137.097-59.619v-6.079c0-4.573 3.72-8.292 8.292-8.292h72.144c4.573 0 8.292 3.72 8.292 8.292v6.079zm202.236-189.03c0 11.095-9.027 20.122-20.122 20.122s-20.122-9.027-20.122-20.122c0-4.137-3.354-7.49-7.49-7.49s-7.49 3.354-7.49 7.49c0 11.095-9.027 20.122-20.122 20.122s-20.122-9.027-20.122-20.122c0-4.137-3.354-7.49-7.49-7.49s-7.49 3.354-7.49 7.49c0 11.095-9.027 20.122-20.122 20.122s-20.122-9.027-20.122-20.122c0-4.137-3.354-7.49-7.49-7.49-4.137 0-7.49 3.354-7.49 7.49 0 11.095-9.027 20.122-20.122 20.122s-20.122-9.027-20.122-20.122c0-4.137-3.354-7.49-7.49-7.49s-7.49 3.354-7.49 7.49c0 11.095-9.027 20.122-20.122 20.122s-20.122-9.027-20.122-20.122c0-4.137-3.354-7.49-7.49-7.49-4.137 0-7.49 3.354-7.49 7.49 0 11.095-9.027 20.122-20.122 20.122s-20.122-9.027-20.122-20.122c0-4.137-3.354-7.49-7.49-7.49s-7.49 3.354-7.49 7.49c0 11.095-9.027 20.122-20.122 20.122s-20.122-9.027-20.122-20.122c0-4.137-3.353-7.49-7.49-7.49s-7.49 3.354-7.49 7.49c0 11.095-9.027 20.122-20.122 20.122s-20.122-9.027-20.122-20.122c0-4.137-3.354-7.49-7.49-7.49s-7.49 3.354-7.49 7.49c0 11.095-9.027 20.122-20.122 20.122s-20.122-9.027-20.122-20.122v-31.039h482.036zm0-46.942h-482.04v-27.482c0-14.19 11.544-25.735 25.734-25.735h58.55v21.446c0 7.231 5.883 13.114 13.114 13.114h192.95c4.137 0 7.49-3.354 7.49-7.49s-3.354-7.49-7.49-7.49h-191.083v-44.669h283.511v44.668h-57.164c-4.137 0-7.49 3.354-7.49 7.49s3.354 7.49 7.49 7.49h59.031c7.231 0 13.114-5.883 13.114-13.114v-21.445h58.55c14.19 0 25.734 11.544 25.734 25.735v27.482z"/></g></g></svg>