<svg id="Capa_1" enable-background="new 0 0 512.002 512.002" height="512" viewBox="0 0 512.002 512.002" width="512" xmlns="http://www.w3.org/2000/svg"><g><g><path d="m26.814 504.502c-10.39 0-18.813-8.423-18.813-18.813v-231.21h37.626v231.21c0 10.39-8.423 18.813-18.813 18.813z" fill="#f8cd82"/></g><g><path d="m96.318 327.779h-50.691v-30.656h50.691c8.465 0 15.328 6.863 15.328 15.328.001 8.465-6.862 15.328-15.328 15.328z" fill="#f8cd82"/></g><g><path d="m96.318 392.332h-50.691v-30.656h50.691c8.465 0 15.328 6.863 15.328 15.328.001 8.465-6.862 15.328-15.328 15.328z" fill="#f8cd82"/></g><g><path d="m96.318 456.884h-50.691v-30.656h50.691c8.465 0 15.328 6.863 15.328 15.328.001 8.466-6.862 15.328-15.328 15.328z" fill="#f8cd82"/></g><g><path d="m145.061 221.137h-137.06v-169.976l137.06 32.916z" fill="#f8cd82"/></g><g><path d="m174.012 47.835-160.87-40.232c-2.64-.581-5.14 1.429-5.14 4.132v39.426l164.238 38.837c2.628.548 5.095-1.458 5.095-4.142v-33.889c-.001-1.986-1.383-3.705-3.323-4.132z" fill="#fab57f"/></g><g><path d="m112.145 76.172v144.965h32.916v-137.06z" fill="#fab57f"/></g><g><path d="m174.012 47.835-29.932-7.486c.211.632.337 1.314.337 2.032v41.038l27.821 6.579c2.627.548 5.095-1.458 5.095-4.142v-33.889c.001-1.986-1.381-3.705-3.321-4.132z" fill="#e79a62"/></g><g><path d="m368.475 221.137h-360.474v33.342h360.474c2.13 0 3.856-1.727 3.856-3.856v-25.629c.001-2.13-1.726-3.857-3.856-3.857z" fill="#fab57f"/></g><g><path d="m355.453 504.502c10.39 0 18.813-8.423 18.813-18.813v-366.397c0-10.39-8.423-18.813-18.813-18.813-10.39 0-18.813 8.423-18.813 18.813v366.397c0 10.39 8.423 18.813 18.813 18.813z" fill="#f8cd82"/></g><g><path d="m485.188 504.502c10.39 0 18.813-8.423 18.813-18.813v-366.397c0-10.39-8.423-18.813-18.813-18.813-10.39 0-18.813 8.423-18.813 18.813v366.397c0 10.39 8.423 18.813 18.813 18.813z" fill="#f8cd82"/></g><g><ellipse cx="72.806" cy="140.941" fill="#e7975c" rx="29.348" ry="29.348" transform="matrix(.924 -.383 .383 .924 -48.394 38.59)"/></g><g><path d="m485.188 92.979c-14.51 0-26.314 11.804-26.314 26.313v8.578h-77.108v-8.578c0-14.509-11.804-26.313-26.313-26.313s-26.312 11.804-26.312 26.313v11.679c-27.487 9.388-56.279 14.149-85.67 14.149-1.119 0-2.232-.007-3.351-.021-30.2-.371-58.115-5.791-87.559-16.99v-35.057l17.951 4.245c.064.015.13.03.195.044.802.167 1.609.249 2.411.249 2.668 0 5.268-.911 7.384-2.632 2.753-2.238 4.331-5.555 4.331-9.102v-33.889c0-5.419-3.811-10.204-9.08-11.427l-160.792-40.213c-.069-.017-.138-.034-.208-.049-3.49-.77-7.087.076-9.871 2.314-2.783 2.238-4.381 5.57-4.381 9.143v98.483c0 4.142 3.358 7.5 7.5 7.5s7.5-3.358 7.5-7.5v-49.577l122.089 28.871c-.015.191-.029.382-.029.577v123.548h-122.06v-70.502c0-4.142-3.358-7.5-7.5-7.5s-7.5 3.358-7.5 7.5v342.554c0 14.509 11.804 26.313 26.313 26.313s26.313-11.804 26.313-26.313v-21.305h43.191c12.588 0 22.828-10.241 22.828-22.829 0-12.587-10.24-22.828-22.828-22.828h-43.191v-18.896h43.191c12.588 0 22.828-10.241 22.828-22.829 0-12.587-10.24-22.828-22.828-22.828h-43.191v-18.896h43.191c12.588 0 22.828-10.241 22.828-22.828s-10.24-22.828-22.828-22.828h-43.191v-27.644h146.327c4.143 0 7.5-3.358 7.5-7.5s-3.357-7.5-7.5-7.5h-153.827-30.126v-18.342h313.639v18.342h-99.687c-4.143 0-7.5 3.358-7.5 7.5s3.357 7.5 7.5 7.5h99.687v223.71c0 14.509 11.804 26.313 26.312 26.313 14.51 0 26.313-11.804 26.313-26.313v-11.638h77.108v11.639c0 14.509 11.804 26.313 26.314 26.313 14.509 0 26.312-11.804 26.312-26.313v-366.397c.002-14.509-11.802-26.313-26.311-26.313zm-469.687-77.055 154.333 38.597v27.202l-154.333-36.495zm366.265 238.006h77.108v40.53h-77.108zm0 55.53h77.108v40.53h-77.108zm77.109-70.53h-77.108v-40.53h77.108zm-77.109 126.06h77.108v40.53h-77.108zm77.109-222.121v40.53h-77.108v-40.53zm-163.951 12.525v58.243h-25.484v-54.713c8.565-.786 17.065-1.967 25.484-3.53zm-51.453 4.726c3.666 0 7.322-.082 10.969-.221v53.738h-25.485v-53.899c3.635.188 7.291.315 10.985.361 1.179.014 2.353.021 3.531.021zm-29.517 53.517h-25.484v-59.211c8.448 1.803 16.915 3.169 25.484 4.105zm-61.393-69.534c7.066 2.543 14.066 4.785 21.04 6.704-.083.446-.131.904-.131 1.374v61.456h-20.908v-69.534zm-56.243 289.625c4.316 0 7.828 3.512 7.828 7.828 0 4.317-3.512 7.829-7.828 7.829h-43.191v-15.657zm0-64.552c4.316 0 7.828 3.512 7.828 7.828s-3.512 7.828-7.828 7.828h-43.191v-15.656zm0-64.553c4.316 0 7.828 3.512 7.828 7.828s-3.512 7.828-7.828 7.828h-43.191v-15.656zm-58.191-42.644v223.71c0 6.238-5.075 11.313-11.313 11.313s-11.313-5.075-11.313-11.313v-223.71zm271.797-48.342v-61.443c6.464-1.574 12.87-3.391 19.217-5.43v66.873zm56.842 272.052c0 6.238-5.075 11.313-11.313 11.313-6.237 0-11.312-5.075-11.312-11.313v-366.397c0-6.238 5.075-11.313 11.312-11.313 6.238 0 11.313 5.075 11.313 11.313zm15-26.639v-38.53h77.108v38.53zm114.735 26.639c0 6.238-5.075 11.313-11.312 11.313-6.238 0-11.314-5.075-11.314-11.313v-366.397c0-6.238 5.075-11.313 11.314-11.313 6.237 0 11.312 5.075 11.312 11.313z"/><path d="m109.653 140.941c0-20.318-16.53-36.848-36.848-36.848s-36.848 16.53-36.848 36.848 16.53 36.848 36.848 36.848c20.318-.001 36.848-16.53 36.848-36.848zm-58.695 0c0-12.047 9.801-21.848 21.848-21.848s21.848 9.801 21.848 21.848-9.801 21.848-21.848 21.848-21.848-9.801-21.848-21.848z"/></g></g></svg>