<svg id="Capa_1" enable-background="new 0 0 511.777 511.777" height="512" viewBox="0 0 511.777 511.777" width="512" xmlns="http://www.w3.org/2000/svg"><g><g><circle cx="255.931" cy="255.663" fill="#ffbe84" r="248.431"/><path d="m431.601 431.333c-65.5 65.5-158.46 86.78-241.81 63.84 78.11 14.91 162-7.87 222.47-68.34 97.02-97.02 97.02-254.32 0-351.33-31.58-31.58-69.55-52.88-109.75-63.89 47.29 8.98 92.48 31.77 129.09 68.38 97.02 97.02 97.02 254.32 0 351.34z" fill="#ffab69"/><g><path d="m431.597 431.33c-6.343 6.343-12.933 12.268-19.757 17.777l-349.352-349.354c5.508-6.824 11.434-13.414 17.777-19.757s12.933-12.268 19.757-17.777l349.353 349.353c-5.509 6.825-11.435 13.415-17.778 19.758z" fill="#f08045"/></g><g><path d="m431.597 431.33c-6.343 6.343-12.933 12.268-19.757 17.777l-11.285-11.285c3.995-3.514 7.898-7.177 11.71-10.988 8.895-8.895 16.978-18.307 24.247-28.122l12.862 12.862c-5.508 6.823-11.434 13.413-17.777 19.756z" fill="#e26d2e"/></g></g><g><path d="m503.631 276.184c-4.101-.473-7.83 2.497-8.293 6.613-2.542 22.565-8.107 44.247-16.497 64.677-2.942-2.729-7.536-2.672-10.398.189-2.929 2.93-2.929 7.678 0 10.607l3.808 3.808c-2.331 4.733-4.821 9.388-7.468 13.961-2.943-2.303-7.207-2.105-9.917.603-2.929 2.93-2.929 7.678 0 10.607l1.81 1.81c-2.546 3.808-5.205 7.552-7.979 11.227l-337.37-337.37c3.676-2.77 7.415-5.438 11.225-7.981l1.795 1.795c1.465 1.464 3.385 2.196 5.304 2.196s3.839-.732 5.304-2.196c2.7-2.701 2.904-6.943.627-9.885 4.578-2.648 9.235-5.14 13.967-7.473l3.777 3.778c1.465 1.465 3.384 2.197 5.304 2.197 1.919 0 3.839-.732 5.303-2.196 2.857-2.856 2.92-7.44.204-10.382 28.732-11.832 59.787-18.037 91.797-18.037 64.355 0 124.858 25.061 170.364 70.567 43.842 43.841 68.874 102.105 70.485 164.062.107 4.141 3.579 7.419 7.692 7.302 4.141-.107 7.41-3.552 7.302-7.692-1.711-65.814-28.302-127.707-74.873-174.278-74.216-74.216-189.119-95.02-284.15-53.229-93.425 41.083-152.754 132.461-152.754 234.2 0 68.361 26.621 132.63 74.96 180.97 48.34 48.339 112.609 74.96 180.971 74.96 128.829 0 239.945-99.599 254.313-227.117.464-4.117-2.497-7.829-6.613-8.293zm-77.337 149.843c-1.177 1.177-13.637 13.29-13.992 12.935-.331-.331-255.341-255.342-255.341-255.342-2.93-2.928-7.678-2.928-10.607 0-2.929 2.93-2.929 7.678 0 10.607l254.183 254.183c-3.676 2.77-7.415 5.438-11.225 7.98l-1.795-1.795c-2.93-2.928-7.678-2.928-10.607 0-2.7 2.701-2.904 6.943-.627 9.885-4.578 2.648-9.235 5.14-13.967 7.473l-3.779-3.779c-2.93-2.928-7.678-2.928-10.607 0-2.856 2.857-2.919 7.439-.204 10.382-28.732 11.832-59.786 18.037-91.796 18.037-64.354 0-124.857-25.061-170.363-70.567-45.506-45.505-70.567-106.008-70.567-170.363 0-32.01 6.205-63.064 18.037-91.797 1.434 1.323 3.253 1.993 5.078 1.993 1.919 0 3.839-.732 5.303-2.196 2.93-2.929 2.93-7.678.001-10.606l-3.779-3.779c2.333-4.732 4.824-9.389 7.473-13.967 1.346 1.043 2.962 1.57 4.581 1.57 1.919 0 3.84-.732 5.304-2.197 2.929-2.929 2.929-7.678-.001-10.606l-1.794-1.794c2.543-3.81 5.211-7.549 7.981-11.225l58.31 58.31c2.929 2.927 7.677 2.929 10.607 0 2.929-2.93 2.929-7.678 0-10.607 0 0-59.386-59.385-59.469-59.469-.168-.168 7.148-7.991 7.832-8.717 3.363-3.569 6.838-7.042 10.398-10.396.472-.445 8.565-7.948 8.705-7.821.156.171 339.288 339.304 339.667 339.683-.994 1.162-9.539 10.584-12.94 13.985z"/><path d="m424.719 303.94c2.929-2.93 2.929-7.678 0-10.607l-10.866-10.866c-2.93-2.928-7.678-2.928-10.607 0-2.929 2.93-2.929 7.678 0 10.607l10.866 10.866c1.465 1.464 3.385 2.196 5.304 2.196s3.838-.732 5.303-2.196z"/><path d="m392.12 271.341c2.929-2.93 2.929-7.678 0-10.607l-10.866-10.866c-2.93-2.928-7.678-2.928-10.607 0-2.929 2.93-2.929 7.678 0 10.607l10.866 10.866c1.465 1.464 3.385 2.196 5.304 2.196s3.838-.732 5.303-2.196z"/><path d="m294.325 162.939-10.866-10.866c-2.93-2.928-7.678-2.928-10.607 0-2.929 2.93-2.929 7.678 0 10.607l10.866 10.866c1.465 1.464 3.385 2.196 5.304 2.196s3.839-.732 5.304-2.196c2.928-2.93 2.928-7.678-.001-10.607z"/><path d="m359.521 238.742c2.929-2.93 2.929-7.678 0-10.607l-10.866-10.866c-2.93-2.928-7.678-2.928-10.607 0-2.929 2.93-2.929 7.678 0 10.607l10.866 10.866c1.465 1.464 3.385 2.196 5.304 2.196s3.839-.732 5.303-2.196z"/><path d="m326.924 195.537-10.866-10.866c-2.93-2.928-7.678-2.928-10.607 0-2.929 2.93-2.929 7.678 0 10.607l10.866 10.866c1.465 1.464 3.385 2.196 5.304 2.196s3.839-.732 5.304-2.196c2.928-2.929 2.928-7.677-.001-10.607z"/><path d="m457.317 336.538c2.929-2.93 2.929-7.678 0-10.607l-10.866-10.866c-2.93-2.928-7.678-2.928-10.607 0-2.929 2.93-2.929 7.678 0 10.607l10.866 10.866c1.465 1.464 3.385 2.196 5.304 2.196s3.839-.732 5.303-2.196z"/><path d="m229.128 97.741-10.866-10.866c-2.93-2.928-7.678-2.928-10.607 0-2.929 2.93-2.929 7.678 0 10.607l10.866 10.866c1.465 1.464 3.385 2.196 5.304 2.196s3.839-.732 5.304-2.196c2.928-2.929 2.928-7.677-.001-10.607z"/><path d="m191.226 77.947c1.919 0 3.839-.732 5.304-2.196 2.929-2.93 2.929-7.678 0-10.607l-10.866-10.866c-2.93-2.928-7.678-2.928-10.607 0-2.929 2.93-2.929 7.678 0 10.607l10.866 10.866c1.464 1.463 3.384 2.196 5.303 2.196z"/><path d="m261.727 130.34-10.866-10.866c-2.93-2.928-7.678-2.928-10.607 0-2.929 2.93-2.929 7.678 0 10.607l10.866 10.866c1.465 1.464 3.385 2.196 5.304 2.196s3.839-.732 5.304-2.196c2.927-2.929 2.927-7.677-.001-10.607z"/><path d="m97.75 207.387c-2.93-2.928-7.678-2.928-10.607 0-2.929 2.93-2.929 7.678 0 10.607l10.866 10.866c1.465 1.464 3.385 2.196 5.304 2.196s3.839-.732 5.304-2.196c2.929-2.93 2.929-7.678 0-10.607z"/><path d="m293.6 424.451c1.465 1.464 3.385 2.196 5.304 2.196s3.839-.732 5.304-2.196c2.929-2.93 2.929-7.678 0-10.607l-10.866-10.866c-2.93-2.928-7.678-2.928-10.607 0-2.929 2.93-2.929 7.678 0 10.607z"/><path d="m325.939 435.576c-2.93-2.928-7.678-2.928-10.607 0-2.929 2.93-2.929 7.678 0 10.607l10.866 10.866c1.465 1.464 3.385 2.196 5.304 2.196s3.839-.732 5.304-2.196c2.929-2.93 2.929-7.678 0-10.607z"/><path d="m65.151 174.788c-2.93-2.928-7.678-2.928-10.607 0-2.929 2.93-2.929 7.678 0 10.607l10.866 10.866c1.465 1.464 3.385 2.196 5.304 2.196s3.839-.732 5.304-2.196c2.929-2.93 2.929-7.678 0-10.607z"/><path d="m152.34 283.192 10.866 10.866c1.465 1.464 3.385 2.196 5.304 2.196s3.839-.732 5.304-2.196c2.929-2.93 2.929-7.678 0-10.607l-10.866-10.866c-2.93-2.928-7.678-2.928-10.607 0-2.93 2.929-2.93 7.677-.001 10.607z"/><path d="m261.001 391.853c1.465 1.464 3.385 2.196 5.304 2.196s3.839-.732 5.304-2.196c2.929-2.93 2.929-7.678 0-10.607l-10.866-10.866c-2.93-2.928-7.678-2.928-10.607 0-2.929 2.93-2.929 7.678 0 10.607z"/><path d="m130.349 239.986c-2.93-2.928-7.678-2.928-10.607 0-2.929 2.93-2.929 7.678 0 10.607l10.866 10.866c1.465 1.464 3.385 2.196 5.304 2.196s3.839-.732 5.304-2.196c2.929-2.93 2.929-7.678 0-10.607z"/><path d="m184.938 315.79 10.866 10.866c1.465 1.464 3.385 2.196 5.304 2.196s3.839-.732 5.304-2.196c2.929-2.93 2.929-7.678 0-10.607l-10.866-10.866c-2.93-2.928-7.678-2.928-10.607 0-2.929 2.93-2.929 7.678-.001 10.607z"/><path d="m228.402 359.254c1.465 1.464 3.385 2.196 5.304 2.196s3.839-.732 5.304-2.196c2.929-2.93 2.929-7.678 0-10.607l-10.866-10.866c-2.93-2.928-7.678-2.928-10.607 0-2.929 2.93-2.929 7.678 0 10.607z"/><path d="m434.207 366.593c1.465 1.464 3.385 2.196 5.304 2.196s3.839-.732 5.304-2.196c2.929-2.93 2.929-7.678 0-10.607l-10.329-10.329c-2.93-2.928-7.678-2.928-10.607 0-2.929 2.93-2.929 7.678 0 10.607z"/><path d="m217.582 128.753c-2.93-2.928-7.678-2.928-10.607 0-2.929 2.93-2.929 7.678 0 10.607l10.328 10.328c1.465 1.464 3.385 2.196 5.304 2.196s3.839-.732 5.304-2.196c2.929-2.93 2.929-7.678 0-10.607z"/><path d="m341.248 273.634c1.465 1.464 3.385 2.196 5.304 2.196s3.839-.732 5.304-2.196c2.929-2.93 2.929-7.678 0-10.607l-10.329-10.329c-2.93-2.928-7.678-2.928-10.607 0-2.929 2.93-2.929 7.678 0 10.607z"/><path d="m372.234 304.62c1.465 1.464 3.385 2.196 5.304 2.196s3.839-.732 5.304-2.196c2.929-2.93 2.929-7.678 0-10.607l-10.329-10.329c-2.93-2.928-7.678-2.928-10.607 0-2.929 2.93-2.929 7.678 0 10.607z"/><path d="m237.961 159.74c-2.929 2.93-2.929 7.678 0 10.607l10.328 10.328c1.465 1.464 3.385 2.196 5.304 2.196s3.839-.732 5.304-2.196c2.929-2.93 2.929-7.678 0-10.607l-10.328-10.328c-2.93-2.928-7.678-2.928-10.608 0z"/><path d="m403.221 335.607c1.465 1.464 3.385 2.196 5.304 2.196s3.839-.732 5.304-2.196c2.929-2.93 2.929-7.678 0-10.607l-10.329-10.329c-2.93-2.928-7.678-2.928-10.607 0-2.929 2.93-2.929 7.678 0 10.607z"/><path d="m186.317 118.703c1.465 1.464 3.385 2.196 5.304 2.196s3.839-.732 5.304-2.196c2.929-2.93 2.929-7.678 0-10.607l-10.329-10.329c-2.93-2.928-7.678-2.928-10.607 0-2.929 2.93-2.929 7.678 0 10.607z"/><path d="m268.947 190.726c-2.929 2.93-2.929 7.678 0 10.607l10.328 10.328c1.465 1.464 3.385 2.196 5.304 2.196s3.839-.732 5.304-2.196c2.929-2.93 2.929-7.678 0-10.607l-10.328-10.328c-2.93-2.928-7.678-2.928-10.608 0z"/><path d="m155.609 66.781c-2.93-2.928-7.678-2.928-10.607 0-2.929 2.93-2.929 7.678 0 10.607l10.329 10.329c1.465 1.464 3.385 2.196 5.304 2.196s3.839-.732 5.304-2.196c2.929-2.93 2.929-7.678 0-10.607z"/><path d="m310.54 221.711c-2.93-2.928-7.678-2.928-10.607 0-2.929 2.93-2.929 7.678 0 10.607l10.329 10.329c1.465 1.464 3.385 2.196 5.304 2.196s3.839-.732 5.304-2.196c2.929-2.93 2.929-7.678 0-10.607z"/><path d="m129.021 206.707c-2.929 2.93-2.929 7.678 0 10.607l10.328 10.328c1.465 1.464 3.385 2.196 5.304 2.196s3.839-.732 5.304-2.196c2.929-2.93 2.929-7.678 0-10.607l-10.328-10.328c-2.931-2.927-7.679-2.927-10.608 0z"/><path d="m87.984 155.064-10.329-10.329c-2.93-2.928-7.678-2.928-10.607 0-2.929 2.93-2.929 7.678 0 10.607l10.329 10.329c1.465 1.464 3.385 2.196 5.304 2.196s3.839-.732 5.304-2.196c2.928-2.93 2.928-7.678-.001-10.607z"/><path d="m118.971 186.05-10.329-10.329c-2.93-2.928-7.678-2.928-10.607 0-2.929 2.93-2.929 7.678 0 10.607l10.329 10.329c1.465 1.464 3.385 2.196 5.304 2.196s3.839-.732 5.304-2.196c2.927-2.929 2.927-7.677-.001-10.607z"/><path d="m294.28 382.574c1.465 1.464 3.385 2.196 5.304 2.196s3.839-.732 5.304-2.196c2.929-2.93 2.929-7.678 0-10.607l-10.329-10.329c-2.93-2.928-7.678-2.928-10.607 0-2.929 2.93-2.929 7.678 0 10.607z"/><path d="m325.267 413.561c1.465 1.464 3.385 2.196 5.304 2.196s3.839-.732 5.304-2.196c2.929-2.93 2.929-7.678 0-10.607l-10.329-10.329c-2.93-2.928-7.678-2.928-10.607 0-2.929 2.93-2.929 7.678 0 10.607z"/><path d="m356.253 444.547c1.465 1.464 3.385 2.196 5.304 2.196s3.839-.732 5.304-2.196c2.929-2.93 2.929-7.678 0-10.607l-10.329-10.329c-2.93-2.928-7.678-2.928-10.607 0-2.929 2.93-2.929 7.678 0 10.607z"/><path d="m263.294 351.588c1.465 1.464 3.385 2.196 5.304 2.196s3.839-.732 5.304-2.196c2.929-2.93 2.929-7.678 0-10.607l-10.329-10.329c-2.93-2.928-7.678-2.928-10.607 0-2.929 2.93-2.929 7.678 0 10.607z"/><path d="m170.335 258.629c1.465 1.464 3.385 2.196 5.304 2.196s3.839-.732 5.304-2.196c2.929-2.93 2.929-7.678 0-10.607l-10.328-10.328c-2.93-2.928-7.678-2.928-10.607 0-2.929 2.93-2.929 7.678 0 10.607z"/><path d="m232.308 320.602c1.465 1.464 3.385 2.196 5.304 2.196s3.839-.732 5.304-2.196c2.929-2.93 2.929-7.678 0-10.607l-10.329-10.329c-2.93-2.928-7.678-2.928-10.607 0-2.929 2.93-2.929 7.678 0 10.607z"/><path d="m201.321 289.616c1.465 1.464 3.385 2.196 5.304 2.196s3.839-.732 5.304-2.196c2.929-2.93 2.929-7.678 0-10.607l-10.328-10.328c-2.93-2.928-7.678-2.928-10.607 0-2.929 2.93-2.929 7.678 0 10.607z"/></g></g></svg>