<svg id="Capa_1" enable-background="new 0 0 512 512" height="512" viewBox="0 0 512 512" width="512" xmlns="http://www.w3.org/2000/svg"><g><path d="m376 429.5-120-60 146.5 135h48.5z" fill="#de3159"/><path d="m256 369.5-120 60-75 75h341.5l-56.5-75z" fill="#e54c72"/><path d="m406 429.5-150-211 150-211h30v422z" fill="#fd8"/><path d="m76 429.5v-422h330v60l-300 362z" fill="#fff494"/><path d="m106 67.5v362h30l120-60 120 60h30v-362z" fill="#f2f8ff"/><path d="m376 369.5-90-30 60 90h30z" fill="#b4c0cf"/><path d="m346 339.5h-120l30 90h90z" fill="#c8d4e3"/><path d="m256 339.5-120 30v60h120z" fill="#dae7f5"/><path d="m346 369.5-60-136 60-136h30v272z" fill="#727f8c"/><path d="m256 369.5-60-136 60-136h90v272z" fill="#818e9c"/><path d="m136 97.5h120v272h-120z" fill="#909dab"/><path d="m256 264.5-15 37.5 15 37.5h30v-75z" fill="#dae7f5"/><path d="m226 264.5h30v75h-30z" fill="#f2f8ff"/><circle cx="316" cy="187.5" fill="#fffade" r="30"/><circle cx="196" cy="187.5" fill="#fffade" r="30"/><path d="m456.304 499.197-62.198-62.197h41.894c4.143 0 7.5-3.358 7.5-7.5v-422c0-4.142-3.357-7.5-7.5-7.5h-360c-4.143 0-7.5 3.358-7.5 7.5v422c0 4.142 3.357 7.5 7.5 7.5h41.894l-62.197 62.197c-2.145 2.145-2.786 5.371-1.625 8.173 1.16 2.803 3.896 4.63 6.929 4.63h390c3.033 0 5.769-1.827 6.929-4.63s.518-6.028-1.626-8.173zm-192.804-77.197v-45h105v45zm-120-45h105v45h-105zm120-105h15v60h-15zm-15 60h-15v-60h15zm37.5 15c4.143 0 7.5-3.358 7.5-7.5v-75c0-4.142-3.357-7.5-7.5-7.5h-22.5v-152h105v257h-105v-15zm-202.5-332h345v407h-15v-219.5c0-4.142-3.357-7.5-7.5-7.5s-7.5 3.358-7.5 7.5v219.5h-15v-324.5c0-4.142-3.357-7.5-7.5-7.5h-240c-4.143 0-7.5 3.358-7.5 7.5v189.5c0 4.142 3.357 7.5 7.5 7.5s7.5-3.358 7.5-7.5v-182h105v152h-22.5c-4.143 0-7.5 3.358-7.5 7.5v75c0 4.142 3.357 7.5 7.5 7.5h22.5v15h-105v-45c0-4.142-3.357-7.5-7.5-7.5s-7.5 3.358-7.5 7.5v105h-15v-347h285v97.5c0 4.142 3.357 7.5 7.5 7.5s7.5-3.358 7.5-7.5v-105c0-4.142-3.357-7.5-7.5-7.5h-300c-4.143 0-7.5 3.358-7.5 7.5v354.5h-15zm-4.394 482 60-60h233.786l60 60z"/><path d="m353.5 187.5c0-20.678-16.822-37.5-37.5-37.5s-37.5 16.822-37.5 37.5 16.822 37.5 37.5 37.5 37.5-16.822 37.5-37.5zm-60 0c0-12.407 10.094-22.5 22.5-22.5s22.5 10.093 22.5 22.5-10.094 22.5-22.5 22.5-22.5-10.093-22.5-22.5z"/><path d="m196 225c20.678 0 37.5-16.822 37.5-37.5s-16.822-37.5-37.5-37.5-37.5 16.822-37.5 37.5 16.822 37.5 37.5 37.5zm0-60c12.406 0 22.5 10.093 22.5 22.5s-10.094 22.5-22.5 22.5-22.5-10.093-22.5-22.5 10.094-22.5 22.5-22.5z"/></g></svg>