<svg id="Capa_1" enable-background="new 0 0 512 512" height="512" viewBox="0 0 512 512" width="512" xmlns="http://www.w3.org/2000/svg"><g><path d="m7.5 45.816h497v46.978h-497z" fill="#eaa598"/><path d="m485.431 45.816h19.069v46.979h-19.069z" fill="#e48e81"/><path d="m340.502 19.225h-169.004c-5.281 0-9.562 4.281-9.562 9.562v75.773c0 5.281 4.281 9.562 9.562 9.562h25.907c5.281 0 9.562 4.281 9.562 9.562v23.978h98.067v-23.978c0-5.281 4.281-9.562 9.562-9.562h25.907c5.281 0 9.562-4.281 9.562-9.562v-75.773c-.001-5.281-4.282-9.562-9.563-9.562z" fill="#da4a54"/><g fill="#d82e3d"><path d="m285.965 123.684v23.979h19.069v-23.979c0-5.281 4.281-9.562 9.562-9.562h-19.069c-5.281 0-9.562 4.281-9.562 9.562z"/><path d="m340.502 19.225h-19.069c5.281 0 9.562 4.281 9.562 9.562v75.773c0 5.281-4.281 9.562-9.562 9.562h19.069c5.281 0 9.562-4.281 9.562-9.562v-75.773c0-5.281-4.281-9.562-9.562-9.562z"/></g><path d="m194.828 147.662h122.344v25.772h-122.344z" fill="#544f57"/><path d="m298.103 147.662h19.069v25.772h-19.069z" fill="#454045"/><path d="m353.124 173.434h-194.248c-3.645 0-6.6 2.955-6.6 6.6v21.219c0 3.645 2.955 6.6 6.6 6.6h194.249c3.645 0 6.6-2.955 6.6-6.6v-21.219c-.001-3.645-2.956-6.6-6.601-6.6z" fill="#da4a54"/><path d="m353.124 173.434h-20.069c3.645 0 6.599 2.955 6.599 6.6v21.219c0 3.645-2.955 6.599-6.599 6.599h20.069c3.645 0 6.599-2.955 6.599-6.599v-21.219c.001-3.645-2.954-6.6-6.599-6.6z" fill="#d82e3d"/><path d="m289.541 237.994h-67.081c-6.174 0-11.178-5.005-11.178-11.178v-18.964h89.438v18.964c-.001 6.174-5.006 11.178-11.179 11.178z" fill="#544f57"/><path d="m283.65 207.852v18.964c0 6.174-5.005 11.179-11.178 11.179h17.069c6.174 0 11.178-5.005 11.178-11.179v-18.964z" fill="#454045"/><path d="m332.347 342.129h-152.694c-4.366 0-7.906-3.539-7.906-7.906v-9.694c0-4.366 3.539-7.905 7.906-7.905h152.694c4.366 0 7.905 3.539 7.905 7.905v9.694c.001 4.367-3.539 7.906-7.905 7.906z" fill="#afaab4"/><path d="m332.347 316.624h-19.069c4.366 0 7.906 3.54 7.906 7.905v9.694c0 4.366-3.539 7.906-7.906 7.906h19.069c4.366 0 7.906-3.54 7.906-7.906v-9.694c0-4.365-3.54-7.905-7.906-7.905z" fill="#8b818e"/><path d="m275.069 316.624h-38.138v-38.116c0-10.531 8.537-19.069 19.069-19.069 10.531 0 19.069 8.537 19.069 19.069z" fill="#544f57"/><path d="m256 259.44c-2.716 0-5.295.577-7.634 1.601 6.729 2.945 11.435 9.653 11.435 17.468v38.116h15.268v-38.116c0-10.532-8.537-19.069-19.069-19.069z" fill="#454045"/><g><path d="m512 92.794c0-4.143-3.357-7.5-7.5-7.5h-64.916v-31.978h64.916c4.143 0 7.5-3.357 7.5-7.5s-3.357-7.5-7.5-7.5h-64.916v-.476c0-4.143-3.357-7.5-7.5-7.5s-7.5 3.357-7.5 7.5v.476h-67.021v-9.528c0-9.408-7.653-17.062-17.062-17.062h-128.454c-4.142 0-7.5 3.357-7.5 7.5s3.358 7.5 7.5 7.5h128.455c1.137 0 2.062.925 2.062 2.062v75.772c0 1.137-.925 2.062-2.062 2.062h-25.907c-9.408 0-17.062 7.654-17.062 17.062v16.479h-83.067v-16.479c0-9.408-7.654-17.062-17.062-17.062h-25.907c-1.137 0-2.062-.925-2.062-2.062v-75.773c0-1.138.925-2.062 2.062-2.062h10.562c4.142 0 7.5-3.357 7.5-7.5s-3.358-7.5-7.5-7.5h-10.562c-9.408 0-17.062 7.654-17.062 17.062v9.528h-67.02v-.475c0-4.143-3.358-7.5-7.5-7.5s-7.5 3.357-7.5 7.5v.476h-64.915c-4.142 0-7.5 3.357-7.5 7.5s3.358 7.5 7.5 7.5h64.916v31.979h-64.916c-4.142 0-7.5 3.357-7.5 7.5s3.358 7.5 7.5 7.5h64.916v.475c0 4.143 3.358 7.5 7.5 7.5s7.5-3.357 7.5-7.5v-.475h67.02v4.266c0 9.408 7.654 17.062 17.062 17.062h25.907c1.137 0 2.062.925 2.062 2.062v16.479h-4.638-8.718c-4.142 0-7.5 3.357-7.5 7.5s3.358 7.5 7.5 7.5h1.218v10.771h-28.452c-7.774 0-14.1 6.325-14.1 14.1v21.219c0 7.774 6.325 14.1 14.1 14.1h12.432v73.217c0 2.329 1.082 4.526 2.929 5.946l19.002 14.609h-13.586c-8.495 0-15.405 6.911-15.405 15.405v9.694c0 8.494 6.911 15.405 15.405 15.405h16.635c4.142 0 7.5-3.357 7.5-7.5s-3.358-7.5-7.5-7.5h-16.635c-.224 0-.405-.182-.405-.405v-9.694c0-.224.182-.405.405-.405h152.694c.224 0 .405.182.405.405v9.694c0 .224-.182.405-.405.405h-106.074c-4.142 0-7.5 3.357-7.5 7.5s3.358 7.5 7.5 7.5h106.073c8.494 0 15.405-6.911 15.405-15.405v-9.694c0-8.494-6.911-15.405-15.405-15.405h-13.586l19.002-14.609c1.847-1.42 2.929-3.617 2.929-5.946v-73.217h12.433c7.774 0 14.1-6.325 14.1-14.1v-21.219c0-7.774-6.325-14.1-14.1-14.1h-28.452v-10.771h1.217c4.143 0 7.5-3.357 7.5-7.5s-3.357-7.5-7.5-7.5h-8.717-4.639v-16.479c0-1.138.925-2.062 2.062-2.062h25.907c9.408 0 17.062-7.653 17.062-17.062v-4.266h67.021v.475c0 4.143 3.357 7.5 7.5 7.5s7.5-3.357 7.5-7.5v-.475h64.914c4.143-.001 7.5-3.358 7.5-7.501zm-424.584-7.5v-31.978h67.02v31.979h-67.02zm157.015 223.83v-30.615c0-6.379 5.19-11.569 11.569-11.569s11.569 5.19 11.569 11.569v30.615zm81.261-24.25-31.542 24.25h-11.581v-30.615c0-14.65-11.919-26.569-26.569-26.569s-26.569 11.919-26.569 26.569v30.615h-11.581l-31.542-24.25v-69.522h17.473v11.464c0 10.3 8.379 18.679 18.679 18.679h17.24c4.142 0 7.5-3.357 7.5-7.5s-3.358-7.5-7.5-7.5h-17.24c-2.028 0-3.679-1.65-3.679-3.679v-11.464h74.438v11.464c0 2.028-1.65 3.679-3.679 3.679h-19.854c-4.143 0-7.5 3.357-7.5 7.5s3.357 7.5 7.5 7.5h19.854c10.3 0 18.679-8.379 18.679-18.679v-11.464h17.473zm26.532-84.522c-24.113 0-168.228 0-192.448 0v-19.418h192.448zm-42.552-34.418h-107.344v-10.771h107.344zm47.892-80.64v-31.978h67.021v31.979h-67.021z"/><path d="m256 358.695c-4.142 0-7.5 3.357-7.5 7.5v17.451c0 4.143 3.358 7.5 7.5 7.5s7.5-3.357 7.5-7.5v-17.451c0-4.143-3.358-7.5-7.5-7.5z"/><path d="m256 413.259c-4.142 0-7.5 3.357-7.5 7.5v17.451c0 4.143 3.358 7.5 7.5 7.5s7.5-3.357 7.5-7.5v-17.451c0-4.143-3.358-7.5-7.5-7.5z"/><path d="m256 467.823c-4.142 0-7.5 3.357-7.5 7.5v17.452c0 4.143 3.358 7.5 7.5 7.5s7.5-3.357 7.5-7.5v-17.452c0-4.142-3.358-7.5-7.5-7.5z"/><path d="m193.59 402.316c-3.845-1.531-8.21.341-9.745 4.188l-6.465 16.21c-1.535 3.848.34 8.21 4.188 9.745.911.363 1.851.535 2.776.535 2.979 0 5.798-1.787 6.969-4.724l6.465-16.21c1.534-3.847-.34-8.209-4.188-9.744z"/><path d="m173.377 452.998c-3.849-1.532-8.21.343-9.745 4.188l-6.464 16.21c-1.535 3.848.341 8.211 4.188 9.745.912.363 1.851.535 2.776.535 2.979 0 5.798-1.788 6.969-4.724l6.464-16.21c1.535-3.846-.341-8.21-4.188-9.744z"/><path d="m334.62 422.714-6.464-16.21c-1.534-3.849-5.898-5.721-9.745-4.188-3.848 1.534-5.723 5.897-4.188 9.745l6.464 16.21c1.171 2.937 3.989 4.724 6.969 4.724.925 0 1.865-.172 2.776-.535 3.847-1.535 5.722-5.898 4.188-9.746z"/><path d="m348.368 457.187c-1.535-3.849-5.898-5.722-9.745-4.188-3.848 1.535-5.723 5.897-4.188 9.745l6.465 16.21c1.172 2.937 3.989 4.724 6.969 4.724.925 0 1.865-.172 2.776-.535 3.848-1.535 5.723-5.897 4.188-9.745z"/><path d="m207.082 76.805h97.835c4.143 0 7.5-3.357 7.5-7.5s-3.357-7.5-7.5-7.5h-97.835c-4.142 0-7.5 3.357-7.5 7.5s3.358 7.5 7.5 7.5z"/></g></g></svg>