<svg id="Capa_1" enable-background="new 0 0 512 512" height="512" viewBox="0 0 512 512" width="512" xmlns="http://www.w3.org/2000/svg"><g><path d="m55.847 322.116c-.712-1.535-2.909-1.535-3.621 0-15.088 32.504-24.959 86.467-24.959 147.544h44.562c0-24.558 1.602-47.956 4.491-69.281-4.297-31.714-11.45-58.827-20.473-78.263z" fill="#a2e62e"/><g><path d="m55.847 322.116c-.712-1.535-2.909-1.535-3.621 0-15.088 32.504-24.959 86.467-24.959 147.544h15.193c0-52.868 7.399-100.394 19.173-133.298-1.828-5.109-3.758-9.877-5.786-14.246z" fill="#97d729"/></g><g><path d="m150.899 129.714c-3.403-5.894-10.175-9.846-19.521-11.534 15.897-2.83 21.854-11.814 21.854-20.317 0-11.497-9.56-19.22-18.489-19.22-6.819 0-13.641 3.904-19.786 11.183 3.232-8.962 3.202-16.821-.208-22.727-3.239-5.61-9.278-8.959-16.155-8.959s-12.917 3.349-16.156 8.959c-3.41 5.906-3.44 13.766-.208 22.727-6.145-7.279-12.967-11.183-19.786-11.183-8.93 0-18.492 7.723-18.492 19.22 0 8.488 5.938 17.458 21.781 20.303-5.756 1.031-10.494 2.93-14.155 5.682-4.916 3.695-7.623 8.89-7.623 14.627 0 11.497 9.56 19.22 18.489 19.22 6.819 0 13.641-3.904 19.786-11.183-3.232 8.962-3.202 16.821.208 22.727 3.239 5.61 9.278 8.959 16.156 8.959 6.877 0 12.916-3.349 16.155-8.959 3.41-5.906 3.44-13.766.208-22.727 6.145 7.279 12.967 11.183 19.786 11.183h.001c6.477 0 12.397-3.555 15.836-9.51 3.439-5.956 3.558-12.861.319-18.471z" fill="#fe73c5"/></g><g><circle cx="98.599" cy="118.17" fill="#fed402" r="25.062"/></g><g><path d="m91.876 118.17c0-10.604 6.589-19.662 15.892-23.323-2.841-1.118-5.932-1.739-9.17-1.739-13.841 0-25.062 11.221-25.062 25.062s11.221 25.062 25.062 25.062c3.238 0 6.329-.621 9.17-1.739-9.303-3.661-15.892-12.72-15.892-23.323z" fill="#fac600"/></g><path d="m98.599 318.369c-16.104 32.003-26.77 87.804-26.77 151.292h45.266c0-19.31 2.011-37.599 5.596-53.96-4.124-40.485-12.758-74.807-24.092-97.332z" fill="#a2e62e"/><g><path d="m98.599 318.369c-16.104 32.003-26.77 87.804-26.77 151.292h15.171c0-52.884 7.404-100.421 19.184-133.326-2.362-6.598-4.896-12.621-7.585-17.966z" fill="#97d729"/></g><path d="m162.306 469.661c0-18.868.946-37.051 2.693-54.138-4.394-19.97-11.137-37.053-19.464-49.556-.794-1.192-2.546-1.192-3.34 0-15.168 22.774-25.1 60.723-25.1 103.694z" fill="#a2e62e"/><g><path d="m145.534 365.967c-.794-1.192-2.546-1.192-3.34 0-15.168 22.774-25.1 60.723-25.1 103.694h15.366c0-36.989 7.364-70.246 19.087-93.318-1.896-3.731-3.901-7.206-6.013-10.376z" fill="#97d729"/></g><path d="m213.102 415.042c-3.081-29.826-8.612-56.278-15.869-77.093-4.475 1.931-10.052 1.237-15.372-2.668-11.998 32.939-19.556 80.936-19.556 134.38h45.06c0-19.568 2.061-38.093 5.737-54.619z" fill="#a2e62e"/><path d="m181.861 335.281c-11.998 32.939-19.556 80.936-19.556 134.38h15.155c0-51.775 7.099-98.416 18.451-131.229-4.226 1.281-9.242.378-14.05-3.151z" fill="#97d729"/><g><g><path d="m286.436 206.687c-3.403-5.894-10.175-9.846-19.521-11.534 15.897-2.83 21.854-11.814 21.854-20.317 0-11.497-9.56-19.22-18.489-19.22-6.819 0-13.641 3.904-19.786 11.183 3.232-8.962 3.202-16.821-.208-22.727-3.239-5.61-9.278-8.959-16.155-8.959s-12.917 3.349-16.156 8.959c-3.41 5.906-3.44 13.766-.208 22.727-6.145-7.279-12.967-11.183-19.786-11.183-8.93 0-18.492 7.723-18.492 19.22 0 8.488 5.938 17.458 21.781 20.303-5.756 1.031-10.494 2.93-14.155 5.682-4.916 3.695-7.623 8.89-7.623 14.627 0 11.497 9.56 19.22 18.489 19.22 6.819 0 13.641-3.904 19.786-11.183-3.232 8.962-3.202 16.821.208 22.727 3.239 5.61 9.278 8.959 16.156 8.959 6.877 0 12.916-3.349 16.155-8.959 3.41-5.906 3.44-13.766.208-22.727 6.145 7.279 12.967 11.183 19.786 11.183h.001c6.477 0 12.397-3.555 15.836-9.51 3.438-5.956 3.558-12.861.319-18.471z" fill="#925cb4"/></g><g><circle cx="234.135" cy="195.142" fill="#fff" r="25.062"/></g><g><path d="m227.876 195.142c0-10.516 6.479-19.513 15.661-23.232-2.904-1.176-6.076-1.83-9.401-1.83-13.841 0-25.062 11.221-25.062 25.062s11.221 25.062 25.062 25.062c3.326 0 6.498-.654 9.401-1.83-9.182-3.719-15.661-12.716-15.661-23.232z" fill="#dff6fd"/></g></g><path d="m234.135 363.551c-16.104 22.446-26.77 61.582-26.77 106.11h45.363c0-18.696.929-36.72 2.645-53.671-4.678-21.493-12.076-39.67-21.238-52.439z" fill="#a2e62e"/><g><path d="m234.135 363.551c-16.104 22.446-26.77 61.582-26.77 106.11h15.095c0-37.131 7.42-70.503 19.222-93.584-2.35-4.599-4.872-8.798-7.547-12.526z" fill="#97d729"/></g><path d="m281.308 322.116c-.712-1.535-2.909-1.535-3.621 0-15.088 32.504-24.959 86.467-24.959 147.544h45.211c0-19.382 2.026-37.736 5.637-54.143-3.908-38.224-11.84-70.938-22.268-93.401z" fill="#a2e62e"/><g><path d="m281.308 322.116c-.712-1.535-2.909-1.535-3.621 0-15.088 32.504-24.959 86.467-24.959 147.544h15.272c0-52.809 7.383-100.287 19.134-133.187-1.84-5.15-3.783-9.957-5.826-14.357z" fill="#97d729"/></g><path d="m326.379 365.967c-.794-1.192-2.546-1.192-3.34 0-15.168 22.774-25.1 60.723-25.1 103.694h42.624c0-21.622 1.24-42.35 3.507-61.552-4.348-16.791-10.414-31.216-17.691-42.142z" fill="#a2e62e"/><g><path d="m326.379 365.967c-.794-1.192-2.546-1.192-3.34 0-15.168 22.774-25.1 60.723-25.1 103.694h15.061c0-37.149 7.427-70.536 19.24-93.619-1.851-3.617-3.806-6.99-5.861-10.075z" fill="#97d729"/></g><g><path d="m419.634 129.714c-3.403-5.894-10.175-9.846-19.521-11.534 15.897-2.83 21.854-11.814 21.854-20.317 0-11.497-9.56-19.22-18.489-19.22-6.819 0-13.641 3.904-19.786 11.183 3.232-8.962 3.202-16.821-.208-22.727-3.239-5.61-9.278-8.959-16.155-8.959s-12.917 3.349-16.156 8.959c-3.41 5.906-3.44 13.766-.208 22.727-6.145-7.279-12.967-11.183-19.786-11.183-8.93 0-18.492 7.723-18.492 19.22 0 8.488 5.938 17.458 21.781 20.303-5.756 1.031-10.494 2.93-14.155 5.682-4.916 3.695-7.623 8.89-7.623 14.627 0 11.497 9.56 19.22 18.489 19.22 6.819 0 13.641-3.904 19.786-11.183-3.232 8.962-3.202 16.821.208 22.727 3.239 5.61 9.278 8.959 16.156 8.959 6.877 0 12.916-3.349 16.155-8.959 3.41-5.906 3.44-13.766.208-22.727 6.145 7.279 12.967 11.183 19.786 11.183h.001c6.477 0 12.397-3.555 15.836-9.51 3.438-5.956 3.557-12.861.319-18.471z" fill="#fac600"/></g><g><circle cx="367.333" cy="118.17" fill="#fe93d3" r="25.062"/></g><g><path d="m360 118.17c0-10.719 6.732-19.863 16.198-23.444-2.757-1.043-5.743-1.618-8.865-1.618-13.841 0-25.062 11.221-25.062 25.062s11.221 25.062 25.062 25.062c3.122 0 6.108-.575 8.865-1.618-9.466-3.582-16.198-12.725-16.198-23.444z" fill="#fe73c5"/></g><path d="m367.333 318.369c-16.104 32.003-26.77 87.804-26.77 151.292h45.419c0-19.123 1.971-37.246 5.491-53.485-4.104-40.692-12.761-75.194-24.14-97.807z" fill="#a2e62e"/><g><path d="m367.333 318.369c-16.104 32.003-26.77 87.804-26.77 151.292h15.437c0-52.685 7.349-100.06 19.051-132.951-2.399-6.745-4.978-12.895-7.718-18.341z" fill="#97d729"/></g><path d="m414.422 365.967c-.794-1.192-2.546-1.192-3.34 0-15.168 22.774-25.1 60.723-25.1 103.694h45.211c0-18.869.945-37.055 2.692-54.143-4.394-19.968-11.137-37.049-19.463-49.551z" fill="#a2e62e"/><g><path d="m414.422 365.967c-.794-1.192-2.546-1.192-3.34 0-15.168 22.774-25.1 60.723-25.1 103.694h15.018c0-37.172 7.436-70.577 19.261-93.661-1.845-3.601-3.792-6.96-5.839-10.033z" fill="#97d729"/></g><g><path d="m456.153 322.116c-15.088 32.504-24.959 86.467-24.959 147.544h53.54c0-61.077-9.871-115.04-24.959-147.544-.714-1.534-2.91-1.534-3.622 0z" fill="#a2e62e"/></g><g><path d="m459.774 322.116c-.712-1.535-2.909-1.535-3.621 0-15.088 32.504-24.959 86.467-24.959 147.544h15.267c0-52.813 7.384-100.294 19.136-133.194-1.839-5.148-3.782-9.952-5.823-14.35z" fill="#97d729"/></g><g><path d="m367.333 252.159c-2.311-5.596-5.736-10.84-10.284-15.388-10.837-10.837-25.619-15.322-39.724-13.461-1.861 14.105 2.624 28.887 13.461 39.724 10.026 10.026 23.428 14.611 36.547 13.768z" fill="#a2e62e"/></g><g><path d="m345.871 263.034c-10.728-10.728-15.221-25.32-13.506-39.296-4.962-.934-10.042-1.088-15.04-.429-1.861 14.105 2.624 28.887 13.461 39.724 10.026 10.026 23.428 14.611 36.547 13.768v-1.454c-7.862-2.054-15.301-6.151-21.462-12.313z" fill="#97d729"/></g><g><path d="m98.599 220.159c-2.311-5.596-5.736-10.84-10.284-15.388-10.837-10.837-25.619-15.322-39.724-13.461-1.861 14.105 2.624 28.887 13.461 39.724 10.026 10.026 23.428 14.611 36.547 13.768z" fill="#a2e62e"/></g><g><path d="m77.453 231.034c-10.714-10.714-15.208-25.282-13.512-39.24-5.06-.988-10.249-1.157-15.351-.484-1.861 14.105 2.624 28.887 13.461 39.724 10.026 10.026 23.428 14.611 36.547 13.768v-1.543c-7.744-2.082-15.066-6.146-21.145-12.225z" fill="#97d729"/></g><g><path d="m98.599 252.159c2.311-5.596 5.736-10.84 10.284-15.388 10.837-10.837 25.619-15.322 39.724-13.461 1.861 14.105-2.624 28.887-13.461 39.724-10.026 10.026-23.428 14.611-36.547 13.768z" fill="#a2e62e"/></g><g><path d="m114 252.159c2.311-5.596 5.736-10.84 10.284-15.388 6.917-6.917 15.444-11.234 24.373-12.977-.02-.161-.029-.323-.05-.484-14.105-1.861-28.887 2.624-39.724 13.461-4.548 4.548-7.973 9.792-10.284 15.388v24.643c5.165.332 10.372-.191 15.401-1.543z" fill="#97d729"/></g><g><path d="m456.531 230.826c-.723-.722-.723-1.894 0-2.616 7.861-7.861 8.067-16.95 2.588-22.429s-14.568-5.273-22.428 2.588c-.722.723-1.893.723-2.616 0-7.861-7.861-16.95-8.067-22.429-2.588s-5.273 14.568 2.588 22.429c.723.722.723 1.894 0 2.616-7.861 7.861-8.067 16.95-2.588 22.429s14.568 5.273 22.429-2.588c.722-.723 1.894-.723 2.616 0 7.861 7.861 16.95 8.067 22.429 2.588 5.478-5.48 5.272-14.568-2.589-22.429z" fill="#fe93d3"/></g><g><g><path d="m429.764 253.254c-5.479-5.479-5.273-14.568 2.588-22.428.723-.722.723-1.893 0-2.616-7.861-7.861-8.067-16.95-2.588-22.429.182-.182.379-.342.569-.511-6.862-4.666-14.06-4.115-18.687.511-5.479 5.479-5.273 14.568 2.588 22.429.723.722.723 1.894 0 2.616-7.861 7.861-8.067 16.95-2.588 22.428 4.626 4.626 11.825 5.178 18.687.512-.19-.17-.387-.329-.569-.512z" fill="#fe73c5"/></g></g><g><path d="m257.531 71.147c-.723-.722-.723-1.894 0-2.616 7.861-7.861 8.067-16.95 2.588-22.429s-14.568-5.273-22.428 2.588c-.722.723-1.894.723-2.616 0-7.861-7.861-16.95-8.067-22.429-2.588s-5.273 14.568 2.588 22.429c.723.722.723 1.894 0 2.616-7.861 7.861-8.067 16.95-2.588 22.429s14.568 5.273 22.429-2.588c.722-.723 1.894-.723 2.616 0 7.861 7.861 16.95 8.067 22.429 2.588 5.478-5.479 5.272-14.568-2.589-22.429z" fill="#fe93d3"/></g><g><g><path d="m231.764 93.576c-5.479-5.479-5.273-14.568 2.588-22.428.723-.722.723-1.894 0-2.616-7.861-7.861-8.067-16.95-2.588-22.428.044-.045.094-.081.139-.125-7.03-5.094-14.502-4.63-19.256.125-5.479 5.479-5.273 14.568 2.588 22.428.723.722.723 1.894 0 2.616-7.861 7.861-8.067 16.95-2.588 22.428 4.754 4.754 12.226 5.219 19.256.125-.046-.044-.095-.081-.139-.125z" fill="#fe73c5"/></g></g><g><path d="m198.648 312.808c-.723-.722-.723-1.894 0-2.616 7.861-7.861 8.067-16.95 2.588-22.429s-14.568-5.273-22.429 2.588c-.722.723-1.894.723-2.616 0-7.861-7.861-16.95-8.067-22.429-2.588s-5.273 14.568 2.588 22.428c.723.722.723 1.894 0 2.616-7.861 7.861-8.067 16.95-2.588 22.428s14.568 5.273 22.429-2.588c.722-.723 1.894-.723 2.616 0 7.861 7.861 16.95 8.067 22.429 2.588 5.479-5.477 5.273-14.566-2.588-22.427z" fill="#fed402"/></g><g><g><path d="m172.764 335.236c-5.479-5.479-5.273-14.568 2.588-22.428.723-.722.723-1.894 0-2.616-7.861-7.861-8.067-16.95-2.588-22.428.061-.061.128-.111.189-.17-7.01-5.043-14.45-4.569-19.189.17-5.479 5.479-5.273 14.568 2.588 22.428.723.722.723 1.894 0 2.616-7.861 7.861-8.067 16.95-2.588 22.428 4.739 4.739 12.179 5.214 19.189.17-.062-.059-.129-.109-.189-.17z" fill="#fac600"/></g></g><g><path d="m182.231 195.115c-6.609 5.13-10.242 12.334-10.242 20.336 0 7.385 2.913 14.25 8.201 19.33 4.889 4.697 11.373 7.39 17.789 7.39 3.445 0 6.858-.694 10.186-2.054.486 3.562 1.591 6.864 3.314 9.848 3.349 5.8 8.759 9.885 15.157 11.681v38.357c0 4.142 3.358 7.5 7.5 7.5s7.5-3.358 7.5-7.5v-38.361c6.392-1.797 11.798-5.881 15.145-11.677 1.723-2.983 2.828-6.286 3.314-9.848 3.328 1.36 6.741 2.054 10.187 2.055 9.189 0 17.537-4.958 22.331-13.26 4.795-8.304 4.915-18.013.319-25.972-1.721-2.982-4.027-5.59-6.867-7.792 7.295-5.694 10.205-13.41 10.205-20.31 0-7.386-2.912-14.25-8.201-19.331-4.889-4.696-11.372-7.39-17.788-7.39-3.445 0-6.857.694-10.186 2.054-.486-3.562-1.591-6.864-3.314-9.848-4.594-7.958-13.062-12.709-22.65-12.709-9.589 0-18.057 4.751-22.651 12.709-1.723 2.984-2.828 6.286-3.314 9.848-3.328-1.36-6.741-2.054-10.186-2.054-6.416 0-12.9 2.693-17.79 7.39-5.289 5.08-8.202 11.945-8.202 19.331-.001 9.041 4.224 15.692 10.243 20.277zm97.39 26.296c-2.083 3.607-5.575 5.761-9.341 5.761-5.569 0-10.584-4.466-13.871-8.307 4.593-4.316 7.933-9.943 9.42-16.281 4.956.926 11.328 3.036 14.11 7.856 1.885 3.262 1.766 7.363-.318 10.971zm-9.342-58.292c7.076 0 10.989 6.93 10.989 11.72 0 6.395-5.625 11.08-15.435 12.885-1.485-6.345-4.828-11.979-9.425-16.299 3.288-3.84 8.303-8.306 13.871-8.306zm-26.489 79.347c-1.883 3.262-5.495 5.209-9.66 5.209-4.166 0-7.777-1.947-9.661-5.209-2.781-4.818-1.427-11.385.254-16.151 2.982.902 6.14 1.393 9.412 1.393 3.268 0 6.423-.489 9.402-1.389 1.681 4.765 3.033 11.33.253 16.147zm-19.321-94.641c1.883-3.262 5.495-5.209 9.661-5.209s7.777 1.947 9.66 5.209c2.781 4.816 1.428 11.382-.252 16.148-2.979-.9-6.134-1.389-9.402-1.389-3.272 0-6.431.49-9.412 1.393-1.682-4.766-3.037-11.334-.255-16.152zm9.666 29.759c9.684 0 17.562 7.878 17.562 17.562s-7.878 17.562-17.562 17.562-17.562-7.878-17.562-17.562 7.879-17.562 17.562-17.562zm-36.156 49.588c-7.076 0-10.989-6.93-10.989-11.72 0-4.258 2.518-7.045 4.629-8.632 2.668-2.006 6.308-3.438 10.815-4.263 1.483 6.346 4.824 11.982 9.421 16.303-3.287 3.842-8.305 8.312-13.876 8.312zm0-64.053c5.571 0 10.589 4.47 13.876 8.313-4.595 4.32-7.935 9.953-9.419 16.296-9.818-1.803-15.448-6.493-15.448-12.889-.001-4.79 3.913-11.72 10.991-11.72z"/><path d="m504.5 462.164h-12.322c-.169-12.791-.762-25.468-1.782-37.78-.343-4.128-3.981-7.191-8.094-6.855-4.128.342-7.197 3.966-6.855 8.094.987 11.905 1.569 24.164 1.736 36.541h-38.438c.659-48.243 7.649-93.318 19.217-124.777 5.505 14.993 10.062 33.312 13.35 53.805.656 4.09 4.498 6.875 8.594 6.217 4.09-.656 6.873-4.503 6.217-8.593-4.451-27.744-11.21-51.899-19.544-69.852-1.548-3.337-4.929-5.494-8.611-5.495-.001 0-.002 0-.003 0-3.683 0-7.063 2.155-8.613 5.493-7.684 16.553-13.882 38.085-18.262 62.576-3.086-7.309-6.572-13.943-10.423-19.725-1.768-2.653-4.725-4.236-7.912-4.236s-6.145 1.583-7.912 4.236c-3.903 5.86-7.428 12.598-10.545 20.023-4.586-25.758-11.199-48.192-19.462-65.179v-131.987c6.392-1.797 11.797-5.88 15.145-11.677 1.723-2.984 2.828-6.287 3.314-9.849 3.327 1.36 6.741 2.054 10.187 2.055 9.189 0 17.537-4.958 22.331-13.261s4.913-18.012.32-25.97c-.001 0-.001-.001-.001-.001-1.722-2.982-4.028-5.589-6.869-7.791 7.296-5.694 10.206-13.41 10.206-20.31 0-7.385-2.912-14.25-8.2-19.33-4.889-4.696-11.372-7.39-17.788-7.39-3.445 0-6.858.694-10.186 2.054-.486-3.562-1.592-6.865-3.314-9.849-4.595-7.958-13.063-12.708-22.65-12.708-9.589 0-18.057 4.751-22.65 12.708-1.723 2.984-2.828 6.287-3.314 9.849-3.327-1.36-6.74-2.054-10.186-2.054-6.416 0-12.9 2.693-17.79 7.39-5.288 5.08-8.201 11.945-8.201 19.331 0 9.04 4.225 15.69 10.244 20.275-6.609 5.131-10.242 12.335-10.242 20.336 0 7.386 2.912 14.25 8.201 19.331 4.889 4.696 11.372 7.39 17.788 7.39 3.445 0 6.857-.694 10.186-2.054.486 3.562 1.592 6.864 3.314 9.848 3.348 5.8 8.759 9.885 15.156 11.681v44.437c-11.904-10.526-27.556-15.336-43.489-13.233-3.363.444-6.01 3.091-6.454 6.454-2.253 17.076 3.43 33.846 15.594 46.009 9.254 9.254 21.46 14.81 34.35 15.859v32.447c-7.782 15.997-14.106 36.822-18.647 60.711-2.608-5.668-5.464-10.89-8.565-15.546-1.768-2.653-4.725-4.236-7.912-4.236s-6.145 1.583-7.912 4.236c-3.854 5.787-7.34 12.431-10.428 19.746-4.38-24.498-10.573-46.042-18.258-62.599-1.55-3.336-4.93-5.491-8.612-5.491-.001 0-.002 0-.003 0-3.683.001-7.063 2.158-8.611 5.495l.001-.001c-7.707 16.603-13.919 38.216-18.302 62.799-3.221-7.642-6.882-14.556-10.947-20.558v-26.2c0-4.142-3.358-7.5-7.5-7.5s-7.5 3.358-7.5 7.5v26.206c-3.977 5.871-7.569 12.611-10.739 20.054-2.632-14.656-5.915-28.244-9.78-40.335.14-.133.285-.247.423-.385 4.336-4.336 6.423-10.12 5.876-16.287-.392-4.423-2.111-8.76-5.028-12.753 2.917-3.993 4.636-8.331 5.028-12.753.547-6.167-1.54-11.951-5.875-16.286s-10.12-6.423-16.287-5.876c-4.423.392-8.759 2.111-12.753 5.028-3.993-2.917-8.33-4.636-12.753-5.028-6.174-.545-11.951 1.541-16.287 5.876-8.586 8.586-7.042 20.269-.823 29.004-2.932 4.003-4.66 8.353-5.053 12.788-.547 6.167 1.54 11.951 5.876 16.287s10.119 6.424 16.287 5.876c2.032-.18 4.044-.654 6.015-1.382-3.342 11.111-6.211 23.384-8.56 36.507-3.086-7.311-6.574-13.947-10.426-19.731-1.767-2.653-4.725-4.236-7.912-4.236s-6.145 1.583-7.912 4.236c-3.877 5.822-7.382 12.51-10.484 19.877-1.133-3.503-4.695-5.727-8.426-5.073-4.079.718-6.805 4.607-6.087 8.687 1.693 9.622 3.072 19.745 4.153 30.175-3.106 14.597-4.97 30.405-5.41 46.686h-30.32c.652-48.604 7.617-93.415 19.208-124.804 1.687 4.592 3.289 9.509 4.798 14.727 1.15 3.979 5.308 6.276 9.288 5.121 3.979-1.15 6.272-5.309 5.121-9.288-3.435-11.88-7.37-22.375-11.696-31.269v-32.453c12.89-1.049 25.096-6.604 34.35-15.858 12.163-12.163 17.847-28.933 15.594-46.009-.444-3.364-3.091-6.011-6.455-6.455-15.926-2.102-31.584 2.707-43.489 13.233v-44.44c6.392-1.797 11.798-5.881 15.145-11.677 1.723-2.984 2.828-6.287 3.314-9.849 3.328 1.36 6.741 2.054 10.187 2.055 9.188 0 17.536-4.957 22.331-13.26 4.794-8.304 4.914-18.013.32-25.971-1.722-2.982-4.028-5.589-6.868-7.791 7.295-5.694 10.206-13.41 10.206-20.31 0-7.385-2.912-14.25-8.2-19.33-4.889-4.697-11.373-7.39-17.789-7.39-3.445 0-6.858.694-10.186 2.054-.486-3.562-1.592-6.865-3.314-9.848-4.594-7.958-13.062-12.709-22.65-12.709-9.589 0-18.057 4.751-22.651 12.708-1.723 2.983-2.828 6.287-3.314 9.849-3.328-1.36-6.741-2.054-10.186-2.054-6.416 0-12.9 2.693-17.79 7.39-5.289 5.08-8.202 11.945-8.202 19.331 0 9.04 4.226 15.69 10.245 20.276-6.609 5.13-10.242 12.334-10.242 20.336 0 7.386 2.913 14.25 8.201 19.331 4.889 4.696 11.373 7.39 17.789 7.39 3.445 0 6.858-.694 10.185-2.054.486 3.562 1.592 6.865 3.314 9.848 3.349 5.8 8.759 9.885 15.156 11.68v12.437c-11.905-10.526-27.563-15.336-43.489-13.233-3.364.444-6.011 3.091-6.455 6.455-2.253 17.076 3.431 33.846 15.594 46.009 9.254 9.254 21.459 14.817 34.35 15.866v64.439c-5.784 11.89-10.761 26.448-14.8 42.951-3.774-15.464-8.357-29.235-13.649-40.635-1.549-3.337-4.93-5.493-8.613-5.493s-7.064 2.156-8.613 5.493c-15.391 33.156-24.834 86.259-25.6 143.202h-12.33c-4.142 0-7.5 3.358-7.5 7.5s3.358 7.5 7.5 7.5h497c4.143 0 7.5-3.358 7.5-7.5s-3.357-7.502-7.5-7.502zm-91.681-317.725c-2.083 3.607-5.575 5.761-9.341 5.761-5.569 0-10.585-4.465-13.872-8.307 4.593-4.316 7.933-9.944 9.421-16.281 4.955.926 11.327 3.036 14.11 7.855 1.884 3.262 1.765 7.364-.318 10.972zm-9.341-58.292c7.075 0 10.988 6.93 10.988 11.72 0 6.395-5.625 11.08-15.435 12.885-1.485-6.345-4.828-11.979-9.425-16.299 3.287-3.841 8.303-8.306 13.872-8.306zm-72.301 64.052c-7.076 0-10.989-6.93-10.989-11.72 0-4.257 2.518-7.044 4.63-8.632 2.668-2.006 6.308-3.438 10.814-4.262 1.483 6.346 4.824 11.981 9.42 16.302-3.286 3.842-8.303 8.312-13.875 8.312zm4.456-39.443c-9.817-1.803-15.448-6.493-15.448-12.889 0-4.791 3.914-11.721 10.991-11.721 5.572 0 10.589 4.471 13.875 8.313-4.594 4.321-7.934 9.954-9.418 16.297zm-191.548 33.682c-2.083 3.607-5.575 5.761-9.341 5.761-5.568 0-10.584-4.465-13.871-8.307 4.593-4.316 7.933-9.944 9.421-16.281 4.956.926 11.328 3.036 14.111 7.856 1.882 3.263 1.763 7.364-.32 10.971zm-9.342-58.291c7.076 0 10.989 6.93 10.989 11.72 0 6.395-5.625 11.08-15.435 12.885-1.485-6.344-4.828-11.979-9.425-16.298 3.287-3.842 8.303-8.307 13.871-8.307zm-72.3 64.052c-7.076 0-10.989-6.93-10.989-11.72 0-4.258 2.518-7.045 4.63-8.632 2.668-2.006 6.308-3.438 10.814-4.263 1.483 6.346 4.824 11.981 9.42 16.302-3.287 3.844-8.305 8.313-13.875 8.313zm4.456-39.443c-9.818-1.803-15.448-6.493-15.448-12.889 0-4.791 3.915-11.721 10.992-11.721 5.571 0 10.589 4.47 13.875 8.313-4.594 4.321-7.935 9.954-9.419 16.297zm47.287 131.322c7.38-7.38 17.097-11.477 27.33-11.673-.197 10.233-4.293 19.95-11.673 27.33-6.432 6.431-14.826 10.418-23.744 11.42v-15.438c1.971-4.329 4.687-8.239 8.087-11.639zm-25.253-171.225c1.883-3.262 5.495-5.209 9.661-5.209s7.776 1.947 9.66 5.209c2.781 4.816 1.428 11.382-.253 16.148-2.979-.9-6.134-1.389-9.402-1.389-3.272 0-6.431.49-9.412 1.392-1.682-4.766-3.036-11.334-.254-16.151zm-7.896 47.32c0-9.684 7.878-17.562 17.562-17.562s17.562 7.878 17.562 17.562-7.878 17.562-17.562 17.562-17.562-7.878-17.562-17.562zm7.896 47.32c-2.781-4.817-1.428-11.384.253-16.15 2.982.902 6.14 1.392 9.413 1.392 3.268 0 6.423-.489 9.402-1.389 1.681 4.766 3.033 11.331.252 16.148-1.883 3.262-5.495 5.209-9.66 5.209-4.166 0-7.777-1.948-9.66-5.21zm-21.578 60.241c-7.38-7.38-11.477-17.097-11.673-27.33 10.232.197 19.95 4.294 27.329 11.673 3.4 3.4 6.116 7.311 8.087 11.639v15.437c-8.916-1.001-17.312-4.988-23.743-11.419zm-2.97 236.43h-29.567c.659-48.244 7.651-93.324 19.218-124.784 6.411 17.433 11.412 39.051 14.712 63.07-2.578 19.4-4.079 40.227-4.363 61.714zm90.476 0h-30.161c.922-32.816 7.863-63.245 19.165-84.366 5.715 10.68 10.308 23.744 13.574 38.29-1.488 14.837-2.366 30.307-2.578 46.076zm8.561-130.686c-1.713.15-3.181-.366-4.355-1.541-2.805-2.805-1.789-7.445 2.584-11.819 1.768-1.765 2.742-4.114 2.742-6.612 0-2.499-.973-4.848-2.739-6.613-4.376-4.377-5.393-9.018-2.588-11.822 2.804-2.804 7.444-1.79 11.819 2.584 1.766 1.768 4.115 2.742 6.614 2.742 2.498 0 4.845-.973 6.611-2.739 2.453-2.453 5.105-3.919 7.466-4.129 1.715-.149 3.18.366 4.355 1.542 1.175 1.174 1.693 2.64 1.541 4.355-.209 2.361-1.676 5.013-4.127 7.465-1.767 1.766-2.74 4.115-2.74 6.613 0 2.499.973 4.847 2.74 6.613 2.452 2.453 3.917 5.104 4.127 7.464.152 1.715-.366 3.181-1.541 4.355-2.806 2.804-7.445 1.789-11.82-2.586-1.766-1.767-4.115-2.74-6.613-2.74-2.499 0-4.847.973-6.611 2.739-2.451 2.453-5.103 3.919-7.465 4.129zm36.548 130.686h-30.113c.603-44.194 6.526-85.711 16.407-116.555 1.943.55 3.925.86 5.906.887 6.089 19.283 10.644 42.656 13.342 68.201-3.192 14.772-5.099 30.832-5.542 47.467zm45.315 0h-30.316c.913-33.044 7.835-63.319 19.167-84.398 5.789 10.77 10.419 23.949 13.689 38.665-1.466 14.732-2.33 30.087-2.54 45.733zm45.259 0h-30.264c.658-48.245 7.651-93.325 19.219-124.784 7.704 20.952 13.376 47.947 16.501 77.892-3.134 14.655-5.014 30.534-5.456 46.892zm42.575 0h-27.574c.922-32.816 7.862-63.244 19.164-84.366 4.726 8.832 8.677 19.304 11.752 30.888-1.956 17.013-3.098 35.003-3.342 53.478zm24.548-391.312c1.883-3.261 5.494-5.208 9.66-5.208 4.165 0 7.776 1.947 9.66 5.209 2.781 4.815 1.428 11.381-.253 16.148-2.978-.9-6.133-1.389-9.401-1.389-3.272 0-6.431.49-9.412 1.392-1.681-4.766-3.036-11.334-.254-16.152zm-7.896 47.321c0-9.684 7.879-17.562 17.563-17.562s17.562 7.878 17.562 17.562-7.878 17.562-17.562 17.562-17.563-7.878-17.563-17.562zm7.896 47.32c-2.781-4.817-1.428-11.384.253-16.15 2.982.902 6.14 1.392 9.413 1.392 3.268 0 6.423-.489 9.401-1.389 1.681 4.766 3.034 11.332.253 16.147-1.884 3.262-5.495 5.21-9.66 5.21-4.166 0-7.777-1.948-9.66-5.21zm-21.577 92.241c-7.381-7.38-11.478-17.097-11.674-27.33 10.232.197 19.95 4.294 27.33 11.674 3.398 3.398 6.114 7.309 8.087 11.639v15.437c-8.917-1.002-17.312-4.989-23.743-11.42zm42.497 204.43h-30.473c.652-48.622 7.622-93.445 19.22-124.836 7.789 21.081 13.484 48.226 16.586 78.506-3.062 14.497-4.897 30.181-5.333 46.33zm45.163 0h-30.162c.922-32.817 7.862-63.245 19.164-84.366 5.714 10.677 10.306 23.738 13.572 38.282-1.486 14.839-2.362 30.314-2.574 46.084z"/><path d="m406.344 200.481c-4.337 4.335-6.424 10.12-5.877 16.287.393 4.423 2.111 8.759 5.028 12.753-2.917 3.994-4.636 8.331-5.028 12.753-.547 6.167 1.54 11.951 5.876 16.287 4.337 4.336 10.128 6.42 16.286 5.876 4.437-.394 8.785-2.121 12.788-5.053 4.474 3.185 9.72 5.144 14.928 5.144 4.962 0 9.889-1.778 14.078-5.966 8.598-8.599 7.037-20.302.797-29.04 6.24-8.738 7.801-20.441-.798-29.04-8.587-8.585-20.271-7.042-29.005-.822-4.002-2.932-8.352-4.66-12.788-5.053-6.157-.549-11.951 1.539-16.285 5.874zm29.039 15.934c2.498 0 4.847-.974 6.61-2.739 4.377-4.377 9.018-5.393 11.822-2.588s1.789 7.445-2.586 11.82c-1.767 1.766-2.74 4.115-2.74 6.613 0 2.499.974 4.847 2.74 6.613 4.376 4.376 5.391 9.016 2.587 11.82-2.806 2.803-7.446 1.789-11.822-2.587-1.823-1.823-4.218-2.734-6.611-2.734-2.395 0-4.789.912-6.612 2.734-2.453 2.453-5.104 3.919-7.466 4.129-1.711.15-3.18-.366-4.355-1.542-1.175-1.174-1.693-2.64-1.541-4.355.209-2.362 1.676-5.013 4.128-7.465 1.767-1.766 2.74-4.115 2.74-6.613s-.974-4.847-2.739-6.611c-2.453-2.454-3.92-5.105-4.129-7.466-.152-1.715.366-3.181 1.542-4.355 1.175-1.175 2.645-1.694 4.354-1.541 2.361.209 5.013 1.675 7.466 4.129 1.766 1.766 4.115 2.739 6.612 2.738z"/><path d="m207.343 98.882c4.189 4.189 9.115 5.967 14.076 5.967 5.208 0 10.456-1.959 14.929-5.144 4.003 2.932 8.352 4.66 12.788 5.053 6.166.546 11.95-1.54 16.287-5.876 8.598-8.599 7.037-20.302.797-29.04 6.24-8.738 7.801-20.441-.797-29.04-4.336-4.335-10.122-6.422-16.287-5.876-4.436.393-8.785 2.121-12.788 5.053-8.736-6.22-20.418-7.764-29.006.823-8.597 8.598-7.038 20.299-.797 29.039-6.24 8.739-7.8 20.443.798 29.041zm13.194-35.651c-4.376-4.376-5.392-9.017-2.588-11.822 1.042-1.042 2.311-1.567 3.781-1.567.188 0 .38.009.574.026 2.362.209 5.014 1.676 7.465 4.127 1.766 1.767 4.115 2.74 6.613 2.74s4.847-.973 6.611-2.739c2.453-2.453 5.105-3.919 7.467-4.129 1.717-.151 3.181.367 4.355 1.541 2.804 2.805 1.789 7.445-2.584 11.818-1.769 1.767-2.743 4.116-2.743 6.615s.974 4.848 2.743 6.614c4.374 4.376 5.388 9.015 2.584 11.819-1.175 1.175-2.638 1.691-4.355 1.541-2.362-.209-5.014-1.676-7.465-4.127-1.766-1.767-4.115-2.74-6.613-2.74-2.499 0-4.847.973-6.611 2.739-2.453 2.453-5.105 3.919-7.467 4.129-1.715.15-3.181-.367-4.355-1.541-2.805-2.805-1.789-7.445 2.585-11.82 1.768-1.766 2.741-4.115 2.741-6.613.001-2.498-.972-4.846-2.738-6.611z"/></g></g></svg>