<svg height="512pt" viewBox="0 -11 512 512" width="512pt" xmlns="http://www.w3.org/2000/svg"><path d="m202.164062 206.738281h103.828126v95.839844h-103.828126zm0 0" fill="#305967"/><path d="m202.164062 206.738281h36.132813v95.839844h-36.132813zm0 0" fill="#1c414b"/><path d="m7.660156 276.839844h496.679688v171.929687h-496.679688zm0 0" fill="#4283b2"/><path d="m7.660156 403.46875h496.679688v45.300781h-496.679688zm0 0" fill="#1c6693"/><path d="m276.042969 29.621094v117.804687h-43.929688v-117.804687c0-12.132813 9.835938-21.960938 21.96875-21.960938 3.6875 0 7.160157.910156 10.207031 2.511719 6.984376 3.667969 11.753907 11.003906 11.753907 19.449219zm0 0" fill="#1c414b"/><path d="m276.042969 29.621094v117.804687h-23.511719v-117.804687c0-8.445313 4.769531-15.78125 11.757812-19.449219 6.984376 3.667969 11.753907 11.003906 11.753907 19.449219zm0 0" fill="#305967"/><path d="m301.335938 148.652344v46.691406h-94.515626v-46.691406c0-13.175782 10.683594-23.859375 23.859376-23.859375h46.796874c13.175782 0 23.859376 10.683593 23.859376 23.859375zm0 0" fill="#b3b3b3"/><path d="m301.335938 148.652344v46.691406h-57.660157v-46.691406c0-13.175782 10.671875-23.859375 23.851563-23.859375h9.949218c13.175782 0 23.859376 10.683593 23.859376 23.859375zm0 0" fill="#ccc"/><path d="m365.894531 362.804688c0 51.019531-34.167969 94.054687-80.871093 107.476562-9.828126 2.832031-20.203126 4.34375-30.941407 4.34375-61.757812 0-111.820312-50.0625-111.820312-111.820312 0-61.757813 50.0625-111.808594 111.820312-111.808594 10.738281 0 21.113281 1.511718 30.941407 4.339844 46.703124 13.421874 80.871093 56.445312 80.871093 107.46875zm0 0" fill="#1c6693"/><path d="m365.894531 362.804688c0 51.019531-34.167969 94.054687-80.871093 107.476562-46.691407-13.421875-80.859376-56.457031-80.859376-107.476562 0-51.023438 34.167969-94.046876 80.859376-107.46875 46.703124 13.421874 80.871093 56.445312 80.871093 107.46875zm0 0" fill="#4283b2"/><path d="m173.898438 276.835938v171.929687c0 18.695313-15.148438 33.84375-33.832032 33.84375h-37.273437c-18.679688 0-33.828125-15.148437-33.828125-33.84375v-171.929687c0-18.683594 15.148437-33.832032 33.828125-33.832032h37.273437c18.683594 0 33.832032 15.148438 33.832032 33.832032zm0 0" fill="#1c6693"/><path d="m173.898438 276.835938v122.6875c0 18.679687-15.148438 33.828124-33.832032 33.828124h-37.273437c-18.679688 0-33.828125-15.148437-33.828125-33.828124v-122.6875c0-18.683594 15.148437-33.832032 33.828125-33.832032h37.273437c18.683594 0 33.832032 15.148438 33.832032 33.832032zm0 0" fill="#4283b2"/><path d="m425.128906 68.652344c0 14.339844-11.617187 25.964844-25.957031 25.964844h-290.1875c-7.160156 0-13.65625-2.910157-18.355469-7.609376-4.699218-4.699218-7.601562-11.183593-7.601562-18.355468 0-14.332032 11.625-25.957032 25.957031-25.957032h290.1875c7.171875 0 13.65625 2.902344 18.355469 7.601563 4.699218 4.699219 7.601562 11.195313 7.601562 18.355469zm0 0" fill="#e23333"/><path d="m425.128906 68.652344c0 14.339844-11.617187 25.964844-25.957031 25.964844h-206.019531c-7.160156 0-13.65625-2.910157-18.355469-7.609376-4.699219-4.699218-7.597656-11.183593-7.597656-18.355468 0-14.332032 11.621093-25.957032 25.953125-25.957032h206.019531c7.171875 0 13.65625 2.902344 18.355469 7.601563 4.699218 4.699219 7.601562 11.195313 7.601562 18.355469zm0 0" fill="#f95858"/><path d="m108.464844 243.003906h25.933594v239.601563h-25.933594zm0 0" fill="#305967"/><path d="m108.464844 421.050781h25.933594v61.554688h-25.933594zm0 0" fill="#1c414b"/><path d="m409.203125 482.605469h-37.269531c-18.6875 0-33.835938-15.148438-33.835938-33.835938v-171.929687c0-18.6875 15.148438-33.835938 33.835938-33.835938h37.269531c18.6875 0 33.835937 15.148438 33.835937 33.835938v171.929687c0 18.6875-15.148437 33.835938-33.835937 33.835938zm0 0" fill="#1c6693"/><path d="m443.035156 276.832031v122.6875c0 18.683594-15.148437 33.832031-33.832031 33.832031h-37.273437c-18.683594 0-33.832032-15.148437-33.832032-33.832031v-122.6875c0-18.679687 15.148438-33.828125 33.832032-33.828125h37.273437c18.683594 0 33.832031 15.148438 33.832031 33.828125zm0 0" fill="#4283b2"/><path d="m377.601562 243.003906h25.933594v239.601563h-25.933594zm0 0" fill="#305967"/><path d="m377.601562 421.050781h25.933594v61.554688h-25.933594zm0 0" fill="#1c414b"/><path d="m319.128906 200.445312c0 13.769532-11.164062 24.933594-24.933594 24.933594h-80.234374c-6.886719 0-13.117188-2.789062-17.632813-7.304687-4.511719-4.515625-7.300781-10.746094-7.300781-17.628907 0-13.769531 11.164062-24.925781 24.933594-24.925781h80.234374c6.886719 0 13.117188 2.789063 17.632813 7.304688 4.511719 4.503906 7.300781 10.734375 7.300781 17.621093zm0 0" fill="#b3b3b3"/><path d="m319.128906 200.445312c0 13.769532-11.164062 24.933594-24.933594 24.933594h-46.628906c-6.886718 0-13.117187-2.789062-17.628906-7.304687-4.507812-4.515625-7.296875-10.746094-7.296875-17.628907 0-13.769531 11.15625-24.925781 24.925781-24.925781h46.628906c6.886719 0 13.117188 2.789063 17.632813 7.304688 4.511719 4.503906 7.300781 10.734375 7.300781 17.621093zm0 0" fill="#ccc"/><path d="m504.339844 441.109375h-53.640625v-156.609375h53.640625c4.230468 0 7.660156-3.429688 7.660156-7.660156 0-4.230469-3.429688-7.660156-7.660156-7.660156h-54.359375c-3.605469-19.234376-20.515625-33.835938-40.777344-33.835938h-37.269531c-20.988282 0-38.375 15.664062-41.109375 35.917969-5.382813-4.511719-11.128907-8.519531-17.167969-11.996094v-32.691406c7.964844-5.949219 13.132812-15.445313 13.132812-26.128907 0-12.640624-7.242187-23.617187-17.789062-29.019531v-22.773437c0-15.246094-10.886719-28-25.292969-30.898438v-15.480468h115.46875c18.535157 0 33.617188-15.078126 33.617188-33.617188 0-18.535156-15.082031-33.617188-33.617188-33.617188h-48.894531c-4.234375 0-7.664062 3.429688-7.664062 7.660157s3.429687 7.660156 7.664062 7.660156h48.894531c10.089844 0 18.296875 8.207031 18.296875 18.296875s-8.207031 18.296875-18.296875 18.296875h-290.1875c-10.089843 0-18.296875-8.207031-18.296875-18.296875 0-10.085938 8.207032-18.296875 18.296875-18.296875h210.644531c4.234376 0 7.660157-3.429687 7.660157-7.660156s-3.425781-7.660157-7.660157-7.660157h-35.925781v-5.417968c0-16.332032-13.289062-29.621094-29.621093-29.621094-16.339844 0-29.632813 13.289062-29.632813 29.621094v5.417968h-115.46875c-18.535156 0-33.617187 15.082032-33.617187 33.617188s15.082031 33.617188 33.617187 33.617188h115.464844v15.480468c-14.40625 2.902344-25.289063 15.652344-25.289063 30.902344v22.769531c-10.550781 5.402344-17.792968 16.378907-17.792968 29.023438 0 10.679687 5.167968 20.179687 13.132812 26.125v32.601562c-4.78125 2.761719-9.382812 5.875-13.78125 9.316407-3.875-18.894532-20.628906-33.148438-40.652344-33.148438h-37.269531c-20.265625 0-37.171875 14.605469-40.777344 33.835938h-54.359375c-4.230468 0-7.660156 3.429687-7.660156 7.660156 0 4.234375 3.429688 7.664062 7.660156 7.664062h53.640625v156.609375h-53.640625c-4.230468 0-7.660156 3.429688-7.660156 7.660157 0 4.230468 3.429688 7.660156 7.660156 7.660156h54.359375c3.605469 19.234375 20.515625 33.835937 40.777344 33.835937h37.269531c20.019532 0 36.773438-14.25 40.652344-33.144531 20.863281 16.320312 46.378906 25.160156 73.363281 25.160156 28.238281 0 55.371094-10.015625 76.738281-27.925781 2.738282 20.25 20.125 35.910156 41.113282 35.910156h37.265625c20.265625 0 37.171875-14.601562 40.777343-33.835937h54.359376c4.230468 0 7.660156-3.429688 7.660156-7.660156 0-4.230469-3.425782-7.664063-7.65625-7.664063zm-264.566406-411.488281c0-7.886719 6.417968-14.300782 14.308593-14.300782 7.886719 0 14.300781 6.414063 14.300781 14.300782v5.417968h-28.609374zm28.609374 72.652344v14.855468h-28.609374v-14.855468zm-37.703124 30.179687h46.796874c8.929688 0 16.199219 7.265625 16.199219 16.199219v19.203125h-79.195312v-19.203125c0-8.933594 7.269531-16.199219 16.199219-16.199219zm-16.722657 50.726563h80.242188c9.519531 0 17.265625 7.746093 17.265625 17.265624 0 9.519532-7.746094 17.265626-17.265625 17.265626h-80.242188c-9.519531 0-17.265625-7.746094-17.265625-17.265626 0-9.519531 7.746094-17.265624 17.265625-17.265624zm-4.132812 49.582031c1.355469.175781 2.730469.273437 4.132812.273437h80.242188c1.402343 0 2.777343-.097656 4.132812-.273437v19.085937c-13.925781-5.558594-28.921875-8.511718-44.25-8.511718-15.433593 0-30.382812 2.890624-44.257812 8.414062zm-133.203125 216.007812v-171.929687c0-13.761719 10.675781-25.066406 24.179687-26.089844v224.113281c-13.503906-1.023437-24.179687-12.332031-24.179687-26.09375zm65.441406 26.09375v-41.511719c0-4.230468-3.429688-7.660156-7.664062-7.660156-4.230469 0-7.660157 3.429688-7.660157 7.660156v41.59375h-10.613281v-224.28125h10.613281v152.042969c0 4.230469 3.429688 7.660157 7.660157 7.660157 4.234374 0 7.664062-3.429688 7.664062-7.660157v-151.960937c13.503906 1.023437 24.179688 12.332031 24.179688 26.09375v8.058594.152343 155.519531.148438 8.050781c0 13.761719-10.675782 25.070313-24.179688 26.09375zm112.019531-7.902343c-27.359375 0-52.988281-10.417969-72.519531-29.402344v-149.5c7.101562-6.90625 15.011719-12.675782 23.523438-17.222656.449218-.1875.878906-.417969 1.285156-.683594 14.554687-7.515625 30.800781-11.496094 47.714844-11.496094 28.996093 0 56.660156 12.109375 76.351562 33.324219v141.660156c-19.691406 21.210937-47.355469 33.320313-76.355469 33.320313zm91.675781-18.191407v-171.929687c0-13.761719 10.679688-25.070313 24.183594-26.089844v224.113281c-13.507812-1.023437-24.183594-12.332031-24.183594-26.09375zm39.503907 26.175781v-224.28125h10.613281v224.28125zm25.933593-.082031v-224.117187c13.503907 1.023437 24.183594 12.332031 24.183594 26.09375v171.929687c0 13.761719-10.679687 25.070313-24.183594 26.09375zm0 0"/></svg>