<svg id="Capa_1" enable-background="new 0 0 512 512" height="512" viewBox="0 0 512 512" width="512" xmlns="http://www.w3.org/2000/svg"><g><g><path d="m370.553 6.887h-303.606c-18.272 0-33.085 14.813-33.085 33.085v432.055c0 18.272 14.813 33.085 33.085 33.085h303.606c18.273 0 33.085-14.813 33.085-33.085v-432.054c0-18.273-14.812-33.086-33.085-33.086z" fill="#f3d69e"/><path d="m66.25 37.5h305v437h-305z" fill="#78c2a4"/><g><g fill="#f9f8f9"><path d="m236.328 211.421c0 1.118-.104 2.211-.304 3.27-1.533 8.146-7.767 11.795-16.358 11.795-9.709 0-14.945-5.202-14.945-14.911 0-8.591 2.611-15.897 10.757-17.43 1.06-.199 2.153-.304 3.271-.304 9.709 0 17.579 7.871 17.579 17.58z"/><path d="m253.908 180.979c0 .76-.048 1.508-.142 2.242-1.101 8.65-7.893 12.467-16.843 12.467-9.709 0-14.78-5.001-14.78-14.71 0-8.495 2.631-15.583 10.642-17.222 1.144-.234 2.329-.357 3.543-.357 9.709 0 17.58 7.871 17.58 17.58z"/><path d="m218.749 180.979c0 1.118-.104 2.212-.304 3.273-1.533 8.145-8.685 12.097-17.275 12.097-9.709 0-14.547-5.505-14.547-15.214 0-8.591 3.129-15.899 11.275-17.432 1.06-.2 2.154-.304 3.272-.304 9.708 0 17.579 7.871 17.579 17.58z"/><path d="m271.487 150.522c0 1.117-.104 2.21-.303 3.269-1.532 8.147-8.653 11.512-17.244 11.512-9.709 0-15.364-5.687-15.364-15.396 0-8.592 3.917-15.129 12.064-16.661 1.059-.199 2.152-.303 3.269-.303 9.707-.001 17.578 7.87 17.578 17.579z"/><path d="m236.328 150.522c0 1.117-.104 2.21-.303 3.269-1.532 8.146-8.262 12.585-16.854 12.585-9.709 0-15.358-6.146-15.358-15.855 0-8.591 3.519-15.743 11.665-17.276 1.06-.199 2.153-.304 3.271-.304 9.709.001 17.579 7.872 17.579 17.581z"/><path d="m201.17 150.522c0 1.117-.104 2.21-.304 3.27-1.532 8.146-8.686 13.08-17.277 13.08-9.709 0-14.702-6.144-14.702-15.853 0-8.591 3.287-16.239 11.432-17.772 1.06-.2 2.154-.304 3.272-.304 9.708-.001 17.579 7.87 17.579 17.579z"/></g><path d="m236.019 214.69c-1.52 8.15-8.68 14.31-17.27 14.31-9.71 0-17.58-7.87-17.58-17.58 0-8.59 6.16-15.75 14.31-17.27-.21 1.06-.31 2.15-.31 3.27 0 9.71 7.87 17.58 17.58 17.58 1.12 0 2.21-.1 3.27-.31z" fill="#efedef"/><path d="m253.759 183.22c-1.09 8.65-8.48 15.34-17.43 15.34-9.71 0-17.58-7.87-17.58-17.58 0-8.54 6.08-15.65 14.15-17.24-.1.73-.15 1.48-.15 2.24 0 9.71 7.87 17.58 17.58 17.58 1.17 0 2.32-.11 3.43-.34z" fill="#efedef"/><path d="m218.439 184.25c-1.52 8.15-8.68 14.31-17.27 14.31-9.71 0-17.58-7.87-17.58-17.58 0-8.59 6.16-15.75 14.31-17.27-.21 1.06-.31 2.15-.31 3.27 0 9.71 7.87 17.58 17.58 17.58 1.12 0 2.21-.1 3.27-.31z" fill="#efedef"/><path d="m271.179 153.79c-1.52 8.15-8.68 14.31-17.27 14.31-9.71 0-17.58-7.87-17.58-17.58 0-8.59 6.16-15.75 14.31-17.27-.21 1.06-.31 2.15-.31 3.27 0 9.71 7.87 17.58 17.58 17.58 1.12 0 2.21-.1 3.27-.31z" fill="#efedef"/><path d="m236.019 153.79c-1.52 8.15-8.68 14.31-17.27 14.31-9.71 0-17.58-7.87-17.58-17.58 0-8.59 6.16-15.75 14.31-17.27-.21 1.06-.31 2.15-.31 3.27 0 9.71 7.87 17.58 17.58 17.58 1.12 0 2.21-.1 3.27-.31z" fill="#efedef"/><path d="m200.859 153.79c-1.52 8.15-8.68 14.31-17.27 14.31-9.71 0-17.58-7.87-17.58-17.58 0-8.59 6.16-15.75 14.31-17.27-.21 1.06-.31 2.15-.31 3.27 0 9.71 7.87 17.58 17.58 17.58 1.12 0 2.21-.1 3.27-.31z" fill="#efedef"/><path d="m183.557 119.976c0 .761-.048 1.51-.142 2.245-1.102 8.649-9.241 12.559-18.189 12.559-9.709 0-13.761-5.095-13.761-14.804 0-8.495 2.96-15.583 10.97-17.222 1.144-.234 2.329-.357 3.543-.357 9.708 0 17.579 7.87 17.579 17.579z" fill="#f9f8f9"/><path d="m218.715 119.986c0 .761-.048 1.51-.142 2.245-1.102 8.649-9.241 12.559-18.189 12.559-9.709 0-13.761-5.095-13.761-14.804 0-8.495 2.96-15.583 10.97-17.222 1.144-.234 2.329-.357 3.543-.357 9.709 0 17.579 7.87 17.579 17.579z" fill="#f9f8f9"/><path d="m253.874 119.982c0 .761-.048 1.51-.142 2.245-1.102 8.649-9.241 12.559-18.189 12.559-9.709 0-13.761-5.095-13.761-14.804 0-8.495 2.96-15.583 10.97-17.222 1.144-.234 2.329-.357 3.543-.357 9.708 0 17.579 7.871 17.579 17.579z" fill="#f9f8f9"/><path d="m289.101 119.985c0 .761-.048 1.51-.142 2.245-1.102 8.649-9.241 12.559-18.189 12.559-9.709 0-13.761-5.095-13.761-14.804 0-8.495 2.96-15.583 10.97-17.222 1.144-.234 2.329-.357 3.543-.357 9.708 0 17.579 7.871 17.579 17.579z" fill="#f9f8f9"/><path d="m253.719 122.22c-1.09 8.65-8.48 15.34-17.42 15.34-9.71 0-17.58-7.88-17.58-17.58 0-8.53 6.08-15.64 14.14-17.24-.09.73-.14 1.48-.14 2.24 0 9.7 7.87 17.58 17.58 17.58 1.17 0 2.31-.11 3.42-.34z" fill="#efedef"/><path d="m288.789 123.25c-1.53 8.14-8.68 14.31-17.27 14.31-9.71 0-17.58-7.88-17.58-17.58 0-8.59 6.16-15.74 14.31-17.27-.21 1.06-.31 2.15-.31 3.27 0 9.7 7.87 17.58 17.58 17.58 1.12 0 2.21-.1 3.27-.31z" fill="#efedef"/><path d="m218.409 123.25c-1.53 8.14-8.68 14.31-17.27 14.31-9.71 0-17.58-7.88-17.58-17.58 0-8.59 6.16-15.74 14.31-17.27-.21 1.06-.31 2.15-.31 3.27 0 9.7 7.87 17.58 17.58 17.58 1.12 0 2.21-.1 3.27-.31z" fill="#efedef"/><path d="m183.409 122.22c-1.09 8.65-8.48 15.34-17.43 15.34-9.71 0-17.58-7.88-17.58-17.58 0-8.53 6.08-15.64 14.14-17.24-.09.73-.14 1.48-.14 2.24 0 9.7 7.87 17.58 17.58 17.58 1.17 0 2.32-.12 3.43-.34z" fill="#efedef"/></g><g><path d="m236.33 391.45c0 1.118-.104 2.211-.304 3.271-1.533 8.145-8.263 12.591-16.853 12.591-9.709 0-15.193-7.012-15.193-16.721 0-8.591 3.354-14.884 11.5-16.417 1.06-.199 2.153-.304 3.271-.304 9.708 0 17.579 7.871 17.579 17.58z" fill="#6a61b2"/><path d="m236.02 394.72c-1.53 8.15-8.68 14.31-17.27 14.31-9.71 0-17.58-7.87-17.58-17.58 0-8.59 6.16-15.75 14.31-17.27-.21 1.06-.31 2.15-.31 3.27 0 9.71 7.87 17.58 17.58 17.58 1.12 0 2.21-.1 3.27-.31z" fill="#5f55ad"/></g><path d="m475.25 359.5v141c0 2.21-3.978-.656-6.188-.656l-17.438-1.852c-2.21 0 5.108-86.753 5.108-88.963l-9.482-49.529 15.427-8.28z" fill="#655e67"/><path d="m475.25 134.5v19l-13.069 5.445-14.931-5.445v-19c0-7.73 6.27-14 14-14s14 6.27 14 14z" fill="#655e67"/><path d="m475.25 153.5v206l-14-10.222-14 10.222 9.041-102.5-9.041-103.5z" fill="#f3d69e"/><path d="m475.25 490.5v10c0 2.21-1.79 4-4 4h-20c-2.21 0-4-1.79-4-4v-141l8.161-8.28 5.839 8.28v127c0 2.21 1.79 4 4 4z" fill="#544f56"/><path d="m461.25 120.5v33l-7 6.931-7-6.931v-19c0-7.73 6.27-14 14-14z" fill="#544f56"/><path d="m461.25 339.5v-186h-14v191 15h14 14v-15h-9c-2.761 0-5-2.239-5-5z" fill="#efcb83"/><g fill="#655e67"><circle cx="60.79" cy="32.258" r="21"/><circle cx="376.71" cy="32.258" r="21"/><g><circle cx="60.79" cy="256" r="21"/><circle cx="376.71" cy="256" r="21"/></g><circle cx="60.79" cy="479.742" r="21"/><circle cx="376.71" cy="479.742" r="21"/></g></g><g><path d="m378.1 0h-318.2c-17.038 0-30.9 13.862-30.9 30.9v95.113c0 4.142 3.358 7.5 7.5 7.5s7.5-3.358 7.5-7.5v-68.557c4.408 2.646 9.529 4.214 15 4.356v163.401c-5.471.142-10.592 1.71-15 4.356v-68.557c0-4.142-3.358-7.5-7.5-7.5s-7.5 3.358-7.5 7.5v320.088c0 17.038 13.862 30.9 30.9 30.9h318.2c17.038 0 30.9-13.862 30.9-30.9v-450.2c0-17.038-13.862-30.9-30.9-30.9zm.093 496.781c-8.716 0-15.807-7.091-15.807-15.807s7.091-15.807 15.807-15.807 15.807 7.091 15.807 15.808c0 8.715-7.091 15.806-15.807 15.806zm.807-46.593v-69.209c0-4.142-3.358-7.5-7.5-7.5s-7.5 3.358-7.5 7.5v72.667c-5.683 2.964-10.329 7.645-13.249 13.355h-154.751c-4.142 0-7.5 3.358-7.5 7.5s3.358 7.5 7.5 7.5h151.412c.18 5.479 1.791 10.602 4.481 15h-265.786c2.69-4.398 4.3-9.521 4.481-15h70.412c4.142 0 7.5-3.358 7.5-7.5s-3.358-7.5-7.5-7.5h-73.751c-2.919-5.71-7.565-10.391-13.249-13.355v-170.317c9.862-5.142 16.614-15.459 16.614-27.329s-6.752-22.187-16.614-27.329v-170.316c5.683-2.964 10.329-7.645 13.249-13.355h263.503c2.919 5.71 7.565 10.391 13.249 13.355v170.316c-9.862 5.142-16.614 15.459-16.614 27.329s6.753 22.187 16.614 27.329v62.649c0 4.142 3.358 7.5 7.5 7.5s7.5-3.358 7.5-7.5v-59.192c5.471-.142 10.592-1.71 15-4.356v172.114c-4.409-2.646-9.53-4.214-15.001-4.356zm-303.386 30.787c0 8.716-7.091 15.807-15.807 15.807s-15.807-7.092-15.807-15.807c0-8.716 7.091-15.807 15.807-15.807s15.807 7.09 15.807 15.807zm-16.614-30.787c-5.471.142-10.592 1.71-15 4.356v-172.114c4.408 2.646 9.529 4.214 15 4.356zm319.193-403.355c-8.716 0-15.807-7.091-15.807-15.807s7.091-15.807 15.807-15.807 15.807 7.091 15.807 15.806c0 8.717-7.091 15.808-15.807 15.808zm-30.781-16.833h-256.824c-.18-5.479-1.791-10.602-4.481-15h265.785c-2.689 4.398-4.3 9.521-4.48 15zm30.781 241.807c-8.716 0-15.807-7.091-15.807-15.807s7.091-15.807 15.807-15.807 15.807 7.091 15.807 15.807-7.091 15.807-15.807 15.807zm.807-46.594v-163.401c5.471-.142 10.592-1.71 15-4.356v172.114c-4.408-2.646-9.529-4.215-15-4.357zm-335-194.188c0-8.716 7.091-15.807 15.807-15.807s15.807 7.091 15.807 15.807-7.091 15.807-15.807 15.807-15.807-7.09-15.807-15.807zm15.807 209.168c8.716 0 15.807 7.091 15.807 15.807s-7.091 15.807-15.807 15.807-15.807-7.091-15.807-15.807 7.091-15.807 15.807-15.807z"/><path d="m271.771 94.896c-6.859 0-13.081 2.77-17.613 7.247-4.532-4.477-10.755-7.247-17.613-7.247-6.842 0-13.05 2.757-17.579 7.214-4.529-4.458-10.737-7.214-17.579-7.214s-13.05 2.757-17.58 7.214c-4.529-4.458-10.737-7.214-17.579-7.214-13.829 0-25.079 11.25-25.079 25.079 0 11.529 7.821 21.259 18.434 24.179-.534 2.034-.821 4.167-.821 6.367 0 11.509 7.794 21.225 18.38 24.164-.522 2.012-.8 4.121-.8 6.293 0 11.507 7.793 21.222 18.376 24.162-.52 2.008-.797 4.112-.797 6.28 0 13.829 11.25 25.079 25.079 25.079s25.079-11.25 25.079-25.079c0-2.168-.277-4.272-.797-6.28 10.583-2.94 18.376-12.655 18.376-24.162 0-2.173-.279-4.282-.8-6.293 10.585-2.939 18.38-12.655 18.38-24.164 0-2.199-.287-4.333-.821-6.367 10.613-2.92 18.434-12.651 18.434-24.179 0-13.828-11.251-25.079-25.08-25.079zm-52.771 65.705c-5.558 0-10.079-4.521-10.079-10.08 0-5.558 4.521-10.079 10.079-10.079s10.079 4.521 10.079 10.079c0 5.559-4.521 10.08-10.079 10.08zm17.545-50.705c5.558 0 10.08 4.521 10.08 10.079s-4.521 10.08-10.08 10.08c-5.558 0-10.079-4.521-10.079-10.08 0-5.557 4.522-10.079 10.079-10.079zm-35.158 0c5.558 0 10.079 4.521 10.079 10.079s-4.521 10.08-10.079 10.08-10.08-4.521-10.08-10.08c.001-5.557 4.522-10.079 10.08-10.079zm-45.238 10.08c0-5.558 4.521-10.079 10.079-10.079s10.079 4.521 10.079 10.079-4.521 10.08-10.079 10.08-10.079-4.522-10.079-10.08zm17.613 30.545c0-5.558 4.521-10.079 10.079-10.079s10.08 4.521 10.08 10.079-4.521 10.08-10.08 10.08c-5.557 0-10.079-4.521-10.079-10.08zm17.579 30.458c0-5.558 4.521-10.079 10.08-10.079 5.558 0 10.079 4.521 10.079 10.079s-4.521 10.079-10.079 10.079-10.08-4.522-10.08-10.079zm27.659 40.521c-5.558 0-10.079-4.521-10.079-10.079s4.521-10.08 10.079-10.08 10.079 4.521 10.079 10.08c0 5.558-4.521 10.079-10.079 10.079zm17.579-30.442c-5.558 0-10.079-4.521-10.079-10.079s4.521-10.079 10.079-10.079 10.08 4.521 10.08 10.079-4.522 10.079-10.08 10.079zm17.58-30.457c-5.558 0-10.08-4.521-10.08-10.08 0-5.558 4.521-10.079 10.08-10.079 5.558 0 10.079 4.521 10.079 10.079 0 5.559-4.522 10.08-10.079 10.08zm17.612-30.546c-5.558 0-10.079-4.521-10.079-10.08 0-5.558 4.521-10.079 10.079-10.079s10.079 4.521 10.079 10.079c.001 5.559-4.521 10.08-10.079 10.08z"/><path d="m461.5 113c-11.855 0-21.5 9.645-21.5 21.5v366c0 6.341 5.159 11.5 11.5 11.5h20c6.341 0 11.5-5.159 11.5-11.5v-53.5c0-4.142-3.358-7.5-7.5-7.5s-7.5 3.358-7.5 7.5v50h-13v-130h13v45c0 4.142 3.358 7.5 7.5 7.5s7.5-3.358 7.5-7.5v-277.5c0-11.855-9.645-21.5-21.5-21.5zm0 15c3.584 0 6.5 2.916 6.5 6.5v11.5h-13v-11.5c0-3.584 2.916-6.5 6.5-6.5zm-6.5 224v-191h13v191z"/><path d="m219 366.846c-13.829 0-25.079 11.25-25.079 25.08 0 13.829 11.25 25.079 25.079 25.079s25.079-11.25 25.079-25.079c0-13.83-11.25-25.08-25.079-25.08zm0 35.158c-5.558 0-10.079-4.521-10.079-10.079s4.521-10.08 10.079-10.08 10.079 4.521 10.079 10.08c0 5.558-4.521 10.079-10.079 10.079z"/></g></g></svg>