<svg id="Capa_1" enable-background="new 0 0 512 512" height="512" viewBox="0 0 512 512" width="512" xmlns="http://www.w3.org/2000/svg"><g><path d="m114.5 61h90v390h-90z" fill="#32363d"/><path d="m114.5 31h-30v450h30c16.5 0 30-13.5 30-30v-390c0-16.5-13.5-30-30-30z" fill="#41494e"/><path d="m84.5 31h-47c-16.5 0-30 13.5-30 30v390c0 16.5 13.5 30 30 30h47c16.5 0 30-13.5 30-30v-390c0-16.5-13.5-30-30-30z" fill="#5a656b"/><path d="m474.5 31h-30v450h30c16.5 0 30-13.5 30-30v-390c0-16.5-13.5-30-30-30z" fill="#41494e"/><path d="m444.5 31h-240c-16.5 0-30 13.5-30 30v390c0 16.5 13.5 30 30 30h240c16.5 0 30-13.5 30-30v-180l-135-105 135-105c0-16.5-13.5-30-30-30z" fill="#5a656b"/><g fill="#32363d"><circle cx="339.5" cy="376" r="15"/><circle cx="279.5" cy="376" r="15"/><circle cx="339.5" cy="436" r="15"/><circle cx="279.5" cy="436" r="15"/><circle cx="399.5" cy="376" r="15"/><circle cx="339.5" cy="316" r="15"/><circle cx="279.5" cy="316" r="15"/><circle cx="399.5" cy="316" r="15"/><circle cx="399.5" cy="436" r="15"/></g><path d="m444.5 61-105 105 105 105h30v-210z" fill="#a3bbc0"/><path d="m444.5 61h-240v210h240v-90l-30-37.5 30-52.5z" fill="#bddbe0"/><path d="m429.5 211h-55l-30 15 30 15h55c8.28 0 15-6.72 15-15s-6.72-15-15-15z" fill="#5a656b"/><path d="m374.5 211v30h-70l-30-15 30-15z" fill="#728287"/><path d="m304.5 211v30h-55c-8.28 0-15-6.72-15-15s6.72-15 15-15z" fill="#8b9ea4"/><path d="m414.5 91-75 45 75 45h30v-90z" fill="#2a51ff"/><path d="m234.5 91h180v90h-180z" fill="#2275ff"/><path d="m339.5 293.5c-12.406 0-22.5 10.093-22.5 22.5s10.094 22.5 22.5 22.5 22.5-10.093 22.5-22.5-10.094-22.5-22.5-22.5zm0 30c-4.136 0-7.5-3.364-7.5-7.5s3.364-7.5 7.5-7.5 7.5 3.364 7.5 7.5-3.364 7.5-7.5 7.5z"/><path d="m279.5 293.5c-12.406 0-22.5 10.093-22.5 22.5s10.094 22.5 22.5 22.5 22.5-10.093 22.5-22.5-10.094-22.5-22.5-22.5zm0 30c-4.136 0-7.5-3.364-7.5-7.5s3.364-7.5 7.5-7.5 7.5 3.364 7.5 7.5-3.364 7.5-7.5 7.5z"/><path d="m339.5 353.5c-12.406 0-22.5 10.093-22.5 22.5s10.094 22.5 22.5 22.5 22.5-10.093 22.5-22.5-10.094-22.5-22.5-22.5zm0 30c-4.136 0-7.5-3.364-7.5-7.5s3.364-7.5 7.5-7.5 7.5 3.364 7.5 7.5-3.364 7.5-7.5 7.5z"/><path d="m279.5 353.5c-12.406 0-22.5 10.093-22.5 22.5s10.094 22.5 22.5 22.5 22.5-10.093 22.5-22.5-10.094-22.5-22.5-22.5zm0 30c-4.136 0-7.5-3.364-7.5-7.5s3.364-7.5 7.5-7.5 7.5 3.364 7.5 7.5-3.364 7.5-7.5 7.5z"/><path d="m399.5 353.5c-12.406 0-22.5 10.093-22.5 22.5s10.094 22.5 22.5 22.5 22.5-10.093 22.5-22.5-10.094-22.5-22.5-22.5zm0 30c-4.136 0-7.5-3.364-7.5-7.5s3.364-7.5 7.5-7.5 7.5 3.364 7.5 7.5-3.364 7.5-7.5 7.5z"/><path d="m339.5 413.5c-12.406 0-22.5 10.093-22.5 22.5s10.094 22.5 22.5 22.5 22.5-10.093 22.5-22.5-10.094-22.5-22.5-22.5zm0 30c-4.136 0-7.5-3.364-7.5-7.5s3.364-7.5 7.5-7.5 7.5 3.364 7.5 7.5-3.364 7.5-7.5 7.5z"/><path d="m279.5 413.5c-12.406 0-22.5 10.093-22.5 22.5s10.094 22.5 22.5 22.5 22.5-10.093 22.5-22.5-10.094-22.5-22.5-22.5zm0 30c-4.136 0-7.5-3.364-7.5-7.5s3.364-7.5 7.5-7.5 7.5 3.364 7.5 7.5-3.364 7.5-7.5 7.5z"/><path d="m399.5 413.5c-12.406 0-22.5 10.093-22.5 22.5s10.094 22.5 22.5 22.5 22.5-10.093 22.5-22.5-10.094-22.5-22.5-22.5zm0 30c-4.136 0-7.5-3.364-7.5-7.5s3.364-7.5 7.5-7.5 7.5 3.364 7.5 7.5-3.364 7.5-7.5 7.5z"/><path d="m399.5 293.5c-12.406 0-22.5 10.093-22.5 22.5s10.094 22.5 22.5 22.5 22.5-10.093 22.5-22.5-10.094-22.5-22.5-22.5zm0 30c-4.136 0-7.5-3.364-7.5-7.5s3.364-7.5 7.5-7.5 7.5 3.364 7.5 7.5-3.364 7.5-7.5 7.5z"/><path d="m444.5 188.5c4.143 0 7.5-3.358 7.5-7.5v-90c0-4.142-3.357-7.5-7.5-7.5h-210c-4.143 0-7.5 3.358-7.5 7.5v90c0 4.142 3.357 7.5 7.5 7.5zm-202.5-90h195v75h-195z"/><path d="m474.5 23.5h-270c-18.11 0-33.261 12.904-36.745 30h-16.509c-3.484-17.096-18.635-30-36.745-30h-77c-20.679 0-37.501 16.822-37.501 37.5v390c0 20.678 16.822 37.5 37.5 37.5h77c18.11 0 33.261-12.904 36.745-30h16.509c3.484 17.096 18.635 30 36.745 30h270c20.678 0 37.5-16.822 37.5-37.5v-390c.001-20.678-16.821-37.5-37.499-37.5zm-322.5 45h15v375h-15zm-37.5 405h-77c-12.406 0-22.5-10.093-22.5-22.5v-390c0-12.407 10.094-22.5 22.5-22.5h77c12.406 0 22.5 10.093 22.5 22.5v390c0 12.407-10.094 22.5-22.5 22.5zm382.5-22.5c0 12.407-10.094 22.5-22.5 22.5h-270c-12.406 0-22.5-10.093-22.5-22.5v-390c0-12.407 10.094-22.5 22.5-22.5h270c12.406 0 22.5 10.093 22.5 22.5z"/><path d="m474.5 53.5h-270c-4.143 0-7.5 3.358-7.5 7.5v60c0 4.142 3.357 7.5 7.5 7.5s7.5-3.358 7.5-7.5v-52.5h255v195h-255v-112.5c0-4.142-3.357-7.5-7.5-7.5s-7.5 3.358-7.5 7.5v120c0 4.142 3.357 7.5 7.5 7.5h270c4.143 0 7.5-3.358 7.5-7.5v-210c0-4.142-3.357-7.5-7.5-7.5z"/><path d="m249.5 248.5h180c12.406 0 22.5-10.093 22.5-22.5s-10.094-22.5-22.5-22.5h-180c-12.406 0-22.5 10.093-22.5 22.5s10.094 22.5 22.5 22.5zm62.5-15v-15h55v15zm125-7.5c0 4.136-3.364 7.5-7.5 7.5h-47.5v-15h47.5c4.136 0 7.5 3.364 7.5 7.5zm-187.5-7.5h47.5v15h-47.5c-4.136 0-7.5-3.364-7.5-7.5s3.364-7.5 7.5-7.5z"/></g></svg>