<svg id="Capa_1" enable-background="new 0 0 512 512" height="512" viewBox="0 0 512 512" width="512" xmlns="http://www.w3.org/2000/svg"><g><g><path d="m490.649 26.594h-469.298c-7.65 0-13.851 6.201-13.851 13.851v61.101h497v-61.101c0-7.65-6.201-13.851-13.851-13.851z" fill="#918291"/><path d="m504.5 40.44v61.11h-24.53v-60.79c0-6.26-4.15-12.22-9.85-14.17h20.53c7.65 0 13.85 6.21 13.85 13.85z" fill="#837784"/><path d="m87.889 101.546h336.222v383.86h-336.222z" fill="#e2dee2"/><path d="m394.11 101.545h30v383.86h-30z" fill="#cbc4cc"/><path d="m21.351 485.406h66.538v-383.86h-80.389v370.009c0 7.65 6.201 13.851 13.851 13.851z" fill="#a79ba7"/><path d="m424.111 485.406h66.538c7.65 0 13.851-6.201 13.851-13.851v-370.009h-80.389z" fill="#a79ba7"/><path d="m504.5 101.55v370.01c0 7.64-6.2 13.85-13.85 13.85h-21.61c6.25-1.34 10.93-6.89 10.93-13.54v-370.32z" fill="#918291"/><path d="m328.08 101.546h-144.16c-6.158 0-11.149-4.992-11.149-11.149v-52.654c0-6.158 4.992-11.149 11.149-11.149h144.16c6.158 0 11.149 4.992 11.149 11.149v52.653c0 6.158-4.992 11.15-11.149 11.15z" fill="#fe646f"/><path d="m328.08 26.594h-35.06c6.157 0 11.149 4.992 11.149 11.149v52.653c0 6.158-4.992 11.149-11.149 11.149h35.06c6.157 0 11.149-4.992 11.149-11.149v-52.653c0-6.157-4.992-11.149-11.149-11.149z" fill="#fd4755"/></g><g><path d="m490.649 19.094h-49.052c-4.143 0-7.5 3.358-7.5 7.5s3.357 7.5 7.5 7.5h49.052c3.502 0 6.351 2.849 6.351 6.351v53.601h-150.634c.599-5.068.674-55.054 0-59.952h60.119c4.143 0 7.5-3.358 7.5-7.5s-3.357-7.5-7.5-7.5h-385.134c-11.773 0-21.351 9.578-21.351 21.351v431.11c0 11.773 9.578 21.351 21.351 21.351h31.311c4.143 0 7.5-3.358 7.5-7.5s-3.357-7.5-7.5-7.5h-31.311c-3.502 0-6.351-2.849-6.351-6.351v-362.509h65.389v376.36c0 4.142 3.357 7.5 7.5 7.5h402.761c11.772 0 21.351-9.578 21.351-21.351v-431.11c-.001-11.773-9.579-21.351-21.352-21.351zm-74.038 458.812h-153.111v-368.86h153.111zm-88.531-443.812c2.013 0 3.649 1.637 3.649 3.649v52.653c0 2.012-1.637 3.649-3.649 3.649h-144.16c-2.013 0-3.649-1.637-3.649-3.649v-52.653c0-2.012 1.637-3.649 3.649-3.649zm-313.08 59.952v-53.601c0-3.502 2.849-6.351 6.351-6.351h144.283c-.599 5.068-.674 55.054 0 59.952h-77.745zm80.389 15h153.111v368.86h-153.111zm401.611 362.509c0 3.502-2.849 6.351-6.351 6.351h-59.038v-368.86h65.389z"/><path d="m451.071 284.084h26.469c4.143 0 7.5-3.358 7.5-7.5s-3.357-7.5-7.5-7.5h-26.469c-4.143 0-7.5 3.358-7.5 7.5s3.358 7.5 7.5 7.5z"/><path d="m337.753 208.582c-1.056.251-2.547.736-3.828 2.05l-41.757 41.756c-2.929 2.929-2.929 7.678 0 10.606s7.677 2.93 10.607 0l28.953-28.953v107.584c0 4.142 3.357 7.5 7.5 7.5s7.5-3.358 7.5-7.5v-107.584l28.952 28.953c1.465 1.465 3.384 2.197 5.304 2.197 1.919 0 3.839-.732 5.304-2.197 2.929-2.929 2.929-7.678 0-10.606l-41.756-41.756c-1.558-1.447-3.85-2.647-6.779-2.05z"/><path d="m219.831 294.566c-2.93-2.929-7.678-2.93-10.607 0l-28.953 28.953v-107.584c0-4.142-3.357-7.5-7.5-7.5s-7.5 3.358-7.5 7.5v107.584l-28.952-28.953c-2.929-2.929-7.677-2.93-10.607 0-2.929 2.929-2.929 7.678 0 10.606l41.756 41.756c2.476 2.519 7.447 3.27 10.607 0l41.757-41.756c2.928-2.928 2.928-7.677-.001-10.606z"/><g><g><g><circle cx="451.069" cy="311.484" r="7.5"/><circle cx="451.069" cy="335.929" r="7.5"/><circle cx="451.069" cy="360.374" r="7.5"/></g><g><path d="m485.04 311.485c0 3.29-2.12 6.09-5.07 7.09-.76.27-1.58.41-2.43.41-4.14 0-7.5-3.36-7.5-7.5s3.36-7.5 7.5-7.5c.85 0 1.67.14 2.43.41 2.95 1 5.07 3.8 5.07 7.09z"/><path d="m485.04 335.925c0 3.3-2.12 6.09-5.07 7.09-.76.27-1.58.41-2.43.41-4.14 0-7.5-3.35-7.5-7.5 0-4.14 3.36-7.5 7.5-7.5.85 0 1.67.14 2.43.41 2.95 1 5.07 3.8 5.07 7.09z"/><path d="m485.04 360.375c0 3.29-2.12 6.09-5.07 7.09-.76.27-1.58.41-2.43.41-4.14 0-7.5-3.36-7.5-7.5s3.36-7.5 7.5-7.5c.85 0 1.67.14 2.43.41 2.95 1 5.07 3.8 5.07 7.09z"/></g></g></g></g></g></svg>