<svg id="Capa_1" enable-background="new 0 0 512 512" height="512" viewBox="0 0 512 512" width="512" xmlns="http://www.w3.org/2000/svg"><g><g fill="#f2fbff"><path d="m398.178 161.022v1.392c1.317 1.034 2.625 2.083 3.917 3.163 6.104 5.105 6.533 14.344.906 19.971l-.062.062c-4.863 4.863-13.071 5.129-18.351.723-3.075-2.566-6.241-4.967-9.478-7.221v61.636c0 33.163-26.884 60.046-60.046 60.046h-36.205c-33.163 0-60.046-26.884-60.046-60.046v-61.637c-3.237 2.254-6.403 4.655-9.478 7.221-5.28 4.406-13.488 4.14-18.351-.723l-.062-.062c-5.627-5.627-5.199-14.866.906-19.971 1.292-1.08 2.6-2.129 3.917-3.163v-1.392h-188.245v286.35c0 8.323 6.748 15.071 15.071 15.071h466.858c8.323 0 15.071-6.748 15.071-15.071v-286.35h-106.322z"/><path d=""/></g><path d="m448 161.022v171.379c14.78 10.565 24.423 27.855 24.423 47.408v82.634h17.006c8.323 0 15.071-6.748 15.071-15.071v-286.35z" fill="#dff6fd"/><g fill="#26a6fe"><path d="m489.429 94.724h-100.387c5.827 11.351 9.136 24.208 9.136 37.844v29.458h106.322v-52.231c0-8.323-6.747-15.071-15.071-15.071z"/><path d="m195.745 132.569c0-13.637 3.309-26.493 9.136-37.844h-182.31c-8.324 0-15.071 6.748-15.071 15.071v52.231h188.245z"/></g><g><path d="m489.429 94.724h-56.5c8.324 0 15.071 6.748 15.071 15.071v52.231h56.5v-52.231c0-8.323-6.747-15.071-15.071-15.071z" fill="#0593fc"/></g><g><path d="m414.172 321.557h-56.131v64.503c0 3.76-4.438 5.759-7.254 3.268l-50.934-45.068c-1.651-1.461-4.131-1.461-5.782 0l-50.934 45.068c-2.816 2.491-7.254.492-7.254-3.268v-64.503h-56.131c-4.052 0-8.006.416-11.824 1.203 3.104 7.624 4.828 15.956 4.828 24.695 0 31.289-21.931 57.441-51.255 63.964v51.024h350.923v-82.634c-.001-32.172-26.081-58.252-58.252-58.252z" fill="#fe646f"/><g><path d="m414.172 321.557h-50.5c32.171 0 58.251 26.08 58.251 58.251v82.634h50.5v-82.634c0-32.171-26.08-58.251-58.251-58.251z" fill="#fd4755"/></g><g><g><g><g><g><g><path d="m398.178 162.414v-29.846c0-45.846-37.165-83.011-83.011-83.011h-36.41c-45.846 0-83.011 37.166-83.011 83.011v29.846c59.262-46.555 143.169-46.555 202.432 0z" fill="#fe646f"/></g><g><g><path d="m356 124.011v14.427c14.904 5.736 29.137 13.73 42.178 23.975v-29.846c0-45.846-37.165-83.011-83.011-83.011h-5.464c27.426 13.551 46.297 41.794 46.297 74.455z" fill="#fd4755"/></g></g><g><path d="m218.851 179.078h-.003c-3.25 2.262-6.426 4.679-9.513 7.255-4.908 4.096-12.343 4.148-17.272.23-5.252 4.976-8.533 12.011-8.533 19.817v8.221c0 15.078 12.223 27.302 27.302 27.302h8.011c-.007-.385-.029-.766-.029-1.153v-61.645c.012-.01.025-.018.037-.027z" fill="#ffcebf"/><path d="m401.861 186.562c-4.929 3.919-12.365 3.866-17.273-.229-3.087-2.577-6.263-4.993-9.513-7.255h-.003c.013.009.026.018.039.027v61.644c0 .387-.022.768-.029 1.153h8.011c15.078 0 27.302-12.223 27.302-27.302v-8.221c-.001-7.806-3.282-14.841-8.534-19.817z" fill="#ffb09e"/></g><g><g><path d="m351.873 308.085-15.413-11.23c-6.648 2.537-13.857 3.939-21.396 3.939h-36.205c-7.539 0-14.748-1.402-21.396-3.939l-15.413 11.23c-3.875 2.823-6.167 7.329-6.167 12.124v65.852c0 3.76 4.438 5.759 7.254 3.268l50.934-45.068c1.651-1.461 4.131-1.461 5.782 0l50.934 45.068c2.816 2.491 7.254.492 7.254-3.268v-65.852c0-4.794-2.292-9.3-6.168-12.124z" fill="#fff"/><g><path d="m315.064 299.923h-36.204c-6.652 0-13.045-1.12-19.018-3.153v22.628c0 1.223.513 2.39 1.415 3.216l32.758 30.019c1.668 1.528 4.227 1.528 5.895 0l32.758-30.019c.902-.826 1.415-1.993 1.415-3.216v-22.628c-5.974 2.033-12.367 3.153-19.019 3.153z" fill="#ffcebf"/></g><g><g><path d="m315.064 299.923h-12.822v19.474c0 1.223-.514 2.39-1.415 3.216l-19.785 18.131 12.973 11.889c1.668 1.528 4.227 1.528 5.895 0l32.758-30.02c.902-.826 1.415-1.993 1.415-3.216v-22.628c-5.974 2.034-12.367 3.154-19.019 3.154z" fill="#ffb09e"/></g></g><g><g><path d="m296.962 153.881c-28.223 0-55.513 8.883-78.149 25.223v61.645c0 33.163 26.884 60.046 60.046 60.046h36.204c33.163 0 60.046-26.884 60.046-60.046v-61.644c-22.634-16.341-49.925-25.224-78.147-25.224z" fill="#ffdfcf"/></g></g><g><path d="m344.297 162.548v78.2c0 33.163-26.884 60.046-60.046 60.046h30.813c33.163 0 60.046-26.884 60.046-60.046v-61.644c-9.535-6.883-19.903-12.425-30.813-16.556z" fill="#ffcebf"/></g></g></g></g><g><path d="m402.095 165.577c-60.726-50.784-149.541-50.784-210.267 0-6.105 5.105-6.533 14.344-.906 19.971l.062.062c4.863 4.863 13.071 5.129 18.351.723 50.639-42.256 124.616-42.256 175.254 0 5.28 4.406 13.488 4.14 18.351-.723l.062-.062c5.626-5.627 5.198-14.866-.907-19.971z" fill="#ffe177"/></g></g></g></g></g></g><g><path d="m74.802 94.724h-52.231c-8.324 0-15.071 6.748-15.071 15.071v52.231h67.302z" fill="#60b7ff"/></g><g><g><g><ellipse cx="107.21" cy="347.455" fill="#6cf5c2" rx="65.545" ry="65.545" transform="matrix(.707 -.707 .707 .707 -214.287 177.576)"/></g><g><path d="m107.21 281.909c-7.286 0-14.285 1.207-20.832 3.401 25.983 8.707 44.713 33.231 44.713 62.145s-18.73 53.438-44.713 62.145c6.547 2.193 13.546 3.4 20.832 3.4 36.2 0 65.545-29.346 65.545-65.545 0-36.2-29.345-65.546-65.545-65.546z" fill="#00f2a6"/></g></g></g><g><path d="m326.268 238.483c-4.142 0-7.5 3.357-7.5 7.5 0 8.855-7.204 16.06-16.06 16.06h-11.493c-8.855 0-16.06-7.204-16.06-16.06 0-4.143-3.358-7.5-7.5-7.5s-7.5 3.357-7.5 7.5c0 17.126 13.933 31.06 31.06 31.06h11.493c17.126 0 31.06-13.934 31.06-31.06 0-4.142-3.358-7.5-7.5-7.5z"/><path d="m264.41 201.536v-14.653c0-4.143-3.358-7.5-7.5-7.5s-7.5 3.357-7.5 7.5v14.653c0 4.143 3.358 7.5 7.5 7.5s7.5-3.357 7.5-7.5z"/><path d="m337.013 179.383c-4.142 0-7.5 3.357-7.5 7.5v14.653c0 4.143 3.358 7.5 7.5 7.5s7.5-3.357 7.5-7.5v-14.653c0-4.143-3.358-7.5-7.5-7.5z"/><path d="m296.961 227.459c4.142 0 7.5-3.357 7.5-7.5s-3.358-7.5-7.5-7.5c-2.059 0-3.734-1.675-3.734-3.733 0-2.06 1.675-3.734 3.734-3.734 4.142 0 7.5-3.357 7.5-7.5s-3.358-7.5-7.5-7.5c-10.33 0-18.734 8.404-18.734 18.734s8.404 18.733 18.734 18.733z"/><path d="m50 246.5h93.335c4.142 0 7.5-3.357 7.5-7.5s-3.358-7.5-7.5-7.5h-93.335c-4.142 0-7.5 3.357-7.5 7.5s3.358 7.5 7.5 7.5z"/><path d="m50 216.5h93.335c4.142 0 7.5-3.357 7.5-7.5s-3.358-7.5-7.5-7.5h-93.335c-4.142 0-7.5 3.357-7.5 7.5s3.358 7.5 7.5 7.5z"/><path d="m96.184 375.148c1.391 1.294 3.217 2.007 5.105 2.007.147 0 .296-.004.444-.013 2.044-.121 3.951-1.073 5.275-2.635l35.521-41.864c2.68-3.158 2.292-7.892-.866-10.571s-7.891-2.291-10.571.866l-30.444 35.881-18.92-17.586c-3.034-2.821-7.78-2.646-10.6.387-2.82 3.034-2.646 7.78.388 10.6z"/><path d="m489.43 87.225h-95.954c-15.686-26.984-44.913-45.168-78.309-45.168h-36.41c-33.397 0-62.624 18.184-78.309 45.168h-50.448c-4.142 0-7.5 3.358-7.5 7.5 0 4.142 3.358 7.5 7.5 7.5h43.483c-3.387 9.49-5.238 19.704-5.238 30.344v21.958h-105.943v-52.302h32.698c4.142 0 7.5-3.358 7.5-7.5 0-4.142-3.358-7.5-7.5-7.5h-92.429c-12.465 0-22.571 10.105-22.571 22.571v337.576c0 12.466 10.106 22.571 22.571 22.571h466.857c12.466 0 22.571-10.105 22.571-22.571v-337.577c.001-12.465-10.104-22.57-22.569-22.57zm-286.185 45.343c0-41.638 33.874-75.512 75.511-75.512h36.41c41.637 0 75.512 33.874 75.512 75.512v15.261c-27.701-18.056-60.314-27.84-93.717-27.84s-66.016 9.784-93.716 27.84zm-6.605 38.762c28.023-23.435 63.651-36.341 100.322-36.341s72.299 12.906 100.322 36.341c1.324 1.107 2.095 2.665 2.172 4.387.076 1.71-.548 3.318-1.82 4.59-2.075 2.076-5.926 2.201-8.242.268-53.558-44.691-131.305-44.693-184.864 0-2.316 1.934-6.168 1.808-8.201-.226-.014-.014-.089-.09-.103-.104-1.209-1.209-1.834-2.817-1.758-4.527.076-1.723.848-3.28 2.172-4.388zm203.261 24.631c1.89 3.026 2.993 6.591 2.993 10.417v8.221c0 10.919-8.883 19.802-19.802 19.802h-.482v-40.344c5.277 3.097 11.613 3.721 17.291 1.904zm-143.712 132.182 21.997 20.158-34.804 30.795v-58.887c0-2.39 1.153-4.655 3.083-6.062l5.875-4.28v9.531c.001 3.317 1.404 6.504 3.849 8.745zm11.152-10.126v-10.721c3.745.647 7.59.999 11.518.999h36.205c3.928 0 7.773-.353 11.519-.999v10.721l-29.621 27.145zm47.723-24.722h-36.205c-28.974 0-52.546-23.572-52.546-52.546v-57.665c42.872-28.031 98.429-28.03 141.297 0v57.665c0 28.974-23.572 52.546-52.546 52.546zm-124.035-86.916c0-3.827 1.103-7.393 2.994-10.42 2.107.672 4.304 1.028 6.51 1.028 3.727 0 7.462-.976 10.78-2.922v40.336h-.482c-10.919 0-19.802-8.883-19.802-19.802zm-176.029-96.584c0-4.174 3.396-7.57 7.571-7.57h44.731v52.302h-52.302zm99 345.148h-91.429c-4.175 0-7.571-3.396-7.571-7.571v-277.846h165.484c-.574 1.775-.917 3.631-1.002 5.523-.18 4.045.822 8.031 2.806 11.467-3.937 5.637-6.259 12.48-6.259 19.862v8.221c0 19.189 15.612 34.802 34.802 34.802h1.055c2.633 20.488 14.48 38.125 31.235 48.624l-5.488 3.998c-4.094 2.982-7.014 7.255-8.379 12.033h-49.503c-2.501 0-4.966.148-7.393.426-12.07-23.751-36.731-40.073-65.148-40.073-40.277 0-73.045 32.769-73.045 73.046 0 14.125 4.058 27.849 11.733 39.687 2.254 3.475 6.898 4.466 10.374 2.212s4.466-6.898 2.212-10.374c-6.097-9.401-9.319-20.303-9.319-31.524 0-32.007 26.039-58.046 58.045-58.046s58.045 26.039 58.045 58.046c0 32.006-26.039 58.045-58.045 58.045-8.937 0-17.517-1.983-25.501-5.896-3.72-1.82-8.212-.285-10.035 3.436-1.823 3.72-.285 8.213 3.435 10.035 10.056 4.927 20.856 7.425 32.101 7.425 2.29 0 4.553-.12 6.79-.327zm350.923 0h-335.923v-37.764c29.668-9.292 51.255-37.033 51.255-69.724 0-6.337-.814-12.487-2.338-18.354.609-.023 1.219-.044 1.834-.044h48.631v57.004c0 4.729 2.679 8.874 6.99 10.816 4.312 1.939 9.191 1.201 12.733-1.932l41.217-36.47c2.22 1.877 4.926 2.827 7.639 2.827s5.419-.95 7.639-2.827l41.216 36.47c2.234 1.977 4.999 3 7.818 3 1.698 0 3.418-.372 5.051-1.131 4.263-1.98 6.854-6.406 6.854-11.106v-15.708c0-4.142-3.358-7.5-7.5-7.5s-7.5 3.358-7.5 7.5v9.096l-34.803-30.795 21.996-20.157c2.446-2.241 3.849-5.429 3.849-8.746v-9.531l5.874 4.279c1.938 1.412 3.084 3.666 3.084 6.063v14.791c0 4.142 3.358 7.5 7.5 7.5s7.5-3.358 7.5-7.5v-5.943h48.631c28.029 0 50.751 22.722 50.751 50.751v75.135zm32.077-7.571c0 4.175-3.396 7.571-7.571 7.571h-9.505v-75.135c0-36.256-29.496-65.752-65.751-65.752h-49.503c-1.365-4.777-4.285-9.05-8.379-12.033l-5.488-3.998c16.754-10.499 28.602-28.136 31.235-48.624h1.055c19.19 0 34.802-15.612 34.802-34.802v-8.221c0-7.384-2.323-14.229-6.262-19.866 1.99-3.445 2.988-7.425 2.809-11.463-.084-1.893-.428-3.749-1.002-5.523h83.56zm0-292.846h-91.322v-21.958c0-10.639-1.851-20.853-5.238-30.344h88.989c4.175 0 7.571 3.396 7.571 7.57z"/></g></g></svg>