<svg id="Capa_1" enable-background="new 0 0 512 512" height="512" viewBox="0 0 512 512" width="512" xmlns="http://www.w3.org/2000/svg"><g><path d="m190.774 120.92h26.117v42.201h-26.117z" fill="#0d5f7f"/><g><path d="m483.382 425.427h-454.764c-5.523 0-10-4.477-10-10v-33.913h474.764v33.913c0 5.523-4.477 10-10 10z" fill="#107295"/><path d="m493.38 381.516v33.91c0 5.52-4.48 10-10 10h-29.1c5.52 0 10-4.48 10-10v-33.91z" fill="#0d5f7f"/><g><path d="m215.429 168.33h75.062v217.33h-75.062z" fill="#1682ad"/><g><path d="m229.602 398.42h-212.102c-5.523 0-10-4.477-10-10v-222.849c0-5.523 4.477-10 10-10h212.102c5.523 0 10 4.477 10 10v222.849c0 5.523-4.478 10-10 10z" fill="#23f1a8"/><path d="m239.602 165.576v222.84c0 5.53-4.48 10-10 10h-28.68c5.52 0 10-4.47 10-10v-222.84c0-5.53-4.48-10-10-10h28.68c5.52 0 10 4.47 10 10z" fill="#26d192"/></g><g><path d="m494.5 398.42h-212.102c-5.523 0-10-4.477-10-10v-222.849c0-5.523 4.477-10 10-10h212.102c5.523 0 10 4.477 10 10v222.849c0 5.523-4.477 10-10 10z" fill="#23f1a8"/><path d="m504.5 165.576v222.84c0 5.53-4.48 10-10 10h-28.68c5.52 0 10-4.47 10-10v-222.84c0-5.53-4.48-10-10-10h28.68c5.52 0 10 4.47 10 10z" fill="#26d192"/></g></g><g><path d="m504.5 319.166v32.55h-72.34c-2.761 0-5-2.239-5-5v-22.55c0-2.761 2.239-5 5-5z" fill="#dcfbed"/><path d="m475.82 319.166h28.68v32.55h-28.68z" fill="#bad5e4"/></g><path d="m395.682 351.717h-38.445c-2.761 0-5-2.239-5-5v-22.555c0-2.761 2.239-5 5-5h38.445c2.761 0 5 2.239 5 5v22.555c0 2.762-2.238 5-5 5z" fill="#fb8627"/><g><path d="m390.62 271.158h-77.55c-5.523 0-10-4.477-10-10v-46.712c0-5.523 4.477-10 10-10h77.551c5.523 0 10 4.477 10 10v46.712c-.001 5.523-4.478 10-10.001 10z" fill="#b5dbfd"/><g fill="#d9ecfd"><path d="m338.834 271.158c20.349-20.269 40.615-40.622 60.773-61.081-1.621-3.332-5.032-5.631-8.987-5.631h-20.375l-63.99 63.99c1.786 1.677 4.171 2.721 6.815 2.721h25.764z"/><path d="m357.373 204.447h-20.143c-11.402 11.409-22.793 22.828-34.16 34.272v19.893c18.079-18.077 36.161-36.151 54.303-54.165z"/></g></g><path d="m234.125 126.659h-105.973c-2.761 0-5-2.239-5-5v-30.086c0-2.761 2.239-5 5-5h105.973c2.761 0 5 2.239 5 5v30.086c0 2.762-2.239 5-5 5z" fill="#23f1a8"/><path d="m239.12 91.576v30.08c0 2.76-2.23 5-5 5h-25.45c2.77 0 5-2.24 5-5v-30.08c0-2.76-2.23-5-5-5h25.45c2.77 0 5 2.24 5 5z" fill="#26d192"/><path d="m450.667 249.112h-50.047v-24.644h50.046c2.761 0 5 2.239 5 5v14.644c.001 2.761-2.238 5-4.999 5z" fill="#107295"/></g><g><path d="m512 165.571c0-9.649-7.851-17.5-17.5-17.5h-57.041v-16.455c0-17.92-14.579-32.5-32.5-32.5h-158.334v-7.543c0-6.893-5.607-12.5-12.5-12.5h-105.974c-6.893 0-12.5 5.607-12.5 12.5v1.69h-29.649c-17.921 0-32.5 14.58-32.5 32.5v22.308h-36.002c-9.649 0-17.5 7.851-17.5 17.5v222.849c0 7.396 4.619 13.72 11.118 16.278v10.729c0 9.649 7.851 17.5 17.5 17.5h84.544c4.143 0 7.5-3.358 7.5-7.5s-3.357-7.5-7.5-7.5h-84.544c-1.379 0-2.5-1.122-2.5-2.5v-9.507h203.483c8.005 0 14.756-5.409 16.83-12.759h19.137c2.074 7.35 8.825 12.759 16.83 12.759h203.483v9.507c0 1.378-1.121 2.5-2.5 2.5h-337.558c-4.143 0-7.5 3.358-7.5 7.5s3.357 7.5 7.5 7.5h337.559c9.649 0 17.5-7.851 17.5-17.5v-10.729c6.499-2.557 11.118-8.882 11.118-16.278zm-15 178.646h-62.344v-17.555h62.344zm-366.349-250.144h100.974v25.086h-49.592v-8.249c0-4.142-3.357-7.5-7.5-7.5s-7.5 3.358-7.5 7.5v8.249h-9.645v-8.249c0-4.142-3.357-7.5-7.5-7.5s-7.5 3.358-7.5 7.5v8.249h-11.737zm67.623 53.998v-13.912h11.117v13.912zm-15-13.912v13.912h-13.181v-13.912zm-28.18 0v13.912h-54.826v-22.308c0-8.932 6.731-16.309 15.384-17.359v13.255c0 6.893 5.607 12.5 12.5 12.5zm-86.592-8.396c0-9.649 7.851-17.5 17.5-17.5h4.401c-3.245 5.056-5.135 11.059-5.135 17.5v22.308h-16.766zm161.1 265.157h-212.102c-1.379 0-2.5-1.122-2.5-2.5v-222.849c0-1.378 1.121-2.5 2.5-2.5h212.102c1.379 0 2.5 1.122 2.5 2.5v29.202h-109.427c-4.143 0-7.5 3.358-7.5 7.5v20.593h-5.011c-4.143 0-7.5 3.358-7.5 7.5s3.357 7.5 7.5 7.5h5.011v81h-5.011c-4.143 0-7.5 3.358-7.5 7.5s3.357 7.5 7.5 7.5h5.011v17.851c0 4.142 3.357 7.5 7.5 7.5h109.427v29.203c0 1.378-1.122 2.5-2.5 2.5zm2.5-46.703h-101.927v-134.444h101.927zm47.796 44.202v-57.88c0-4.142-3.357-7.5-7.5-7.5s-7.5 3.358-7.5 7.5v47.622h-17.797v-202.33h17.797v122.047c0 4.142 3.357 7.5 7.5 7.5s7.5-3.358 7.5-7.5v-132.307c0-1.378 1.121-2.5 2.5-2.5h42.414c4.143 0 7.5-3.358 7.5-7.5s-3.357-7.5-7.5-7.5h-42.414c-8.005 0-14.756 5.409-16.83 12.759h-19.137c-2.074-7.35-8.825-12.759-16.83-12.759h-5.21v-13.912h9.733c6.893 0 12.5-5.607 12.5-12.5v-7.543h158.334c9.649 0 17.5 7.851 17.5 17.5v16.455h-64.985c-4.143 0-7.5 3.358-7.5 7.5s3.357 7.5 7.5 7.5h64.985v53.896h-14.338v-2.521c0-9.649-7.851-17.5-17.5-17.5h-77.551c-9.649 0-17.5 7.851-17.5 17.5v46.712c0 9.649 7.851 17.5 17.5 17.5h77.551c9.649 0 17.5-7.851 17.5-17.5v-4.547h42.547c6.893 0 12.5-5.607 12.5-12.5v-14.644c0-6.893-5.607-12.5-12.5-12.5h-13.208v-53.896h57.041c1.379 0 2.5 1.122 2.5 2.5v146.091h-64.844c-6.893 0-12.5 5.607-12.5 12.5v22.555c0 6.893 5.607 12.5 12.5 12.5h64.844v29.202c0 1.378-1.121 2.5-2.5 2.5h-212.102c-1.378 0-2.5-1.121-2.5-2.5zm142.561-146.807h-14.339v-9.644h14.339zm15-9.644h10.708v9.644h-10.708zm-44.339 29.191c0 1.378-1.121 2.5-2.5 2.5h-77.551c-1.379 0-2.5-1.122-2.5-2.5v-46.712c0-1.378 1.121-2.5 2.5-2.5h77.551c1.379 0 2.5 1.122 2.5 2.5z"/><path d="m395.683 311.663h-38.445c-6.893 0-12.5 5.607-12.5 12.5v22.555c0 6.893 5.607 12.5 12.5 12.5h38.445c6.893 0 12.5-5.607 12.5-12.5v-22.555c0-6.893-5.608-12.5-12.5-12.5zm-2.5 32.554h-33.445v-17.555h33.445z"/><path d="m327.653 311.663c-4.143 0-7.5 3.358-7.5 7.5v32.555c0 4.142 3.357 7.5 7.5 7.5s7.5-3.358 7.5-7.5v-32.555c0-4.142-3.357-7.5-7.5-7.5z"/><path d="m303.069 311.663c-4.143 0-7.5 3.358-7.5 7.5v32.555c0 4.142 3.357 7.5 7.5 7.5s7.5-3.358 7.5-7.5v-32.555c0-4.142-3.357-7.5-7.5-7.5z"/><path d="m35.941 173.961c-4.143 0-7.5 3.358-7.5 7.5v.104c0 4.142 3.357 7.5 7.5 7.5s7.5-3.358 7.5-7.5v-.104c0-4.142-3.357-7.5-7.5-7.5z"/><path d="m476.059 189.064c4.143 0 7.5-3.358 7.5-7.5v-.104c0-4.142-3.357-7.5-7.5-7.5s-7.5 3.358-7.5 7.5v.104c0 4.143 3.357 7.5 7.5 7.5z"/></g></g></svg>