<svg id="Capa_1" enable-background="new 0 0 511.999 511.999" height="512" viewBox="0 0 511.999 511.999" width="512" xmlns="http://www.w3.org/2000/svg"><g><g><path d="m495.135 329.756h-20.827c-7.299 0-13.271-5.972-13.271-13.271v-22.155c0-1.536.279-3.005.767-4.379-.313-.071-.623-.149-.939-.213l-74.408-15.179c-2.487-.507-4.878-1.359-7.12-2.506v10.89c0 7.09-5.801 12.891-12.891 12.891h-11.268c-7.09 0-12.891-5.801-12.891-12.891v-11.268c0-7.09 5.801-12.89 12.891-12.89h7.527l-47.762-41.131c-10.316-8.884-22.622-15.144-35.888-18.203-35.378-8.157-109.66-18.858-190.077 8.359-18.077 6.118-33.566 18.157-43.893 34.206l-25.454 39.556c-1.692 2.63-3.138 5.394-4.33 8.256l-4.049 32.39v12.587c0 4.681.624 9.341 1.855 13.857l3.319 15.174h478.756v-32.069c.002-.675-.016-1.345-.047-2.011z" fill="#43cb8e"/><g><path d="m46.253 333.32v-10.901c0-1.551.092-3.101.275-4.64l3.008-25.292c.635-5.335 2.285-10.511 5.045-15.037.017-.028.034-.055.051-.083l25.454-41.577c10.327-16.869 25.816-29.523 43.893-35.954 4.269-1.519 8.519-2.918 12.749-4.219-15.485 2.737-31.491 6.688-47.749 12.191-18.077 6.118-33.566 18.157-43.893 34.206l-25.454 39.556c-1.692 2.63-3.138 5.394-4.33 8.256l-4.049 32.39v12.587c0 4.681.624 9.341 1.855 13.857l3.319 15.174h35l-3.319-15.949c-1.231-4.747-1.855-9.645-1.855-14.565z" fill="#00ba66"/></g><path d="m495.559 360.834c-104.851 0-443.21 0-479.131 0-4.934 0-8.934 4-8.934 8.934v8.111c0 4.934 4 8.934 8.934 8.934h479.131c4.934 0 8.934-4 8.934-8.934v-8.111c0-4.934-4-8.934-8.934-8.934z" fill="#dfebfa"/><path d="m157.827 377.879v-8.111c0-4.934 4-8.934 8.934-8.934-75.181 0-136.193 0-150.333 0-4.934 0-8.934 4-8.934 8.934v8.111c0 4.934 4 8.934 8.934 8.934h150.333c-4.934.001-8.934-3.999-8.934-8.934z" fill="#b1dbfc"/><path d="m461.253 289.827c-.773 1.681-1.217 3.541-1.217 5.503v22.154c0 7.299 5.972 13.271 13.271 13.271h21.853c-.461-19.818-14.468-36.776-33.907-40.928z" fill="#ffd301"/><path d="m26.292 289.827h-10.99c-2.66 6.388-4.049 13.267-4.049 20.248v12.143h15.039c7.09 0 12.89-5.801 12.89-12.89v-6.609c.001-7.092-5.8-12.892-12.89-12.892z" fill="#ffd301"/><path d="m342.288 282.943v-6.3l-44.869-38.639c-7.012-6.039-15.447-10.321-24.396-12.384-33.964-7.83-101.918-17.252-175.435 7.627-12.319 4.169-22.954 12.458-29.941 23.336-1.116 1.737-.761 4.038.796 5.394l30.787 26.819c.763.665 1.742 1.031 2.754 1.031h242.325c-1.272-1.997-2.021-4.355-2.021-6.884z" fill="#23a8fe"/><path d="m93.719 256.14c-1.556-1.64-1.911-4.424-.796-6.524 4.222-7.951 9.783-14.747 16.237-20.003-3.841 1.126-7.696 2.322-11.572 3.634-12.319 4.169-22.954 12.458-29.941 23.336-1.115 1.737-.761 4.038.796 5.394l30.787 26.819c.763.665 1.741 1.031 2.754 1.031h25.276c-1.012 0-1.991-.443-2.754-1.248z" fill="#0193fa"/><path d="m366.447 257.784h-11.268c-7.659 0-13.891 6.231-13.891 13.891v11.268c0 7.659 6.231 13.891 13.891 13.891h11.268c7.659 0 13.891-6.231 13.891-13.891v-11.268c-.001-7.659-6.232-13.891-13.891-13.891z" fill="#dfebfa"/><path d="m360.813 282.943v-11.268c0-6.222 4.113-11.502 9.762-13.264-1.305-.407-2.691-.626-4.128-.626h-11.268c-7.659 0-13.891 6.231-13.891 13.891v11.268c0 7.659 6.231 13.891 13.891 13.891h11.268c1.437 0 2.823-.219 4.128-.626-5.65-1.764-9.762-7.044-9.762-13.266z" fill="#b1dbfc"/><path d="m129.135 224.496 11.08 65.331h90.714v-71.028c-28.255-2.771-63.634-2.697-101.794 5.697z" fill="#60b8fe"/><circle cx="85.289" cy="373.515" fill="#665e68" r="51.298"/><path d="m61.64 373.515c0-23.539 15.861-43.361 37.474-49.398-4.4-1.229-9.032-1.9-13.824-1.9-28.331 0-51.298 22.967-51.298 51.298s22.967 51.298 51.298 51.298c4.792 0 9.425-.671 13.824-1.9-21.614-6.037-37.474-25.859-37.474-49.398z" fill="#554e56"/><circle cx="85.289" cy="373.515" fill="#dfebfa" r="25.649"/><path d="m87.289 373.515c0-9.073 4.715-17.04 11.824-21.599-3.99-2.559-8.732-4.05-13.824-4.05-14.166 0-25.649 11.483-25.649 25.649s11.483 25.649 25.649 25.649c5.092 0 9.834-1.49 13.824-4.05-7.109-4.56-11.824-12.526-11.824-21.599z" fill="#b1dbfc"/><circle cx="405.791" cy="373.515" fill="#665e68" r="51.298"/><path d="m382.142 373.515c0-23.539 15.861-43.361 37.474-49.398-4.4-1.229-9.032-1.9-13.824-1.9-28.331 0-51.298 22.967-51.298 51.298s22.967 51.298 51.298 51.298c4.792 0 9.425-.671 13.824-1.9-21.614-6.037-37.474-25.859-37.474-49.398z" fill="#554e56"/><circle cx="405.791" cy="373.515" fill="#dfebfa" r="25.649"/><path d="m407.791 373.515c0-9.073 4.715-17.04 11.824-21.599-3.99-2.559-8.732-4.05-13.824-4.05-14.166 0-25.649 11.483-25.649 25.649s11.483 25.649 25.649 25.649c5.092 0 9.834-1.49 13.824-4.05-7.109-4.56-11.824-12.526-11.824-21.599z" fill="#b1dbfc"/><circle cx="98.197" cy="173.259" fill="#ffd301" r="85.525"/><path d="m36.464 173.259c0-43.195 32.029-78.891 73.629-84.683-3.89-.542-7.857-.842-11.896-.842-47.234 0-85.525 38.291-85.525 85.525s38.291 85.525 85.525 85.525c4.039 0 8.006-.3 11.896-.842-41.6-5.792-73.629-41.488-73.629-84.683z" fill="#ffc20c"/><path d="m124.147 159.292h-51.899c-4.894 0-8.897 4.004-8.897 8.898v21.272c0 15.239 12.469 27.708 27.708 27.708h14.278c15.239 0 27.708-12.469 27.708-27.708v-21.272c-.001-4.894-4.005-8.898-8.898-8.898z" fill="#665e68"/><path d="m87.142 189.462v-21.272c0-4.894 4.004-8.898 8.897-8.898h-23.791c-4.894 0-8.897 4.004-8.897 8.898v21.272c0 15.239 12.469 27.708 27.708 27.708h14.278c1.622 0 3.21-.149 4.757-.42-12.993-2.274-22.952-13.671-22.952-27.288z" fill="#554e56"/></g><g fill="#050402"><path d="m404.992 340.092c-18.278 0-33.148 14.871-33.148 33.149s14.87 33.149 33.148 33.149 33.149-14.871 33.149-33.149c.001-18.279-14.87-33.149-33.149-33.149zm0 51.298c-10.007 0-18.148-8.142-18.148-18.149 0-10.008 8.142-18.149 18.148-18.149 10.008 0 18.149 8.142 18.149 18.149.001 10.008-8.141 18.149-18.149 18.149z"/><path d="m85.295 340.092c-18.278 0-33.148 14.871-33.148 33.149s14.87 33.149 33.148 33.149 33.149-14.871 33.149-33.149c0-18.279-14.871-33.149-33.149-33.149zm0 51.298c-10.007 0-18.148-8.142-18.148-18.149 0-10.008 8.142-18.149 18.148-18.149 10.008 0 18.149 8.142 18.149 18.149 0 10.008-8.141 18.149-18.149 18.149z"/><path d="m16.435 394.04h13.874c8.42 22.184 29.886 38 54.986 38 25.101 0 46.567-15.815 54.987-38h73.154c4.143 0 7.5-3.358 7.5-7.5s-3.357-7.5-7.5-7.5h-69.629c.362-3.658.38-7.339.06-10.979h202.556c-.301 3.414-.325 7.098.06 10.979h-98.046c-4.143 0-7.5 3.358-7.5 7.5s3.357 7.5 7.5 7.5h101.57c8.42 22.184 29.886 38 54.986 38 25.101 0 46.567-15.815 54.987-38h35.586c9.062 0 16.434-7.372 16.434-16.434v-8.111c0-6.507-3.811-12.126-9.31-14.787v-23.216c0-23.99-16.774-44.574-40.319-49.375l-74.406-15.179c-.586-.12-1.167-.277-1.744-.45-2.208-8.873-10.221-15.477-19.767-15.477h-.957l-27.742-23.891c-3.142-2.704-7.877-2.349-10.577.789-2.703 3.139-2.351 7.874.788 10.577l17.445 15.023c-3.608 1.979-6.525 5.064-8.313 8.487l-34.777-29.949c-7.931-6.831-17.477-11.675-27.606-14.009-21.036-4.85-53.083-9.928-91.035-8.357 1.721-4.002 3.195-8.252 4.22-11.969 37.787-1.041 69.312 4.124 89.479 8.773 8.612 1.986 16.772 5.445 24.254 10.283 3.477 2.249 8.121 1.252 10.37-2.225 2.249-3.479 1.253-8.122-2.226-10.371-8.948-5.787-18.715-9.926-29.028-12.304-20.449-4.715-52.103-9.933-90.019-9.221.329-3.177.5-6.399.5-9.661 0-51.294-41.731-93.025-93.025-93.025s-93.027 41.73-93.027 93.024c0 27.384 11.896 52.039 30.789 69.077l-22.635 35.176c-6.314 9.812-9.572 21.172-9.572 32.562v12.143 12.587c0 5.346.713 10.672 2.119 15.83l1.484 5.443c-4.433 2.946-7.363 7.981-7.363 13.691v8.111c0 9.062 7.372 16.435 16.435 16.435zm10.349-15h-10.35c-.791 0-1.435-.644-1.435-1.434v-8.111c0-.79.642-1.433 1.432-1.434h10.293c-.307 3.492-.316 7.219.06 10.979zm58.511 37.999c-24.348 0-43.798-19.87-43.798-43.798 0-24.062 19.617-43.798 43.798-43.798 24.147 0 43.799 19.7 43.799 43.796v.002c0 23.957-19.487 43.798-43.799 43.798zm319.697 0c-24.34 0-43.798-19.854-43.798-43.798 0-.001 0-.002 0-.002 0-24.123 19.657-43.796 43.798-43.796 24.112 0 43.799 19.638 43.799 43.798 0 23.958-19.487 43.798-43.799 43.798zm92.007-39.434c0 .791-.644 1.434-1.434 1.434h-32.062c.374-3.743.368-7.471.06-10.979h31.626.01.366c.79 0 1.434.644 1.434 1.435zm-29.456-78.037c9.498 4.558 16.539 13.192 19.093 23.414h-13.321c-3.183 0-5.771-2.589-5.771-5.771v-17.643zm-15-4.148v21.791c0 11.453 9.318 20.771 20.771 20.771h14.375v15.078h-27.454c-8.491-23.329-30.705-38.617-55.243-38.617-24.583 0-46.765 15.327-55.242 38.617h-209.212c-8.491-23.329-30.705-38.617-55.243-38.617-24.485 0-46.731 15.234-55.242 38.617h-7.89l-1.813-6.646c-1.056-3.872-1.591-7.87-1.591-11.883v-5.087h7.539c11.243 0 20.391-9.147 20.391-20.39v-6.609c0-10.665-8.233-19.428-18.675-20.304l19.888-30.906c3.754 2.427 7.648 4.564 11.661 6.406-.265 3.583 1.107 7.235 3.959 9.719l30.787 26.819c2.13 1.854 4.856 2.875 7.68 2.875h238.758c3.78 3.793 8.91 6.007 14.437 6.007h11.269c11.293 0 20.391-9.195 20.391-20.39v-.651zm-431.949 1.633h5.705c2.973 0 5.391 2.418 5.391 5.391v6.609c0 2.972-2.418 5.39-5.391 5.39h-7.539c.134-2.672-.645-8.996 1.834-17.39zm51.66-130.535h51.898c.758 0 1.397.64 1.397 1.398v21.272c0 11.143-9.065 20.208-20.208 20.208-4.951 0-8.963 0-14.277 0-11.143 0-20.208-9.065-20.208-20.208v-21.272c0-.758.64-1.398 1.398-1.398zm151.181 115.535h-76.878l-4.565-26.914c13.132-7 24.553-17.182 33.209-29.96 15.892-1.111 32.071-1.038 48.234.215zm-95.625-20.831 3.533 20.83h-28.115l-19.752-17.206c14.526 2.296 29.817 1.217 44.334-3.624zm244.034 10.179v11.268c0 2.972-2.418 5.391-5.391 5.391h-11.269c-3.054 0-5.391-2.532-5.391-5.391 0-4.162 0-7.114 0-11.268 0-2.972 2.418-5.391 5.391-5.391h11.269c2.973 0 5.391 2.419 5.391 5.391zm-79.313-27.988 42.263 36.395v2.245h-96.359v-55.167c12.787 1.574 23.906 3.693 32.91 5.768 7.767 1.79 15.093 5.51 21.186 10.759zm-272.353-70.428c0-43.023 35.002-78.025 78.025-78.025s78.025 35.002 78.025 78.025c0 40.557-31.083 73.819-70.525 77.65v-26.249c19.248-.195 34.847-15.906 34.847-35.199v-21.272c0-8.622-6.692-15.695-15.153-16.335v-19.418c0-4.142-3.357-7.5-7.5-7.5s-7.5 3.358-7.5 7.5v19.355h-24.387v-19.355c0-4.142-3.357-7.5-7.5-7.5s-7.5 3.358-7.5 7.5v19.418c-8.461.64-15.153 7.713-15.153 16.335v21.272c0 19.292 15.599 35.003 34.847 35.199v26.253c-39.604-3.794-70.526-37.238-70.526-77.654z"/><path d="m262.624 310.45h-9.399c-4.143 0-7.5 3.358-7.5 7.5s3.357 7.5 7.5 7.5h9.399c4.143 0 7.5-3.358 7.5-7.5s-3.357-7.5-7.5-7.5z"/><path d="m96.727 192.12h2.954c4.143 0 7.5-3.358 7.5-7.5s-3.357-7.5-7.5-7.5h-2.954c-4.143 0-7.5 3.358-7.5 7.5s3.357 7.5 7.5 7.5z"/><path d="m168.631 310.45h-9.399c-4.143 0-7.5 3.358-7.5 7.5s3.357 7.5 7.5 7.5h9.399c4.143 0 7.5-3.358 7.5-7.5s-3.358-7.5-7.5-7.5z"/></g></g></svg>