<?xml version="1.0" encoding="iso-8859-1"?>
<!-- Generator: Adobe Illustrator 19.0.0, SVG Export Plug-In . SVG Version: 6.00 Build 0)  -->
<svg xmlns="http://www.w3.org/2000/svg" xmlns:xlink="http://www.w3.org/1999/xlink" version="1.1" id="Layer_1" x="0px" y="0px" viewBox="0 0 512 512" style="enable-background:new 0 0 512 512;" xml:space="preserve" width="512" height="512">
<g>
	<g>
		<path style="fill-rule:evenodd;clip-rule:evenodd;fill:#BDE5F8;" d="M422.012,242.261l-80.488-139.653    c-20.372-33.417,0,0-42.775-71.702c-20.773-29.637-60.174-34.419-86.727,4.926l-40.687,66.776L89.988,242.261    C76.254,267.115,68.5,295.436,68.5,325.502C68.5,424.379,152.449,504.5,256,504.5s187.5-80.121,187.5-178.998    C443.5,295.436,435.717,267.115,422.012,242.261L422.012,242.261z"/>
	</g>
	<g>
		<path style="fill-rule:evenodd;clip-rule:evenodd;fill:#A5CDEF;" d="M256,504.5c103.551,0,187.5-80.121,187.5-178.998    c0-30.066-7.783-58.387-21.488-83.241l-80.488-139.653c-20.372-33.417,0,0-42.775-71.702    c-14.392-20.502-37.684-29.121-59.486-19.414C240.119,12.551,275.5,21.5,303.5,87l75.956,138    c13.705,24.884,24.21,67.958,24.21,97.997C403.666,402.888,341,462,256,480.018c-18.375,3.895-37.139,8.418-56.997,8.418    c-8.154,0-16.194-0.515-24.063-1.46C199.461,498.199,226.958,504.5,256,504.5L256,504.5z"/>
	</g>
	<g>
		<path style="fill-rule:evenodd;clip-rule:evenodd;fill:#62B553;" d="M199.805,130.671c-5.352,9.162,5.723,25.655,20.83,34.532    c15.107,8.877,27.41,9.852,35.365,5.814v-11.511v-13.974c-2.117-2.75-4.178-6.615-15.908-13.517    C228.331,125.145,205.184,121.507,199.805,130.671L199.805,130.671z"/>
	</g>
	<g>
		<path style="fill-rule:evenodd;clip-rule:evenodd;fill:#62B553;" d="M271.908,132.016c-11.76,6.901-13.82,10.767-15.908,13.517    v13.974v11.511c7.954,4.038,20.258,3.063,35.365-5.814c15.108-8.877,26.182-25.37,20.801-34.532    C306.788,121.507,283.64,125.145,271.908,132.016L271.908,132.016z"/>
	</g>
	<g>
		<path style="fill-rule:evenodd;clip-rule:evenodd;fill:#3F9666;" d="M279.549,159.19c-8.928,5.24-16.91,7.732-23.549,8.047v3.779    c7.954,4.038,20.258,3.063,35.365-5.814c15.108-8.877,26.182-25.37,20.801-34.532c-1.945-3.322-6.236-4.954-11.473-5.355    C305.214,134.565,294.313,150.515,279.549,159.19L279.549,159.19z"/>
	</g>
	<g>
		<path style="fill-rule:evenodd;clip-rule:evenodd;fill:#3F9666;" d="M232.423,159.19c8.956,5.24,16.91,7.732,23.577,8.047v3.779    c-7.955,4.038-20.258,3.063-35.365-5.814c-15.107-8.877-26.182-25.37-20.83-34.532c1.975-3.322,6.236-4.954,11.473-5.355    C206.758,134.565,217.658,150.515,232.423,159.19L232.423,159.19z"/>
	</g>
	<g>
		<path style="fill:#2B801C;" d="M256,212.936c-4.143,0-7.5-3.357-7.5-7.5v-73.592c0-4.143,3.357-7.5,7.5-7.5    c4.143,0,7.5,3.357,7.5,7.5v73.592C263.5,209.579,260.143,212.936,256,212.936z"/>
	</g>
	<g>
		<path style="fill-rule:evenodd;clip-rule:evenodd;fill:#62B553;" d="M256,205.436c-64.895,0-117.484,52.631-117.484,117.546    c0,11.368,1.631,22.364,4.635,32.73c14.164,49.023,59.314,84.845,112.85,84.845c53.362,0,98.428-35.622,112.734-84.416    c3.061-10.509,4.722-21.647,4.722-33.159C373.456,258.067,320.865,205.436,256,205.436L256,205.436z"/>
	</g>
	<g>
		<path style="fill-rule:evenodd;clip-rule:evenodd;fill:#3F9666;" d="M211.564,421.802c-7.668-0.401-15.165-0.715-22.404-2.118    c18.971,13.143,42.004,20.874,66.84,20.874c53.362,0,98.428-35.622,112.734-84.416c3.061-10.509,4.722-21.647,4.722-33.159    c0-57.24-40.917-104.947-95.052-115.398C405.873,265.341,357.461,429.763,211.564,421.802L211.564,421.802z"/>
	</g>
	<g>
		<path d="M131.016,322.982c0,68.967,56.068,125.075,124.984,125.075c6.648,0,13.352-0.532,19.925-1.582    c4.091-0.653,6.876-4.499,6.224-8.589c-0.654-4.091-4.504-6.872-8.59-6.224c-5.793,0.926-11.699,1.395-17.559,1.395    c-60.646,0-109.984-49.38-109.984-110.075c0-60.68,49.339-110.046,109.984-110.046c60.63,0,109.956,49.366,109.956,110.046    c0,40.91-22.46,78.211-58.614,97.346c-3.66,1.938-5.058,6.477-3.12,10.137c1.939,3.662,6.478,5.059,10.138,3.121    c41.078-21.74,66.597-64.121,66.597-110.604c0-66.43-52.034-120.919-117.456-124.814v-17.483c0.93,0.075,1.869,0.125,2.829,0.125    c8.673,0,18.522-3.08,28.836-9.14c17.871-10.501,31.565-31.007,23.47-44.795c-8.867-15.107-37.6-8.896-50.523-1.328    c-1.975,1.159-3.706,2.248-5.248,3.281c-1.161-2.639-3.795-4.483-6.863-4.483c-3.073,0-5.711,1.851-6.87,4.496    c-1.544-1.039-3.271-2.134-5.255-3.301c-12.93-7.556-41.682-13.754-50.547,1.349c-8.055,13.792,5.652,34.289,23.507,44.781    c10.313,6.061,20.161,9.14,28.835,9.14c0.96,0,1.9-0.05,2.83-0.125v17.483C183.062,202.063,131.016,256.552,131.016,322.982z     M275.699,138.487c11.227-6.576,28.281-6.947,30-4.019c2.034,3.465-4.225,16.096-18.133,24.268    c-9.168,5.387-17.785,7.786-24.066,6.849v-17.569C265.129,145.922,267.883,143.074,275.699,138.487z M224.434,158.736    c-13.907-8.172-20.18-20.813-18.162-24.268c1.716-2.921,18.789-2.547,30.017,4.012c7.812,4.596,10.567,7.453,12.212,9.555v17.551    C242.219,166.523,233.602,164.124,224.434,158.736z"/>
		<path d="M298.646,311.69c-3.311,2.489-3.977,7.191-1.487,10.502l11.302,15.033c1.416,1.883,3.634,2.991,5.99,2.993    c0.002,0,0.003,0,0.004,0c2.355,0,4.572-1.105,5.99-2.985l11.33-15.033c2.494-3.309,1.834-8.011-1.475-10.504    c-2.581-1.946-6.005-1.963-8.571-0.311c-5.505-31.324-32.874-55.206-65.729-55.206c-21.721,0-42.154,10.622-54.662,28.413    c-2.383,3.389-1.567,8.066,1.821,10.449c3.389,2.381,8.066,1.565,10.448-1.822c9.703-13.801,25.551-22.04,42.393-22.04    c24.377,0,44.859,16.96,50.318,39.706C303.89,309.759,300.935,309.969,298.646,311.69z"/>
		<path d="M191.432,309.261l-11.303,15.062c-2.486,3.313-1.816,8.015,1.496,10.501c1.35,1.013,2.93,1.501,4.496,1.501    c1.473,0,2.932-0.438,4.18-1.274c5.795,31.758,33.351,54.765,65.699,54.765c22.237,0,42.949-11.043,55.406-29.54    c2.314-3.436,1.404-8.097-2.031-10.41c-3.436-2.313-8.096-1.404-10.41,2.031c-9.664,14.352-25.727,22.919-42.965,22.919    c-23.934,0-44.477-16.239-50.213-39.099c2.383,1.016,5.225,0.774,7.445-0.893c3.313-2.486,3.984-7.188,1.498-10.5l-11.302-15.062    c-1.417-1.888-3.639-2.999-5.999-2.999C195.07,306.263,192.848,307.373,191.432,309.261z"/>
		<path d="M428.58,238.64c-0.023-0.042-0.047-0.083-0.07-0.124L348.021,98.862c-0.03-0.054-0.061-0.106-0.094-0.159    c-10.15-16.65-10.15-16.65-12.918-21.378c-2.732-4.669-8.416-14.384-29.82-50.263c-0.095-0.157-0.194-0.312-0.3-0.462    C293.025,9.675,275.814,0,257.607,0c-0.151,0-0.304,0.001-0.455,0.002c-19.461,0.173-37.696,11.406-51.348,31.634    c-0.064,0.096-0.127,0.193-0.188,0.293L164.93,98.705c-0.025,0.042-0.051,0.084-0.076,0.127l-16.566,28.435    c-2.085,3.579-0.874,8.171,2.705,10.256c3.578,2.082,8.17,0.874,10.256-2.705l16.527-28.367l40.559-66.565    c10.792-15.922,24.619-24.757,38.951-24.883c13.256-0.151,26.092,7.164,35.168,19.989c21.252,35.626,26.896,45.269,29.611,49.91    c2.83,4.836,2.835,4.845,13.008,21.531l80.406,139.512C428.903,270.316,436,297.826,436,325.502C436,420.066,355.252,497,256,497    S76,420.066,76,325.502c0-27.725,7.092-55.226,20.512-79.54l40.617-69.768c2.084-3.58,0.871-8.171-2.709-10.255    c-3.58-2.085-8.172-0.871-10.254,2.708l-40.659,69.841c-0.028,0.049-0.056,0.097-0.083,0.146C68.754,265.181,61,295.22,61,325.502    C61,428.337,148.477,512,256,512s195-83.663,195-186.498C451,295.276,443.247,265.239,428.58,238.64z"/>
	</g>
</g>















</svg>
