<?xml version="1.0" encoding="iso-8859-1"?>
<!-- Generator: Adobe Illustrator 19.0.0, SVG Export Plug-In . SVG Version: 6.00 Build 0)  -->
<svg xmlns="http://www.w3.org/2000/svg" xmlns:xlink="http://www.w3.org/1999/xlink" version="1.1" id="Layer_1" x="0px" y="0px" viewBox="0 0 511.969 511.969" style="enable-background:new 0 0 511.969 511.969;" xml:space="preserve" width="512" height="512">
<g>
	<g>
		<rect x="21.26" y="186.818" style="fill:#FFE1AA;" width="69.559" height="242.451"/>
		<rect x="21.26" y="186.818" style="fill:#EDC472;" width="20" height="242.451"/>
		<rect x="21.26" y="186.818" style="fill:#93E2C6;" width="69.559" height="119.758"/>
		<rect x="21.26" y="186.818" style="fill:#24D3B5;" width="34.78" height="119.758"/>
		<rect x="21.26" y="186.818" style="fill:#20B7A1;" width="20" height="119.758"/>
		<path style="fill:#FFC850;" d="M90.819,160.892c-41.089,0-68.478,0-69.559,0c-6.919,0-12.581,5.661-12.581,12.581v2.765    c0,6.919,5.661,12.581,12.581,12.581c1.032,0,28.437,0,69.559,0V160.892z"/>
		<rect x="421.509" y="186.818" style="fill:#FFE1AA;" width="69.559" height="242.451"/>
		<rect x="421.509" y="186.818" style="fill:#EDC472;" width="21" height="242.451"/>
		<rect x="421.509" y="186.818" style="fill:#93E2C6;" width="69.559" height="119.758"/>
		<rect x="421.509" y="186.818" style="fill:#24D3B5;" width="34.78" height="119.758"/>
		<rect x="421.509" y="186.818" style="fill:#20B7A1;" width="21" height="119.758"/>
		<path style="fill:#FFC850;" d="M491.068,160.892c-2.828,0-29.808,0-69.559,0v27.926c40.818,0,68.129,0,69.559,0    c6.919,0,12.581-5.661,12.581-12.581v-2.765C503.648,166.553,497.987,160.892,491.068,160.892z"/>
		<path style="fill:#F9B428;" d="M11.189,165.98c-1.567,2.098-2.509,4.688-2.509,7.492v2.765c0,6.919,5.661,12.581,12.581,12.581    c1.032,0,28.437,0,69.559,0v-17.75c-41.122,0-68.527,0-69.559,0C17.146,171.068,13.488,169.058,11.189,165.98z"/>
		<path style="fill:#F9B428;" d="M491.068,171.068c-1.43,0-28.741,0-69.559,0v17.75c40.818,0,68.129,0,69.559,0    c6.919,0,12.581-5.661,12.581-12.581v-2.765c0-2.805-0.942-5.394-2.509-7.492C498.84,169.058,495.182,171.068,491.068,171.068z"/>
		<path style="fill:#FC932B;" d="M414.73,54.441H97.333c-4.15,0-7.514,3.364-7.514,7.514c0,11.031,0,359.847,0,367.315h332.689    c0-6.884,0-361.407,0-367.05C422.509,57.923,419.026,54.441,414.73,54.441z"/>
		<path style="fill:#E87B18;" d="M117.551,54.441H97.333c-4.15,0-7.514,3.364-7.514,7.514c0,11.031,0,359.847,0,367.315h20.218    c0-7.467,0-356.283,0-367.315C110.038,57.805,113.402,54.441,117.551,54.441z"/>
		<path style="fill:#E4EAF8;" d="M125.395,219.818c0,93.42,0,205.985,0,209.451l261.539,0c0-3.178,0-115.965,0-209.451H125.395z"/>
		<path style="fill:#FFC850;" d="M380.819,89.943H131.302c-3.262,0-5.907,2.645-5.907,5.907c0,3.302,0,42.889,0,90.968h261.539    c0-48.967,0-89.053,0-90.76C386.933,92.681,384.196,89.943,380.819,89.943z"/>
		<path style="fill:#F9B428;" d="M151.302,89.943h-20c-3.262,0-5.907,2.645-5.907,5.907c0,3.302,0,42.889,0,90.969h20    c0-48.079,0-87.666,0-90.969C145.395,92.587,148.039,89.943,151.302,89.943z"/>
		<rect x="125.395" y="186.818" style="fill:#FCD592;" width="261.539" height="35"/>
		<path style="fill:#D8DCE5;" d="M125.395,219.818c0,93.42,0,205.985,0,209.451l20,0c0-3.178,0-115.965,0-209.451H125.395z"/>
		<rect x="125.395" y="186.818" style="fill:#FFC850;" width="20" height="35"/>
		<path style="fill:#93E2C6;" d="M317.959,306.577H194.266c-1.617,0-2.928,1.311-2.928,2.928c0,4.299,0,116.854,0,119.764h129.653    c0-2.683,0-117.462,0-119.661C320.991,307.934,319.633,306.577,317.959,306.577z"/>
		<path style="fill:#24D3B5;" d="M256.164,306.577h-61.898c-1.617,0-2.928,1.311-2.928,2.928c0,4.299,0,116.854,0,119.764h64.826    V306.577z"/>
		<path style="fill:#20B7A1;" d="M214.266,306.577h-20c-1.617,0-2.928,1.311-2.928,2.928c0,4.299,0,116.854,0,119.764h20    c0-2.91,0-115.465,0-119.764C211.338,307.888,212.648,306.577,214.266,306.577z"/>
		<path style="fill:#E4EAF8;" d="M492.068,428.318c-12.115,0-467.332,0-471.807,0c-6.919,0-12.581,5.854-12.581,13.009v2.859    c0,7.155,5.661,13.009,12.581,13.009c4.299,0,465.808,0,471.807,0c6.919,0,12.581-5.854,12.581-13.009v-2.859    C504.648,434.172,498.987,428.318,492.068,428.318z"/>
		<path style="fill:#D8DCE5;" d="M492.068,439.945c-5.999,0-467.508,0-471.807,0c-4.351,0-8.201-2.317-10.463-5.814    c-1.335,2.064-2.118,4.539-2.118,7.195v2.859c0,7.155,5.661,13.009,12.581,13.009c4.299,0,465.808,0,471.807,0    c6.919,0,12.581-5.854,12.581-13.009v-2.859c0-2.656-0.783-5.131-2.118-7.195C500.269,437.629,496.418,439.945,492.068,439.945z"/>
	</g>
	<g>
		<path d="M491.888,151.558h-62.059V62.386c0-8.425-6.854-15.279-15.278-15.279H273.484c-4.143,0-7.5,3.358-7.5,7.5    s3.357,7.5,7.5,7.5h141.066c0.153,0,0.278,0.125,0.278,0.279c0,11.016,0,350.34,0,359.549h-20.575c0-12.184,0-312.212,0-325.71    c0-7.507-6.107-13.615-13.615-13.615H131.122c-7.393,0-13.407,6.015-13.407,13.407c0,15.808,0,310.268,0,325.918H97.14    l0.014-359.828h141.331c4.143,0,7.5-3.358,7.5-7.5s-3.357-7.5-7.5-7.5H97.153c-8.278,0-15.014,6.735-15.014,15.014v89.437H20.08    C9.008,151.558,0,160.566,0,171.639v2.765c0,8.42,5.215,15.634,12.58,18.613v113.726v116.659C5.215,426.381,0,433.596,0,442.016    v2.765c0,11.072,9.008,20.081,20.08,20.081h471.808c11.073,0,20.081-9.008,20.081-20.081v-2.765    c0-8.421-5.215-15.635-12.581-18.614v-41.392c0-4.142-3.357-7.5-7.5-7.5s-7.5,3.358-7.5,7.5v39.924h-54.559V314.243    c9.378,0,42.225,0,54.559,0v32.768c0,4.142,3.357,7.5,7.5,7.5s7.5-3.358,7.5-7.5v-40.268V193.018    c7.365-2.979,12.581-10.193,12.581-18.613v-2.765C511.969,160.566,502.96,151.558,491.888,151.558z M132.715,97.609h246.539    v81.875H132.715V97.609z M132.715,194.485h246.539v20H132.715V194.485z M132.715,229.484h246.539v192.451h-50.943V309.774    c0-5.807-4.725-10.531-10.531-10.531h-61.795h-61.898c-1.078,0-2.119,0.165-3.098,0.47c-4.242,1.322-7.331,5.286-7.331,9.958v0    v112.264h-50.942V229.484z M313.311,314.243v107.692h-49.826V314.243H313.311z M248.484,314.243v107.692h-49.827V314.243H248.484z     M15,171.639c0-2.754,2.326-5.081,5.08-5.081h62.06v12.927c-6.738,0-55.136,0-62.06,0c-2.754,0-5.08-2.327-5.08-5.081V171.639z     M82.14,314.243v107.692H27.58V314.243C36.958,314.243,69.806,314.243,82.14,314.243z M27.58,299.243V194.485h19.78v104.758H27.58    z M62.36,299.243V194.485H82.14v104.758H62.36z M491.888,436.936c0.001,0,0.002,0,0.002,0c2.753,0.002,5.079,2.327,5.079,5.081    v2.765c0,2.754-2.327,5.081-5.081,5.081H20.08c-2.754,0-5.08-2.327-5.08-5.081v-2.765c0-2.754,2.326-5.081,5.08-5.081    C25.92,436.935,478.373,436.936,491.888,436.936z M449.608,299.243h-19.779V194.485h19.779V299.243z M484.388,299.243h-19.779    V194.485h19.779V299.243z M496.969,174.404c0,2.754-2.327,5.081-5.081,5.081c-6.924,0-55.32,0-62.059,0v-12.927h62.059    c2.754,0,5.081,2.327,5.081,5.081V174.404z"/>
		<path d="M191.157,287.984h129.653c4.143,0,7.5-3.358,7.5-7.5s-3.357-7.5-7.5-7.5H191.157c-4.143,0-7.5,3.358-7.5,7.5    S187.015,287.984,191.157,287.984z"/>
		<path d="M211.774,111.092c-4.4,0-6.287,0.472-9.51,6.13l-8.096,14.148l-8.096-14.148c-3.223-5.659-5.109-6.13-9.51-6.13    c-3.066,0-6.131,1.65-6.131,6.13v47.552c0,2.515,3.064,3.772,6.131,3.772c3.064,0,6.13-1.258,6.13-3.772v-30.26l7.467,13.676    c0.943,1.808,2.437,2.279,3.852,2.279c1.493,0,3.065-0.55,4.087-2.279l7.545-12.89v29.475c0,2.515,3.066,3.772,6.131,3.772    c3.066,0,6.131-1.258,6.131-3.772v-47.552C217.905,112.743,214.919,111.092,211.774,111.092z"/>
		<path d="M253.274,114.708c-0.865-2.751-4.402-4.087-8.018-4.087s-7.152,1.336-8.018,4.087l-14.619,47.945    c-0.078,0.314-0.156,0.629-0.156,0.865c0,2.908,4.479,5.03,7.859,5.03c1.965,0,3.537-0.629,4.008-2.279l2.673-9.825h16.585    l2.672,9.825c1.33,4.665,12.992,1.539,11.711-3.616L253.274,114.708z M239.519,147.012l5.738-21.064l5.738,21.064H239.519z"/>
		<path d="M302.868,157.858h-17.92v-43.072c0-2.594-3.065-3.694-6.131-3.694s-6.131,1.1-6.131,3.694v49.989    c0,2.515,2.672,3.772,5.345,3.772h24.837c2.357,0,3.537-2.672,3.537-5.345S305.226,157.858,302.868,157.858z"/>
		<path d="M341.538,157.858h-17.921v-43.072c0-2.594-3.065-3.694-6.13-3.694c-3.066,0-6.131,1.1-6.131,3.694v49.989    c0,2.515,2.672,3.772,5.344,3.772h24.838c2.357,0,3.537-2.672,3.537-5.345S343.896,157.858,341.538,157.858z"/>
	</g>
</g>















</svg>
