<svg id="Capa_1" enable-background="new 0 0 511.987 511.987" height="512" viewBox="0 0 511.987 511.987" width="512" xmlns="http://www.w3.org/2000/svg"><g><g><g><g fill="#f6e266"><path d="m112.051 343.398.215 2.508c.758 8.845-5.463 16.767-14.236 18.129l-26.985 4.188c-9.666 1.5-18.58-5.5-19.415-15.246l-.534-6.232c-.835-9.746 6.759-18.16 16.539-18.326l27.304-.464c8.877-.151 16.355 6.597 17.112 15.443z"/><path d="m134.216 403.226 1.44 2.065c5.079 7.281 3.653 17.252-3.264 22.818l-21.276 17.119c-7.621 6.132-18.841 4.527-24.436-3.496l-3.578-5.13c-5.596-8.022-3.227-19.106 5.16-24.14l23.414-14.053c7.611-4.57 17.461-2.464 22.54 4.817z"/><path d="m181.795 445.785 2.279 1.068c8.039 3.766 11.789 13.115 8.582 21.393l-9.866 25.463c-3.534 9.121-14.053 13.341-22.91 9.191l-5.664-2.654c-8.857-4.15-12.348-14.933-7.601-23.486l13.25-23.878c4.308-7.762 13.891-10.864 21.93-7.097z"/></g></g><g><path d="m340.601 145.715 64.631 64.631 46.5-46.5c10.013-10.013 26.247-10.013 36.26 0 10.013 10.013 10.013 26.247 0 36.26l-64.63 64.63c-10.013 10.013-26.247 10.013-36.26 0l-43.01-43.01" fill="#ffddce"/><path d="m438.227 249.865-14.871 14.871c-10.01 10.01-26.245 10.01-36.255 0l-59.997-59.997 13.497-59.023 10.584 10.584-6.154 36.644 56.93 56.92c10.011 10.021 26.246 10.021 36.266.001z" fill="#ffcbbe"/><path d="m318.515 95.263-8.552 31.466-27.703 4.799-21.107-21.106-46.5 46.5c-10.01 10.01-26.245 10.01-36.265 0-5.005-5.005-7.507-11.569-7.507-18.132 0-6.553 2.502-13.117 7.507-18.132l64.633-64.633c10.02-10.01 26.245-10.01 36.265 0z" fill="#ffddce"/><path d="m292.166 68.917c-10.03-9.938-26.194-9.907-36.183.072l-64.633 64.633c-5.005 5.015-7.507 11.579-7.507 18.132 0 3.559.739 7.128 2.226 10.441-2.79-1.231-5.395-2.995-7.682-5.272-5.005-5.005-7.507-11.568-7.507-18.132 0-6.553 2.502-13.117 7.507-18.132l64.632-64.633c10.02-10.01 26.245-10.01 36.265 0z" fill="#ffcbbe"/><path d="m296.505 104.373h51.282v61.559h-51.282z" fill="#e7a561" transform="matrix(.707 -.707 .707 .707 -1.212 267.378)"/><path d="m353.365 229.991-50.298 50.308-20.688-11.816-20.808-70.888 79.64-79.64 12.153 12.164c27.589 27.578 27.589 72.294.001 99.872z" fill="#e7a561"/><path d="m316.269 165.543-43.382 43.382-12.051-10.594 44.111-44.11z" fill="#e4936b"/><path d="m188.206 332.87c-6.562 0-13.123-2.503-18.13-7.51l-54.177-54.176c-10.013-10.013-10.013-26.247 0-36.26 10.013-10.013 26.247-10.013 36.26 0l36.047 36.046 72.077-72.078 36.26 36.26-90.207 90.208c-5.006 5.007-11.569 7.51-18.13 7.51z" fill="#26457d"/><path d="m219.427 312.264-13.097 13.097c-5.005 5.015-11.569 7.517-18.122 7.517-6.564 0-13.128-2.502-18.132-7.517l-54.182-54.172c-10.01-10.01-10.01-26.245 0-36.265 2.349-2.349 5.046-4.143 7.918-5.384-4.072 9.374-2.277 20.686 5.384 28.347l54.182 54.182c5.005 5.005 11.569 7.507 18.132 7.507 6.461 0 12.943-2.43 17.917-7.312z" fill="#21386b"/><path d="m272.56 211.168-65.613 65.613c-3.571 3.571-9.36 3.571-12.93 0l-5.811-5.811 72.078-72.078z" fill="#21386b"/><g><path d="m387.778 161.508c-28.438-.007-51.495-23.064-51.495-51.495v-35.605l.007-.007 48.351-13.252 54.639 13.251v35.605c.001 28.446-23.056 51.502-51.502 51.503z" fill="#ffddce"/><path d="m404.587 158.705c-5.262 1.824-10.912 2.81-16.801 2.81-28.438-.007-51.495-23.064-51.502-51.502v-35.605l.007-.007 33.595.007v35.606c0 22.555 14.499 41.732 34.701 48.691z" fill="#ffcbbe"/><path d="m336.291 74.4h67.802 35.196v-32.851c0-18.805-15.244-34.049-34.049-34.049h-34.9c-18.805 0-34.049 15.244-34.049 34.049z" fill="#9dc6fb"/><path d="m399.131 7.508c-18.799 0-34.049 15.24-34.049 34.049v32.85h-28.798v-32.85c0-18.809 15.24-34.049 34.05-34.049h28.797z" fill="#80b4fb"/></g><path d="m331.961 414.817c-14.16 0-25.64-11.479-25.64-25.64v-74.312l-44.023-44.023c-20.026-20.026-20.026-52.494 0-72.52l87.792 87.792c4.808 4.808 7.51 11.33 7.51 18.13v84.933c.001 14.161-11.479 25.64-25.639 25.64z" fill="#26457d"/><path d="m341.324 413.043c-2.908 1.151-6.073 1.777-9.381 1.774-14.096-.01-25.622-12.124-25.622-26.22v-73.724l-44.029-44.028c-20.02-20.019-20.02-52.49 0-72.519l10.594 10.594c-11.363 19.619-8.646 45.146 8.143 61.925l39.624 39.633c2.814 2.814 4.394 6.631 4.394 10.61v68.089c.001 10.852 6.75 20.133 16.277 23.866z" fill="#21386b"/><g><path d="m373.376 404.472h-6.783l-8.993-15.294 8.993-6.236v-21.145h-71.652v67.659c0 13.87 11.244 25.113 25.113 25.113h68.706c9.586 0 17.356-7.771 17.356-17.356 0-18.083-14.658-32.741-32.74-32.741z" fill="#9dc6fb"/><path d="m348.251 454.562h-28.204c-13.866 0-25.106-11.24-25.106-25.106v-67.658h28.204v67.658c-.001 13.866 11.24 25.106 25.106 25.106z" fill="#80b4fb"/><g><circle cx="385.655" cy="473.664" fill="#f9f6f6" r="19.096"/><path d="m393.953 490.874c-2.513 1.21-5.323 1.887-8.297 1.887-10.553 0-19.096-8.543-19.096-19.096 0-10.543 8.543-19.097 19.096-19.097 2.974 0 5.784.677 8.297 1.897-6.389 3.087-10.799 9.63-10.799 17.199 0 7.579 4.41 14.123 10.799 17.21z" fill="#d0cee7"/><circle cx="347.464" cy="473.664" fill="#f9f6f6" r="19.096"/><path d="m355.762 490.874c-2.513 1.21-5.323 1.887-8.297 1.887-10.553 0-19.096-8.543-19.096-19.096 0-10.543 8.543-19.097 19.096-19.097 2.974 0 5.784.677 8.297 1.897-6.389 3.087-10.799 9.63-10.799 17.199-.001 7.579 4.409 14.123 10.799 17.21z" fill="#d0cee7"/><circle cx="309.272" cy="473.664" fill="#f9f6f6" r="19.096"/><path d="m317.57 490.874c-2.513 1.21-5.323 1.887-8.297 1.887-10.553 0-19.096-8.543-19.096-19.096 0-10.543 8.543-19.097 19.096-19.097 2.974 0 5.784.677 8.297 1.897-6.389 3.087-10.799 9.63-10.799 17.199 0 7.579 4.41 14.123 10.799 17.21z" fill="#d0cee7"/></g><path d="m336.736 382.942h29.857v21.53h-29.857c-5.945 0-10.765-4.82-10.765-10.765 0-5.945 4.82-10.765 10.765-10.765z" fill="#f9f6f6"/></g><g><path d="m93.192 273.699 4.796-4.796 17.173 4.456-1.949 10.768 14.952 14.952 50.666-50.666-47.842-47.842c-9.807-9.807-25.708-9.807-35.515 0l-48.583 48.583c-6.778 6.778-6.778 17.767 0 24.545 12.786 12.786 33.516 12.786 46.302 0z" fill="#9dc6fb"/><path d="m75.539 220.514 19.943-19.943c9.805-9.805 25.701-9.805 35.506 0l47.841 47.841-19.943 19.943-47.841-47.841c-9.805-9.804-25.702-9.804-35.506 0z" fill="#80b4fb"/><g><circle cx="35.583" cy="233.456" fill="#f9f6f6" r="19.096"/><path d="m17.546 227.154c.921-2.632 2.43-5.098 4.533-7.201 7.462-7.462 19.544-7.462 27.006 0 7.455 7.455 7.462 19.544 0 27.007-2.103 2.103-4.569 3.611-7.209 4.525 2.335-6.701.827-14.446-4.525-19.798-5.359-5.359-13.104-6.868-19.805-4.533z" fill="#dddaec"/><circle cx="62.588" cy="206.45" fill="#f9f6f6" r="19.096"/><path d="m44.552 200.149c.921-2.632 2.43-5.098 4.533-7.201 7.462-7.462 19.544-7.462 27.006 0 7.455 7.455 7.462 19.544 0 27.007-2.103 2.103-4.569 3.611-7.209 4.525 2.335-6.701.827-14.446-4.525-19.798-5.359-5.36-13.105-6.868-19.805-4.533z" fill="#dddaec"/><circle cx="89.593" cy="179.445" fill="#f9f6f6" r="19.096"/><path d="m71.557 173.144c.921-2.632 2.43-5.098 4.533-7.201 7.462-7.462 19.544-7.462 27.006 0 7.455 7.455 7.462 19.544 0 27.007-2.103 2.103-4.569 3.611-7.209 4.525 2.335-6.701.827-14.446-4.525-19.798-5.359-5.36-13.104-6.869-19.805-4.533z" fill="#dddaec"/></g><path d="m134.324 263.015-21.112 21.112-15.224-15.224 21.112-21.112c4.204-4.204 11.02-4.204 15.224 0 4.204 4.204 4.204 11.02 0 15.224z" fill="#f9f6f6"/></g></g></g><g><path d="m119.739 345.266-.215-2.508c-1.078-12.584-11.71-22.305-24.296-22.305-.139 0-.277.001-.416.003l-27.304.463c-6.732.114-13.18 3.046-17.69 8.044s-6.769 11.712-6.193 18.419l.533 6.233c.575 6.708 3.941 12.94 9.236 17.099 4.313 3.387 9.659 5.204 15.089 5.204 1.236 0 2.479-.094 3.713-.286l26.984-4.188c12.619-1.956 21.649-13.456 20.559-26.178zm-49.843 15.545c-2.596.401-5.169-.269-7.236-1.893-2.068-1.624-3.331-3.961-3.556-6.581l-.533-6.233c-.225-2.62.622-5.138 2.384-7.09s4.18-3.052 6.809-3.096l27.305-.463c.054-.001.106-.001.159-.001 4.845 0 8.938 3.742 9.353 8.585l.215 2.508c.42 4.897-3.057 9.323-7.914 10.077z"/><path d="m141.808 401-1.44-2.065c-7.305-10.472-21.604-13.529-32.552-6.958l-23.414 14.053c-5.773 3.465-9.892 9.229-11.299 15.812-1.406 6.584-.004 13.527 3.848 19.049l3.578 5.13c3.852 5.522 9.883 9.236 16.548 10.189 1.141.163 2.285.244 3.427.244 5.529 0 10.967-1.886 15.315-5.385l21.274-17.119c9.948-8.002 12.019-22.476 4.715-32.95zm-14.119 21.265-21.274 17.119c-2.049 1.648-4.607 2.351-7.215 1.979-2.603-.373-4.865-1.765-6.369-3.922l-3.578-5.13c-1.505-2.157-2.031-4.761-1.481-7.332.55-2.572 2.094-4.733 4.349-6.086l23.414-14.053c1.5-.9 3.162-1.331 4.81-1.331 2.98 0 5.909 1.413 7.721 4.009l1.44 2.064c2.81 4.031 2.014 9.602-1.817 12.683z"/><path d="m187.256 440.061-2.279-1.068c-11.564-5.418-25.474-.914-31.669 10.25l-13.251 23.877c-3.268 5.887-3.952 12.937-1.879 19.342 2.073 6.406 6.76 11.718 12.856 14.574l5.664 2.653c3.262 1.528 6.805 2.296 10.352 2.296 3.082 0 6.169-.581 9.074-1.746 6.249-2.507 11.228-7.545 13.659-13.823l9.866-25.463c4.614-11.905-.831-25.474-12.393-30.892zm-1.593 25.475-9.866 25.464c-.95 2.452-2.817 4.341-5.258 5.32-2.441.98-5.097.902-7.478-.212l-5.664-2.653c-2.381-1.116-4.139-3.108-4.948-5.61s-.553-5.146.723-7.445l13.251-23.877c1.702-3.066 4.915-4.827 8.233-4.827 1.332 0 2.682.284 3.957.881l2.279 1.068c4.451 2.084 6.546 7.308 4.771 11.891z"/><path d="m493.297 158.548c-12.922-12.922-33.949-12.921-46.871 0l-41.196 41.188-23.767-23.767c-.133-2.468-.383-4.938-.754-7.404 2.322.279 4.679.439 7.075.439 32.536 0 59.006-26.465 59.006-58.995v-28.11h36.087c4.143 0 7.5-3.358 7.5-7.5s-3.357-7.5-7.5-7.5h-36.087v-25.35c-.001-22.91-18.64-41.549-41.55-41.549h-34.9c-22.91 0-41.549 18.639-41.549 41.549l-.013 53.369-44.201-44.201c-6.258-6.258-14.578-9.705-23.428-9.705-8.851 0-17.171 3.447-23.429 9.705l-16.92 16.92c-2.929 2.929-2.929 7.678 0 10.606 2.93 2.929 7.678 2.929 10.607 0l16.92-16.92c3.424-3.425 7.978-5.311 12.821-5.311s9.396 1.886 12.821 5.311l33.936 33.937-25.658 25.651-15.791-15.793c-1.406-1.407-3.314-2.197-5.304-2.197s-3.896.79-5.304 2.197l-46.497 46.497c-7.079 7.074-18.594 7.075-25.661.008-3.424-3.43-5.309-7.987-5.309-12.832 0-4.844 1.887-9.407 5.303-12.836l26.53-26.52c2.929-2.928 2.93-7.677.002-10.606-2.929-2.93-7.677-2.93-10.607-.002l-26.541 26.532c-6.247 6.271-9.687 14.593-9.687 23.433 0 8.846 3.441 17.166 9.697 23.433 12.915 12.917 33.942 12.919 46.877 0l41.196-41.196 33.187 33.192-106.139 106.14-5.357-5.354 1.289-1.289c1.406-1.406 2.196-3.314 2.196-5.303s-.79-3.897-2.196-5.303l-47.843-47.842c-5.639-5.639-12.98-8.95-20.864-9.471.501-2.055.762-4.183.762-6.352 0-7.104-2.767-13.783-7.79-18.806s-11.702-7.79-18.807-7.79c-7.104 0-13.782 2.767-18.805 7.79-5.024 5.023-7.791 11.702-7.791 18.806 0 .145.008.288.01.433-6.95-.109-13.934 2.476-19.226 7.767-5.291 5.291-7.876 12.276-7.767 19.226-.144-.002-.287-.01-.431-.01-7.104 0-13.783 2.767-18.806 7.79-5.024 5.023-7.791 11.702-7.791 18.806s2.767 13.783 7.79 18.806c4.731 4.731 10.931 7.458 17.572 7.76-.026.467-.042.935-.042 1.406 0 6.639 2.586 12.881 7.28 17.576 7.601 7.601 17.706 11.786 28.455 11.786 10.509 0 20.403-4.001 27.942-11.283l24.877 24.877c1.465 1.464 3.385 2.197 5.304 2.197s3.839-.732 5.304-2.197l2.514-2.514 28.785 28.795c6.258 6.258 14.581 9.704 23.437 9.704s17.179-3.446 23.435-9.703l49.95-49.93 37.232 37.24v36.321h-3.876c-4.143 0-7.5 3.358-7.5 7.5v29.5c0 4.142 3.357 7.5 7.5 7.5s7.5-3.358 7.5-7.5v-22h56.649v6.142h-22.357c-10.071 0-18.265 8.194-18.265 18.265s8.193 18.265 18.265 18.265l36.638-.002c6.732 0 13.072 2.627 17.852 7.397 4.765 4.757 7.389 11.093 7.389 17.842 0 5.437-4.419 9.86-9.851 9.86h-68.71c-9.71 0-17.609-7.9-17.609-17.61v-8.16c0-4.142-3.357-7.5-7.5-7.5s-7.5 3.358-7.5 7.5v8.16c0 8.207 3.054 15.709 8.077 21.448-7.693 4.666-12.845 13.121-12.845 22.757 0 14.665 11.931 26.596 26.596 26.596 7.488 0 14.258-3.115 19.096-8.111 4.838 4.997 11.608 8.111 19.096 8.111s14.258-3.115 19.096-8.111c4.838 4.997 11.608 8.111 19.096 8.111 14.665 0 26.596-11.931 26.596-26.596 0-6.895-2.638-13.184-6.956-17.914 5.101-4.556 8.319-11.178 8.319-18.541 0-10.76-4.188-20.867-11.791-28.458-7.441-7.427-17.265-11.593-27.729-11.775v-35.176c0-4.142-3.357-7.5-7.5-7.5h-1.493v-50.056c0-8.855-3.446-17.178-9.704-23.436l-21.117-21.117 18.584-18.591 28.94 28.94c6.46 6.46 14.945 9.69 23.431 9.69s16.972-3.23 23.432-9.69l64.633-64.632c6.257-6.257 9.703-14.58 9.703-23.436-.001-8.847-3.447-17.167-9.705-23.424zm-184.025 326.712c-6.394 0-11.596-5.202-11.596-11.596s5.202-11.596 11.596-11.596 11.596 5.202 11.596 11.596-5.202 11.596-11.596 11.596zm38.192 0c-6.394 0-11.596-5.202-11.596-11.596 0-6.388 5.192-11.584 11.576-11.595h.039c6.385.011 11.576 5.207 11.576 11.595.001 6.395-5.202 11.596-11.595 11.596zm38.191 0c-6.394 0-11.596-5.202-11.596-11.596 0-6.388 5.192-11.584 11.576-11.595h.039c6.385.011 11.576 5.207 11.576 11.595.001 6.395-5.201 11.596-11.595 11.596zm2.128-331.258c-24.265 0-44.005-19.736-44.005-43.995v-28.106l88.011-.001v28.108c0 24.258-19.741 43.994-44.006 43.994zm17.457-139.002c14.639 0 26.549 11.91 26.549 26.549v25.351h-59.195v-25.351c0-14.639 11.91-26.549 26.549-26.549zm-61.449 26.549c0-13.518 10.158-24.701 23.241-26.335-5.894 7.174-9.438 16.348-9.438 26.335v25.351h-13.803zm-262.396 129.697c2.189-2.19 5.102-3.396 8.198-3.396 3.098 0 6.01 1.206 8.2 3.397 2.19 2.19 3.396 5.102 3.396 8.199s-1.206 6.009-3.397 8.2c-4.519 4.521-11.877 4.521-16.397 0h-.001c-2.19-2.19-3.396-5.102-3.396-8.199s1.205-6.011 3.397-8.201zm-27.007 27.005c4.523-4.521 11.88-4.521 16.399 0 4.521 4.52 4.521 11.874.004 16.396l-.006.006c-4.521 4.517-11.873 4.518-16.394.001-.001-.001-.002-.002-.003-.003-4.521-4.523-4.521-11.879 0-16.4zm-27.005 43.404c-2.19-2.19-3.396-5.102-3.396-8.199s1.206-6.009 3.397-8.199c2.189-2.19 5.102-3.396 8.199-3.396 3.095 0 6.006 1.205 8.196 3.394.001.001.002.002.003.003h.001c2.19 2.19 3.396 5.102 3.396 8.199s-1.206 6.009-3.397 8.2c-4.52 4.52-11.879 4.518-16.399-.002zm81.212 27.248 15.808-15.808c1.273-1.273 3.344-1.273 4.617 0s1.273 3.344 0 4.617l-15.808 15.809zm15.224 15.224 15.809-15.809c7.12-7.122 7.12-18.708 0-25.83-3.45-3.45-8.037-5.35-12.916-5.35s-9.466 1.9-12.916 5.35l-25.907 25.907h-.001c-4.767 4.768-11.104 7.393-17.847 7.393s-13.081-2.625-17.849-7.393c-1.861-1.861-2.887-4.336-2.887-6.969s1.025-5.107 2.888-6.969l48.583-48.583c3.326-3.327 7.749-5.159 12.454-5.159 4.704 0 9.127 1.832 12.453 5.159l42.54 42.539-40.06 40.06zm77.212 35.931c-3.424 3.424-7.979 5.31-12.828 5.31s-9.405-1.886-12.829-5.31l-28.787-28.795 25.65-25.65 10.664 10.656c1.465 1.463 3.383 2.195 5.302 2.195s3.839-.732 5.303-2.196l46.481-46.475c-.127 1.587-.208 3.183-.208 4.792 0 12.828 4.086 25.024 11.634 35.111zm158.062 76.914h-22.356c-1.8 0-3.265-1.465-3.265-3.265s1.465-3.265 3.265-3.265h22.356zm-8.993-92.728v50.056h-36.28v-39.431c0-1.989-.79-3.896-2.196-5.303l-44.021-44.03c-8.27-8.266-12.824-19.258-12.824-30.951 0-9.155 2.792-17.881 7.972-25.208l82.038 82.038c3.425 3.424 5.311 7.981 5.311 12.829zm-77.919-106.651 32.767-32.766 15.523 15.525c1.465 1.465 3.384 2.197 5.304 2.197 1.919 0 3.839-.732 5.303-2.196 2.93-2.929 2.93-7.677.001-10.606l-38.223-38.229 25.659-25.651 10.629 10.629c2.361 21.467 16.281 39.501 35.39 47.725 5.617 21.646-.532 44.536-16.474 60.468l-24.387 24.395zm210.509-2.791-64.633 64.632c-3.424 3.424-7.979 5.311-12.823 5.311-4.846 0-9.4-1.886-12.824-5.311l-29.155-29.155c8.505-10.103 14.185-21.99 16.753-34.552l19.917 19.917c2.929 2.929 7.678 2.93 10.606 0l46.5-46.49c7.075-7.073 18.586-7.074 25.659 0 3.425 3.424 5.311 7.977 5.311 12.819 0 4.849-1.886 9.405-5.311 12.829z"/></g></g></svg>