<svg id="Capa_1" enable-background="new 0 0 512.034 512.034" height="512" viewBox="0 0 512.034 512.034" width="512" xmlns="http://www.w3.org/2000/svg"><g><g><path clip-rule="evenodd" d="m447.364 89.942c-59.338-39.9-139.855-24.262-179.858 34.895-40.003 59.185-24.325 139.494 35.013 179.393 72.664-58.45 114.51-138.164 144.845-214.288z" fill="#9be69d" fill-rule="evenodd"/></g><g><path clip-rule="evenodd" d="m482.349 269.335c40.003-59.185 24.325-139.494-34.985-179.393 38.274 26.807-106.741 240.982-144.845 214.288 59.31 39.9 139.827 24.262 179.83-34.895z" fill="#9be69d" fill-rule="evenodd"/></g><g><path clip-rule="evenodd" d="m447.364 89.942c-25.431-17.108-78.475 16.995-118.478 76.18s-51.797 121-26.366 138.108c25.402 17.108 78.447-17.023 118.45-76.18 40.003-59.185 51.825-121 26.394-138.108z" fill="#fe646f" fill-rule="evenodd"/></g><g><path clip-rule="evenodd" d="m482.349 269.335c40.003-59.185 24.325-139.494-34.985-179.393 18.683 12.555 17.266 49.26-.652 91.308 8.222 34.046 2.665 71.288-18.513 102.62-12.503 18.465-28.918 32.689-47.431 42.303 39.549-1.809 77.766-21.604 101.581-56.838z" fill="#6fd7a3" fill-rule="evenodd"/></g><g><path clip-rule="evenodd" d="m447.364 89.942c-13.523-9.077-34.815-3.733-57.807 12.188 1.219.764 2.438 1.527 3.629 2.347 13.58 9.105 24.835 20.332 33.709 32.943 4.394 6.278 8.193 12.866 11.397 19.738 3.601 7.748 6.407 15.807 8.42 24.093 17.918-42.049 19.335-78.754.652-91.309z" fill="#fd4755" fill-rule="evenodd"/></g><g><path clip-rule="evenodd" d="m447.364 89.942c-40.825-27.458-91.658-28.617-132.427-7.409 25.487-1.188 51.514 5.118 74.62 19.596 22.992-15.92 44.284-21.264 57.807-12.187z" fill="#6fd7a3" fill-rule="evenodd"/></g><g><path clip-rule="evenodd" d="m162.579 28.778c-85.648 0-155.079 69.252-155.079 154.678s69.431 154.679 155.079 154.679 155.079-69.252 155.079-154.679-69.431-154.678-155.079-154.678z" fill="#ffe177" fill-rule="evenodd"/></g><g><path clip-rule="evenodd" d="m259.908 253.472c-20.469 39.645-55.313 70.185-97.329 84.126v.537c85.648 0 155.079-69.252 155.079-154.679 0-63.823-38.756-118.625-94.068-142.265 34.475 31.982 56.163 78.414 56.163 130.077.001 29.72-7.172 57.687-19.845 82.204z" fill="#ffd15b" fill-rule="evenodd"/></g><g><path clip-rule="evenodd" d="m227.39 314.014-15.933-66.707c-29.598 21.265-49.926 54.576-53.697 92.751l62.23-13.262c2.268-.961 4.281-2.941 5.642-5.288 1.332-2.319 2.041-5.034 1.758-7.494z" fill="#eaf6ff" fill-rule="evenodd"/></g><g><path clip-rule="evenodd" d="m295.063 277.79 46.325-43.491c-16.387-7.38-34.56-11.481-53.725-11.481-19.137 0-37.338 4.1-53.697 11.481l46.297 43.491c1.985 1.499 4.706 2.234 7.4 2.234 2.722 0 5.416-.735 7.4-2.234z" fill="#eaf6ff" fill-rule="evenodd"/></g><g><path clip-rule="evenodd" d="m417.596 340.058c-3.799-38.175-24.098-71.486-53.697-92.751l-25.941 66.707c-.312 2.46.397 5.175 1.758 7.494 1.361 2.347 3.345 4.326 5.642 5.288z" fill="#eaf6ff" fill-rule="evenodd"/></g><g><path clip-rule="evenodd" d="m363.899 458.767c29.598-21.265 49.898-54.604 53.697-92.751l-62.23 13.234c-2.296.99-4.281 2.969-5.642 5.288-1.361 2.347-2.07 5.062-1.758 7.522z" fill="#eaf6ff" fill-rule="evenodd"/></g><g><path clip-rule="evenodd" d="m227.39 392.06c.284-2.46-.425-5.175-1.758-7.522-1.361-2.319-3.374-4.298-5.642-5.26l-62.23-13.262c3.771 38.146 24.098 71.486 53.697 92.751z" fill="#eaf6ff" fill-rule="evenodd"/></g><g><path clip-rule="evenodd" d="m341.388 471.747-46.325-53.445c-1.985-1.499-4.678-2.234-7.4-2.234-2.693 0-5.415.735-7.4 2.234l-46.297 53.445c16.358 7.38 34.56 11.509 53.697 11.509 19.166 0 37.339-4.129 53.725-11.509z" fill="#eaf6ff" fill-rule="evenodd"/></g><g><path clip-rule="evenodd" d="m246.895 329.539-9.242-19.087-22.029 1.103c-1.361 2.319-3.374 4.298-5.642 5.26l-52.222 23.244c-.425 4.27-.652 8.596-.652 12.979s.227 8.71.652 12.979l52.222 23.216c2.296.99 4.281 2.941 5.642 5.288l17.464-10.039 13.807-7.974z" fill="#99e6fc" fill-rule="evenodd"/></g><g><path clip-rule="evenodd" d="m287.664 306.068v-36.026c-2.693 0-5.415-.735-7.4-2.234l-46.297-33.509c-7.967 3.591-15.508 7.974-22.511 13.008l5.925 56.725c.312 2.46-.397 5.175-1.758 7.522l31.271 17.985z" fill="#62dbfb" fill-rule="evenodd"/></g><g><path clip-rule="evenodd" d="m357.945 304.032 5.954-56.725c-7.031-5.033-14.544-9.417-22.511-13.008l-46.325 33.509c-1.985 1.499-4.678 2.234-7.4 2.234v36.026c0 7.861 34.361 26.015 40.797 23.47l31.271-17.985c-1.36-2.346-2.069-5.061-1.786-7.521z" fill="#99e6fc" fill-rule="evenodd"/></g><g><path clip-rule="evenodd" d="m363.899 458.767-5.954-56.725c-.284-2.46.425-5.175 1.786-7.522l-12.928-18.663-18.343.65-40.797 23.499-7.116 15.129 7.116 20.869c2.722 0 5.415.763 7.4 2.234l46.325 33.509c7.967-3.592 15.48-7.946 22.511-12.98z" fill="#99e6fc" fill-rule="evenodd"/></g><g><path clip-rule="evenodd" d="m287.664 436.004v-35.997c-1.531-4.694-35.58-23.725-40.769-23.499l-31.271 18.013c1.361 2.347 2.07 5.062 1.758 7.522l-5.925 56.725c7.003 5.033 14.544 9.388 22.511 12.979l46.297-33.509c1.983-1.471 4.705-2.234 7.399-2.234z" fill="#62dbfb" fill-rule="evenodd"/></g><g><path clip-rule="evenodd" d="m341.388 471.747-15.253-11.028c-16.358 11.141-35.382 18.635-55.936 21.378 5.727.764 11.539 1.159 17.464 1.159 19.166 0 37.339-4.129 53.725-11.509z" fill="#d8ecfe" fill-rule="evenodd"/></g><g><path clip-rule="evenodd" d="m363.899 458.767-3.374-32.236c-9.214 13.432-20.895 25.026-34.39 34.188l15.253 11.028c7.967-3.592 15.48-7.946 22.511-12.98z" fill="#62dbfb" fill-rule="evenodd"/></g><g><path clip-rule="evenodd" d="m363.899 458.767c29.598-21.265 49.898-54.604 53.697-92.751l-37.735 16.769c-3.742 15.892-10.376 30.681-19.335 43.745z" fill="#d8ecfe" fill-rule="evenodd"/></g><g><path clip-rule="evenodd" d="m417.596 340.058c-3.799-38.175-24.098-71.486-53.697-92.751l-3.374 32.236c8.959 13.064 15.593 27.825 19.335 43.717z" fill="#d8ecfe" fill-rule="evenodd"/></g><g><path clip-rule="evenodd" d="m360.525 279.544 3.374-32.236c-7.031-5.033-14.544-9.417-22.511-13.008l-15.253 11.028c13.496 9.162 25.176 20.784 34.39 34.216z" fill="#62dbfb" fill-rule="evenodd"/></g><g><path clip-rule="evenodd" d="m341.388 234.299c-16.387-7.38-34.56-11.481-53.725-11.481-5.925 0-11.737.396-17.464 1.159 20.554 2.743 39.578 10.236 55.936 21.35z" fill="#d8ecfe" fill-rule="evenodd"/></g><g><path clip-rule="evenodd" d="m417.596 340.058-52.251-23.244c-2.268-.961-4.281-2.941-5.613-5.26l-31.271 17.985v46.969l31.271 18.013c1.332-2.347 3.345-4.298 5.642-5.288l52.222-23.216c.425-4.27.624-8.596.624-12.979-.001-4.384-.199-8.71-.624-12.98z" fill="#62dbfb" fill-rule="evenodd"/></g><g><path clip-rule="evenodd" d="m418.219 353.037c0-4.383-.198-8.71-.624-12.979l-37.735-16.797c2.24 9.558 3.43 19.54 3.43 29.776s-1.191 20.19-3.43 29.748l37.735-16.769c.426-4.269.624-8.596.624-12.979z" fill="#01d0fb" fill-rule="evenodd"/></g><g><path clip-rule="evenodd" d="m329.765 372.549v-39.023c0-1.131-.539-2.63-1.304-3.987-.794-1.329-1.814-2.545-2.807-3.111l-33.879-19.512c-.992-.565-2.552-.848-4.111-.848s-3.119.283-4.111.848l-33.879 19.512c-.992.566-2.013 1.782-2.778 3.111-.794 1.357-1.332 2.856-1.332 3.987v39.023c0 1.131.539 2.63 1.332 3.959.765 1.357 1.786 2.573 2.778 3.139l33.879 19.512c.992.566 2.552.848 4.111.848s3.119-.283 4.111-.848l33.879-19.512c.992-.566 2.013-1.781 2.807-3.139.765-1.329 1.304-2.828 1.304-3.959z" fill="#554e56" fill-rule="evenodd"/></g><path d="m486.548 263.121c-3.431-2.32-8.094-1.417-10.413 2.015-15.565 23.03-37.812 39.62-64.336 47.975-3.951 1.244-6.146 5.456-4.9 9.406 1.008 3.201 3.964 5.249 7.151 5.249.746 0 1.506-.112 2.255-.349 29.789-9.383 54.775-28.015 72.258-53.883 2.319-3.431 1.417-8.094-2.015-10.413z"/><path d="m451.55 83.719c-25.148-16.91-54.41-24.907-84.598-23.126-26.52 1.565-52.342 10.973-73.59 26.634-29.638-39.977-77.224-65.95-130.783-65.95-39.059 0-76.794 14.004-106.255 39.432-3.136 2.707-3.483 7.442-.777 10.578 2.707 3.137 7.443 3.481 10.578.777 11.071-9.555 23.432-17.327 36.633-23.161 12.611 21.985 3.819 38.811-8.047 61.482-1.623 3.1-3.3 6.305-4.948 9.586-11.927 23.743-28.251 59.763-32.301 98.277-3.457 32.884 2.627 61.121 18.115 84.407-36.873-26.677-60.577-70.007-60.577-119.199 0-32.035 10.118-62.464 29.262-87.997 2.484-3.314 1.812-8.015-1.502-10.5-3.312-2.482-8.016-1.812-10.5 1.502-21.105 28.149-32.26 61.689-32.26 96.995 0 42.487 16.355 82.648 46.055 113.086 27.779 28.469 64.39 45.524 103.803 48.564-.151 2.626-.248 5.267-.248 7.93 0 55.584 33.182 103.578 80.819 125.316.325.174.658.329 1.002.452 17.184 7.676 36.215 11.952 56.229 11.952 19.99 0 38.997-4.265 56.165-11.922.422-.145.828-.333 1.222-.552 47.561-21.77 80.674-69.72 80.674-125.246 0-31.359-10.568-60.298-28.328-83.474 10.575-11.164 20.577-23.687 29.792-37.312 27.192-40.23 42.579-83.523 40.941-113.753 27.415 32.323 36.603 77.411 22.035 118.798-1.376 3.907.677 8.189 4.584 9.564.824.29 1.664.428 2.49.428 3.093 0 5.989-1.929 7.074-5.012 20.622-58.586-1.073-123.787-52.759-158.556zm-38.646-2.249c-7.376 2.516-15.211 6.398-23.37 11.644-22.876 14.709-46.262 38.666-65.988 67.545-3.124-22.052-10.701-42.694-21.807-60.982 32.079-23.96 73.895-30.276 111.165-18.207zm-102.745 101.986c0 .023-.001.047-.001.07-.021.292-.408 19.74-3.787 33.06-6.121-.831-12.365-1.27-18.711-1.27-6.85 0-13.58.5-20.16 1.47-4.28-37.93-20.33-73.35-32.1-96.81-1.65-3.29-3.33-6.49-4.95-9.59-11.868-22.667-20.655-39.49-8.058-61.466 51.658 22.932 87.767 74.604 87.767 134.536zm40.481 124.651-20.902 12.04c-.115-.071-.223-.151-.342-.218l-33.908-19.529c-.107-.061-.217-.108-.325-.165v-24.039c1.58-.598 3.05-1.379 4.348-2.348l42.624-30.831c4.797 2.372 9.411 5.056 13.83 8.008l-5.471 52.15c-.185 1.608-.124 3.27.146 4.932zm-125.806-4.924-5.45-52.191c4.417-2.949 9.045-5.603 13.838-7.973l42.591 30.828c1.298.969 2.769 1.75 4.35 2.349v24.04c-.108.057-.218.104-.324.164-.01.006-.02.012-.029.018l-33.851 19.494c-.125.071-.239.155-.36.23l-20.894-12.016c.269-1.669.323-3.333.129-4.943zm-54.754 13.634c6.648-21.419 19.038-40.337 35.355-54.984l4.488 42.979c.005.054.012.108.019.163.073.583-.146 1.681-.785 2.782-.681 1.16-1.545 1.916-2.101 2.151-.04.017-.081.035-.122.053l-39.661 17.644c.776-3.659 1.711-7.259 2.807-10.788zm0-35.86v-244.491c13.258.665 26.057 3.093 38.175 7.036-14.966 28.21-2.854 51.374 8.905 73.845 1.59 3.04 3.24 6.19 4.83 9.35 11.39 22.71 26.97 57.05 30.77 93.08-34.79 9.07-64.27 31.38-82.68 61.18zm82.982 52.992c.057-.146.162-.378.331-.668.146-.252.282-.441.375-.558l33.168-19.102c.308-.05 1.148-.05 1.454 0l33.179 19.108c.096.116.239.308.402.571.146.271.24.49.293.631v38.203c-.053.14-.146.354-.28.589-.17.29-.322.499-.424.624l-33.17 19.104c-.307.051-1.147.051-1.454 0l-33.159-19.097c-.088-.112-.215-.292-.351-.532-.029-.053-.061-.105-.092-.158-.132-.222-.221-.416-.272-.545zm37.606-72.217c-.041.03-.082.06-.122.09-.44.333-1.46.721-2.883.721-1.332 0-2.406-.361-2.881-.719-.04-.031-.08-.061-.121-.09l-35.084-25.393c1.333-.434 2.671-.855 4.023-1.244 4.87-1.4 9.86-2.51 14.96-3.3 6.23-.98 12.6-1.48 19.1-1.48 13.295 0 26.101 2.122 38.104 6.029zm-139.14 68.473c-11.894-.866-23.365-3.108-34.265-6.56-.228-.208-.466-.409-.725-.593-33.971-24.087-48.827-58.82-44.158-103.235 3.793-36.076 19.388-70.419 30.787-93.113 1.592-3.169 3.239-6.317 4.833-9.362 11.758-22.466 23.867-45.631 8.899-73.843 12.286-3.984 25.12-6.363 38.181-7.024v278.143c-1.482 5.079-2.661 10.285-3.552 15.587zm58.395 71.058-4.488 42.985c-19.017-17.066-32.678-39.947-38.159-65.805l39.736 17.677c.561.241 1.413.938 2.124 2.163.659 1.137.879 2.234.806 2.817-.007.054-.014.109-.019.163zm3.108-18.883-48.153-21.421c-.168-2.621-.268-5.26-.268-7.922 0-2.61.08-5.19.25-7.76.004-.063.011-.125.015-.188l48.104-21.399c1.484-.637 2.896-1.518 4.207-2.586l20.897 12.018c-.005.135-.02.268-.02.404v39.023c0 .128.016.252.02.38l-20.882 12.029c-1.304-1.068-2.705-1.947-4.17-2.578zm6.355 72.684 5.448-52.173c.195-1.611.139-3.277-.13-4.946l20.875-12.024c.118.073.229.155.351.224l33.909 19.529c.106.061.217.107.324.164v24.015c-1.565.592-3.02 1.361-4.297 2.308l-42.68 30.892c-4.786-2.365-9.39-5.044-13.8-7.989zm68.274 20.693c-13.297 0-26.104-2.123-38.108-6.032l35.176-25.46c.511-.379 1.617-.761 2.936-.761 1.409 0 2.464.41 3.005.811l35.107 25.395c-12.008 3.912-24.814 6.047-38.116 6.047zm54.483-12.721-42.617-30.827c-1.308-.968-2.783-1.75-4.363-2.349v-24.023c.118-.062.238-.114.354-.18l33.85-19.494c.136-.078.261-.168.393-.251l20.881 12.027c-.274 1.656-.337 3.304-.155 4.885l5.481 52.242c-4.412 2.948-9.035 5.602-13.824 7.97zm27.77-18.8-4.516-43.051c-.066-.57.11-1.673.857-2.962.667-1.175 1.543-1.867 2.169-2.139l39.639-17.643c-5.479 25.853-19.14 48.728-38.149 65.795zm40.807-91.199c0 2.661-.095 5.301-.263 7.92l-48.054 21.389c-1.512.652-2.94 1.542-4.254 2.608l-20.902-12.04c.004-.122.018-.242.018-.365v-39.023c0-.132-.015-.261-.019-.393l20.889-12.032c1.308 1.066 2.722 1.948 4.214 2.589l48.102 21.398c.169 2.629.269 5.277.269 7.949zm-42.326-43.076c-.041-.018-.082-.036-.122-.053-.532-.226-1.396-.976-2.052-2.116-.713-1.229-.89-2.332-.815-2.978l4.508-42.973c19.001 17.058 32.652 39.922 38.136 65.76zm46.363-86.113c-8.441 12.482-17.567 23.958-27.182 34.239-17.772-18.601-40.698-32.254-66.466-38.674 2.47-10.887 3.818-22.028 4.004-33.253 3.116-5.294 6.462-10.614 9.986-15.837 18.79-27.802 41.003-50.74 62.546-64.592 19.415-12.481 36.012-15.97 45.532-9.565 4.585 3.084 7.655 8.481 9.126 16.042 5.068 26.052-10.021 70.917-37.546 111.64z"/></g></svg>