<svg id="Capa_1" enable-background="new 0 0 511.988 511.988" height="512" viewBox="0 0 511.988 511.988" width="512" xmlns="http://www.w3.org/2000/svg"><g><g><path d="m284.799 173.79h-153.707c-16.72 0-30.275-13.554-30.275-30.275v-65.192c0-43.116 38.224-76.276 80.894-70.091 19.674 2.852 36.298 6.985 49.526 12.545 7.415 3.117 15.948 2.465 22.62-2.027.195-.131.39-.261.586-.391 25.987-17.15 60.631 1.702 60.631 32.838v92.317c0 16.721-13.554 30.276-30.275 30.276z" fill="#868086"/><g><path d="m263.008 14.094c14.819 5.19 26.435 19.079 26.435 37.104v92.317c0 16.72-13.554 30.274-30.275 30.274h25.631c16.72 0 30.275-13.554 30.275-30.274v-92.317c0-27.814-27.642-45.802-52.066-37.104z" fill="#787078"/></g></g><path d="m181.304 252.665-2.527 20.67-4.094 33.481c-1.605 13.128-9.739 24.554-21.618 30.368-41.278 20.203-67.448 62.148-67.448 108.104v40.273c0 10.453 8.474 18.926 18.926 18.926h206.805c10.453 0 18.926-8.474 18.926-18.926v-40.273c0-45.957-26.17-87.902-67.448-108.104-11.879-5.814-20.013-17.24-21.618-30.368l-4.093-33.479-2.528-20.672z" fill="#e28086"/><path d="m262.826 337.185c-11.879-5.814-20.013-17.24-21.619-30.368l-4.093-33.479-2.528-20.672h-53.283l-.856 7h34.121l2.528 20.672 4.093 33.479c1.605 13.128 9.739 24.554 21.618 30.368 41.278 20.203 67.448 62.148 67.448 108.104v40.273c0 4.523-1.591 8.671-4.238 11.926h5.329c10.453 0 18.926-8.474 18.926-18.926v-40.273c.002-45.956-26.168-87.902-67.446-108.104z" fill="#dd636e"/><path d="m240.942 304.64-6.355-51.975h-53.283l-6.355 51.975c21.998 16.775 43.995 16.775 65.993 0z" fill="#e2a770"/><path d="m207.946 277.643c-39.171 0-70.926-31.755-70.926-70.926v-62.152-18.427c0-9.201 7.359-16.7 16.558-16.92 25.105-.6 45.602 3.815 57.884 17.167 3.93 4.272 10.605 4.489 14.914.6 9.019-8.139 20.116-12.829 32.683-15.078 10.336-1.85 19.813 6.175 19.813 16.674v16.604 61.532c-.001 39.171-31.755 70.926-70.926 70.926z" fill="#f1d0a5"/><g><path d="m259.059 111.907c-3.502.626-6.886 1.451-10.147 2.479 4.586 3.002 7.687 8.192 7.687 14.195v16.604 61.532c0 35.382-25.91 64.705-59.789 70.049 3.629.572 7.347.877 11.136.877 39.171 0 70.926-31.754 70.926-70.926v-61.532-16.604c-.001-10.5-9.478-18.524-19.813-16.674z" fill="#f1b986"/></g><g><path d="m262.826 337.185c-1.868-.914-3.631-1.982-5.302-3.158v3.391c0 27.381-22.197 49.578-49.578 49.578-27.381 0-49.578-22.197-49.578-49.578v-3.391c-1.672 1.177-3.435 2.244-5.302 3.158-13.766 6.738-25.84 15.904-35.836 26.821 10.712 31.899 26.194 86.583 27.998 140.482h63.564 29.987 31.886c1.803-53.9 17.286-108.583 27.998-140.482-9.996-10.917-22.07-20.084-35.837-26.821z" fill="#868086"/></g><path d="m257.524 334.026v3.391c0 4.859-.711 9.551-2.015 13.988 14.524 9.442 26.657 21.789 35.779 36.058 2.556-8.711 5.075-16.612 7.374-23.458-18.994-20.743-33.816-24.825-41.138-29.979z" fill="#787078"/><g><path d="m411.674 504.488h-99.856c-8.117 0-14.697-6.58-14.697-14.697v-10.296h129.25v10.296c0 8.117-6.58 14.697-14.697 14.697z" fill="#d0cee7"/><path d="m409.614 479.494h-95.735v-12.41c0-26.436 21.431-47.867 47.867-47.867 26.436 0 47.867 21.431 47.867 47.867v12.41z" fill="#dddaec"/></g><g><path d="m189.27 168.151c-6.278-3.433-13.28-3.5-20.245-.195-3.742 1.776-5.337 6.249-3.562 9.991 1.283 2.704 3.975 4.287 6.781 4.287 1.078 0 2.172-.233 3.21-.726 3.294-1.562 5.194-.975 6.62-.195 3.632 1.985 8.189.65 10.179-2.983 1.987-3.634.652-8.191-2.983-10.179z"/><path d="m230.223 182.234c1.078 0 2.173-.233 3.211-.727 3.288-1.562 5.191-.975 6.619-.194 3.633 1.985 8.19.65 10.179-2.983 1.986-3.634.651-8.191-2.983-10.179-6.28-3.433-13.28-3.501-20.246-.194-3.742 1.775-5.336 6.249-3.56 9.991 1.283 2.704 3.973 4.286 6.78 4.286z"/><path d="m187.256 213.063c-3.118-2.729-7.856-2.414-10.584.701-2.729 3.116-2.415 7.854.701 10.584 10.002 8.758 20.285 13.135 30.572 13.135 10.284 0 20.572-4.379 30.571-13.135 3.116-2.729 3.431-7.467.702-10.583-2.728-3.116-7.467-3.431-10.583-.702-14.309 12.531-27.07 12.531-41.379 0z"/><path d="m426.372 471.994h-9.258v-4.91c0-27.984-20.874-51.172-47.867-54.845v-6.704c0-4.143-3.357-7.5-7.5-7.5s-7.5 3.357-7.5 7.5v6.703c-6.907.94-13.413 3.151-19.271 6.402-8.106-38.311-33.203-70.744-68.852-88.192-9.393-4.596-16.143-13.68-17.472-24.542l-3.677-30.078c24.619-13.244 41.397-39.252 41.397-69.112v-25.466c20.102-.828 36.202-17.433 36.202-37.734v-61.683c0-4.143-3.357-7.5-7.5-7.5s-7.5 3.357-7.5 7.5v61.683c0 12.028-9.376 21.903-21.202 22.714v-37.648c0-7.26-3.194-14.098-8.766-18.76-5.537-4.635-12.78-6.566-19.868-5.297-14.623 2.617-26.866 8.301-36.387 16.893-1.286 1.161-3.244 1.112-4.37-.109-12.781-13.896-33.597-20.305-63.582-19.588-13.391.32-23.879 11.046-23.879 24.419v40.091c-11.827-.811-21.203-10.686-21.203-22.714v-65.194c0-18.396 7.979-35.854 21.894-47.896 13.887-12.019 32.266-17.405 50.425-14.771 19.306 2.798 35.353 6.848 47.695 12.036 9.897 4.162 21.006 3.145 29.737-2.733l.506-.339c9.809-6.473 21.866-7.001 32.257-1.407 10.484 5.643 16.743 16.104 16.743 27.986v.647c0 4.143 3.357 7.5 7.5 7.5s7.5-3.357 7.5-7.5v-.647c0-17.493-9.209-32.894-24.635-41.195-15.329-8.25-33.134-7.467-47.635 2.102l-.636.425c-4.501 3.029-10.304 3.527-15.525 1.334-13.515-5.682-30.793-10.075-51.355-13.056-22.47-3.256-45.212 3.404-62.394 18.275-17.208 14.894-27.077 36.486-27.077 59.239v65.192c0 20.302 16.101 36.907 36.203 37.734v25.467c0 6.2.744 12.42 2.212 18.487.975 4.025 5.027 6.496 9.054 5.526 4.026-.975 6.5-5.027 5.526-9.054-1.189-4.914-1.792-9.947-1.792-14.96v-80.578c0-5.16 4.058-9.299 9.236-9.423 25.441-.61 42.5 4.218 52.185 14.746 6.67 7.252 18.091 7.74 25.459 1.092 7.513-6.78 16.992-11.118 28.98-13.264 2.747-.494 5.444.231 7.599 2.034 2.156 1.804 3.393 4.449 3.393 7.257v78.136c0 34.973-28.453 63.426-63.426 63.426-19.454 0-37.566-8.762-49.693-24.039-2.575-3.244-7.293-3.786-10.537-1.211s-3.786 7.293-1.211 10.537c6.792 8.556 15.108 15.452 24.406 20.443l-3.672 30.033c-1.324 10.832-8.051 19.931-17.471 24.542-21.516 10.53-39.59 26.839-52.27 47.161s-19.382 43.726-19.382 67.68v40.272c0 14.572 11.854 26.427 26.426 26.427h307.132c12.239 0 22.197-9.958 22.197-22.197v-10.297c.001-4.141-3.357-7.498-7.499-7.498zm-24.258-4.91v4.91h-80.735v-4.91c0-22.259 18.109-40.367 40.368-40.367s40.367 18.108 40.367 40.367zm-104.992 4.91c-4.143 0-7.5 3.357-7.5 7.5v10.297c0 2.519.428 4.938 1.204 7.197h-12.301c2.567-44.379 14.097-88.823 23.058-117.632 10.414 14.474 17.365 31.422 20.009 49.667-9.418 9.93-15.214 23.328-15.214 38.062v4.91h-9.256zm-89.176-186.852c7.873 0 15.473-1.179 22.647-3.347l2.366 19.352c-16.979 11.502-33.047 11.501-50.027 0l2.363-19.323c7.246 2.176 14.86 3.318 22.651 3.318zm-27.917 31.801c4.593 2.561 9.222 4.487 13.868 5.771l-6.177 5.882c-2.999 2.856-3.115 7.604-.258 10.604 1.474 1.547 3.451 2.327 5.432 2.327 1.858 0 3.72-.687 5.172-2.069l9.88-9.409 9.879 9.409c3 2.857 7.747 2.741 10.604-.258 2.857-3 2.741-7.747-.258-10.604l-6.177-5.883c4.647-1.284 9.276-3.209 13.869-5.77 2.723 8.121 7.612 15.301 14.154 20.788-.17 23.058-18.973 41.765-42.07 41.765s-41.901-18.708-42.07-41.766c6.54-5.487 11.429-12.667 14.152-20.787zm-86.912 168.618v-40.272c0-21.144 5.916-41.801 17.107-59.739 1.305-2.091 2.68-4.128 4.111-6.121 5.327 17.109 11.475 39.417 16.127 63.736.688 3.593 3.83 6.092 7.357 6.092.468 0 .942-.044 1.418-.135 4.068-.778 6.735-4.707 5.957-8.775-5.649-29.529-13.434-56.128-19.432-74.432 7.6-7.682 16.284-14.25 25.821-19.495 4.331 27.209 27.952 48.075 56.362 48.075 28.411 0 52.033-20.868 56.362-48.079 9.631 5.288 18.303 11.85 25.839 19.44-11.126 33.888-23.978 82.297-26.649 131.132h-111.102c-.44-7.961-1.168-16.217-2.182-24.646-.495-4.113-4.235-7.045-8.342-6.551-4.113.495-7.046 4.229-6.551 8.342.941 7.818 1.625 15.472 2.051 22.854h-32.83c-6.298.001-11.424-5.125-11.424-11.426zm325.755 4.23c0 3.969-3.229 7.197-7.197 7.197h-99.855c-3.969 0-7.197-3.229-7.197-7.197v-2.797h114.25v2.797z"/></g></g></svg>