<svg id="Capa_1" enable-background="new 0 0 512 512" height="512" viewBox="0 0 512 512" width="512" xmlns="http://www.w3.org/2000/svg"><g><g><g fill="#fe99a0"><circle cx="366.672" cy="362.662" r="22.262"/><circle cx="366.672" cy="145.134" r="22.262"/><circle cx="145.328" cy="362.662" r="22.262"/><circle cx="145.328" cy="145.134" r="22.262"/><path d="m483.705 235.205h-206.91v-186.115h206.91c11.485 0 20.795-9.31 20.795-20.795s-9.31-20.795-20.795-20.795h-227.705c-11.485 0-20.795 9.31-20.795 20.795v206.91h-186.115v-206.91c0-11.485-9.31-20.795-20.795-20.795s-20.795 9.31-20.795 20.795v227.705c0 11.485 9.31 20.795 20.795 20.795h206.91v186.115h-206.91c-11.485 0-20.795 9.31-20.795 20.795s9.31 20.795 20.795 20.795h227.705c11.485 0 20.795-9.31 20.795-20.795v-206.91h186.115v206.91c0 11.485 9.31 20.795 20.795 20.795s20.795-9.31 20.795-20.795v-227.705c0-11.485-9.31-20.795-20.795-20.795z"/></g><g fill="#fd8087"><path d="m28.295 276.795h186.115c0-12.633-10.241-22.874-22.874-22.874h-184.036v2.079c0 11.485 9.31 20.795 20.795 20.795z"/><path d="m49.09 212.331v-184.036c0-11.485-9.31-20.795-20.795-20.795v184.036c0 11.484 9.31 20.795 20.795 20.795z"/><path d="m483.6 7.5c-1.044 10.508-9.907 18.715-20.69 18.715h-177.826c-16.063 0-29.084 13.022-29.084 29.084v136.236c0 11.485 9.31 20.795 20.795 20.795v-163.24h206.412c11.276 0 20.879-8.768 21.28-20.037.42-11.83-9.045-21.553-20.781-21.553z"/><path d="m483.705 235.205v225.626c0 11.485-9.31 20.795-20.795 20.795v2.079c0 11.485 9.31 20.795 20.795 20.795s20.795-9.31 20.795-20.795v-227.705c0-11.485-9.31-20.795-20.795-20.795z"/><path d="m419.241 253.921h-129.094c-18.859 0-34.147 15.288-34.147 34.147v172.763c0 11.485-9.31 20.795-20.795 20.795h-227.6c-.068.684-.105 1.377-.105 2.079 0 11.485 9.31 20.795 20.795 20.795h227.705c11.485 0 20.795-9.31 20.795-20.795v-206.91h165.32c0-12.633-10.241-22.874-22.874-22.874z"/></g></g><g><g><path d="m366.672 392.423c-16.411 0-29.762-13.351-29.762-29.762 0-16.41 13.351-29.761 29.762-29.761s29.762 13.351 29.762 29.761c0 16.411-13.351 29.762-29.762 29.762zm0-44.523c-8.14 0-14.762 6.622-14.762 14.761 0 8.14 6.622 14.762 14.762 14.762s14.762-6.622 14.762-14.762c0-8.139-6.622-14.761-14.762-14.761z"/></g><g><path d="m366.672 174.896c-16.411 0-29.762-13.351-29.762-29.762s13.351-29.762 29.762-29.762 29.762 13.351 29.762 29.762-13.351 29.762-29.762 29.762zm0-44.523c-8.14 0-14.762 6.622-14.762 14.762s6.622 14.762 14.762 14.762 14.762-6.622 14.762-14.762-6.622-14.762-14.762-14.762z"/></g><g><path d="m145.328 392.423c-16.411 0-29.762-13.351-29.762-29.762 0-16.41 13.351-29.761 29.762-29.761s29.762 13.351 29.762 29.761c0 16.411-13.351 29.762-29.762 29.762zm0-44.523c-8.14 0-14.762 6.622-14.762 14.761 0 8.14 6.622 14.762 14.762 14.762s14.762-6.622 14.762-14.762c0-8.139-6.622-14.761-14.762-14.761z"/></g><g><path d="m145.328 174.896c-16.411 0-29.762-13.351-29.762-29.762s13.351-29.762 29.762-29.762 29.762 13.351 29.762 29.762-13.351 29.762-29.762 29.762zm0-44.523c-8.14 0-14.762 6.622-14.762 14.762s6.622 14.762 14.762 14.762 14.762-6.622 14.762-14.762-6.622-14.762-14.762-14.762z"/></g><g><path d="m483.705 512c-15.602 0-28.295-12.693-28.295-28.295v-199.41h-89.44c-4.142 0-7.5-3.358-7.5-7.5s3.358-7.5 7.5-7.5h96.94c4.142 0 7.5 3.358 7.5 7.5v206.91c0 7.331 5.964 13.295 13.295 13.295s13.295-5.964 13.295-13.295v-227.705c0-7.331-5.964-13.295-13.295-13.295h-206.91c-4.142 0-7.5-3.358-7.5-7.5v-186.115c0-4.142 3.358-7.5 7.5-7.5h206.91c7.331 0 13.295-5.964 13.295-13.295s-5.964-13.295-13.295-13.295h-227.705c-7.331 0-13.295 5.964-13.295 13.295v206.91c0 4.142-3.358 7.5-7.5 7.5h-186.115c-4.142 0-7.5-3.358-7.5-7.5v-96.006c0-4.142 3.358-7.5 7.5-7.5s7.5 3.358 7.5 7.5v88.506h171.115v-199.41c0-15.602 12.693-28.295 28.295-28.295h227.705c15.602 0 28.295 12.693 28.295 28.295s-12.693 28.295-28.295 28.295h-199.41v171.115h199.41c15.602 0 28.295 12.693 28.295 28.295v227.705c0 15.602-12.693 28.295-28.295 28.295z"/></g><g><path d="m256 512h-227.705c-15.602 0-28.295-12.693-28.295-28.295s12.693-28.295 28.295-28.295h199.41v-171.115h-199.41c-15.602 0-28.295-12.693-28.295-28.295v-227.705c0-15.602 12.693-28.295 28.295-28.295s28.295 12.693 28.295 28.295v79.191c0 4.142-3.358 7.5-7.5 7.5s-7.5-3.358-7.5-7.5v-79.191c0-7.331-5.964-13.295-13.295-13.295s-13.295 5.964-13.295 13.295v227.705c0 7.331 5.964 13.295 13.295 13.295h206.91c4.142 0 7.5 3.358 7.5 7.5v186.115c0 4.142-3.358 7.5-7.5 7.5h-206.91c-7.331 0-13.295 5.964-13.295 13.295s5.964 13.295 13.295 13.295h227.705c7.331 0 13.295-5.964 13.295-13.295v-206.91c0-4.142 3.358-7.5 7.5-7.5h55.889c4.142 0 7.5 3.358 7.5 7.5s-3.358 7.5-7.5 7.5h-48.389v199.41c0 15.602-12.693 28.295-28.295 28.295z"/></g></g></g></svg>