<svg id="Capa_1" enable-background="new 0 0 512 512" height="512" viewBox="0 0 512 512" width="512" xmlns="http://www.w3.org/2000/svg"><g><g><path d="m256 7.5c88.544 0 160.323 71.779 160.323 160.322v312.629h-320.646v-312.629c0-88.543 71.779-160.322 160.323-160.322z" fill="#98db7c"/><path d="m87.661 472.435h336.677c4.427 0 8.016 3.589 8.016 8.016v16.032c0 4.427-3.589 8.016-8.016 8.016h-336.677c-4.427 0-8.016-3.589-8.016-8.016v-16.032c0-4.427 3.589-8.016 8.016-8.016z" fill="#dbd8db"/><path d="m295.137 45.762c-12.332-3.999-25.468-6.198-39.137-6.198-13.67 0-26.805 2.198-39.137 6.198-10.05 3.259-16.976 12.471-16.976 23.036v50.928c0 8.854 7.178 16.032 16.032 16.032h80.161c8.854 0 16.032-7.178 16.032-16.032v-50.928c.001-10.565-6.925-19.777-16.975-23.036z" fill="#00b07b"/><path d="m424.339 167.823h-8.016c0-88.544-71.779-160.323-160.323-160.323-8.196 0-16.183.81-24.048 1.996 77.104 11.63 136.274 77.978 136.274 158.326h-280.565c-4.427 0-8.016 3.589-8.016 8.016v16.032c0 4.427 3.589 8.016 8.016 8.016h8.016v24.048h224.452c26.563 0 48.097 21.534 48.097 48.097v208.419h48.097v-280.563h8.016c4.427 0 8.016-3.589 8.016-8.016v-16.032c0-4.428-3.589-8.016-8.016-8.016z" fill="#77cc7d"/><path d="m424.339 167.823h-56.113v32.065h56.113c4.427 0 8.016-3.589 8.016-8.016v-16.032c0-4.429-3.589-8.017-8.016-8.017z" fill="#52bd7e"/><path d="m424.339 472.435h-72.145v32.065h72.145c4.427 0 8.016-3.589 8.016-8.016v-16.032c0-4.428-3.589-8.017-8.016-8.017z" fill="#c9c5c9"/><path d="m224.249 74.657-.314 61.101h64.129v-60.928c0-3.573-2.336-6.831-5.792-7.739-17.17-4.51-35.26-4.527-52.214-.135-3.451.894-5.791 4.135-5.809 7.701z" fill="#52bd7e"/></g><g><path d="m424.339 207.387c8.556 0 15.516-6.96 15.516-15.516v-16.032c0-8.556-6.96-15.516-15.516-15.516h-.692c-3.938-89.07-77.623-160.323-167.647-160.323s-163.709 71.253-167.647 160.323h-.692c-8.556 0-15.516 6.96-15.516 15.516v16.032c0 8.556 6.96 15.516 15.516 15.516h.516v257.548h-.516c-8.556 0-15.516 6.96-15.516 15.516v16.032c0 8.556 6.96 15.516 15.516 15.516h336.678c8.556 0 15.516-6.96 15.516-15.516v-16.032c0-8.556-6.96-15.516-15.516-15.516h-.516v-257.548zm-337.194-15.516v-16.032c0-.285.231-.516.516-.516h256.516c4.142 0 7.5-3.358 7.5-7.5s-3.358-7.5-7.5-7.5h-240.814c3.924-80.797 70.885-145.323 152.637-145.323s148.713 64.526 152.637 145.323h-32.395c-4.142 0-7.5 3.358-7.5 7.5s3.358 7.5 7.5 7.5h48.097c.285 0 .516.231.516.516v16.032c0 .285-.231.516-.516.516h-336.678c-.285 0-.516-.231-.516-.516zm321.678 273.065h-249.016c-4.142 0-7.5 3.358-7.5 7.5s3.358 7.5 7.5 7.5h264.532c.285 0 .516.231.516.516v16.032c0 .285-.231.516-.516.516h-336.678c-.285 0-.516-.231-.516-.516v-16.032c0-.285.231-.516.516-.516h40.081c4.142 0 7.5-3.358 7.5-7.5s-3.358-7.5-7.5-7.5h-24.565v-257.549h305.646z"/><path d="m297.451 38.628c-13.429-4.355-27.375-6.563-41.451-6.563s-28.022 2.208-41.451 6.563c-13.255 4.298-22.162 16.423-22.162 30.17v50.927c0 12.976 10.557 23.533 23.532 23.533h80.161c12.976 0 23.532-10.557 23.532-23.533v-50.927c.001-13.747-8.905-25.872-22.161-30.17zm7.162 81.098c0 4.705-3.828 8.533-8.532 8.533h-80.161c-4.705 0-8.532-3.828-8.532-8.533v-50.928c0-7.225 4.737-13.615 11.789-15.902 11.933-3.87 24.322-5.832 36.824-5.832s24.892 1.962 36.824 5.832c7.051 2.287 11.789 8.677 11.789 15.902v50.928z"/><path d="m325.869 389.525c.059.103.149.258 0 .517-.149.258-.328.258-.447.258h-57.03l8.126-4.744c3.577-2.089 4.784-6.682 2.695-10.259-2.088-3.577-6.68-4.783-10.259-2.695l-32.065 18.721c-2.303 1.345-3.718 3.811-3.718 6.477s1.416 5.132 3.719 6.477l32.065 18.721c1.189.694 2.49 1.024 3.774 1.024 2.579 0 5.089-1.332 6.484-3.72 2.088-3.577.881-8.17-2.696-10.258l-8.125-4.744h57.03c5.609 0 10.632-2.9 13.437-7.758s2.805-10.659.025-15.473l-6.436-11.321c-2.047-3.601-6.625-4.86-10.227-2.813-3.601 2.047-4.861 6.625-2.813 10.227z"/><path d="m186.578 405.3h21.013c4.142 0 7.5-3.358 7.5-7.5s-3.358-7.5-7.5-7.5h-21.013c-.119 0-.298 0-.447-.258s-.059-.414 0-.517l29.321-50.786.295 10.064c.119 4.066 3.452 7.281 7.493 7.281.074 0 .149-.001.223-.003 4.141-.121 7.399-3.576 7.277-7.716l-1.086-37.114c-.078-2.666-1.565-5.089-3.906-6.365-2.341-1.277-5.184-1.215-7.466.164l-31.786 19.189c-3.546 2.141-4.686 6.751-2.545 10.297 2.142 3.547 6.751 4.686 10.297 2.545l7.434-4.488-28.54 49.433c-2.805 4.858-2.805 10.659 0 15.517s7.827 7.757 13.436 7.757z"/><path d="m235.292 289.377c3.586 2.071 8.174.841 10.245-2.745l10.016-17.349c.06-.103.149-.258.447-.258s.388.155.447.258l31.986 55.401-8.945-5.325c-3.56-2.119-8.163-.951-10.281 2.608-2.119 3.56-.951 8.162 2.608 10.281l31.905 18.992c1.181.703 2.508 1.055 3.836 1.055 1.25 0 2.5-.312 3.631-.938 2.333-1.291 3.805-3.724 3.867-6.39l.856-37.12c.095-4.141-3.184-7.575-7.325-7.671-4.155-.099-7.576 3.185-7.671 7.325l-.195 8.461-31.282-54.182c-2.805-4.858-7.828-7.758-13.438-7.758s-10.633 2.9-13.438 7.758l-10.016 17.349c-2.07 3.591-.841 8.178 2.747 10.248z"/></g></g></svg>