<?xml version="1.0" encoding="iso-8859-1"?>
<!-- Generator: Adobe Illustrator 19.0.0, SVG Export Plug-In . SVG Version: 6.00 Build 0)  -->
<svg version="1.1" id="Capa_1" xmlns="http://www.w3.org/2000/svg" xmlns:xlink="http://www.w3.org/1999/xlink" x="0px" y="0px"
	 viewBox="0 0 512 512" style="enable-background:new 0 0 512 512;" xml:space="preserve">
<path style="fill:#64CBFF;" d="M385.423,239.778h-18.19c-2.75,0-5,2.25-5,5v77.044c0,2.75,2.25,5,5,5h18.19V239.778z"/>
<path style="fill:#9EA7AF;" d="M249.856,85.734v-4.062c0-24.675-20.071-44.679-44.828-44.679c-24.76,0-44.831,20.004-44.831,44.679
	v4.062H249.856z"/>
<path style="opacity:0.1;enable-background:new    ;" d="M185.341,85.734v-4.062c0-20.323,13.621-37.467,32.259-42.885
	c-3.99-1.16-8.205-1.794-12.571-1.794c-24.76,0-44.831,20.004-44.831,44.679v4.062C160.198,85.734,185.341,85.734,185.341,85.734z"
	/>
<path style="fill:#C5CCD3;" d="M266.808,109.185c0,2.75-2.25,5-5,5H148.246c-2.75,0-5-2.25-5-5v-18.45c0-2.75,2.25-5,5-5h113.561
	c2.75,0,5,2.25,5,5v18.45H266.808z"/>
<g style="opacity:0.1;">
	<path d="M168.439,109.185v-18.45c0-2.75,2.25-5,5-5h-25.192c-2.75,0-5,2.25-5,5v18.45c0,2.75,2.25,5,5,5h25.192
		C170.689,114.185,168.439,111.935,168.439,109.185z"/>
</g>
<path style="fill:#1DD9DD;" d="M424.016,456.9V12.5c0-2.75-2.25-5-5-5h-28.593c-2.75,0-5,2.25-5,5v444.4H424.016z"/>
<path style="opacity:0.1;enable-background:new    ;" d="M406.407,456.9V12.5c0-2.75,2.25-5,5-5h-20.984c-2.75,0-5,2.25-5,5v444.4
	H406.407z"/>
<path style="fill:#A2F9F9;" d="M45.1,499.5c0,2.75,2.25,5,5,5h411.8c2.75,0,5-2.25,5-5v-37.6c0-2.75-2.25-5-5-5H50.1
	c-2.75,0-5,2.25-5,5V499.5z"/>
<g style="opacity:0.1;">
	<path d="M70.199,499.5v-37.6c0-2.75,2.25-5,5-5H50.1c-2.75,0-5,2.25-5,5v37.6c0,2.75,2.25,5,5,5h25.1
		C72.449,504.5,70.199,502.25,70.199,499.5z"/>
</g>
<path d="M124.126,160.965c4.143,0,7.5-3.357,7.5-7.5v-9.468c0-4.143-3.357-7.5-7.5-7.5s-7.5,3.357-7.5,7.5v9.468
	C116.626,157.607,119.983,160.965,124.126,160.965z"/>
<path d="M164.577,160.965c4.143,0,7.5-3.357,7.5-7.5v-9.468c0-4.143-3.357-7.5-7.5-7.5s-7.5,3.357-7.5,7.5v9.468
	C157.077,157.607,160.435,160.965,164.577,160.965z"/>
<path d="M205.028,160.965c4.143,0,7.5-3.357,7.5-7.5v-9.468c0-4.143-3.357-7.5-7.5-7.5s-7.5,3.357-7.5,7.5v9.468
	C197.528,157.607,200.886,160.965,205.028,160.965z"/>
<path d="M245.48,160.965c4.143,0,7.5-3.357,7.5-7.5v-9.468c0-4.143-3.357-7.5-7.5-7.5s-7.5,3.357-7.5,7.5v9.468
	C237.98,157.607,241.337,160.965,245.48,160.965z"/>
<path d="M285.931,160.965c4.143,0,7.5-3.357,7.5-7.5v-9.468c0-4.143-3.357-7.5-7.5-7.5s-7.5,3.357-7.5,7.5v9.468
	C278.431,157.607,281.788,160.965,285.931,160.965z"/>
<path d="M144.352,203.039c4.143,0,7.5-3.357,7.5-7.5v-9.468c0-4.143-3.357-7.5-7.5-7.5c-4.142,0-7.5,3.357-7.5,7.5v9.468
	C136.852,199.682,140.21,203.039,144.352,203.039z"/>
<path d="M184.802,203.039c4.143,0,7.5-3.357,7.5-7.5v-9.468c0-4.143-3.357-7.5-7.5-7.5s-7.5,3.357-7.5,7.5v9.468
	C177.302,199.682,180.659,203.039,184.802,203.039z"/>
<path d="M225.253,203.039c4.143,0,7.5-3.357,7.5-7.5v-9.468c0-4.143-3.357-7.5-7.5-7.5s-7.5,3.357-7.5,7.5v9.468
	C217.753,199.682,221.11,203.039,225.253,203.039z"/>
<path d="M265.704,203.039c4.143,0,7.5-3.357,7.5-7.5v-9.468c0-4.143-3.357-7.5-7.5-7.5s-7.5,3.357-7.5,7.5v9.468
	C258.204,199.682,261.561,203.039,265.704,203.039z"/>
<path d="M124.126,239.852c4.143,0,7.5-3.357,7.5-7.5v-9.467c0-4.143-3.357-7.5-7.5-7.5s-7.5,3.357-7.5,7.5v9.467
	C116.626,236.495,119.983,239.852,124.126,239.852z"/>
<path d="M157.077,232.352c0,4.143,3.357,7.5,7.5,7.5s7.5-3.357,7.5-7.5v-9.467c0-4.143-3.357-7.5-7.5-7.5s-7.5,3.357-7.5,7.5
	V232.352z"/>
<path d="M197.528,232.352c0,4.143,3.357,7.5,7.5,7.5s7.5-3.357,7.5-7.5v-9.467c0-4.143-3.357-7.5-7.5-7.5s-7.5,3.357-7.5,7.5
	V232.352z"/>
<path d="M237.98,232.352c0,4.143,3.357,7.5,7.5,7.5s7.5-3.357,7.5-7.5v-9.467c0-4.143-3.357-7.5-7.5-7.5s-7.5,3.357-7.5,7.5V232.352
	z"/>
<path d="M278.431,232.352c0,4.143,3.357,7.5,7.5,7.5s7.5-3.357,7.5-7.5v-9.467c0-4.143-3.357-7.5-7.5-7.5s-7.5,3.357-7.5,7.5
	V232.352z"/>
<path d="M136.852,274.426c0,4.143,3.358,7.5,7.5,7.5c4.143,0,7.5-3.357,7.5-7.5v-9.466c0-4.143-3.357-7.5-7.5-7.5
	c-4.142,0-7.5,3.357-7.5,7.5V274.426z"/>
<path d="M177.302,274.426c0,4.143,3.357,7.5,7.5,7.5s7.5-3.357,7.5-7.5v-9.466c0-4.143-3.357-7.5-7.5-7.5s-7.5,3.357-7.5,7.5
	V274.426z"/>
<path d="M217.753,274.426c0,4.143,3.357,7.5,7.5,7.5s7.5-3.357,7.5-7.5v-9.466c0-4.143-3.357-7.5-7.5-7.5s-7.5,3.357-7.5,7.5
	V274.426z"/>
<path d="M258.204,274.426c0,4.143,3.357,7.5,7.5,7.5s7.5-3.357,7.5-7.5v-9.466c0-4.143-3.357-7.5-7.5-7.5s-7.5,3.357-7.5,7.5
	V274.426z"/>
<path d="M124.126,318.741c4.143,0,7.5-3.357,7.5-7.5v-9.467c0-4.143-3.357-7.5-7.5-7.5s-7.5,3.357-7.5,7.5v9.467
	C116.626,315.384,119.983,318.741,124.126,318.741z"/>
<path d="M157.077,311.241c0,4.143,3.357,7.5,7.5,7.5s7.5-3.357,7.5-7.5v-9.467c0-4.143-3.357-7.5-7.5-7.5s-7.5,3.357-7.5,7.5
	V311.241z"/>
<path d="M197.528,311.241c0,4.143,3.357,7.5,7.5,7.5s7.5-3.357,7.5-7.5v-9.467c0-4.143-3.357-7.5-7.5-7.5s-7.5,3.357-7.5,7.5
	V311.241z"/>
<path d="M237.98,311.241c0,4.143,3.357,7.5,7.5,7.5s7.5-3.357,7.5-7.5v-9.467c0-4.143-3.357-7.5-7.5-7.5s-7.5,3.357-7.5,7.5V311.241
	z"/>
<path d="M278.431,311.241c0,4.143,3.357,7.5,7.5,7.5s7.5-3.357,7.5-7.5v-9.467c0-4.143-3.357-7.5-7.5-7.5s-7.5,3.357-7.5,7.5
	V311.241z"/>
<path d="M157.077,397.167c0,4.143,3.357,7.5,7.5,7.5s7.5-3.357,7.5-7.5V387.7c0-4.143-3.357-7.5-7.5-7.5s-7.5,3.357-7.5,7.5V397.167
	z"/>
<path d="M197.528,397.167c0,4.143,3.357,7.5,7.5,7.5s7.5-3.357,7.5-7.5V387.7c0-4.143-3.357-7.5-7.5-7.5s-7.5,3.357-7.5,7.5V397.167
	z"/>
<path d="M237.98,397.167c0,4.143,3.357,7.5,7.5,7.5s7.5-3.357,7.5-7.5V387.7c0-4.143-3.357-7.5-7.5-7.5s-7.5,3.357-7.5,7.5V397.167z
	"/>
<path d="M136.852,354.366c0,4.143,3.358,7.5,7.5,7.5c4.143,0,7.5-3.357,7.5-7.5V344.9c0-4.143-3.357-7.5-7.5-7.5
	c-4.142,0-7.5,3.357-7.5,7.5V354.366z"/>
<path d="M177.302,354.366c0,4.143,3.357,7.5,7.5,7.5s7.5-3.357,7.5-7.5V344.9c0-4.143-3.357-7.5-7.5-7.5s-7.5,3.357-7.5,7.5V354.366
	z"/>
<path d="M217.753,354.366c0,4.143,3.357,7.5,7.5,7.5s7.5-3.357,7.5-7.5V344.9c0-4.143-3.357-7.5-7.5-7.5s-7.5,3.357-7.5,7.5V354.366
	z"/>
<path d="M258.204,354.366c0,4.143,3.357,7.5,7.5,7.5s7.5-3.357,7.5-7.5V344.9c0-4.143-3.357-7.5-7.5-7.5s-7.5,3.357-7.5,7.5V354.366
	z"/>
<path d="M461.9,449.4h-30.385V405c0-4.143-3.357-7.5-7.5-7.5s-7.5,3.357-7.5,7.5v44.4h-23.593V15h23.593v353.5
	c0,4.143,3.357,7.5,7.5,7.5s7.5-3.357,7.5-7.5v-356c0-6.893-5.607-12.5-12.5-12.5H210.028c-6.893,0-12.5,5.607-12.5,12.5v17.538
	c-24.198,3.479-43.086,23.522-44.705,48.196h-4.577c-6.893,0-12.5,5.607-12.5,12.5v18.45c0,6.893,5.607,12.5,12.5,12.5h113.561
	c6.893,0,12.5-5.607,12.5-12.5v-18.45c0-6.893-5.607-12.5-12.5-12.5h-4.577c-1.619-24.674-20.506-44.717-44.702-48.196V15h165.395
	v217.278h-10.69c-6.893,0-12.5,5.607-12.5,12.5v77.044c0,6.893,5.607,12.5,12.5,12.5h10.69V449.4H158.999
	c-4.143,0-7.5,3.357-7.5,7.5s3.357,7.5,7.5,7.5H459.4V497H52.6v-32.6h71.9c4.143,0,7.5-3.357,7.5-7.5s-3.357-7.5-7.5-7.5H50.1
	c-6.893,0-12.5,5.607-12.5,12.5v37.6c0,6.893,5.607,12.5,12.5,12.5h411.8c6.893,0,12.5-5.607,12.5-12.5v-37.6
	C474.4,455.008,468.793,449.4,461.9,449.4z M242.19,78.234H236c-4.143,0-7.5,3.357-7.5,7.5s3.357,7.5,7.5,7.5h23.308v13.45H150.746
	v-13.45H200c4.143,0,7.5-3.357,7.5-7.5s-3.357-7.5-7.5-7.5h-32.137c1.748-18.894,17.746-33.74,37.165-33.74
	S240.442,59.341,242.19,78.234z M377.923,319.322h-8.19v-72.044h8.19V319.322z"/>
<g>
</g>
<g>
</g>
<g>
</g>
<g>
</g>
<g>
</g>
<g>
</g>
<g>
</g>
<g>
</g>
<g>
</g>
<g>
</g>
<g>
</g>
<g>
</g>
<g>
</g>
<g>
</g>
<g>
</g>
</svg>
