<svg id="Capa_1" enable-background="new 0 0 512 512" height="512" viewBox="0 0 512 512" width="512" xmlns="http://www.w3.org/2000/svg"><g><g><path d="m397.423 7.5h-282.846c-16.737 0-30.305 13.568-30.305 30.305v309.11h343.455v-309.11c.001-16.737-13.567-30.305-30.304-30.305z" fill="#d3effb"/></g><g><path d="m397.423 7.5h-29.295c16.737 0 30.305 13.568 30.305 30.305v309.11h29.295v-309.11c0-16.737-13.568-30.305-30.305-30.305z" fill="#b1e4f9"/></g><g><path d="m397.423 411.565h-282.846c-16.737 0-30.305-13.568-30.305-30.305v-34.346h343.455v34.346c.001 16.737-13.567 30.305-30.304 30.305z" fill="#407093"/></g><g><path d="m398.433 346.915v34.346c0 16.737-13.568 30.305-30.305 30.305h29.295c16.737 0 30.305-13.568 30.305-30.305v-34.346z" fill="#365e7d"/></g><g><circle cx="256" cy="102.455" fill="#407093" r="32.325"/></g><g><path d="m269.646 73.151c1.934 4.147 3.021 8.769 3.021 13.647 0 17.853-14.473 32.325-32.325 32.325-4.878 0-9.5-1.087-13.646-3.021 5.146 11.031 16.329 18.679 29.304 18.679 17.853 0 32.325-14.473 32.325-32.325 0-12.976-7.648-24.159-18.679-29.305z" fill="#365e7d"/></g><g><circle cx="350.955" cy="290.346" fill="#90d8f9" r="24.244"/></g><g><path d="m360.929 268.25c1.376 3.043 2.148 6.417 2.148 9.974 0 13.39-10.854 24.244-24.244 24.244-3.557 0-6.931-.772-9.974-2.148 3.804 8.413 12.263 14.27 22.096 14.27 13.39 0 24.244-10.854 24.244-24.244 0-9.833-5.857-18.293-14.27-22.096z" fill="#75cef9"/></g><g><circle cx="161.045" cy="290.346" fill="#df75a5" r="24.244"/></g><g><path d="m171.019 268.25c1.376 3.043 2.148 6.417 2.148 9.974 0 13.39-10.854 24.244-24.244 24.244-3.557 0-6.931-.772-9.974-2.148 3.804 8.413 12.263 14.27 22.096 14.27 13.39 0 24.244-10.854 24.244-24.244 0-9.833-5.858-18.293-14.27-22.096z" fill="#dd5790"/></g><g><path d="m300.447 200.441h-88.894c-3.347 0-6.061-2.714-6.061-6.061v-20.203c0-3.347 2.714-6.061 6.061-6.061h88.894c3.347 0 6.061 2.714 6.061 6.061v20.203c0 3.347-2.713 6.061-6.061 6.061z" fill="#f6e266"/></g><g><path d="m300.447 168.116h-22.224c3.347 0 6.061 2.714 6.061 6.061v20.203c0 3.347-2.714 6.061-6.061 6.061h22.224c3.347 0 6.061-2.714 6.061-6.061v-20.203c0-3.348-2.713-6.061-6.061-6.061z" fill="#f1d333"/></g><g><path d="m320.65 458.033h60.61v32.325h-60.61z" fill="#d3effb" transform="matrix(0 1 -1 0 825.15 123.24)"/></g><g><path d="m334.793 400.453h32.325v54.549h-32.325z" fill="#f6e266" transform="matrix(0 1 -1 0 778.683 76.772)"/></g><g><path d="m130.74 458.033h60.61v32.325h-60.61z" fill="#d3effb" transform="matrix(0 1 -1 0 635.24 313.15)"/></g><g><path d="m149.933 438.839h22.224v32.325h-22.224z" fill="#b1e4f9" transform="matrix(0 1 -1 0 616.047 293.957)"/></g><g><path d="m339.844 438.839h22.224v32.325h-22.224z" fill="#b1e4f9" transform="matrix(0 1 -1 0 805.957 104.047)"/></g><g><path d="m144.882 400.453h32.325v54.549h-32.325z" fill="#f6e266" transform="matrix(0 1 -1 0 588.772 266.683)"/></g><g><path d="m280.825 282.77v15.152c0 4.143 3.358 7.5 7.5 7.5s7.5-3.357 7.5-7.5v-15.152c0-4.143-3.358-7.5-7.5-7.5s-7.5 3.357-7.5 7.5z"/><path d="m248.5 282.77v15.152c0 4.143 3.358 7.5 7.5 7.5s7.5-3.357 7.5-7.5v-15.152c0-4.143-3.358-7.5-7.5-7.5s-7.5 3.357-7.5 7.5z"/><path d="m216.175 282.77v15.152c0 4.143 3.358 7.5 7.5 7.5s7.5-3.357 7.5-7.5v-15.152c0-4.143-3.358-7.5-7.5-7.5s-7.5 3.357-7.5 7.5z"/><path d="m295.825 102.455c0-21.96-17.866-39.825-39.825-39.825s-39.825 17.865-39.825 39.825 17.866 39.825 39.825 39.825 39.825-17.865 39.825-39.825zm-64.65 0c0-13.688 11.137-24.825 24.825-24.825s24.825 11.137 24.825 24.825-11.137 24.825-24.825 24.825-24.825-11.136-24.825-24.825z"/><path d="m382.699 290.346c0-17.504-14.24-31.744-31.744-31.744-17.503 0-31.744 14.24-31.744 31.744s14.24 31.744 31.744 31.744 31.744-14.24 31.744-31.744zm-48.488 0c0-9.232 7.511-16.744 16.744-16.744s16.744 7.512 16.744 16.744-7.511 16.744-16.744 16.744c-9.232 0-16.744-7.512-16.744-16.744z"/><path d="m192.789 290.346c0-17.504-14.24-31.744-31.744-31.744s-31.744 14.24-31.744 31.744 14.24 31.744 31.744 31.744c17.503 0 31.744-14.24 31.744-31.744zm-48.488 0c0-9.232 7.511-16.744 16.744-16.744 9.232 0 16.744 7.512 16.744 16.744s-7.511 16.744-16.744 16.744-16.744-7.512-16.744-16.744z"/><path d="m197.992 174.177v20.203c0 7.478 6.083 13.562 13.561 13.562h88.895c7.478 0 13.561-6.084 13.561-13.562v-20.203c0-7.478-6.083-13.561-13.561-13.561h-88.895c-7.478 0-13.561 6.083-13.561 13.561zm15 1.439h86.017v17.325h-86.017z"/><path d="m397.42 0h-282.84c-20.849 0-37.81 16.957-37.81 37.8v219.89c0 4.143 3.358 7.5 7.5 7.5s7.5-3.357 7.5-7.5v-219.89c0-12.572 10.232-22.8 22.81-22.8h282.84c12.578 0 22.81 10.228 22.81 22.8v57.13c0 4.143 3.358 7.5 7.5 7.5s7.5-3.357 7.5-7.5v-57.13c0-20.843-16.961-37.8-37.81-37.8z"/><path d="m427.73 122.43c-4.142 0-7.5 3.357-7.5 7.5v209.485h-328.46v-46.725c0-4.143-3.358-7.5-7.5-7.5s-7.5 3.357-7.5 7.5v88.569c0 20.849 16.961 37.811 37.81 37.811h11.69v24.82c0 4.143 3.358 7.5 7.5 7.5h3.612v53.11c0 4.143 3.358 7.5 7.5 7.5s7.5-3.357 7.5-7.5v-53.109h17.325v53.109c0 4.143 3.358 7.5 7.5 7.5s7.5-3.357 7.5-7.5v-53.109h3.612c4.142 0 7.5-3.357 7.5-7.5v-24.82h69.291c4.142 0 7.5-3.357 7.5-7.5s-3.358-7.5-7.5-7.5h-150.53c-12.578 0-22.81-10.232-22.81-22.811v-26.845h328.46v26.845c0 12.578-10.232 22.811-22.81 22.811h-97.31c-4.142 0-7.5 3.357-7.5 7.5s3.358 7.5 7.5 7.5h16.071v24.82c0 4.143 3.358 7.5 7.5 7.5h3.612v53.109c0 4.143 3.358 7.5 7.5 7.5s7.5-3.357 7.5-7.5v-53.109h17.325v53.109c0 4.143 3.358 7.5 7.5 7.5s7.5-3.357 7.5-7.5v-53.109h3.612c4.142 0 7.5-3.357 7.5-7.5v-24.82h11.69c20.849 0 37.81-16.962 37.81-37.811v-251.33c0-4.143-3.358-7.5-7.5-7.5zm-246.911 313.961h-39.549v-17.32h39.549zm189.91 0h-39.549v-17.32h39.549z"/></g></g></svg>