<svg id="Capa_1" enable-background="new 0 0 512 512" height="512" viewBox="0 0 512 512" width="512" xmlns="http://www.w3.org/2000/svg"><g><g><path d="m45.719 196.448h415.319v190.305h-415.319z" fill="#dd7f66"/><g><path d="m444.824 216.463h42.917v157.783h-42.917z" fill="#eaa998"/><path d="m444.824 216.463h21.459v157.783h-21.459z" fill="#e49280"/></g><g><path d="m24.26 216.463h42.917v157.783h-42.917z" fill="#eaa998"/><path d="m24.26 216.463h21.459v157.783h-21.459z" fill="#e49280"/></g><g><path d="m234.542 216.463h42.917v157.783h-42.917z" fill="#eaa998"/><path d="m234.542 216.463h21.459v157.783h-21.459z" fill="#e49280"/></g><g><path d="m80.992 395.469v100.189c0 4.88-3.95 8.84-8.84 8.84h-27.71c-4.88 0-8.83-3.96-8.83-8.84v-100.189z" fill="#e49280"/><path d="m476.39 395.469v100.189c0 4.88-3.95 8.84-8.83 8.84h-27.71c-4.89 0-8.84-3.96-8.84-8.84v-100.189z" fill="#e49280"/><g fill="#dd7f66"><path d="m461.038 504.5h-21.19c-4.89 0-8.84-3.96-8.84-8.84v-100.19h21.19v100.19c0 4.88 3.96 8.84 8.84 8.84z"/><path d="m65.638 504.5h-21.19c-4.89 0-8.84-3.96-8.84-8.84v-100.19h21.19v100.19c.001 4.88 3.96 8.84 8.84 8.84z"/><path d="m35.612 395.469h45.38v39.28h-45.38z"/><path d="m431.01 395.469h45.38v39.28h-45.38z"/></g></g><path d="m182.84 73.542v-46.101c0-11.01 8.92-19.94 19.94-19.94 11.01 0 19.93 8.93 19.93 19.94v46.101" fill="#dd7f66"/><path d="m493.292 363.036h-474.582c-6.19 0-11.208 5.018-11.208 11.208v25.02c0 6.19 5.018 11.208 11.208 11.208h474.582c6.19 0 11.208-5.018 11.208-11.208v-25.02c0-6.191-5.018-11.208-11.208-11.208z" fill="#eaa998"/><path d="m58.652 410.473h-39.94c-6.19 0-11.21-5.02-11.21-11.21v-25.02c0-6.19 5.02-11.2 11.21-11.2h39.94c-6.19 0-11.21 5.01-11.21 11.2v25.02c0 6.19 5.02 11.21 11.21 11.21z" fill="#e49280"/><path d="m493.292 180.238h-474.582c-6.19 0-11.208 5.018-11.208 11.208v25.02c0 6.19 5.018 11.208 11.208 11.208h474.582c6.19 0 11.208-5.018 11.208-11.208v-25.02c0-6.191-5.018-11.208-11.208-11.208z" fill="#eaa998"/><path d="m58.65 227.673h-39.94c-6.19 0-11.21-5.02-11.21-11.21v-25.02c0-6.19 5.02-11.2 11.21-11.2h39.94c-6.19 0-11.21 5.01-11.21 11.2v25.02c0 6.19 5.02 11.21 11.21 11.21z" fill="#e49280"/><path d="m253.911 68.501-14.02 88.94c-2.07 13.13-13.38 22.8-26.67 22.8h-97.36c-13.29 0-24.61-9.67-26.68-22.8l-14.02-88.94c-1.09-6.94 4.28-13.23 11.31-13.23h17.67v-27.83c0-11.01 8.92-19.94 19.94-19.94 11.01 0 19.93 8.93 19.93 19.94v27.83h98.59c7.04 0 12.41 6.29 11.31 13.23z" fill="#e49280"/><path d="m145.552 180.24h-29.69c-13.29 0-24.61-9.67-26.68-22.8l-14.02-88.94c-1.09-6.94 4.28-13.23 11.31-13.23h29.69c-7.03 0-12.4 6.29-11.31 13.23l14.02 88.94c2.07 13.13 13.39 22.8 26.68 22.8z" fill="#dd7f66"/><path d="m81.774 127.755h165.526c4.258 0 7.883-3.098 8.546-7.304l2.938-18.639c.828-5.25-3.231-9.998-8.546-9.998h-171.402c-5.315 0-9.373 4.748-8.546 9.998l2.938 18.639c.663 4.206 4.288 7.304 8.546 7.304z" fill="#e8edf2"/><path d="m132.574 127.755h-50.8c-4.26 0-7.89-3.09-8.55-7.3l-2.94-18.64c-.83-5.25 3.23-10 8.55-10h50.8c-5.32 0-9.38 4.75-8.55 10l2.94 18.64c.66 4.21 4.29 7.3 8.55 7.3z" fill="#d9e7ec"/><path d="m461.05 149.73c3.268 3.278 5.277 7.815 5.229 12.815-.094 9.877-8.454 17.695-18.332 17.695h-116.521c-19.741 0-35.745-16.003-35.745-35.745 0-19.741 16.003-35.745 35.745-35.745h116.984c4.93 0 9.4 2 12.64 5.23 3.23 3.24 5.23 7.7 5.23 12.64 0 9.87-8 17.88-17.87 17.88 4.93 0 9.4 2 12.64 5.23z" fill="#8abbd5"/><path d="m366.441 180.235h-35.02c-19.74 0-35.74-16-35.74-35.74v-.01c0-19.74 16-35.74 35.74-35.74h35.02c-19.75 0-35.75 16-35.75 35.74v.01c0 19.74 16 35.74 35.75 35.74z" fill="#6cabca"/></g><path d="m512 216.461v-25.02c0-10.311-8.393-18.7-18.71-18.7h-21.789c1.427-3.1 2.242-6.523 2.278-10.125.069-6.826-2.541-13.254-7.367-18.129 4.551-4.59 7.368-10.906 7.368-17.866 0-6.767-2.635-13.136-7.435-17.952-4.798-4.784-11.168-7.418-17.935-7.418h-15.38c-4.142 0-7.5 3.358-7.5 7.5s3.358 7.5 7.5 7.5h15.38c2.769 0 5.377 1.08 7.328 3.025 1.961 1.968 3.042 4.576 3.042 7.345 0 5.722-4.649 10.377-10.365 10.38-.002 0-.003 0-.005 0h-116.984c-4.142 0-7.5 3.358-7.5 7.5s3.358 7.5 7.5 7.5h116.974.01c2.769 0 5.377 1.08 7.329 3.025 1.989 1.996 3.07 4.638 3.042 7.439-.057 5.666-4.916 10.276-10.83 10.276h-116.521c-15.577 0-28.25-12.673-28.25-28.25 0-7.549 2.937-14.638 8.273-19.967 5.335-5.335 12.43-8.273 19.977-8.273h66.6c4.142 0 7.5-3.358 7.5-7.5s-3.358-7.5-7.5-7.5h-66.6c-11.554 0-22.415 4.499-30.58 12.663-8.17 8.158-12.67 19.018-12.67 30.577 0 10.792 3.982 20.665 10.543 28.25h-56.997c2.802-4.115 4.749-8.901 5.574-14.133l3.752-23.802c6.267-1.475 11.158-6.563 12.203-13.188l2.938-18.639c.736-4.672-.604-9.414-3.677-13.009-1.122-1.312-2.434-2.415-3.874-3.293l2.677-17.003c.868-5.478-.701-11.04-4.305-15.259-3.606-4.223-8.859-6.645-14.413-6.645h-12.391v-20.33c0-15.13-12.305-27.439-27.43-27.439-15.13 0-27.44 12.309-27.44 27.439v20.33h-23.829v-20.33c0-15.13-12.305-27.439-27.43-27.439-15.13 0-27.44 12.309-27.44 27.439v20.33h-10.17c-5.544 0-10.791 2.418-14.397 6.635-3.607 4.218-5.183 9.78-4.321 15.262l2.678 17.011c-1.44.878-2.752 1.98-3.873 3.293-3.073 3.595-4.413 8.337-3.677 13.009l2.938 18.639c1.045 6.625 5.936 11.712 12.202 13.188l3.752 23.802c.825 5.232 2.773 10.017 5.576 14.133h-11.199c-4.142 0-7.5 3.358-7.5 7.5s3.358 7.5 7.5 7.5h417.14c2.046 0 3.71 1.66 3.71 3.7v25.02c0 2.046-1.664 3.71-3.71 3.71h-474.58c-2.046 0-3.71-1.664-3.71-3.71v-25.02c0-2.04 1.664-3.7 3.71-3.7h22.44c4.142 0 7.5-3.358 7.5-7.5s-3.358-7.5-7.5-7.5h-22.44c-10.317 0-18.71 8.389-18.71 18.7v25.02c0 9.658 7.357 17.629 16.76 18.607v120.565c-9.403.978-16.76 8.949-16.76 18.607v25.02c0 10.317 8.393 18.71 18.71 18.71h9.398v77.689c0 9.009 7.33 16.338 16.338 16.338h27.709c9.009 0 16.338-7.33 16.338-16.338v-77.689h189.687c4.142 0 7.5-3.358 7.5-7.5s-3.358-7.5-7.5-7.5h-259.47c-2.046 0-3.71-1.665-3.71-3.71v-25.02c0-2.046 1.664-3.71 3.71-3.71h474.58c2.046 0 3.71 1.665 3.71 3.71v25.02c0 2.046-1.664 3.71-3.71 3.71h-180.11c-4.142 0-7.5 3.358-7.5 7.5s3.358 7.5 7.5 7.5h110.328v77.689c0 9.009 7.33 16.338 16.338 16.338h27.709c9.009 0 16.338-7.33 16.338-16.338v-77.689h9.396c10.317 0 18.71-8.394 18.71-18.71v-25.02c0-9.658-7.355-17.628-16.758-18.607v-120.566c9.404-.98 16.759-8.95 16.759-18.607zm-434.04-116.744c.157-.184.437-.403.875-.403h171.402c.438 0 .718.219.875.403s.33.494.262.927l-2.938 18.639c-.088.563-.567.972-1.137.972h-165.526c-.57 0-1.048-.409-1.137-.972l-2.938-18.639c-.068-.433.105-.743.262-.927zm127.054 35.538h30.782l-3.313 21.017c-1.504 9.542-9.604 16.468-19.261 16.468h-11.002c.315-1.614.548-3.321.665-5.138zm-80.955 0 2.129 32.35c.12 1.815.354 3.522.671 5.135h-10.997c-9.662 0-17.767-6.926-19.271-16.468l-3.313-21.017zm17.097 31.362-2.064-31.362h50.889l-2.064 31.37c-.185 2.849-.747 4.923-1.23 6.115h-44.292c-.485-1.192-1.051-3.27-1.239-6.123zm104.452-102.461c.44.516 1.143 1.614.895 3.178l-2.673 16.979h-35.457l1.421-21.543h32.808c1.586.001 2.564.869 3.006 1.386zm-55.268-36.715c0-6.859 5.581-12.439 12.44-12.439 6.854 0 12.43 5.58 12.43 12.439v20.33h-24.87zm4.42 35.33-1.421 21.543h-57.605l-1.421-21.543zm-70.678-47.77c6.854 0 12.43 5.581 12.43 12.439v20.33h-24.87v-20.33c0-6.858 5.58-12.439 12.44-12.439zm-40.607 49.154c.442-.517 1.419-1.384 2.997-1.384h32.808l1.421 21.543h-35.457l-2.673-16.977c-.245-1.563.461-2.665.904-3.182zm-9.98 431.505c0 .738-.601 1.338-1.338 1.338h-27.71c-.738 0-1.338-.601-1.338-1.338v-77.689h30.386zm395.399 0c0 .738-.601 1.338-1.338 1.338h-27.709c-.738 0-1.338-.601-1.338-1.338v-77.689h30.386v77.689zm-241.852-185.24h-152.364v-30.13h152.365v30.13zm0-45.13h-152.364v-30.117h152.365v30.117zm-152.364 60.13h152.365v30.111h-152.365zm167.364-90.247h27.917v120.358h-27.917zm195.283 75.247h-152.365v-30.13h152.365zm-152.365 15h152.365v30.111h-152.365zm152.365-60.13h-152.365v-30.117h152.365zm-405.565-30.117h27.917v120.358h-27.917zm420.565 120.358v-120.358h27.917v120.358z"/></g></svg>