<svg id="Capa_1" enable-background="new 0 0 512 512" height="512" viewBox="0 0 512 512" width="512" xmlns="http://www.w3.org/2000/svg"><g><g><path d="m33.538 33.539h444.923v444.923h-444.923z" fill="#63606b"/><g><g fill="#f1f6f7"><path d="m297.008 184.041c10.764-28.711 10.527-60.404-.704-88.964-4.67-11.873-15.734-20.102-28.466-20.928-3.913-.254-7.86-.383-11.837-.383-20.514 0-40.232 3.398-58.632 9.65-5.192 1.764-7.321 7.95-4.255 12.496 16.812 24.93 28.456 52.916 34.342 82.305z"/><path d="m214.296 184.441c-19.483-23.689-47.056-39.338-77.415-43.893-12.617-1.893-25.276 3.575-32.357 14.188-2.176 3.262-4.262 6.616-6.25 10.06-10.257 17.766-17.173 36.541-20.958 55.602-1.068 5.379 3.224 10.315 8.694 9.933 29.982-2.094 60.025 1.811 88.407 11.398z"/><path d="m173.173 256.267c-30.219 5.046-57.521 21.092-76.624 45.081-7.948 9.98-9.542 23.677-3.891 35.116 1.737 3.516 3.598 6.998 5.587 10.443 10.257 17.766 23.059 33.143 37.673 45.951 4.124 3.614 10.545 2.366 12.949-2.563 13.159-26.973 31.529-51.008 53.978-70.778z"/><path d="m214.869 327.888c-10.696 28.664-10.438 60.286.771 88.787 4.669 11.873 15.734 20.102 28.466 20.928 3.913.254 7.86.383 11.837.383 20.514 0 40.232-3.398 58.632-9.651 5.192-1.764 7.321-7.949 4.255-12.496-16.765-24.86-28.389-52.758-34.29-82.056z"/><path d="m297.804 327.501c19.475 23.582 46.981 39.161 77.258 43.703 12.617 1.893 25.276-3.575 32.357-14.188 2.176-3.262 4.262-6.616 6.25-10.06 10.257-17.766 17.173-36.541 20.958-55.601 1.068-5.379-3.224-10.315-8.694-9.933-29.948 2.091-59.957-1.803-88.311-11.366z"/><path d="m338.82 255.477c30.199-5.056 57.481-21.097 76.574-45.072 7.948-9.98 9.542-23.677 3.891-35.116-1.737-3.516-3.599-6.998-5.587-10.443-10.257-17.766-23.059-33.143-37.673-45.951-4.124-3.614-10.545-2.366-12.95 2.563-13.181 27.019-31.59 51.09-54.091 70.879z"/></g></g><path d="m472.5 7.5h-433c-17.673 0-32 14.327-32 32v433c0 17.673 14.327 32 32 32h433c17.673 0 32-14.327 32-32v-433c0-17.673-14.327-32-32-32zm-216.5 463.867c-118.944 0-215.367-96.423-215.367-215.367s96.423-215.367 215.367-215.367 215.367 96.423 215.367 215.367-96.423 215.367-215.367 215.367z" fill="#74727d"/><g fill="#f1f6f7"><ellipse cx="61.342" cy="61.342" rx="20.708" ry="20.708" transform="matrix(.214 -.977 .977 .214 -11.686 108.166)"/><ellipse cx="450.658" cy="61.342" rx="20.708" ry="20.708" transform="matrix(.707 -.707 .707 .707 88.62 336.63)"/><ellipse cx="61.342" cy="450.658" rx="20.708" ry="20.708" transform="matrix(.767 -.642 .642 .767 -275.131 144.648)"/><ellipse cx="450.658" cy="450.658" rx="20.708" ry="20.708" transform="matrix(.23 -.973 .973 .23 -91.484 785.721)"/></g><path d="m270.027 335.055 46.404-29.229 9.908-64.097-29.725-50.775-39.922-16.975h-12.192c-40.302 5.6-71.334 40.177-71.334 82.021s31.032 76.42 71.333 82.021z" fill="#e2dee2"/><path d="m261.366 256h-30.734c-4.289 0-7.766-3.477-7.766-7.766v-17.602c0-4.289 3.477-7.766 7.766-7.766h30.734c4.289 0 7.766 3.477 7.766 7.766v17.602c0 4.289-3.477 7.766-7.766 7.766z" fill="#a0d977"/><path d="m256 173.167c-3.905 0-7.739.29-11.5.813 40.301 5.601 71.333 40.177 71.333 82.021s-31.032 76.42-71.333 82.021c3.761.523 7.595.813 11.5.813 45.748 0 82.833-37.086 82.833-82.833s-37.085-82.835-82.833-82.835z" fill="#cbc4cc"/><path d="m281.133 222.867h-22.986c4.418 0 8 3.582 8 8v17.133c0 4.418-3.582 8-8 8h22.986c4.418 0 8-3.582 8-8v-17.133c0-4.419-3.581-8-8-8z" fill="#7cd682"/><path d="m472.5 7.5h-23c17.673 0 32 14.327 32 32v433c0 17.673-14.327 32-32 32h23c17.673 0 32-14.327 32-32v-433c0-17.673-14.327-32-32-32z" fill="#63606b"/></g><g><path d="m472.5 0h-433c-21.78 0-39.5 17.72-39.5 39.5v60.327c0 4.142 3.358 7.5 7.5 7.5s7.5-3.358 7.5-7.5v-60.327c0-13.509 10.991-24.5 24.5-24.5h433c13.51 0 24.5 10.991 24.5 24.5v433c0 13.509-10.99 24.5-24.5 24.5h-433c-13.509 0-24.5-10.991-24.5-24.5v-337.673c0-4.142-3.358-7.5-7.5-7.5s-7.5 3.358-7.5 7.5v337.673c0 21.78 17.72 39.5 39.5 39.5h433c21.78 0 39.5-17.72 39.5-39.5v-433c0-21.78-17.72-39.5-39.5-39.5z"/><path d="m89.55 61.342c0-15.554-12.654-28.208-28.208-28.208s-28.208 12.654-28.208 28.208 12.654 28.208 28.208 28.208c15.553 0 28.208-12.654 28.208-28.208zm-41.417 0c0-7.283 5.925-13.208 13.208-13.208s13.208 5.925 13.208 13.208-5.925 13.208-13.208 13.208c-7.282 0-13.208-5.926-13.208-13.208z"/><path d="m478.867 61.342c0-15.554-12.654-28.208-28.209-28.208-15.554 0-28.208 12.654-28.208 28.208s12.654 28.208 28.208 28.208c15.555 0 28.209-12.654 28.209-28.208zm-41.417 0c0-7.283 5.925-13.208 13.208-13.208s13.209 5.925 13.209 13.208-5.926 13.208-13.209 13.208-13.208-5.926-13.208-13.208z"/><path d="m61.342 478.867c15.554 0 28.208-12.654 28.208-28.208s-12.654-28.208-28.208-28.208-28.208 12.654-28.208 28.208c-.001 15.553 12.654 28.208 28.208 28.208zm0-41.417c7.283 0 13.208 5.925 13.208 13.208s-5.925 13.208-13.208 13.208-13.208-5.925-13.208-13.208c-.001-7.283 5.925-13.208 13.208-13.208z"/><path d="m422.45 450.658c0 15.554 12.654 28.208 28.208 28.208 15.555 0 28.209-12.654 28.209-28.208s-12.654-28.208-28.209-28.208c-15.554 0-28.208 12.654-28.208 28.208zm41.417 0c0 7.283-5.926 13.208-13.209 13.208s-13.208-5.925-13.208-13.208 5.925-13.208 13.208-13.208 13.209 5.925 13.209 13.208z"/><path d="m98.41 413.59c42.094 42.094 98.061 65.276 157.59 65.276s115.496-23.182 157.591-65.276c42.094-42.094 65.276-98.061 65.276-157.59s-23.183-115.497-65.276-157.59c-42.095-42.095-98.062-65.277-157.591-65.277-52.836 0-104.072 18.819-144.27 52.991-3.156 2.683-3.539 7.416-.857 10.572 2.683 3.157 7.415 3.54 10.572.857 37.49-31.869 85.275-49.42 134.555-49.42 114.618 0 207.867 93.249 207.867 207.867s-93.249 207.867-207.867 207.867-207.867-93.249-207.867-207.867c0-49.27 17.545-97.049 49.404-134.536 2.683-3.156 2.298-7.89-.858-10.572-3.155-2.684-7.89-2.299-10.572.858-34.161 40.196-52.974 91.425-52.974 144.25 0 59.53 23.182 115.497 65.277 157.59z"/><path d="m215.367 230.867v17.133c0 8.547 6.953 15.5 15.5 15.5h50.266c8.547 0 15.5-6.953 15.5-15.5v-17.133c0-8.547-6.953-15.5-15.5-15.5h-50.266c-8.547 0-15.5 6.953-15.5 15.5zm66.266 0v17.133c0 .276-.225.5-.5.5h-50.266c-.276 0-.5-.224-.5-.5v-17.133c0-.276.224-.5.5-.5h50.266c.275 0 .5.224.5.5z"/><path d="m264.283 281.633h-16.566c-4.142 0-7.5 3.358-7.5 7.5s3.358 7.5 7.5 7.5h16.566c4.143 0 7.5-3.358 7.5-7.5s-3.357-7.5-7.5-7.5z"/><path d="m137.994 133.131c-15.5-2.323-31.087 4.522-39.709 17.443-2.269 3.401-4.458 6.925-6.506 10.472-10.441 18.085-17.782 37.562-21.819 57.891-.972 4.892.358 9.839 3.648 13.574 3.274 3.715 7.989 5.646 12.925 5.302 27.003-1.888 53.745 1.189 79.586 9.128-.102 1.024-.183 2.055-.25 3.089-29.677 6.392-56.195 22.796-75.187 46.646-9.764 12.262-11.628 29.184-4.748 43.11 1.812 3.669 3.769 7.327 5.816 10.871 10.441 18.085 23.638 34.181 39.225 47.842 2.939 2.575 6.612 3.944 10.412 3.944 1.05 0 2.11-.105 3.167-.317 4.854-.977 8.883-4.09 11.055-8.542 11.855-24.301 27.868-45.902 47.635-64.301.85.613 1.71 1.214 2.581 1.798-9.269 28.869-8.31 60.003 2.834 88.34 5.737 14.588 19.459 24.663 34.96 25.667 4.083.264 8.229.398 12.322.398 20.882 0 41.42-3.381 61.044-10.049 4.723-1.605 8.342-5.23 9.931-9.946 1.581-4.692.899-9.738-1.87-13.845-15.103-22.396-25.798-47.04-31.851-73.332.966-.438 1.92-.898 2.867-1.369 20.363 22.438 47.791 37.161 77.885 41.675 2.01.301 4.019.449 6.016.449 13.408 0 26.19-6.646 33.693-17.892 2.273-3.409 4.463-6.932 6.506-10.472 10.441-18.085 17.782-37.562 21.819-57.891.972-4.892-.358-9.839-3.648-13.573-3.272-3.715-7.98-5.649-12.925-5.303-26.976 1.885-53.692-1.183-79.51-9.105.101-1.037.182-2.081.247-3.128 29.646-6.403 56.137-22.8 75.113-46.629 9.765-12.261 11.628-29.183 4.748-43.111-1.814-3.671-3.771-7.329-5.816-10.871-10.44-18.085-23.638-34.181-39.226-47.842-3.75-3.286-8.696-4.606-13.578-3.626-4.854.977-8.883 4.09-11.055 8.542-11.881 24.354-27.935 45.995-47.758 64.417-.828-.595-1.667-1.175-2.515-1.742 9.33-28.918 8.391-60.113-2.778-88.513-5.737-14.588-19.46-24.663-34.96-25.667-4.08-.265-8.227-.399-12.323-.399-20.882 0-41.421 3.381-61.044 10.05-4.722 1.604-8.342 5.229-9.931 9.945-1.581 4.692-.899 9.738 1.87 13.846 15.153 22.469 25.868 47.196 31.91 73.577-.927.421-1.844.861-2.754 1.312-20.377-22.544-47.867-37.334-78.054-41.863zm193.339 122.869c0 41.539-33.794 75.333-75.333 75.333s-75.334-33.794-75.334-75.333 33.794-75.333 75.334-75.333 75.333 33.794 75.333 75.333zm-245.846-33.15c-.102.008-.377.027-.625-.255-.182-.206-.246-.454-.19-.735 3.716-18.715 10.478-36.652 20.097-53.312 1.887-3.269 3.904-6.515 5.994-9.648 5.41-8.109 15.227-12.398 25.005-10.934 25.783 3.868 49.345 16.187 67.184 34.966-16.358 11.909-28.58 29.167-34.074 49.183-27.098-8.113-55.107-11.239-83.391-9.265zm56.641 164.156c-.045.093-.166.34-.534.414-.27.054-.517-.014-.732-.203-14.35-12.577-26.503-27.401-36.122-44.061-1.886-3.265-3.688-6.635-5.358-10.015-4.318-8.74-3.127-19.386 3.034-27.122 16.208-20.354 38.606-34.585 63.732-40.665 2.17 20.996 11.563 39.878 25.642 54.118-20.549 19.403-37.244 42.079-49.662 67.534zm170.483 33.027c.058.086.212.313.092.669-.088.261-.271.441-.542.533-18.066 6.139-36.981 9.251-56.218 9.251-3.771 0-7.591-.124-11.353-.367-9.727-.63-18.352-6.985-21.971-16.188-9.508-24.177-10.644-50.653-3.381-75.423 11.236 5.026 23.678 7.826 36.761 7.826 7.94 0 15.642-1.034 22.984-2.967 6.533 27.457 17.814 53.216 33.628 76.666zm113.844-131.13c.104-.006.376-.028.625.255.183.206.246.454.19.735-3.717 18.715-10.478 36.652-20.098 53.313-1.882 3.261-3.898 6.507-5.993 9.646-5.409 8.109-15.225 12.4-25.006 10.934-25.697-3.855-49.199-16.114-67.02-34.796 16.363-11.948 28.572-29.255 34.026-49.319 27.065 8.088 55.037 11.203 83.276 9.232zm-56.64-164.156c.046-.093.166-.34.534-.415.269-.054.517.014.732.203 14.35 12.577 26.503 27.401 36.121 44.061 1.885 3.263 3.688 6.633 5.358 10.015 4.317 8.74 3.127 19.386-3.034 27.122-16.202 20.346-38.591 34.575-63.705 40.659-2.227-20.97-11.657-39.819-25.764-54.02 20.592-19.421 37.319-42.128 49.758-67.625zm-170.484-33.027c-.058-.085-.211-.313-.092-.668.088-.261.27-.44.542-.533 18.066-6.139 36.981-9.252 56.218-9.252 3.774 0 7.594.123 11.353.368 9.727.63 18.351 6.984 21.971 16.188 9.535 24.247 10.651 50.794 3.323 75.621-11.207-4.994-23.608-7.776-36.647-7.776-7.939 0-15.64 1.034-22.981 2.966-6.521-27.548-17.822-53.39-33.687-76.914z"/></g></g></svg>