<svg id="Capa_1" enable-background="new 0 0 512 512" height="512" viewBox="0 0 512 512" width="512" xmlns="http://www.w3.org/2000/svg"><g><g><path d="m219.84 100.22v13.56c0 6.93-5.62 12.55-12.55 12.55h-187.24c-6.93 0-12.55-5.62-12.55-12.55v-13.56z" fill="#e49280"/><path d="m219.84 100.22v13.56c0 6.93-5.62 12.55-12.55 12.55h-20.01c6.93 0 12.55-5.62 12.55-12.55v-13.56z" fill="#dd7f66"/><path d="m219.84 21.199v79.021h-212.34v-79.021c0-5.776 4.683-10.459 10.459-10.459h191.421c5.777 0 10.46 4.683 10.46 10.459z" fill="#ffd15b"/><path d="m219.84 21.199v79.021h-20.01v-89.48h9.551c5.776 0 10.459 4.683 10.459 10.459z" fill="#ffc344"/><path d="m409.961 55.902h-95.579v-34.702c0-5.776 4.683-10.459 10.459-10.459h74.661c5.776 0 10.459 4.683 10.459 10.459z" fill="#766e6e"/><path d="m409.96 21.199v34.701h-23.65v-45.16h13.191c5.776 0 10.459 4.683 10.459 10.459z" fill="#5b5555"/><path d="m446.191 126.329h-168.04c-6.778 0-12.273-5.495-12.273-12.273v-30.272h192.585v30.273c.001 6.778-5.494 12.272-12.272 12.272z" fill="#766e6e"/><path d="m458.46 83.78v30.28c0 6.77-5.49 12.27-12.27 12.27h-23.65c6.78 0 12.27-5.5 12.27-12.27v-30.28z" fill="#5b5555"/><path d="m219.842 501.26h-201.883c-5.776 0-10.459-4.683-10.459-10.459v-193.517c0-5.776 4.683-10.459 10.459-10.459h201.883z" fill="#ffd15b"/><path d="m193.94 286.83h25.9v214.43h-25.9z" fill="#ffc344"/><path d="m504.5 297.289v63.611h-284.66v-74.07h274.201c5.776 0 10.459 4.683 10.459 10.459z" fill="#fea613"/><path d="m504.5 297.289v63.611h-25.9v-74.07h15.441c5.776 0 10.459 4.683 10.459 10.459z" fill="#fe9901"/><path d="m219.84 360.9h284.66v67.96h-284.66z" fill="#eaf6ff"/><path d="m478.6 360.9h25.9v67.96h-25.9z" fill="#c8effe"/><path d="m504.5 428.86v61.941c0 5.777-4.683 10.459-10.459 10.459h-274.201v-72.4z" fill="#fea613"/><path d="m504.5 428.86v61.941c0 5.777-4.683 10.459-10.459 10.459h-15.441v-72.4z" fill="#fe9901"/><path d="m458.464 83.784h-192.585l48.503-27.882h95.579z" fill="#b9acac"/><path d="m458.46 83.78h-23.65l-48.5-27.88h23.65z" fill="#9e9797"/><path d="m178.893 10.74h-130.444v48.262c0 5.987 4.854 10.841 10.841 10.841h108.763c5.987 0 10.841-4.854 10.841-10.841v-48.262z" fill="#eaf6ff"/><path d="m178.89 10.74v48.26c0 5.99-4.85 10.84-10.84 10.84h-22.15c5.99 0 10.84-4.85 10.84-10.84v-48.26z" fill="#c8effe"/><path d="m137.449 286.825h-47.556c-14.275 0-25.847-11.572-25.847-25.847v-44.34h99.25v44.34c0 14.275-11.572 25.847-25.847 25.847z" fill="#e49280"/><path d="m163.3 216.64v44.34c0 14.27-11.58 25.85-25.85 25.85h-26.61c14.27 0 25.85-11.58 25.85-25.85v-44.34z" fill="#dd7f66"/><path d="m337.51 191.24v10.91h-82.4v-10.91c0-8.43 6.83-15.27 15.26-15.27h51.88c8.43 0 15.26 6.84 15.26 15.27z" fill="#eaf6ff"/><path d="m337.51 191.24v10.91h-23.13v-10.91c0-8.43-6.83-15.27-15.26-15.27h23.13c8.43 0 15.26 6.84 15.26 15.27z" fill="#c8effe"/><path d="m337.51 202.15v61.12c0 13.01-10.54 23.56-23.55 23.56h-35.3c-13 0-23.55-10.55-23.55-23.56v-61.12z" fill="#fd3581"/><path d="m337.51 202.15v61.12c0 13.01-10.54 23.56-23.55 23.56h-23.13c13.01 0 23.55-10.55 23.55-23.56v-61.12z" fill="#fe0364"/><path d="m458.46 251.733v11.544c0 13.008-10.545 23.553-23.543 23.553h-35.305c-13.008 0-23.553-10.545-23.553-23.553v-11.544z" fill="#766e6e"/><path d="m458.46 251.73v11.55c0 13-10.55 23.55-23.54 23.55h-25.15c12.99 0 23.54-10.55 23.54-23.55v-11.55z" fill="#5b5555"/></g><g><path d="m20.054 133.829h187.234c11.058 0 20.054-8.996 20.054-20.054v-92.576c0-9.902-8.057-17.959-17.959-17.959h-191.424c-9.902 0-17.959 8.057-17.959 17.959v92.576c0 11.058 8.996 20.054 20.054 20.054zm187.234-15h-187.234c-2.787 0-5.054-2.267-5.054-5.054v-6.059h197.342v6.059c0 2.787-2.267 5.054-5.054 5.054zm-35.895-100.589v40.762c0 1.842-1.499 3.341-3.341 3.341h-108.762c-1.842 0-3.341-1.499-3.341-3.341v-40.762zm-153.434 0h22.99v40.762c0 10.113 8.228 18.341 18.341 18.341h108.762c10.113 0 18.341-8.228 18.341-18.341v-40.762h22.99c1.632 0 2.959 1.327 2.959 2.959v71.518h-197.342v-71.518c0-1.632 1.328-2.959 2.959-2.959z"/><path d="m278.151 133.829h103.826c4.142 0 7.5-3.357 7.5-7.5s-3.358-7.5-7.5-7.5h-103.826c-2.632 0-4.773-2.141-4.773-4.772v-22.773h177.585v22.772c0 2.632-2.141 4.772-4.772 4.772h-28.932c-4.142 0-7.5 3.357-7.5 7.5s3.358 7.5 7.5 7.5h28.932c10.902 0 19.772-8.87 19.772-19.772v-30.272c-.108-.966.103-.901-.575-2.88-.556-.99-1.034-2.348-3.187-3.622l-44.74-25.719v-30.364c0-9.902-8.057-17.959-17.959-17.959h-74.661c-9.903 0-17.959 8.057-17.959 17.959v30.364l-44.741 25.719c-.851.615-2.242 1.387-3.187 3.622-.117.323-.552 1.403-.575 2.88v30.272c-.001 10.903 8.87 19.773 19.772 19.773zm43.73-112.63c0-1.632 1.328-2.959 2.959-2.959h74.661c1.632 0 2.959 1.327 2.959 2.959v27.203h-80.58v-27.203zm-5.498 42.203h91.576l22.409 12.882h-136.393z"/><path d="m494.041 279.325h-32.557c2.84-4.687 4.477-10.18 4.477-16.049v-4.044h24.598c4.142 0 7.5-3.357 7.5-7.5s-3.358-7.5-7.5-7.5h-32.099-82.401c-4.142 0-7.5 3.357-7.5 7.5v11.544c0 5.869 1.637 11.362 4.478 16.049h-32.504c2.842-4.687 4.48-10.182 4.48-16.052v-53.618h10.624c4.142 0 7.5-3.357 7.5-7.5s-3.358-7.5-7.5-7.5h-10.624v-3.42c0-12.551-10.21-22.762-22.761-22.762h-18.44v-7.168c0-4.143-3.358-7.5-7.5-7.5s-7.5 3.357-7.5 7.5v7.168h-18.44c-12.551 0-22.762 10.211-22.762 22.762v3.42h-10.624c-4.142 0-7.5 3.357-7.5 7.5s3.358 7.5 7.5 7.5h10.624v53.618c0 5.87 1.638 11.365 4.48 16.052h-86.816c3.485-5.267 5.521-11.573 5.521-18.348v-36.84h4.755c4.142 0 7.5-3.357 7.5-7.5s-3.358-7.5-7.5-7.5h-123.759c-4.142 0-7.5 3.357-7.5 7.5s3.358 7.5 7.5 7.5h4.755v36.84c0 6.775 2.036 13.08 5.521 18.348h-44.108c-9.902 0-17.959 8.057-17.959 17.959v16.836c0 4.143 3.358 7.5 7.5 7.5s7.5-3.357 7.5-7.5v-16.836c0-1.632 1.328-2.959 2.959-2.959h194.383v92.217h-197.342v-36.539c0-4.143-3.358-7.5-7.5-7.5s-7.5 3.357-7.5 7.5v140.798c0 9.902 8.057 17.959 17.959 17.959h476.081c9.903 0 17.959-8.057 17.959-17.959v-193.517c.001-9.902-8.056-17.959-17.958-17.959zm-404.147 0c-10.117 0-18.348-8.23-18.348-18.348v-36.84h84.25v36.84c0 10.117-8.23 18.348-18.347 18.348zm407.106 17.959v56.116h-269.658v-59.075h266.698c1.632 0 2.96 1.327 2.96 2.959zm-113.441-34.008v-4.044h67.401v4.044c0 8.82-7.146 15.996-15.947 16.049h-35.497c-8.808-.053-15.957-7.229-15.957-16.049zm-120.948-72.041c0-4.28 3.482-7.762 7.762-7.762h51.88c4.28 0 7.761 3.481 7.761 7.762v3.42h-67.403zm0 72.038v-53.618h67.403v53.618c0 8.851-7.201 16.052-16.052 16.052h-35.299c-8.851 0-16.052-7.201-16.052-16.052zm-247.611 227.528v-89.259h197.342v92.218h-194.383c-1.631 0-2.959-1.327-2.959-2.959zm479.041 2.959h-266.699v-57.404h46.798c4.142 0 7.5-3.357 7.5-7.5s-3.358-7.5-7.5-7.5h-46.798v-52.956h269.658v52.955h-187.102c-4.142 0-7.5 3.357-7.5 7.5s3.358 7.5 7.5 7.5h187.102v54.445c0 1.633-1.328 2.96-2.959 2.96z"/><path d="m90.657 306.62c-4.142 0-7.5 3.357-7.5 7.5v16.711c0 4.143 3.358 7.5 7.5 7.5h46.029c4.142 0 7.5-3.357 7.5-7.5v-16.711c0-4.143-3.358-7.5-7.5-7.5s-7.5 3.357-7.5 7.5v9.211h-31.029v-9.211c0-4.142-3.358-7.5-7.5-7.5z"/><path d="m136.686 413.879c-4.142 0-7.5 3.357-7.5 7.5v9.211h-31.029v-9.211c0-4.143-3.358-7.5-7.5-7.5s-7.5 3.357-7.5 7.5v16.711c0 4.143 3.358 7.5 7.5 7.5h46.029c4.142 0 7.5-3.357 7.5-7.5v-16.711c0-4.143-3.358-7.5-7.5-7.5z"/><circle cx="282.949" cy="314.12" r="7.5"/><circle cx="336.847" cy="314.12" r="7.5"/><circle cx="390.745" cy="314.12" r="7.5"/><circle cx="444.644" cy="314.12" r="7.5"/></g></g></svg>