<?xml version="1.0" encoding="iso-8859-1"?>
<!-- Generator: Adobe Illustrator 19.0.0, SVG Export Plug-In . SVG Version: 6.00 Build 0)  -->
<svg xmlns="http://www.w3.org/2000/svg" xmlns:xlink="http://www.w3.org/1999/xlink" version="1.1" id="Capa_1" x="0px" y="0px" viewBox="0 0 512 512" style="enable-background:new 0 0 512 512;" xml:space="preserve" width="512" height="512">
<g>
	<g>
		<path style="fill:#857E87;" d="M23.532,432.355c0,4.427,3.589,8.016,8.016,8.016h19.094c3.036,0,5.812-1.715,7.17-4.431    l13.817-27.633H23.532V432.355z"/>
		<path style="fill:#857E87;" d="M488.468,432.355c0,4.427-3.589,8.016-8.016,8.016h-19.094c-3.036,0-5.812-1.715-7.17-4.431    l-13.817-27.633h48.097V432.355z"/>
		<path style="fill:#DAD8DB;" d="M488.468,71.629H23.532c-8.854,0-16.032,7.178-16.032,16.032v304.613    c0,8.854,7.178,16.032,16.032,16.032h464.935c8.854,0,16.032-7.178,16.032-16.032V87.661    C504.5,78.807,497.322,71.629,488.468,71.629z"/>
		<path style="fill:#FFC269;" d="M312.113,344.177H87.661c-8.854,0-16.032-7.178-16.032-16.032V151.79    c0-8.854,7.178-16.032,16.032-16.032h224.452c8.854,0,16.032,7.178,16.032,16.032v176.355    C328.145,337,320.967,344.177,312.113,344.177z"/>
		<circle style="fill:#5D5360;" cx="448.387" cy="320.129" r="24.048"/>
		<path style="fill:#FFC269;" d="M464.419,119.726h-32.065c-4.427,0-8.016,3.589-8.016,8.016v24.048    c0,4.427,3.589,8.016,8.016,8.016h32.065c4.427,0,8.016-3.589,8.016-8.016v-24.048    C472.435,123.315,468.847,119.726,464.419,119.726z"/>
		<path style="fill:#FFA95F;" d="M95.677,288.065V135.758h-8.016c-8.854,0-16.032,7.178-16.032,16.032v176.355    c0,8.854,7.179,16.032,16.032,16.032h224.452c8.854,0,16.032-7.178,16.032-16.032v-8.016H127.742    C110.062,320.129,95.677,305.745,95.677,288.065z"/>
		<path style="fill:#C8C5C9;" d="M392.274,344.177h-16.032c-8.854,0-16.032-7.178-16.032-16.032V151.79    c0-8.854,7.178-16.032,16.032-16.032h16.032V344.177z"/>
		<path style="fill:#C8C5C9;" d="M31.548,328.145V71.629h-8.016c-8.854,0-16.032,7.178-16.032,16.032v304.613    c0,8.854,7.179,16.032,16.032,16.032h464.935c8.854,0,16.032-7.178,16.032-16.032v-8.016H87.661    C56.72,384.258,31.548,359.086,31.548,328.145z"/>
	</g>
	<g>
		<path d="M488.468,64.129H23.532C10.557,64.129,0,74.686,0,87.661v304.613c0,10.354,6.724,19.16,16.032,22.3v17.781    c0,8.556,6.96,15.516,15.516,15.516h19.094c5.915,0,11.232-3.286,13.878-8.577l11.743-23.487h359.472l11.743,23.488    c2.646,5.291,7.963,8.577,13.878,8.577h19.094c8.556,0,15.516-6.96,15.516-15.516v-17.781c9.308-3.139,16.032-11.946,16.032-22.3    V87.661C512,74.686,501.443,64.129,488.468,64.129z M51.104,432.585c-0.088,0.176-0.265,0.286-0.462,0.286H31.548    c-0.285,0-0.516-0.231-0.516-0.516v-16.548h28.462L51.104,432.585z M384.774,336.677h-8.533c-4.705,0-8.532-3.828-8.532-8.532    V151.791c0-4.705,3.828-8.532,8.532-8.532h8.533V336.677z M480.452,432.871h-19.094c-0.197,0-0.374-0.109-0.462-0.285    l-8.39-16.779h28.462v16.548C480.968,432.64,480.736,432.871,480.452,432.871z M497,392.274c0,4.705-3.828,8.532-8.532,8.532    h-88.693v-281.08c0-4.142-3.358-7.5-7.5-7.5s-7.5,3.358-7.5,7.5v8.531h-8.533c-12.976,0-23.532,10.557-23.532,23.532v176.354    c0,12.976,10.557,23.532,23.532,23.532h8.533v49.129H23.532c-4.705,0-8.532-3.828-8.532-8.532V87.661    c0-4.705,3.828-8.532,8.532-8.532h361.242v8.534c0,4.142,3.358,7.5,7.5,7.5s7.5-3.358,7.5-7.5v-8.534h88.693    c4.705,0,8.532,3.828,8.532,8.532V392.274z"/>
		<path d="M312.113,128.258H87.661c-12.976,0-23.532,10.557-23.532,23.532v128.254c0,4.142,3.358,7.5,7.5,7.5s7.5-3.358,7.5-7.5    V151.791c0-4.705,3.828-8.532,8.532-8.532h224.452c4.705,0,8.532,3.828,8.532,8.532v176.354c0,4.705-3.828,8.532-8.532,8.532    H87.661c-4.705,0-8.532-3.828-8.532-8.532v-16.03c0-4.142-3.358-7.5-7.5-7.5s-7.5,3.358-7.5,7.5v16.03    c0,12.976,10.557,23.532,23.532,23.532h224.452c12.976,0,23.532-10.557,23.532-23.532V151.791    C335.645,138.815,325.088,128.258,312.113,128.258z"/>
		<path d="M448.387,288.581c-17.396,0-31.548,14.152-31.548,31.548s14.152,31.548,31.548,31.548s31.548-14.152,31.548-31.548    S465.783,288.581,448.387,288.581z M448.387,336.677c-9.125,0-16.548-7.423-16.548-16.548s7.423-16.548,16.548-16.548    s16.548,7.423,16.548,16.548S457.512,336.677,448.387,336.677z"/>
		<path d="M424.339,271.516h8.016c4.142,0,7.5-3.358,7.5-7.5s-3.358-7.5-7.5-7.5h-8.016c-4.142,0-7.5,3.358-7.5,7.5    S420.197,271.516,424.339,271.516z"/>
		<path d="M472.436,256.516h-8.016c-4.142,0-7.5,3.358-7.5,7.5s3.358,7.5,7.5,7.5h8.016c4.142,0,7.5-3.358,7.5-7.5    S476.578,256.516,472.436,256.516z"/>
		<path d="M424.339,239.452h8.016c4.142,0,7.5-3.358,7.5-7.5s-3.358-7.5-7.5-7.5h-8.016c-4.142,0-7.5,3.358-7.5,7.5    S420.197,239.452,424.339,239.452z"/>
		<path d="M472.436,224.452h-8.016c-4.142,0-7.5,3.358-7.5,7.5s3.358,7.5,7.5,7.5h8.016c4.142,0,7.5-3.358,7.5-7.5    S476.578,224.452,472.436,224.452z"/>
		<path d="M424.339,207.387h8.016c4.142,0,7.5-3.358,7.5-7.5s-3.358-7.5-7.5-7.5h-8.016c-4.142,0-7.5,3.358-7.5,7.5    S420.197,207.387,424.339,207.387z"/>
		<path d="M472.436,192.387h-8.016c-4.142,0-7.5,3.358-7.5,7.5s3.358,7.5,7.5,7.5h8.016c4.142,0,7.5-3.358,7.5-7.5    S476.578,192.387,472.436,192.387z"/>
		<path d="M464.419,112.226h-32.064c-8.556,0-15.516,6.96-15.516,15.516v24.049c0,8.556,6.96,15.516,15.516,15.516h32.064    c8.556,0,15.516-6.96,15.516-15.516v-24.049C479.936,119.186,472.975,112.226,464.419,112.226z M464.936,151.791    c0,0.285-0.231,0.516-0.516,0.516h-32.064c-0.285,0-0.516-0.231-0.516-0.516v-24.049c0-0.285,0.231-0.516,0.516-0.516h32.064    c0.285,0,0.516,0.231,0.516,0.516V151.791z"/>
		<path d="M184.371,296.081c0,4.142,3.358,7.5,7.5,7.5s7.5-3.358,7.5-7.5c0-6.573,2.47-9.453,6.209-13.813    c4.376-5.104,9.823-11.455,9.823-23.578c0-12.128-5.445-18.483-9.821-23.589c-3.74-4.364-6.211-7.248-6.211-13.828    s2.471-9.464,6.211-13.828c4.376-5.106,9.821-11.46,9.821-23.589c0-4.142-3.358-7.5-7.5-7.5s-7.5,3.358-7.5,7.5    c0,6.58-2.471,9.464-6.211,13.828c-4.376,5.106-9.821,11.46-9.821,23.589s5.445,18.483,9.821,23.589    c3.74,4.364,6.211,7.248,6.211,13.828c0,6.572-2.47,9.453-6.209,13.813C189.817,277.606,184.371,283.957,184.371,296.081z"/>
		<path d="M232.468,296.081c0,4.142,3.358,7.5,7.5,7.5s7.5-3.358,7.5-7.5c0-6.573,2.47-9.453,6.209-13.813    c4.376-5.104,9.823-11.455,9.823-23.578c0-12.128-5.445-18.483-9.821-23.589c-3.74-4.364-6.211-7.248-6.211-13.828    s2.471-9.464,6.211-13.828c4.376-5.106,9.821-11.46,9.821-23.589c0-4.142-3.358-7.5-7.5-7.5s-7.5,3.358-7.5,7.5    c0,6.58-2.471,9.464-6.211,13.828c-4.376,5.106-9.821,11.46-9.821,23.589s5.445,18.483,9.821,23.589    c3.74,4.364,6.211,7.248,6.211,13.828c0,6.572-2.47,9.453-6.209,13.813C237.914,277.606,232.468,283.957,232.468,296.081z"/>
		<path d="M136.274,296.081c0,4.142,3.358,7.5,7.5,7.5s7.5-3.358,7.5-7.5c0-6.573,2.47-9.453,6.209-13.813    c4.376-5.104,9.823-11.455,9.823-23.578c0-12.128-5.445-18.483-9.821-23.589c-3.74-4.364-6.211-7.248-6.211-13.828    s2.471-9.464,6.211-13.828c4.376-5.106,9.821-11.46,9.821-23.589c0-4.142-3.358-7.5-7.5-7.5s-7.5,3.358-7.5,7.5    c0,6.58-2.471,9.464-6.211,13.828c-4.376,5.106-9.821,11.46-9.821,23.589s5.445,18.483,9.821,23.589    c3.74,4.364,6.211,7.248,6.211,13.828c0,6.572-2.47,9.453-6.209,13.813C141.721,277.606,136.274,283.957,136.274,296.081z"/>
	</g>
</g>















</svg>
