<svg id="Capa_1" enable-background="new 0 0 512 512" height="512" viewBox="0 0 512 512" width="512" xmlns="http://www.w3.org/2000/svg"><g><path d="m37.197 28.138c0-11.398 9.24-20.638 20.638-20.638h396.329c11.398 0 20.638 9.24 20.638 20.638v455.723c0 11.398-9.24 20.638-20.638 20.638h-396.328c-11.398 0-20.638-9.24-20.638-20.638v-455.723z" fill="#596d76"/><circle cx="353.266" cy="125.622" fill="#fca62f" r="43.734"/><circle cx="158.739" cy="125.622" fill="#fca62f" r="43.734"/><circle cx="158.739" cy="125.622" fill="#fcc16d" r="21.622"/><circle cx="353.265" cy="125.622" fill="#fcc16d" r="21.622"/><path d="m474.8 28.14v455.72c0 11.4-9.24 20.64-20.64 20.64h-43c11.4 0 20.64-9.24 20.64-20.64v-455.72c0-11.4-9.24-20.64-20.64-20.64h43c11.4 0 20.64 9.24 20.64 20.64z" fill="#475a61"/><path d="m474.8 420v63.86c0 11.4-9.24 20.64-20.64 20.64h-396.32c-11.4 0-20.64-9.24-20.64-20.64v-63.86z" fill="#d9e7eb"/><path d="m474.8 420v63.86c0 11.4-9.24 20.64-20.64 20.64h-43c11.4 0 20.64-9.24 20.64-20.64v-63.86z" fill="#c5d3dd"/><g fill="#d9e7eb"><path d="m158.739 241.32c-37.37 0-67.67 30.3-67.67 67.66 0 37.37 30.3 67.66 67.67 67.66 37.36 0 67.66-30.29 67.66-67.66 0-37.36-30.3-67.66-67.66-67.66zm0 106.87c-21.66 0-39.21-17.55-39.21-39.21 0-21.65 17.55-39.21 39.21-39.21 21.65 0 39.21 17.56 39.21 39.21 0 21.66-17.56 39.21-39.21 39.21z"/><path d="m353.27 241.32c-37.37 0-67.67 30.3-67.67 67.66 0 37.37 30.3 67.66 67.67 67.66 37.36 0 67.66-30.29 67.66-67.66 0-37.36-30.3-67.66-67.66-67.66zm0 106.87c-21.66 0-39.21-17.55-39.21-39.21 0-21.65 17.55-39.21 39.21-39.21 21.65 0 39.21 17.56 39.21 39.21 0 21.66-17.56 39.21-39.21 39.21z"/><path d="m158.739 57.962c-37.37 0-67.67 30.3-67.67 67.66 0 37.37 30.3 67.66 67.67 67.66 37.36 0 67.66-30.29 67.66-67.66 0-37.36-30.3-67.66-67.66-67.66zm0 106.87c-21.66 0-39.21-17.55-39.21-39.21 0-21.65 17.55-39.21 39.21-39.21 21.65 0 39.21 17.56 39.21 39.21 0 21.66-17.56 39.21-39.21 39.21z"/><path d="m353.27 57.962c-37.37 0-67.67 30.3-67.67 67.66 0 37.37 30.3 67.66 67.67 67.66 37.36 0 67.66-30.29 67.66-67.66 0-37.36-30.3-67.66-67.66-67.66zm0 106.87c-21.66 0-39.21-17.55-39.21-39.21 0-21.65 17.55-39.21 39.21-39.21 21.65 0 39.21 17.56 39.21 39.21 0 21.66-17.56 39.21-39.21 39.21z"/></g><g><path d="m454.164 0h-184.334c-4.143 0-7.5 3.357-7.5 7.5s3.357 7.5 7.5 7.5h75.936v35.836c-37.936 3.776-67.661 35.873-67.661 74.786 0 41.444 33.717 75.161 75.161 75.161 38.913 0 71.01-29.725 74.786-67.661h39.251v168.362h-39.251c-3.776-37.936-35.873-67.661-74.786-67.661-41.444 0-75.161 33.717-75.161 75.161 0 41.443 33.717 75.16 75.161 75.16 38.913 0 71.01-29.725 74.786-67.66h39.251v96.016h-142.139c-4.143 0-7.5 3.357-7.5 7.5s3.357 7.5 7.5 7.5h142.139v56.361c0 7.245-5.894 13.139-13.139 13.139h-396.329c-7.245 0-13.138-5.894-13.138-13.139v-56.361h246.806c4.143 0 7.5-3.357 7.5-7.5s-3.357-7.5-7.5-7.5h-246.806v-39.336c0-4.143-3.358-7.5-7.5-7.5s-7.5 3.357-7.5 7.5v110.697c0 15.516 12.623 28.139 28.138 28.139h396.329c15.516 0 28.139-12.623 28.139-28.139v-455.722c0-15.516-12.623-28.139-28.139-28.139zm-41.221 301.484h-13.577c-3.204-19.759-18.841-35.396-38.6-38.6v-13.577c27.184 3.399 48.778 24.993 52.177 52.177zm-29.271 15h.4c-2.793 11.469-11.836 20.512-23.306 23.305v-.4c0-4.143-3.357-7.5-7.5-7.5s-7.5 3.357-7.5 7.5v.4c-11.469-2.793-20.512-11.836-23.305-23.305h.4c4.143 0 7.5-3.357 7.5-7.5s-3.357-7.5-7.5-7.5h-.4c2.793-11.47 11.836-20.513 23.305-23.306v.4c0 4.143 3.357 7.5 7.5 7.5s7.5-3.357 7.5-7.5v-.4c11.47 2.793 20.513 11.836 23.306 23.306h-.4c-4.143 0-7.5 3.357-7.5 7.5s3.357 7.5 7.5 7.5zm-37.906-67.177v13.577c-19.758 3.204-35.395 18.841-38.599 38.6h-13.578c3.398-27.184 24.992-48.778 52.177-52.177zm-52.177 67.177h13.578c3.203 19.758 18.841 35.395 38.599 38.599v13.577c-27.185-3.398-48.779-24.991-52.177-52.176zm67.177 52.176v-13.577c19.759-3.203 35.396-18.84 38.6-38.599h13.577c-3.399 27.185-24.993 48.778-52.177 52.176zm38.599-250.538c-3.204-19.759-18.841-35.396-38.6-38.6v-13.577c27.184 3.398 48.779 24.992 52.177 52.177zm-15.693 15h.4c-2.793 11.469-11.836 20.512-23.306 23.305v-.4c0-4.143-3.357-7.5-7.5-7.5s-7.5 3.357-7.5 7.5v.4c-11.469-2.793-20.512-11.836-23.305-23.305h.4c4.143 0 7.5-3.357 7.5-7.5s-3.357-7.5-7.5-7.5h-.4c2.793-11.47 11.836-20.513 23.305-23.306v.4c0 4.143 3.357 7.5 7.5 7.5s7.5-3.357 7.5-7.5v-.4c11.47 2.793 20.513 11.836 23.306 23.306h-.4c-4.143 0-7.5 3.357-7.5 7.5s3.357 7.5 7.5 7.5zm-37.906-67.177v13.577c-19.758 3.204-35.395 18.841-38.599 38.6h-13.578c3.398-27.184 24.992-48.779 52.177-52.177zm-52.177 67.177h13.578c3.203 19.758 18.841 35.395 38.599 38.599v13.578c-27.185-3.398-48.779-24.992-52.177-52.177zm67.177 52.177v-13.578c19.759-3.203 35.396-18.84 38.6-38.599h13.577c-3.399 27.185-24.993 48.779-52.177 52.177zm67.285-67.177c-3.53-35.468-31.817-63.755-67.286-67.286v-35.836h93.398c7.245 0 13.139 5.894 13.139 13.139v89.983z"/><path d="m37.197 347.003c4.142 0 7.5-3.357 7.5-7.5v-23.019h39.251c3.776 37.935 35.873 67.66 74.786 67.66 41.444 0 75.161-33.717 75.161-75.16 0-41.444-33.717-75.161-75.161-75.161-38.913 0-71.01 29.725-74.786 67.661h-39.251v-168.362h39.251c3.776 37.936 35.873 67.661 74.786 67.661 41.444 0 75.161-33.717 75.161-75.161 0-38.913-29.726-71.01-67.661-74.786v-35.836h69.936c4.142 0 7.5-3.357 7.5-7.5s-3.358-7.5-7.5-7.5h-178.335c-15.515 0-28.138 12.623-28.138 28.139v311.364c0 4.143 3.358 7.5 7.5 7.5zm61.86-30.519h13.578c3.204 19.758 18.841 35.395 38.599 38.599v13.577c-27.185-3.398-48.779-24.991-52.177-52.176zm29.271-15h-.4c2.793-11.47 11.836-20.513 23.306-23.306v.4c0 4.143 3.358 7.5 7.5 7.5s7.5-3.357 7.5-7.5v-.4c11.47 2.793 20.513 11.836 23.306 23.306h-.4c-4.142 0-7.5 3.357-7.5 7.5s3.358 7.5 7.5 7.5h.4c-2.793 11.469-11.836 20.512-23.306 23.305v-.4c0-4.143-3.358-7.5-7.5-7.5s-7.5 3.357-7.5 7.5v.4c-11.469-2.793-20.513-11.836-23.306-23.305h.4c4.142 0 7.5-3.357 7.5-7.5s-3.358-7.5-7.5-7.5zm37.906 67.176v-13.577c19.759-3.203 35.396-18.84 38.6-38.599h13.577c-3.398 27.185-24.993 48.778-52.177 52.176zm52.177-67.176h-13.577c-3.204-19.759-18.841-35.396-38.6-38.6v-13.577c27.184 3.399 48.779 24.993 52.177 52.177zm-67.177-52.177v13.577c-19.758 3.204-35.396 18.841-38.599 38.6h-13.578c3.398-27.184 24.992-48.778 52.177-52.177zm37.906-116.185h.4c-2.793 11.469-11.836 20.512-23.306 23.305v-.4c0-4.143-3.358-7.5-7.5-7.5s-7.5 3.357-7.5 7.5v.4c-11.469-2.793-20.513-11.836-23.306-23.305h.4c4.142 0 7.5-3.357 7.5-7.5s-3.358-7.5-7.5-7.5h-.4c2.793-11.47 11.836-20.513 23.306-23.306v.4c0 4.143 3.358 7.5 7.5 7.5s7.5-3.357 7.5-7.5v-.4c11.47 2.793 20.513 11.836 23.306 23.306h-.4c-4.142 0-7.5 3.357-7.5 7.5s3.358 7.5 7.5 7.5zm-37.906-53.6c-19.758 3.204-35.396 18.841-38.599 38.6h-13.578c3.398-27.184 24.992-48.779 52.177-52.177zm-52.177 53.6h13.578c3.204 19.758 18.841 35.395 38.599 38.599v13.578c-27.185-3.398-48.779-24.992-52.177-52.177zm67.177 52.177v-13.578c19.759-3.203 35.396-18.84 38.6-38.599h13.577c-3.398 27.185-24.993 48.779-52.177 52.177zm52.177-67.177h-13.577c-3.204-19.759-18.841-35.396-38.6-38.6v-13.577c27.184 3.398 48.779 24.993 52.177 52.177zm-160.576-103.122h93.398v35.836c-35.468 3.53-63.755 31.817-67.286 67.286h-39.25v-89.983c0-7.245 5.894-13.139 13.138-13.139z"/><path d="m95.552 442.25h-.104c-4.142 0-7.5 3.357-7.5 7.5s3.358 7.5 7.5 7.5h.104c4.142 0 7.5-3.357 7.5-7.5s-3.358-7.5-7.5-7.5z"/><path d="m95.552 467.25h-.104c-4.142 0-7.5 3.357-7.5 7.5s3.358 7.5 7.5 7.5h.104c4.142 0 7.5-3.357 7.5-7.5s-3.358-7.5-7.5-7.5z"/><path d="m123.052 442.25h-.104c-4.142 0-7.5 3.357-7.5 7.5s3.358 7.5 7.5 7.5h.104c4.142 0 7.5-3.357 7.5-7.5s-3.358-7.5-7.5-7.5z"/><path d="m123.052 467.25h-.104c-4.142 0-7.5 3.357-7.5 7.5s3.358 7.5 7.5 7.5h.104c4.142 0 7.5-3.357 7.5-7.5s-3.358-7.5-7.5-7.5z"/><path d="m150.552 442.25h-.104c-4.142 0-7.5 3.357-7.5 7.5s3.358 7.5 7.5 7.5h.104c4.142 0 7.5-3.357 7.5-7.5s-3.358-7.5-7.5-7.5z"/><path d="m150.552 467.25h-.104c-4.142 0-7.5 3.357-7.5 7.5s3.358 7.5 7.5 7.5h.104c4.142 0 7.5-3.357 7.5-7.5s-3.358-7.5-7.5-7.5z"/><path d="m178.052 442.25h-.104c-4.142 0-7.5 3.357-7.5 7.5s3.358 7.5 7.5 7.5h.104c4.142 0 7.5-3.357 7.5-7.5s-3.358-7.5-7.5-7.5z"/><path d="m178.052 467.25h-.104c-4.142 0-7.5 3.357-7.5 7.5s3.358 7.5 7.5 7.5h.104c4.142 0 7.5-3.357 7.5-7.5s-3.358-7.5-7.5-7.5z"/><path d="m289.052 461.5c0 4.143 3.357 7.5 7.5 7.5h120c4.143 0 7.5-3.357 7.5-7.5s-3.357-7.5-7.5-7.5h-120c-4.143 0-7.5 3.357-7.5 7.5z"/></g></g></svg>