<svg id="Capa_1" enable-background="new 0 0 512 512" height="512" viewBox="0 0 512 512" width="512" xmlns="http://www.w3.org/2000/svg"><g><path d="m458.033 352.976h-404.066c-11.158 0-20.203-9.045-20.203-20.203v-56.569c0-11.158 9.045-20.203 20.203-20.203h404.065c11.158 0 20.203 9.045 20.203 20.203v56.569c.001 11.157-9.045 20.203-20.202 20.203z" fill="#528fd8"/><path d="m316.61 104.476v-96.976h-121.22v96.976l-124.696 113.186c-4.219 3.829-6.625 9.262-6.625 14.96v23.378h383.862v-23.379c0-5.698-2.406-11.13-6.625-14.96z" fill="#9c9c9c"/><path d="m441.306 217.662-124.696-113.186v-96.976h-32.325v96.976c0 9.116 3.849 17.808 10.599 23.935l42.97 39.003c21.887 19.866 7.833 56.261-21.726 56.261h-249.941c-1.363 2.756-2.118 5.805-2.118 8.947v23.378h383.862v-23.379c0-5.697-2.406-11.13-6.625-14.959z" fill="#838383"/><path d="m458.033 256h-32.325c11.158 0 20.203 9.045 20.203 20.203v56.569c0 11.158-9.045 20.203-20.203 20.203h32.325c11.158 0 20.203-9.045 20.203-20.203v-56.569c0-11.158-9.046-20.203-20.203-20.203z" fill="#0573ce"/><path d="m247.919 320.65h-173.748c-4.463 0-8.081-3.618-8.081-8.081v-16.163c0-4.463 3.618-8.081 8.081-8.081h173.748c4.463 0 8.081 3.618 8.081 8.081v16.163c0 4.463-3.618 8.081-8.081 8.081z" fill="#bbec6c"/><path d="m247.919 288.325h-32.325c4.463 0 8.081 3.618 8.081 8.081v16.163c0 4.463-3.618 8.081-8.081 8.081h32.325c4.463 0 8.081-3.618 8.081-8.081v-16.163c0-4.463-3.618-8.081-8.081-8.081z" fill="#a2e62e"/><circle cx="429.748" cy="304.488" fill="#fd8087" r="16.163"/><circle cx="365.098" cy="304.488" fill="#fd8087" r="16.163"/><g><path d="m372.88 345.48h-318.91c-7.008 0-12.71-5.702-12.71-12.711v-56.569c0-7.003 5.702-12.7 12.71-12.7h79.58c4.143 0 7.5-3.357 7.5-7.5s-3.357-7.5-7.5-7.5h-61.98v-15.879c0-3.575 1.518-7.003 4.165-9.405l124.697-113.187c1.565-1.422 2.459-3.438 2.459-5.554v-96.975c0-4.143-3.357-7.5-7.5-7.5s-7.5 3.357-7.5 7.5v93.654l-122.239 110.954c-5.772 5.239-9.083 12.716-9.083 20.513v15.879h-2.6c-15.279 0-27.71 12.426-27.71 27.7v56.569c0 15.28 12.431 27.711 27.71 27.711h318.91c4.143 0 7.5-3.357 7.5-7.5s-3.357-7.5-7.499-7.5z"/><path d="m458.03 248.5h-2.601v-15.88c0-7.801-3.31-15.277-9.079-20.514l-122.24-110.947v-32.709c0-4.143-3.357-7.5-7.5-7.5s-7.5 3.357-7.5 7.5v36.03c0 2.115.894 4.132 2.459 5.554l124.7 113.18c2.644 2.399 4.16 5.828 4.16 9.406v15.88h-271.879c-4.143 0-7.5 3.357-7.5 7.5s3.357 7.5 7.5 7.5h289.48c7.009 0 12.71 5.697 12.71 12.7v56.569c0 7.009-5.701 12.711-12.71 12.711h-50.15c-4.143 0-7.5 3.357-7.5 7.5s3.357 7.5 7.5 7.5h50.15c15.279 0 27.71-12.431 27.71-27.711v-56.569c0-15.274-12.43-27.7-27.71-27.7z"/><path d="m58.59 296.406v16.163c0 8.592 6.989 15.581 15.581 15.581h173.748c8.592 0 15.581-6.989 15.581-15.581v-16.163c0-8.592-6.989-15.581-15.581-15.581h-173.748c-8.592 0-15.581 6.989-15.581 15.581zm189.91 0v16.163c0 .32-.261.581-.581.581h-173.748c-.32 0-.581-.261-.581-.581v-16.163c0-.32.261-.581.581-.581h173.748c.32 0 .581.261.581.581z"/><path d="m429.748 328.15c13.047 0 23.662-10.615 23.662-23.662 0-13.048-10.615-23.663-23.662-23.663-13.048 0-23.663 10.615-23.663 23.663 0 13.047 10.615 23.662 23.663 23.662zm0-32.325c4.776 0 8.662 3.887 8.662 8.663s-3.886 8.662-8.662 8.662-8.663-3.886-8.663-8.662 3.887-8.663 8.663-8.663z"/><path d="m365.098 280.825c-13.048 0-23.663 10.615-23.663 23.663 0 13.047 10.615 23.662 23.663 23.662 13.047 0 23.662-10.615 23.662-23.662 0-13.048-10.615-23.663-23.662-23.663zm0 32.325c-4.776 0-8.663-3.886-8.663-8.662s3.887-8.663 8.663-8.663 8.662 3.887 8.662 8.663-3.886 8.662-8.662 8.662z"/><path d="m316.61 40.95c4.143 0 7.5-3.357 7.5-7.5v-25.95c0-4.143-3.357-7.5-7.5-7.5s-7.5 3.357-7.5 7.5v25.95c0 4.143 3.358 7.5 7.5 7.5z"/><path d="m358.044 410.021c3.382-3.1 8.492-7.785 8.492-16.64 0-4.143-3.357-7.5-7.5-7.5s-7.5 3.357-7.5 7.5c0 2.049-.688 2.887-3.629 5.583-3.382 3.1-8.492 7.785-8.492 16.64s5.11 13.539 8.492 16.639c2.941 2.696 3.629 3.534 3.629 5.583s-.688 2.887-3.629 5.583c-3.382 3.1-8.492 7.785-8.492 16.64s5.11 13.54 8.492 16.641c2.941 2.696 3.629 3.535 3.629 5.585 0 2.049-.688 2.888-3.629 5.584-3.382 3.101-8.492 7.786-8.492 16.642 0 4.143 3.357 7.5 7.5 7.5s7.5-3.357 7.5-7.5c0-2.05.688-2.889 3.629-5.585 3.382-3.101 8.492-7.786 8.492-16.641s-5.11-13.541-8.492-16.642c-2.941-2.696-3.629-3.535-3.629-5.584s.688-2.887 3.629-5.583c3.382-3.1 8.492-7.785 8.492-16.64s-5.111-13.54-8.493-16.64c-2.94-2.696-3.628-3.534-3.628-5.582s.688-2.886 3.629-5.583z"/><path d="m293.394 410.021c3.382-3.1 8.492-7.785 8.492-16.64 0-4.143-3.357-7.5-7.5-7.5s-7.5 3.357-7.5 7.5c0 2.049-.688 2.887-3.629 5.583-3.382 3.1-8.492 7.785-8.492 16.64s5.11 13.539 8.492 16.639c2.941 2.696 3.629 3.534 3.629 5.583s-.688 2.887-3.629 5.583c-3.382 3.1-8.492 7.785-8.492 16.64s5.11 13.54 8.492 16.641c2.941 2.696 3.629 3.535 3.629 5.585 0 2.049-.688 2.888-3.629 5.584-3.382 3.101-8.492 7.786-8.492 16.642 0 4.143 3.357 7.5 7.5 7.5s7.5-3.357 7.5-7.5c0-2.05.688-2.889 3.629-5.585 3.382-3.101 8.492-7.786 8.492-16.641s-5.11-13.541-8.492-16.642c-2.941-2.696-3.629-3.535-3.629-5.584s.688-2.887 3.629-5.583c3.382-3.1 8.492-7.785 8.492-16.64s-5.111-13.54-8.493-16.64c-2.94-2.696-3.628-3.534-3.628-5.582s.687-2.886 3.629-5.583z"/><path d="m228.743 410.021c3.382-3.1 8.492-7.785 8.492-16.64 0-4.143-3.357-7.5-7.5-7.5s-7.5 3.357-7.5 7.5c0 2.049-.688 2.887-3.629 5.583-3.382 3.1-8.492 7.785-8.492 16.64s5.11 13.539 8.492 16.639c2.941 2.696 3.629 3.534 3.629 5.583s-.688 2.887-3.629 5.583c-3.382 3.1-8.492 7.785-8.492 16.64s5.11 13.54 8.492 16.641c2.941 2.696 3.629 3.535 3.629 5.585 0 2.049-.688 2.888-3.629 5.584-3.382 3.101-8.492 7.786-8.492 16.642 0 4.143 3.357 7.5 7.5 7.5s7.5-3.357 7.5-7.5c0-2.05.688-2.889 3.629-5.585 3.382-3.101 8.492-7.786 8.492-16.641s-5.11-13.541-8.492-16.642c-2.941-2.696-3.629-3.535-3.629-5.584s.688-2.887 3.629-5.583c3.382-3.1 8.492-7.785 8.492-16.64s-5.111-13.54-8.493-16.64c-2.94-2.696-3.628-3.534-3.628-5.582s.688-2.886 3.629-5.583z"/><path d="m164.093 410.021c3.382-3.1 8.492-7.785 8.492-16.64 0-4.143-3.357-7.5-7.5-7.5s-7.5 3.357-7.5 7.5c0 2.049-.688 2.887-3.629 5.583-3.382 3.1-8.492 7.785-8.492 16.64s5.11 13.539 8.492 16.639c2.941 2.696 3.629 3.534 3.629 5.583s-.688 2.887-3.629 5.583c-3.382 3.1-8.492 7.785-8.492 16.64s5.11 13.54 8.492 16.641c2.941 2.696 3.629 3.535 3.629 5.585 0 2.049-.688 2.888-3.629 5.584-3.382 3.101-8.492 7.786-8.492 16.642 0 4.143 3.357 7.5 7.5 7.5s7.5-3.357 7.5-7.5c0-2.05.688-2.889 3.629-5.585 3.382-3.101 8.492-7.786 8.492-16.641s-5.11-13.541-8.492-16.642c-2.941-2.696-3.629-3.535-3.629-5.584s.688-2.887 3.629-5.583c3.382-3.1 8.492-7.785 8.492-16.64s-5.111-13.54-8.493-16.64c-2.94-2.696-3.628-3.534-3.628-5.582s.687-2.886 3.629-5.583z"/></g></g></svg>