<svg id="Capa_1" enable-background="new 0 0 512 512" height="512" viewBox="0 0 512 512" width="512" xmlns="http://www.w3.org/2000/svg"><g><g><path d="m272 120.872h-25.468v103.83 40.798 146.331c0 3.131 2.085 5.669 4.657 5.669h15.332c2.572 0 4.657-2.538 4.657-5.669v-142.265c.396-1.295.682-2.655.822-4.066z" fill="#ffe07d"/><g><path d="m423.277 430.468-335.043-1.968c-11.046 0-20-8.954-20-20l-1.702-72.819h28.468v62.819c0 2.209 1.791 4 4 4h314c.552 0 1.078-.112 1.557-.314 1.436-.607 3.89-2.029 3.89-3.686l.766-62.819h27.787v76.819c0 2.071-.315 4.069-.899 5.947 0 0-13.85 12.021-22.824 12.021z" fill="#ffe07d"/></g><g fill="#ffd064"><path d="m80.145 398.546-.145-62.866h-15v76.82c0 11.046 8.954 20 20 20h342c8.96 0 16.561-5.933 19.101-14.053l-345.956.053c-11.027 0-19.974-8.926-20-19.954z"/><path d="m432 335.68v62.82c0 2.21-1.79 4-4 4h-15c2.21 0 4-1.79 4-4v-62.82z"/></g><g><path d="m261 417.5h-15c-2.76 0-5-2.24-5-5v-291.63h15v291.63c0 2.76 2.24 5 5 5z" fill="#ffd064"/></g><g><path d="m320.702 342.191-128.128-2.426c-2.43 0-4.29-2.14-3.96-4.55l-.974-20.715 69.275-4.862 67.445 4.862 2.207 16-1.905 7.141c.33 2.41-1.53 4.55-3.96 4.55z" fill="#ddebfd"/><path d="m324.36 314.5h-132.977l13.957-109.202c.28-1.98 1.97-3.45 3.97-3.45l8.32-2.348h87.38c2 0 3.69 1.47 3.97 3.45z" fill="#cde2ff"/><path d="m323.91 344.5h-135.82c-2.43 0-4.29-2.14-3.96-4.55l3.51-25.45 7.488-7.585 6.652 7.585-.64 4.632c-.83 6.01 3.839 11.368 9.906 11.368h115.52l1.303 9.45c.331 2.41-1.529 4.55-3.959 4.55z" fill="#cde2ff"/><path d="m217.63 199.5-15.85 115h-14.14l15.38-111.55c.28-1.98 1.97-3.45 3.97-3.45z" fill="#bed9fd"/></g><path d="m296.915 127.34-82.319.915c-2.761 0-5-2.239-5-5l-.272-23.755 47.266-6.372 46.91 6.372v17l-1.585 5.84c0 2.762-2.239 5-5 5z" fill="#ffd064"/><path d="m303.5 116.5v8c0 2.761-2.239 5-5 5h-85c-2.761 0-5-2.239-5-5v-25l6.883-4.5 6.117 4.5v7c0 5.523 4.477 10 10 10z" fill="#edc258"/><path d="m337.649 98.84-162.862-1.117c-2.761 0-5-2.239-5-5l-.106-16.191c0-2.761 2.239-5 5-5l7.819-2.032h156c2.761 0 5 2.239 5 5v11l-.851 8.34c0 2.762-2.239 5-5 5z" fill="#ffd064"/><path d="m343.5 85.5v9c0 2.761-2.239 5-5 5h-165c-2.761 0-5-2.239-5-5v-20c0-2.761 2.239-5 5-5h9v6c0 5.523 4.477 10 10 10z" fill="#edc258"/><g><path d="m320.078 440.367-129.206 1.016c-2.761 0-5-2.239-5-5l-1.372-17.883v-21c0-2.761 2.239-5 5-5h133c2.761 0 5 2.239 5 5v21l-2.422 16.867c0 2.762-2.238 5-5 5z" fill="#ffd064"/></g><g><path d="m327.5 418.5v19c0 2.76-2.24 5-5 5h-133c-2.76 0-5-2.24-5-5v-19z" fill="#edc258"/></g><g><path d="m496.702 342.191-128.128-2.426c-2.43 0-4.29-2.14-3.96-4.55l-.974-20.715 69.275-4.862 67.445 4.862 2.207 16-1.905 7.141c.33 2.41-1.53 4.55-3.96 4.55z" fill="#ddebfd"/><path d="m500.36 314.5h-132.977l13.957-109.202c.28-1.98 1.97-3.45 3.97-3.45l8.32-2.348h87.38c2 0 3.69 1.47 3.97 3.45z" fill="#cde2ff"/><path d="m499.91 344.5h-135.82c-2.43 0-4.29-2.14-3.96-4.55l3.51-25.45 7.488-7.585 6.652 7.585-.64 4.632c-.83 6.01 3.839 11.368 9.906 11.368h115.521l1.303 9.45c.33 2.41-1.53 4.55-3.96 4.55z" fill="#cde2ff"/><path d="m393.63 199.5-15.85 115h-14.14l15.38-111.55c.28-1.98 1.97-3.45 3.97-3.45z" fill="#bed9fd"/></g><g><path d="m144.702 342.191-128.128-2.426c-2.43 0-4.29-2.14-3.96-4.55l-.974-20.715 69.275-4.862 67.445 4.862 2.207 16-1.905 7.141c.33 2.41-1.53 4.55-3.96 4.55z" fill="#ddebfd"/><path d="m148.36 314.5h-132.977l13.957-109.202c.28-1.98 1.97-3.45 3.97-3.45l8.32-2.348h87.38c2 0 3.69 1.47 3.97 3.45z" fill="#cde2ff"/><path d="m147.91 344.5h-135.82c-2.43 0-4.29-2.14-3.96-4.55l3.51-25.45 7.488-7.585 6.652 7.585-.64 4.632c-.83 6.01 3.839 11.368 9.906 11.368h115.521l1.303 9.45c.33 2.41-1.53 4.55-3.96 4.55z" fill="#cde2ff"/><path d="m41.63 199.5-15.85 115h-14.14l15.38-111.55c.28-1.98 1.97-3.45 3.97-3.45z" fill="#bed9fd"/></g></g><path d="m511.93 343.475-20-145c-.512-3.711-3.684-6.475-7.43-6.475h-105c-3.746 0-6.918 2.764-7.43 6.475l-20 145c-.296 2.147.352 4.318 1.775 5.953 1.425 1.634 3.486 2.572 5.654 2.572h50v43h-74.752c-1.161-5.699-6.211-10-12.248-10h-44v-33h50c2.168 0 4.229-.938 5.654-2.572 1.424-1.634 2.071-3.805 1.775-5.953l-20-145c-.512-3.711-3.684-6.475-7.43-6.475h-30v-55h20c6.893 0 12.5-5.607 12.5-12.5v-17.5h27.5c6.893 0 12.5-5.607 12.5-12.5v-20c0-6.893-5.607-12.5-12.5-12.5h-90.67c-4.143 0-7.5 3.358-7.5 7.5s3.357 7.5 7.5 7.5h88.172v15h-160v-15h36.83c4.143 0 7.5-3.358 7.5-7.5s-3.357-7.5-7.5-7.5h-39.33c-6.893 0-12.5 5.607-12.5 12.5v20c0 6.893 5.607 12.5 12.5 12.5h27.5v17.5c0 6.893 5.607 12.5 12.5 12.5h20v55h-30c-3.746 0-6.918 2.764-7.43 6.475l-20 145c-.296 2.147.352 4.318 1.775 5.953 1.425 1.634 3.486 2.572 5.654 2.572h50v33h-44c-6.037 0-11.087 4.301-12.248 10h-74.751v-43h50c2.168 0 4.229-.938 5.654-2.572 1.424-1.634 2.071-3.805 1.775-5.953l-9.509-68.937c-.567-4.104-4.367-6.968-8.454-6.405-4.104.566-6.972 4.351-6.405 8.455l4.195 30.412h-119.513l13.793-100h91.928l4.789 34.723c.566 4.104 4.356 6.967 8.454 6.405 4.104-.566 6.972-4.351 6.405-8.455l-5.683-41.198c-.512-3.711-3.684-6.475-7.43-6.475h-105c-3.746 0-6.918 2.764-7.43 6.475l-20 145c-.296 2.147.352 4.318 1.775 5.953 1.426 1.634 3.488 2.572 5.656 2.572h50v60.5c0 15.164 12.337 27.5 27.5 27.5h92.252c1.161 5.699 6.211 10 12.248 10h24.776c4.143 0 7.5-3.358 7.5-7.5s-3.357-7.5-7.5-7.5h-22.276v-35h41.5v12.5c0 6.893 5.607 12.5 12.5 12.5h20c6.893 0 12.5-5.607 12.5-12.5v-12.5h41.5v35h-69.724c-4.143 0-7.5 3.358-7.5 7.5s3.357 7.5 7.5 7.5h72.224c6.037 0 11.087-4.301 12.248-10h92.252c15.163 0 27.5-12.336 27.5-27.5v-60.5h50c2.168 0 4.229-.938 5.654-2.572 1.424-1.635 2.072-3.805 1.776-5.953zm-493.756-21.475h123.651l2.069 15h-127.789zm54.326 90.5v-60.5h15v50.5c0 4.142 3.357 7.5 7.5 7.5h82v15h-92c-6.893 0-12.5-5.607-12.5-12.5zm143.5-305.5h80v15h-80zm32.5 30h15v55h-15zm-38.464 70h91.928l13.793 100h-119.514zm-15.862 115h123.651l2.069 15h-127.789zm54.326 88v-58h15v58zm191 2.5c0 6.893-5.607 12.5-12.5 12.5h-92v-15h82c4.143 0 7.5-3.358 7.5-7.5v-50.5h15zm-71.395-75.5 2.069-15h46.826c4.143 0 7.5-3.358 7.5-7.5s-3.357-7.5-7.5-7.5h-44.757l13.793-100h91.928l13.793 100h-39.757c-4.143 0-7.5 3.358-7.5 7.5s3.357 7.5 7.5 7.5h41.826l2.069 15z"/></g></svg>