<svg id="Capa_1" enable-background="new 0 0 511.999 511.999" height="512" viewBox="0 0 511.999 511.999" width="512" xmlns="http://www.w3.org/2000/svg"><g><g><path d="m370.361 70.639v409.31c0 13.56-10.99 24.55-24.55 24.55h-235.64c-13.56 0-24.55-10.99-24.55-24.55v-409.31c0-13.56 10.99-24.55 24.55-24.55h235.64c13.56 0 24.55 10.99 24.55 24.55z" fill="#c9bfc8"/><path d="m370.361 70.639v174.76c-6.47 2.55-13.42 3.89-20.58 3.89-.01 0-.01 0-.01 0-1.18 0-2.38-.04-3.57-.11-27.76-1.75-50.24-23.99-52.28-51.73-1-13.55 3-26.83 10.85-37.47v-107.48c0-2.18.16-4.32.46-6.41h40.58c13.56 0 24.55 10.99 24.55 24.55z" fill="#baafb9"/><path d="m345.807 46.089h-45.98c13.56 0 24.553 10.993 24.553 24.553v409.303c0 13.56-10.993 24.553-24.553 24.553h45.98c13.56 0 24.553-10.993 24.553-24.553v-409.303c0-13.56-10.992-24.553-24.553-24.553z" fill="#baafb9"/><path d="m116.621 77.099h222.73v367.62h-222.73z" fill="#eaf9fa"/><path d="m339.351 77.099v171.21c-24.53-4.64-43.56-25.44-45.43-50.86-1-13.55 3-26.83 10.85-37.47v-82.88z" fill="#d2f6f9"/><path d="m324.38 77.097h14.972v367.621h-14.972z" fill="#d2f6f9"/><g><g><g><path d="m273.364 331.318-40.427-28.037c-2.969-2.059-6.903-2.059-9.872 0l-40.426 28.037c-2.454 1.702-3.917 4.498-3.917 7.484 0 5.03 4.077 9.107 9.107 9.107h6.489v40.429c0 3.603 2.921 6.524 6.524 6.524h54.318c3.603 0 6.524-2.921 6.524-6.524v-40.429h6.489c5.03 0 9.107-4.077 9.107-9.107.001-2.986-1.463-5.782-3.916-7.484z" fill="#6c7fd8"/></g></g></g><g><path d="m370.358 249.288c-1.185 0-2.385-.038-3.568-.113-27.765-1.75-50.241-23.986-52.282-51.724-.998-13.554 3.001-26.833 10.852-37.472v-107.479c0-24.813 20.187-45 45-45s45 20.187 45 45v107.435c7.057 9.517 11.005 21.161 11.005 33.349 0 14.959-5.825 29.023-16.403 39.602-10.577 10.578-24.642 16.403-39.601 16.403-.002-.001-.002-.001-.003-.001z" fill="#6bd9e7"/><path d="m370.358 249.288c-1.185 0-2.385-.038-3.568-.113-27.765-1.75-50.241-23.986-52.282-51.724-.998-13.554 3.001-26.833 10.852-37.472v-107.479c0-24.813 20.187-45 45-45s45 20.187 45 45v107.435c7.057 9.517 11.005 21.161 11.005 33.349 0 14.959-5.825 29.023-16.403 39.602-10.577 10.578-24.642 16.403-39.601 16.403-.002-.001-.002-.001-.003-.001z" fill="#6bd9e7"/><path d="m415.359 159.935v-107.435c0-24.813-20.187-45-45-45-3.26 0-6.436.357-9.5 1.018 20.265 4.373 35.5 22.428 35.5 43.982v107.435c7.057 9.517 11.005 21.161 11.005 33.349 0 14.959-5.825 29.023-16.403 39.602-8.298 8.298-18.746 13.655-30.084 15.586 1.941.334 3.912.578 5.914.704 1.184.075 2.384.113 3.568.113h.002c14.959 0 29.023-5.826 39.601-16.403 10.578-10.578 16.403-24.642 16.403-39.602-.001-12.188-3.949-23.832-11.006-33.349z" fill="#2ed1e2"/><path d="m384.361 52.498v75.9h-28v-75.9c0-3.86 1.57-7.36 4.1-9.9 2.54-2.53 6.04-4.1 9.9-4.1 7.73 0 14 6.27 14 14z" fill="#6c7fd8"/><path d="m395.361 193.288c0 14.34-12.08 25.87-26.62 24.95-12.34-.78-22.41-10.74-23.32-23.06-.69-9.4 3.82-17.79 10.94-22.61v-44.17h28v44.17c6.64 4.49 11 12.09 11 20.72z" fill="#f28cc4"/></g></g><g><path d="m346.851 444.719v-192.459c6.09 2.443 12.636 3.97 19.466 4.4 34.996 3.141 68.339-27.62 67.547-63.377 0-12.875-3.797-25.179-11.005-35.742v-105.041c0-28.949-23.552-52.5-52.5-52.5-24.132 0-44.501 16.372-50.615 38.589h-209.573c-17.672 0-32.05 14.377-32.05 32.05v409.31c0 17.672 14.377 32.05 32.05 32.05h235.64c17.673 0 32.051-14.378 32.051-32.05v-195.593c0-4.142-3.357-7.5-7.5-7.5s-7.5 3.358-7.5 7.5v195.593c0 9.401-7.649 17.05-17.051 17.05h-235.64c-9.401 0-17.05-7.649-17.05-17.05v-409.31c0-9.401 7.648-17.05 17.05-17.05h207.688v104.008c-8.048 11.864-11.884 26.113-10.831 40.405 1.367 18.582 10.824 34.982 24.823 45.707v193.51h-207.73v-352.62h166.157c4.143 0 7.5-3.358 7.5-7.5s-3.357-7.5-7.5-7.5h-173.657c-4.142 0-7.5 3.358-7.5 7.5v367.62c0 4.142 3.358 7.5 7.5 7.5h222.729c4.144 0 7.501-3.358 7.501-7.5zm-24.864-247.818c-.852-11.562 2.489-23.093 9.407-32.468.951-1.29 1.465-2.851 1.465-4.453v-107.48c0-20.678 16.822-37.5 37.5-37.5s37.5 16.822 37.5 37.5v107.435c0 1.609.518 3.175 1.476 4.467 6.234 8.408 9.529 18.396 9.529 28.882.495 26.382-23.831 50.803-51.603 48.407-24.043-1.516-43.507-20.771-45.274-44.79z"/><path d="m200.842 402.363h54.318c7.733 0 14.025-6.292 14.025-14.024v-32.959c8.688-.525 15.596-7.759 15.596-16.577 0-5.443-2.67-10.544-7.143-13.646l-40.427-28.037c-5.508-3.82-12.911-3.82-18.42 0l-40.426 28.037c-4.473 3.102-7.144 8.204-7.144 13.647 0 8.818 6.908 16.053 15.596 16.577v32.959c.001 7.731 6.292 14.023 14.025 14.023zm-14.62-63.561c0-.527.259-1.021.691-1.321l40.426-28.037c.396-.274.928-.274 1.324 0l40.426 28.036c.433.3.691.794.691 1.321 0 .886-.721 1.607-1.607 1.607h-6.488c-4.143 0-7.5 3.358-7.5 7.5v39.454h-52.367v-39.454c0-4.142-3.358-7.5-7.5-7.5h-6.489c-.886.001-1.607-.72-1.607-1.606z"/><path d="m228.001 365.92c4.142 0 7.5-3.358 7.5-7.5v-10.12c0-4.142-3.358-7.5-7.5-7.5s-7.5 3.358-7.5 7.5v10.12c0 4.142 3.358 7.5 7.5 7.5z"/><path d="m207.045 467.681c-4.142 0-7.5 3.358-7.5 7.5s3.358 7.5 7.5 7.5h41.887c4.142 0 7.5-3.358 7.5-7.5s-3.358-7.5-7.5-7.5z"/><path d="m368.268 225.723c17.029 1.615 35.029-13.679 34.594-32.435 0-9.407-4.049-18.253-11-24.381v-116.409c0-11.855-9.645-21.5-21.5-21.5-5.728 0-11.123 2.232-15.214 6.307-4.054 4.069-6.286 9.465-6.286 15.193v116.416c-7.548 6.677-11.67 16.61-10.92 26.817 1.187 16.08 14.225 28.974 30.326 29.992zm14.065-19.67c-3.56 3.341-8.226 5.012-13.118 4.7-8.662-.548-15.676-7.481-16.314-16.125-.467-6.359 2.398-12.285 7.665-15.85 2.062-1.396 3.296-3.722 3.296-6.211v-36.67h13v36.67c0 2.49 1.236 4.818 3.299 6.213 4.822 3.261 7.701 8.684 7.701 14.507 0 4.886-1.964 9.419-5.529 12.766zm-18.471-153.555c0-1.732.68-3.368 1.893-4.586 1.239-1.234 2.875-1.914 4.607-1.914 3.584 0 6.5 2.916 6.5 6.5v68.4h-13z"/><path d="m218.077 125.043c4.142 0 7.5-3.358 7.5-7.5s-3.358-7.5-7.5-7.5h-31.068c-4.142 0-7.5 3.358-7.5 7.5v76.654c0 4.142 3.358 7.5 7.5 7.5s7.5-3.358 7.5-7.5v-31.553h21.101c4.142 0 7.5-3.358 7.5-7.5s-3.358-7.5-7.5-7.5h-21.101v-22.601z"/><path d="m188.217 242.834c0-4.142-3.358-7.5-7.5-7.5h-28.183c-4.142 0-7.5 3.358-7.5 7.5s3.358 7.5 7.5 7.5h28.183c4.142 0 7.5-3.357 7.5-7.5z"/><circle cx="152.533" cy="117.543" r="7.5"/><circle cx="152.533" cy="272.909" r="7.5"/></g></g></svg>