<svg id="Capa_1" enable-background="new 0 0 512 512" height="512" viewBox="0 0 512 512" width="512" xmlns="http://www.w3.org/2000/svg"><g><g><path d="m7.5 94.374h183.85v323.252h-183.85z" fill="#cbcbcb"/></g><g><path d="m168.478 180.256 6.632-9.948c6.659-9.989 10.179-21.615 10.179-33.619v-42.315h-171.728v42.314c0 12.005 3.52 23.63 10.18 33.621l6.63 9.944c2.22 3.33 3.394 7.206 3.394 11.208v129.076c0 4.002-1.173 7.878-3.393 11.207l-6.632 9.948c-6.659 9.989-10.179 21.615-10.179 33.619v42.314h171.728v-42.314c0-12.005-3.52-23.63-10.18-33.621l-6.63-9.944c-2.22-3.33-3.394-7.206-3.394-11.208v-129.076c0-4.002 1.174-7.878 3.393-11.206z" fill="#ababab"/></g><g><path d="m191.35 114.577h30.305v282.846h-30.305z" fill="#434343"/></g><g><path d="m221.654 94.374h282.846v323.252h-282.846z" fill="#cbcbcb"/></g><g><path d="m489.348 94.374v297.998c0 5.579-4.523 10.102-10.102 10.102h-257.592v15.152h282.846v-323.252z" fill="#ababab"/></g><g><path d="m251.959 124.679h222.236v202.033h-222.236z" fill="#595959"/></g><g><path d="m282.264 154.984h161.626v141.423h-161.626z" fill="#9dc6fb"/></g><g><path d="m423.687 154.984h20.203v141.423h-20.203z" fill="#80b4fb"/></g><g><path d="m144.882 191.462c0-7.977 2.361-15.776 6.786-22.414l6.631-9.946c4.425-6.637 6.786-14.436 6.786-22.413v-82.722c0-11.158-9.045-20.203-20.203-20.203h-90.915c-11.158 0-20.203 9.045-20.203 20.203v82.721c0 7.977 2.361 15.776 6.786 22.413l6.631 9.946c4.425 6.638 6.786 14.436 6.786 22.414v129.076c0 7.977-2.361 15.776-6.786 22.413l-6.631 9.946c-4.425 6.638-6.786 14.436-6.786 22.414v82.721c0 11.158 9.045 20.203 20.203 20.203h90.915c11.158 0 20.203-9.045 20.203-20.203v-82.721c0-7.977-2.361-15.776-6.786-22.414l-6.631-9.946c-4.425-6.637-6.786-14.436-6.786-22.413z" fill="#595959"/></g><g><path d="m481.695 326.711v-202.032c0-4.143-3.358-7.5-7.5-7.5h-222.236c-4.142 0-7.5 3.357-7.5 7.5v202.032c0 4.143 3.358 7.5 7.5 7.5h222.236c4.142 0 7.5-3.357 7.5-7.5zm-15-7.5h-207.236v-187.032h207.236z"/><path d="m282.264 303.906h161.626c4.142 0 7.5-3.357 7.5-7.5v-141.423c0-4.143-3.358-7.5-7.5-7.5h-161.626c-4.142 0-7.5 3.357-7.5 7.5v141.423c0 4.143 3.358 7.5 7.5 7.5zm7.5-141.423h146.626v126.423h-146.626z"/><path d="m504.5 86.874h-57.857c-4.142 0-7.5 3.357-7.5 7.5s3.358 7.5 7.5 7.5h50.357v308.252h-195c-4.142 0-7.5 3.357-7.5 7.5s3.358 7.5 7.5 7.5h202.5c4.142 0 7.5-3.357 7.5-7.5v-323.252c0-4.143-3.358-7.5-7.5-7.5z"/><path d="m266.958 410.126h-37.803v-308.252h182.345c4.142 0 7.5-3.357 7.5-7.5s-3.358-7.5-7.5-7.5h-189.846c-4.142 0-7.5 3.357-7.5 7.5v12.703h-15.304v-12.703c0-4.143-3.358-7.5-7.5-7.5h-18.764v-32.906c0-15.275-12.428-27.703-27.703-27.703h-90.916c-15.275 0-27.703 12.428-27.703 27.703v32.906h-18.764c-4.142 0-7.5 3.357-7.5 7.5v323.252c0 4.143 3.358 7.5 7.5 7.5h18.764v32.906c0 15.275 12.428 27.703 27.703 27.703h90.915c15.275 0 27.703-12.428 27.703-27.703v-32.906h18.764c4.142 0 7.5-3.357 7.5-7.5v-12.703h15.305v12.703c0 4.143 3.358 7.5 7.5 7.5h45.303c4.142 0 7.5-3.357 7.5-7.5s-3.357-7.5-7.499-7.5zm-109.373 47.906c0 7.005-5.699 12.703-12.703 12.703h-90.915c-7.004 0-12.703-5.698-12.703-12.703v-82.721c0-6.519 1.911-12.83 5.526-18.254l6.631-9.945c5.263-7.896 8.045-17.085 8.045-26.574v-47.538c0-4.143-3.358-7.5-7.5-7.5s-7.5 3.357-7.5 7.5v47.538c0 6.519-1.911 12.83-5.526 18.254l-6.631 9.945c-5.263 7.896-8.045 17.085-8.045 26.574v34.814h-11.264v-308.251h11.264v34.814c0 9.489 2.782 18.679 8.046 26.574l6.63 9.945c3.616 5.424 5.527 11.735 5.527 18.254v46.508c0 4.143 3.358 7.5 7.5 7.5s7.5-3.357 7.5-7.5v-46.508c0-9.489-2.782-18.679-8.046-26.574l-6.63-9.945c-3.616-5.424-5.527-11.735-5.527-18.254v-82.72c0-7.005 5.699-12.703 12.703-12.703h90.915c7.004 0 12.703 5.698 12.703 12.703v82.721c0 6.519-1.911 12.83-5.526 18.254l-6.631 9.945c-5.264 7.895-8.046 17.084-8.046 26.574v129.076c0 9.49 2.782 18.68 8.046 26.574l6.63 9.945c3.616 5.424 5.527 11.735 5.527 18.254zm26.265-47.906h-11.264v-34.814c0-9.489-2.782-18.679-8.046-26.574l-6.631-9.945c-3.615-5.423-5.526-11.735-5.526-18.254v-129.077c0-6.519 1.911-12.831 5.526-18.254l6.631-9.945c5.263-7.896 8.045-17.085 8.045-26.574v-34.814h11.264v308.251zm15-20.203v-267.846h15.305v267.846z"/><path d="m119.628 76.772h-40.406c-4.142 0-7.5 3.357-7.5 7.5s3.358 7.5 7.5 7.5h40.406c4.142 0 7.5-3.357 7.5-7.5s-3.358-7.5-7.5-7.5z"/><path d="m89.323 118.036h20.203c4.142 0 7.5-3.357 7.5-7.5s-3.358-7.5-7.5-7.5h-20.203c-4.142 0-7.5 3.357-7.5 7.5s3.358 7.5 7.5 7.5z"/><path d="m119.628 420.228h-40.406c-4.142 0-7.5 3.357-7.5 7.5s3.358 7.5 7.5 7.5h40.406c4.142 0 7.5-3.357 7.5-7.5s-3.358-7.5-7.5-7.5z"/><path d="m89.323 408.964h20.203c4.142 0 7.5-3.357 7.5-7.5s-3.358-7.5-7.5-7.5h-20.203c-4.142 0-7.5 3.357-7.5 7.5s3.358 7.5 7.5 7.5z"/><path d="m408.105 360.047v20.203c0 4.143 3.358 7.5 7.5 7.5s7.5-3.357 7.5-7.5v-20.203c0-4.143-3.358-7.5-7.5-7.5s-7.5 3.357-7.5 7.5z"/><path d="m381.841 360.047v20.203c0 4.143 3.358 7.5 7.5 7.5s7.5-3.357 7.5-7.5v-20.203c0-4.143-3.358-7.5-7.5-7.5s-7.5 3.357-7.5 7.5z"/><path d="m355.577 360.047v20.203c0 4.143 3.358 7.5 7.5 7.5s7.5-3.357 7.5-7.5v-20.203c0-4.143-3.358-7.5-7.5-7.5s-7.5 3.357-7.5 7.5z"/><path d="m303.049 360.047v20.203c0 4.143 3.358 7.5 7.5 7.5s7.5-3.357 7.5-7.5v-20.203c0-4.143-3.358-7.5-7.5-7.5s-7.5 3.357-7.5 7.5z"/><path d="m329.313 360.047v20.203c0 4.143 3.358 7.5 7.5 7.5s7.5-3.357 7.5-7.5v-20.203c0-4.143-3.358-7.5-7.5-7.5s-7.5 3.357-7.5 7.5z"/></g></g></svg>